<svg id="Layer_1" data-name="Layer 1" xmlns="http://www.w3.org/2000/svg" viewBox="0 0 1920 1080"><defs><style>.cls-1{font-size:47.12px;}.cls-1,.cls-30{fill:#313b43;}.cls-1,.cls-12{font-family:Montserrat-Regular, Montserrat;}.cls-2{letter-spacing:-0.01em;}.cls-3{opacity:0.25;}.cls-24,.cls-25,.cls-26,.cls-27,.cls-28,.cls-35,.cls-4{fill:#5fa2f4;}.cls-5{font-size:60.64px;}.cls-32,.cls-5{fill:#415973;}.cls-21,.cls-35,.cls-5{font-family:YuGothicUI-Bold, Yu Gothic UI;font-weight:700;}.cls-6{letter-spacing:0em;}.cls-7{letter-spacing:0.01em;}.cls-8{letter-spacing:0em;}.cls-9{letter-spacing:0.03em;}.cls-10{letter-spacing:-0.07em;}.cls-11{letter-spacing:-0.07em;}.cls-12{font-size:24px;}.cls-12,.cls-21,.cls-36,.cls-37,.cls-38,.cls-39,.cls-43,.cls-44{fill:#202020;}.cls-13{letter-spacing:-0.01em;}.cls-14{letter-spacing:-0.03em;}.cls-15{letter-spacing:-0.01em;}.cls-16{letter-spacing:-0.01em;}.cls-17{letter-spacing:0em;}.cls-18{letter-spacing:-0.01em;}.cls-19{letter-spacing:-0.01em;}.cls-20{letter-spacing:-0.01em;}.cls-21,.cls-35{font-size:48px;}.cls-22{letter-spacing:-0.02em;}.cls-23{letter-spacing:-0.01em;}.cls-24{letter-spacing:-0.03em;}.cls-25{letter-spacing:-0.1em;}.cls-26{letter-spacing:-0.09em;}.cls-27{letter-spacing:0.03em;}.cls-28{letter-spacing:0.02em;}.cls-29{letter-spacing:-0.07em;}.cls-31{opacity:0.6;}.cls-33{letter-spacing:-0.01em;}.cls-34{letter-spacing:-0.01em;}.cls-36{letter-spacing:-0.04em;}.cls-38{letter-spacing:0em;}.cls-39{letter-spacing:0.01em;}.cls-40{letter-spacing:-0.11em;}.cls-41{letter-spacing:-0.05em;}.cls-42{letter-spacing:0em;}.cls-43{letter-spacing:-0.12em;}.cls-44{letter-spacing:-0.17em;}.cls-45{letter-spacing:-0.06em;}.cls-46{letter-spacing:-0.01em;}.cls-47{letter-spacing:0em;}.cls-48{letter-spacing:-0.02em;}.cls-49{letter-spacing:0em;}.cls-50{letter-spacing:-0.01em;}.cls-51{letter-spacing:-0.08em;}.cls-52{letter-spacing:-0.15em;}.cls-53{letter-spacing:-0.1em;}.cls-54{letter-spacing:-0.03em;}.cls-55{letter-spacing:0em;}.cls-56{letter-spacing:-0.04em;}.cls-57{letter-spacing:-0.03em;}.cls-58{letter-spacing:-0.05em;}.cls-59{letter-spacing:-0.04em;}.cls-60{opacity:0.2;}</style></defs><title>Retro style 4.1</title><text class="cls-1" transform="translate(773.12 237.7)">WHY P<tspan class="cls-2" x="160.55" y="0">E</tspan><tspan x="190.89" y="0">OPLE </tspan><tspan x="9.71" y="51.83">CHOOSE US?</tspan></text><g class="cls-3"><path class="cls-4" d="M1188.68,168.58h-498c-2.77,0-5-1.38-5-3.08h0c0-1.71,2.23-3.09,5-3.09h498c2.76,0,5,1.38,5,3.09h0C1193.68,167.2,1191.44,168.58,1188.68,168.58Z"/></g><path class="cls-4" d="M714.47,318.65c-109.61-46-123.54-164.68-84.31-247l-.91-.41c-42.54,88.07-12,171.14,21.09,207.76,55.13,61.18,148.46,54.47,177.84,99.49l3.08-2.31C810.15,344.22,765.71,340.12,714.47,318.65Z"/><path class="cls-4" d="M762.2,333.08c-.75-6-1.28-10.32-2.84-14.63-2.35-6.53-7.47-9.92-14-13.84-2.82,3.48-3.91,6.94-2.13,11.72C746.7,325.57,759.61,331.28,762.2,333.08Z"/><path class="cls-4" d="M734.49,321.12a104.14,104.14,0,0,0,8.85,5.49c-.76-5.79-1.46-10.15-3-14.37-2.27-6.26-7.11-9.63-13.07-13.55-2.71,3.28-3.56,6.83-1.9,11.52C726.93,314.68,730.72,318.37,734.49,321.12Z"/><path class="cls-4" d="M716.32,314.12a78.78,78.78,0,0,0,8.44,5.65,66.59,66.59,0,0,0-2.79-14.2c-2-6.06-6.55-9.55-11.91-13.61-2.7,3-3.4,6.63-2,11.31C709.41,307.6,712.82,311.34,716.32,314.12Z"/><path class="cls-4" d="M698.74,306a64,64,0,0,0,7.91,6c-.2-2.72-.46-5.23-.83-7.55a54.93,54.93,0,0,0-1.43-6.56c-1.69-5.9-5.79-9.62-10.49-13.89C689.82,288.08,689.15,297.19,698.74,306Z"/><path class="cls-4" d="M689.24,302.89c-.08-17.54-4-21.26-10.15-28.36C673.67,279,673.09,290.19,689.24,302.89Z"/><path class="cls-4" d="M672.91,292c1.44-16.59-1.93-21-7-28.7C662,265.74,657.3,276.47,672.91,292Z"/><path class="cls-4" d="M658.08,278.92c3.2-15.81-.08-21.63-3.58-28.88C651.11,251.63,644.5,261.7,658.08,278.92Z"/><path class="cls-4" d="M640.33,252.59a39.66,39.66,0,0,0,4.92,11.09c4.56-14.11,2.55-19.82,1.11-24.9-.53-1.82-1-2.9-1.27-3.94-3.19.95-4.66,5.8-5.3,9.4a19.9,19.9,0,0,0,0,5.56C639.91,250.74,640.1,251.67,640.33,252.59Z"/><path class="cls-4" d="M634.78,246.43c5.73-11.91,4.87-19.22,2.25-29.09C633,218.23,627.31,229.18,634.78,246.43Z"/><path class="cls-4" d="M626.46,227.5c6.78-12,5.57-20.58,4.3-28.38C627,199.65,620.36,211,626.46,227.5Z"/><path class="cls-4" d="M620,207.72c6.86-9.87,7.13-18.25,6.5-27.43C622.92,180.49,615.65,191.12,620,207.72Z"/><path class="cls-4" d="M624.42,161c-2.58-.07-11.54,8.65-8.74,26.3C622.8,178.84,624.28,170.24,624.42,161Z"/><path class="cls-4" d="M613.68,166.52c8.92-8.82,9.84-17.44,10.9-25C622,141.24,612.79,149.62,613.68,166.52Z"/><path class="cls-4" d="M627,122c-2.47-.4-12.08,7.49-12.91,23.65C622.13,139,624.92,131.79,627,122Z"/><path class="cls-4" d="M631.52,102.74c-2.16-.45-12.16,6.06-14.68,22.22C626.26,118.53,629.22,110.17,631.52,102.74Z"/><path class="cls-4" d="M638.05,84c-2.61-.6-12.3,5.74-16.21,20.8C630.2,100,634.73,92.91,638.05,84Z"/><path class="cls-4" d="M646.41,65.91a3.74,3.74,0,0,0-2,.37,18.4,18.4,0,0,0-2.85,1.49c-7.51,4.74-9.91,9.91-12.66,17.53C637.64,81.18,642.43,74.61,646.41,65.91Z"/><path class="cls-4" d="M636.81,62.14c7.29-8.91,14.89-22.82,19.36-33C645.52,36.74,632.93,52.39,632.11,67a10.23,10.23,0,0,0,2-1.71C634.89,64.42,635.82,63.34,636.81,62.14Z"/><path class="cls-4" d="M737,358.26c15.38.48,17.73-2.38,25.5-16.43C748,342.81,732.47,342.88,737,358.26Z"/><path class="cls-4" d="M742.37,335c-2.36.09-10.89-1-17.6.92s-10.38,6.29-8.43,14C732.1,351.3,734.75,348.05,742.37,335Z"/><path class="cls-4" d="M722.26,327.71c-4.5-.15-30-5.1-26.82,12.41C711.31,342.93,714.32,339.74,722.26,327.71Z"/><path class="cls-4" d="M702.45,319.27c-2.75-.38-11.23-2.43-17.26-1.92-6.57.44-11,3.41-10.46,10.88C690.37,332.91,693.77,330.17,702.45,319.27Z"/><path class="cls-4" d="M683.25,309c-8.07-2.17-27.48-10.41-28.39,4.47C669.86,321,674.32,317.82,683.25,309Z"/><path class="cls-4" d="M665.14,296.46c-10.3-4.82-25.43-13.69-28.43-.95C650.36,305.51,655.26,303.51,665.14,296.46Z"/><path class="cls-4" d="M648.78,281.13c-.83-.58-2-1.39-3.35-2.4-.67-.5-1.4-1-2.17-1.56s-1.55-1.12-2.37-1.67c-7.32-4.86-15.62-9.71-19.55-1.17C632.74,287,638.77,285.69,648.78,281.13Z"/><path class="cls-4" d="M634.87,263.05c-9.12-9.55-18.64-20.81-25.25-12.08C619.11,264.77,623.78,265.43,634.87,263.05Z"/><path class="cls-4" d="M623.93,242.68c-6.4-9-15.09-22.87-22.83-15.59C608.28,241,612.73,242.84,623.93,242.68Z"/><path class="cls-4" d="M615.46,221.07c-5.08-9.19-11.78-24.24-20.29-18.93C600.67,217.23,605.29,219.57,615.46,221.07Z"/><path class="cls-4" d="M597.68,191.12a15.25,15.25,0,0,0,1.35,1.73,10.22,10.22,0,0,0,1.5,1.33,29.11,29.11,0,0,0,8.82,4.3c-3.65-9.41-8.49-24.94-17.16-22a56.56,56.56,0,0,0,3.13,10.25A25.9,25.9,0,0,0,597.68,191.12Z"/><path class="cls-4" d="M605.91,175.21c-3.3-14.72-6.08-25-13.5-24.45C593.42,165.49,597,170.31,605.91,175.21Z"/><path class="cls-4" d="M605.36,151.66c-1.27-11.38-1.63-24.68-9.6-26.18C594.85,139.15,597.43,145.29,605.36,151.66Z"/><path class="cls-4" d="M607.68,128.28c.42-13.07,1-23.89-5.67-27.14C599.25,114.48,601.45,121.24,607.68,128.28Z"/><path class="cls-4" d="M612.72,105.45c1.86-11,3.94-22.32-1.87-27.4C607.21,89,607.17,96.49,612.72,105.45Z"/><path class="cls-4" d="M620.25,83.5c2.69-9.73,6.35-20.26,1.69-27.07C617.43,65.67,616.16,74.05,620.25,83.5Z"/><path class="cls-4" d="M1166,323.36c17.64-7.55,34.21-16.53,49.25-29.06,51.54-43,78.55-135.83,35.8-224l-.81.61c44.4,93.45,12.07,191.7-52.21,232.58a218.42,218.42,0,0,1-33.08,17c-11.08,4.63-22,8.46-32.4,12-39.19,13.2-67.93,21.23-83.56,44.88l3.08,2.32C1071.62,349.62,1116.43,344.54,1166,323.36Z"/><path class="cls-4" d="M1119.4,343.12c10.22,12.55,13.11,15.1,28.86,12.91C1150.56,338,1125.09,342.9,1119.4,343.12Z"/><path class="cls-4" d="M1138.35,336.76c10.47,12.23,14.67,14.06,29.38,11.13C1169.17,330.23,1140.53,336.57,1138.35,336.76Z"/><path class="cls-4" d="M1167.33,328.09c-4.45.56-8.35,1.57-10,1.84,10.91,11.44,16.37,12.44,30,8.44C1187.39,328.76,1176.4,327,1167.33,328.09Z"/><path class="cls-4" d="M1176,322.07c11.56,10.39,18.35,10,30.62,4.82C1205.28,312.58,1179.51,321.16,1176,322.07Z"/><path class="cls-4" d="M1194.24,312.65c12.47,8.84,20,6.82,30.88.22C1222.41,301,1202.85,309.09,1194.24,312.65Z"/><path class="cls-4" d="M1211.63,301.17c13,6.58,20.92,3,30.43-5.18C1237.53,284.82,1215.88,298.6,1211.63,301.17Z"/><path class="cls-4" d="M1233.06,282.74c-.75.59-1.46,1.18-2.11,1.74-1.33,1.09-2.47,2.06-3.3,2.78,13.74,4.12,21.45-1.93,28.92-10.94C1252.52,270,1239.12,278.05,1233.06,282.74Z"/><path class="cls-4" d="M1241.66,270.82c12.5,1.34,20.28-5.61,26.32-16.27C1261.91,248.4,1247.39,264.28,1241.66,270.82Z"/><path class="cls-4" d="M1253.17,252.13c14.88-1.59,20-12.93,23.17-19.68C1273.19,230.1,1263,234.57,1253.17,252.13Z"/><path class="cls-4" d="M1262.12,232.1c12.23-3,17.49-13.47,20.4-22.72C1280,208.09,1271.14,212,1262.12,232.1Z"/><path class="cls-4" d="M1269.08,211.13c10.83-4.62,15.06-14,17.12-25.54C1283.63,184.87,1275.08,191.24,1269.08,211.13Z"/><path class="cls-4" d="M1273.83,189.37c9.55-6.05,12.66-15.84,13.33-27.87C1280.85,161.1,1275.16,181.48,1273.83,189.37Z"/><path class="cls-4" d="M1276.11,167.08c8.08-7.15,10.4-18.08,9.23-29.5C1280.24,138.39,1276.41,159,1276.11,167.08Z"/><path class="cls-4" d="M1275.83,144.64c5.41-6.72,8-16.94,5-30.37C1279,115,1274.09,125.45,1275.83,144.64Z"/><path class="cls-4" d="M1274,91.91c-1.48,1-5.08,11.68-1,30.52C1277.09,115.48,1278.71,104.62,1274,91.91Z"/><path class="cls-4" d="M1267.75,100.79c4.11-10.14,2-20.44-2.86-30.05C1262.47,73.25,1263,87.23,1267.75,100.79Z"/><path class="cls-4" d="M1260.32,80c2.57-10.43-.36-20.46-6.39-29.1C1253.28,51.92,1251.75,62.14,1260.32,80Z"/><path class="cls-4" d="M1248.39,65.91c.41-6.67-10.26-28.21-25.61-36.91C1229.61,41.23,1238,57.83,1248.39,65.91Z"/><path class="cls-4" d="M1123.17,329.71c8.14-7,12.27-15.8,4.13-23-9.39,6.88-12.74,10.49-12.84,21.56,0,2.34.1,4.86.23,7.79C1115.87,335.07,1119.54,332.84,1123.17,329.71Z"/><path class="cls-4" d="M1143.06,323c7.84-7,11.66-15.45,3.84-22.41-11.85,9.36-12.59,12.24-12.08,28.68C1136.07,328.23,1139.61,326,1143.06,323Z"/><path class="cls-4" d="M1165.55,293.63c-11.07,9.87-11.51,12.55-10.81,28.38C1156.26,320.73,1179.49,305.38,1165.55,293.63Z"/><path class="cls-4" d="M1174.21,313.7c9.78-9.11,19.94-20,8.84-28.33C1173,296,1172.92,298.74,1174.21,313.7Z"/><path class="cls-4" d="M1192.93,303.72c8.9-9.6,17.37-21.46,6.16-28.37C1191,286.78,1190.5,288,1192.93,303.72Z"/><path class="cls-4" d="M1210.43,291.54c7.76-10.2,14-23.15,2.87-28.26C1207,275.66,1206.62,276.53,1210.43,291.54Z"/><path class="cls-4" d="M1226.14,276.81c6-11.2,10.73-24.49-.72-27.84C1221,262.6,1220.71,262.75,1226.14,276.81Z"/><path class="cls-4" d="M1235.35,232.24c-3.31,14.2-1.8,16.59,4.08,27.26C1243.55,248.14,1246.3,233.72,1235.35,232.24Z"/><path class="cls-4" d="M1249.93,240c2.73-11.21,4.27-26-6.27-26.66C1241.65,228.19,1243.07,230.33,1249.93,240Z"/><path class="cls-4" d="M1258.14,219c1.73-10.87,1.74-25.52-8.31-25.44C1249.23,208.12,1251,210.52,1258.14,219Z"/><path class="cls-4" d="M1264,197.09c.45-10.65-.77-24.79-10.39-24C1254.36,186.56,1256.22,189.43,1264,197.09Z"/><path class="cls-4" d="M1254.88,152.28c2.36,13.34,4.32,15.85,12.46,22.35C1266.57,164.39,1264.07,150.87,1254.88,152.28Z"/><path class="cls-4" d="M1253.56,131.34c3.5,12.38,6,15.21,14.3,20.58C1266.31,142.5,1262.14,129.56,1253.56,131.34Z"/><path class="cls-4" d="M1249.72,110.56c4.73,11.85,7.56,14.51,15.89,18.81C1263.1,120.51,1258,108.61,1249.72,110.56Z"/><path class="cls-4" d="M1243.52,90.24c4.88,10,9.07,13.86,17.21,17.06C1257.13,99,1251.65,88.32,1243.52,90.24Z"/><path class="cls-4" d="M1235.16,70.65c5.51,9,10.16,12.89,18.26,15.39C1249.14,78.16,1243,69,1235.16,70.65Z"/><text class="cls-5" transform="translate(669.86 128.73) scale(1.07 1)">弊<tspan class="cls-6" x="60.64" y="0">社</tspan><tspan class="cls-7" x="120.99" y="0">が</tspan><tspan class="cls-8" x="173.66" y="0">選</tspan><tspan class="cls-9" x="234.07" y="0">ば</tspan><tspan class="cls-10" x="289.29" y="0">れ</tspan><tspan class="cls-11" x="340.43" y="0">る</tspan><tspan x="383.33" y="0">理由</tspan></text><text class="cls-12" transform="translate(178.54 1016.37)">Purchasing is <tspan class="cls-13" x="166.65" y="0">S</tspan><tspan x="181.63" y="0">upe</tspan><tspan class="cls-14" x="228.09" y="0">r</tspan><tspan class="cls-15" x="236.95" y="0">-</tspan><tspan x="248.18" y="0">Simple &amp;</tspan><tspan class="cls-16" x="75.98" y="28.8">S</tspan><tspan x="90.81" y="28.8">t</tspan><tspan class="cls-17" x="100.85" y="28.8">r</tspan><tspan x="110.25" y="28.8">aight</tspan><tspan class="cls-18" x="172.15" y="28.8">-</tspan><tspan class="cls-19" x="183.36" y="28.8">f</tspan><tspan x="192.31" y="28.8">or</tspan><tspan class="cls-20" x="217.48" y="28.8">w</tspan><tspan x="239.25" y="28.8">ard</tspan></text><text class="cls-21" transform="translate(191.03 871.6)">購<tspan class="cls-22" x="48" y="0">入</tspan><tspan class="cls-23" x="94.95" y="0">は</tspan><tspan class="cls-24" x="136.31" y="0">超</tspan><tspan class="cls-25" x="182.72" y="0">シ</tspan><tspan class="cls-26" x="217.43" y="0">ン</tspan><tspan class="cls-27" x="249.77" y="0">プ</tspan><tspan class="cls-28" x="288.47" y="0">ル</tspan><tspan class="cls-29" x="44.27" y="57.6">＆</tspan><tspan class="cls-4" x="89.11" y="57.6">単純明快</tspan></text><path class="cls-30" d="M327.47,560.59q-5.27-7.3-5.26-19.54t5.26-19.54q5.26-7.31,15.87-7.31t15.88,7.31q5.26,7.31,5.26,19.54t-5.26,19.54q-5.28,7.3-15.88,7.31T327.47,560.59ZM333.74,527q-3.08,5.34-3.08,14t3.08,14a10.3,10.3,0,0,0,9.6,5.34q6.53,0,9.53-5.31t3-14.05q0-8.74-3-14.06t-9.53-5.3A10.3,10.3,0,0,0,333.74,527Z"/><path class="cls-30" d="M371,515.46h18.84V567.3h-8.31v-44H371Z"/><g class="cls-31"><path class="cls-32" d="M262.29,567.41h-59.4c0-1.9,0-3.82.12-5.72l59.35,2.53C262.31,565.28,262.29,566.35,262.29,567.41Zm187.47-.77c0-1.06,0-2.14-.1-3.19L509,560.3c.1,1.89.16,3.81.18,5.71Zm-187.2-5.58L203.38,556c.16-1.9.37-3.82.61-5.7l58.91,7.63C262.77,558.94,262.65,560,262.56,561.06Zm186.87-.78c-.1-1-.23-2.1-.38-3.14l58.83-8.26c.26,1.89.49,3.81.67,5.7Zm-186-5.52-58.52-10.15c.32-1.89.69-3.79,1.1-5.65l58,12.71C263.76,552.69,263.56,553.73,263.38,554.76ZM448.55,554c-.2-1-.41-2.09-.65-3.12l57.89-13.29c.43,1.85.82,3.74,1.17,5.61Zm-183.81-5.46-57.43-15.17c.49-1.85,1-3.71,1.59-5.53l56.71,17.66C265.3,546.52,265,547.54,264.74,548.56Zm182.38-.73c-.27-1-.58-2-.9-3l56.54-18.21c.58,1.81,1.13,3.65,1.63,5.47Zm-180.49-5.35-55.92-20c.64-1.78,1.33-3.58,2-5.34l55,22.4C267.37,540.49,267,541.49,266.63,542.48Zm178.55-.7c-.37-1-.76-2-1.17-3l54.79-22.94c.73,1.75,1.44,3.54,2.09,5.31ZM269,536.55l-54-24.69c.78-1.72,1.62-3.44,2.47-5.13l52.95,26.93C270,534.61,269.48,535.59,269,536.55Zm173.67-.66c-.45-1-.93-1.94-1.43-2.88L494,505.58c.87,1.67,1.72,3.38,2.52,5.09ZM272,530.81l-51.79-29.08c.92-1.63,1.88-3.28,2.87-4.88L273.6,528C273,528.94,272.49,529.88,272,530.81Zm167.77-.64c-.53-.93-1.1-1.87-1.67-2.78l50.27-31.65c1,1.6,2,3.23,2.92,4.86Zm-164.36-4.88L226.1,492.11c1-1.54,2.12-3.09,3.23-4.6l47.92,35.1C276.6,523.49,276,524.39,275.37,525.29Zm160.9-.63c-.62-.9-1.27-1.8-1.92-2.67l47.59-35.55c1.12,1.5,2.22,3,3.28,4.58Zm-157-4.65-46.5-37c1.15-1.44,2.35-2.89,3.56-4.31l45,38.74C280.62,518.3,279.91,519.16,279.24,520Zm153.09-.61c-.69-.86-1.41-1.71-2.13-2.53l44.66-39.16c1.23,1.4,2.45,2.84,3.62,4.29ZM283.54,515,240,474.57c1.26-1.35,2.56-2.7,3.87-4l41.94,42.06C285.06,513.4,284.28,514.21,283.54,515Zm144.42-.6c-.76-.8-1.54-1.6-2.34-2.38l41.54-42.45c1.34,1.3,2.66,2.64,3.93,4Zm-139.72-4.09-40.33-43.61c1.34-1.24,2.73-2.48,4.13-3.68l38.7,45.07C289.89,508.82,289.05,509.57,288.24,510.32Zm134.94-.58c-.82-.75-1.67-1.49-2.52-2.21l38.24-45.45c1.42,1.19,2.83,2.43,4.2,3.67ZM293.32,506l-37-46.47c1.44-1.15,2.92-2.28,4.39-3.37L296,503.9C295.1,504.57,294.2,505.26,293.32,506ZM418,505.41c-.89-.7-1.8-1.38-2.71-2l34.82-48.12c1.49,1.07,3,2.19,4.43,3.32ZM298.75,502l-33.53-49c1.51-1,3.06-2.06,4.61-3l31.76,50.2C300.63,500.69,299.68,501.31,298.75,502Zm113.79-.52c-.92-.62-1.87-1.23-2.83-1.83L441,449.1c1.57,1,3.13,2,4.65,3Zm-108-3.11L274.54,447c1.57-.91,3.18-1.82,4.8-2.69l28.12,52.32C306.46,497.19,305.46,497.75,304.49,498.32Zm102.29-.46c-1-.56-2-1.11-3-1.63l27.63-52.59c1.62.85,3.24,1.74,4.83,2.65Zm-96.29-2.77-26.26-53.28c1.63-.8,3.3-1.59,5-2.33l24.4,54.15C312.55,494.1,311.51,494.59,310.49,495.09Zm90.25-.4c-1-.49-2.06-1-3.1-1.43l23.88-54.39c1.68.74,3.36,1.51,5,2.3Zm-84-2.41-22.5-55c1.69-.69,3.41-1.36,5.1-2L319.93,491C318.87,491.43,317.79,491.85,316.73,492.28Zm77.74-.34c-1.05-.42-2.13-.83-3.21-1.22l20.09-55.9c1.72.62,3.44,1.27,5.12,1.94Zm-71.29-2L304.5,433.51c1.71-.57,3.46-1.11,5.21-1.63l16.76,57C325.37,489.19,324.26,489.54,323.18,489.9Zm64.83-.29c-1.09-.35-2.2-.68-3.3-1l16.23-57.14c1.75.49,3.51,1,5.23,1.58ZM329.79,488,315,430.43c1.75-.45,3.53-.88,5.3-1.27l12.87,58C332,487.4,330.9,487.67,329.79,488Zm51.58-.23c-1.11-.28-2.24-.54-3.36-.78l12.35-58.1c1.77.38,3.56.79,5.31,1.23Zm-44.84-1.27-10.91-58.39c1.77-.33,3.57-.64,5.36-.91l9,58.72C338.81,486.05,337.66,486.25,336.53,486.46Zm38.07-.17c-1.12-.2-2.27-.38-3.41-.55l8.44-58.8c1.8.26,3.61.55,5.38.87Zm-31.21-.88-7-59c1.78-.21,3.6-.4,5.4-.56l5.08,59.19C345.7,485.16,344.53,485.28,343.39,485.41Zm24.35-.11c-1.14-.12-2.3-.23-3.46-.32l4.55-59.22c1.81.13,3.63.3,5.42.5Zm-17.41-.48-3.15-59.32c1.79-.1,3.62-.16,5.42-.2l1.21,59.39C352.65,484.71,351.48,484.75,350.33,484.82Zm10.47-.05c-1.16,0-2.33-.08-3.49-.1l.7-59.39c1.79,0,3.62.07,5.41.15Z"/></g><text class="cls-12" transform="translate(810.02 1016.37)">Receive <tspan class="cls-18" x="102.67" y="0">y</tspan><tspan x="116.23" y="0">our number </tspan><tspan class="cls-33" x="44.25" y="28.8">c</tspan><tspan x="57.81" y="28.8">ode insta</tspan><tspan class="cls-34" x="169.34" y="28.8">n</tspan><tspan x="184.68" y="28.8">tly</tspan></text><text class="cls-35" transform="translate(757.38 871.6)">即<tspan class="cls-22" x="48" y="0">座</tspan><tspan class="cls-36" x="94.95" y="0">に</tspan><tspan class="cls-37" x="131.13" y="0">優待番</tspan><tspan class="cls-38" x="275.13" y="0">号</tspan><tspan class="cls-39" x="322.9" y="0">が</tspan><tspan class="cls-40"><tspan x="81.47" y="57.6">メ</tspan><tspan class="cls-41" x="110.79" y="57.6">ー</tspan><tspan class="cls-42" x="140.23" y="57.6">ル</tspan><tspan class="cls-36" x="180.7" y="57.6">に</tspan><tspan class="cls-43" x="216.89" y="57.6">届</tspan><tspan class="cls-44" x="259.31" y="57.6">く</tspan></tspan></text><path class="cls-30" d="M902.24,559.75q-5.21-7.2-5.2-19.28t5.2-19.29Q907.43,514,917.9,514t15.66,7.21q5.21,7.22,5.2,19.29t-5.2,19.28Q928.37,567,917.9,567T902.24,559.75Zm6.18-33.12q-3,5.28-3,13.84t3,13.83a10.17,10.17,0,0,0,9.48,5.27q6.44,0,9.41-5.23t3-13.87q0-8.64-3-13.87t-9.41-5.24A10.19,10.19,0,0,0,908.42,526.63Z"/><path class="cls-30" d="M970.24,535.2a10.25,10.25,0,0,0,2.19-6.08,6.85,6.85,0,0,0-2.34-5.23,8.41,8.41,0,0,0-5.93-2.16q-6.3,0-10.47,6.44l-7-4a25.51,25.51,0,0,1,7.43-7.61A19.33,19.33,0,0,1,964.64,514,16.92,16.92,0,0,1,975.87,518a13.73,13.73,0,0,1,4.83,11.09,14.92,14.92,0,0,1-2.05,7.54,50.32,50.32,0,0,1-7.54,9.22l-12,12.23h23.2v8.27h-35v-7.32l15.52-15.59A83.79,83.79,0,0,0,970.24,535.2Z"/><g class="cls-31"><path class="cls-32" d="M847.17,566.48H788.55c0-1.87,0-3.77.12-5.64l58.57,2.5C847.19,564.38,847.17,565.44,847.17,566.48Zm185-.75c0-1.06,0-2.12-.1-3.16l58.54-3.1c.09,1.86.15,3.75.17,5.63Zm-184.75-5.52-58.41-5c.16-1.87.36-3.77.6-5.62l58.14,7.53C847.64,558.12,847.53,559.17,847.44,560.21Zm184.41-.76c-.1-1-.22-2.07-.36-3.1l58-8.16c.26,1.87.48,3.76.66,5.63ZM848.24,554l-57.76-10c.33-1.86.69-3.74,1.1-5.57L848.84,551C848.62,552,848.42,553,848.24,554Zm182.74-.74c-.19-1-.4-2.06-.63-3.07l57.13-13.12c.42,1.83.81,3.69,1.15,5.54Zm-181.4-5.38-56.68-15c.49-1.83,1-3.67,1.57-5.46l56,17.43C850.14,545.87,849.85,546.88,849.58,547.88Zm180-.72c-.27-1-.57-2-.89-3l55.79-18c.58,1.78,1.12,3.6,1.62,5.4Zm-178.13-5.28L796.26,522.1c.63-1.76,1.31-3.53,2-5.27l54.3,22.11C852.18,539.91,851.8,540.9,851.45,541.88Zm176.21-.69c-.36-1-.75-2-1.16-2.92l54.08-22.64c.72,1.73,1.42,3.49,2.06,5.24ZM853.83,536l-53.32-24.37c.78-1.69,1.6-3.4,2.45-5.06l52.25,26.58C854.73,534.12,854.27,535.08,853.83,536Zm171.39-.65c-.44-1-.92-1.92-1.4-2.85l52-27.07c.86,1.65,1.7,3.34,2.49,5Zm-168.51-5L805.6,501.67c.9-1.62,1.86-3.24,2.83-4.82l49.9,30.76C857.78,528.52,857.23,529.44,856.71,530.36Zm165.57-.63c-.52-.92-1.08-1.84-1.65-2.74l49.61-31.24c1,1.58,2,3.19,2.89,4.8Zm-162.21-4.82-48.62-32.74c1-1.52,2.1-3.05,3.19-4.54l47.29,34.64C861.29,523.14,860.67,524,860.07,524.91Zm158.79-.61c-.61-.89-1.24-1.78-1.88-2.64l47-35.09c1.1,1.48,2.19,3,3.24,4.52Zm-155-4.6L818,483.22c1.14-1.43,2.32-2.86,3.52-4.25L866,517.19C865.25,518,864.56,518.86,863.89,519.7Zm151.09-.6c-.68-.84-1.39-1.68-2.1-2.5L1057,478c1.21,1.38,2.41,2.8,3.57,4.23Zm-146.85-4.33L825.2,474.86c1.24-1.34,2.52-2.67,3.82-4l41.39,41.51C869.64,513.18,868.87,514,868.13,514.77Zm142.54-.59c-.75-.79-1.52-1.58-2.31-2.35l41-41.9c1.32,1.29,2.62,2.62,3.87,3.94Zm-137.89-4-39.81-43c1.33-1.23,2.7-2.45,4.08-3.64L875.24,508C874.4,508.66,873.58,509.4,872.78,510.14Zm133.17-.58c-.81-.73-1.65-1.47-2.49-2.17l37.74-44.86c1.4,1.18,2.8,2.4,4.15,3.63Zm-128.16-3.72L841.28,460c1.42-1.13,2.87-2.24,4.33-3.32l34.82,47.16C879.55,504.46,878.66,505.15,877.79,505.84Zm123.09-.54c-.88-.69-1.78-1.37-2.68-2l34.37-47.49c1.47,1.06,2.94,2.17,4.37,3.28Zm-117.73-3.42-33.09-48.39c1.49-1,3-2,4.55-3L886,500C885,500.63,884.06,501.25,883.15,501.88Zm112.31-.51c-.92-.61-1.86-1.22-2.81-1.81l30.86-49.84c1.55,1,3.09,1.95,4.59,3ZM888.82,498.3l-29.56-50.63c1.54-.9,3.14-1.8,4.73-2.65l27.76,51.63C890.76,497.18,889.77,497.74,888.82,498.3Zm100.94-.46c-1-.55-2-1.09-2.94-1.61l27.26-51.9c1.6.84,3.21,1.72,4.77,2.62Zm-95-2.73-25.92-52.58c1.61-.79,3.26-1.57,4.89-2.31l24.09,53.45C896.77,494.13,895.74,494.62,894.74,495.11Zm89.06-.4c-1-.48-2-.95-3.06-1.4l23.57-53.68c1.65.73,3.31,1.49,4.93,2.27Zm-82.9-2.37-22.22-54.25c1.67-.68,3.36-1.35,5.05-2l20.32,55C903,491.5,901.94,491.91,900.9,492.34Zm76.72-.34c-1-.42-2.11-.82-3.17-1.2l19.83-55.17c1.69.61,3.39,1.25,5.05,1.91Zm-70.36-2-18.44-55.65c1.69-.56,3.42-1.1,5.14-1.61L910.51,489C909.42,489.29,908.32,489.63,907.26,490Zm64-.29c-1.07-.34-2.17-.67-3.26-1l16-56.39c1.72.49,3.46,1,5.16,1.56Zm-57.46-1.63L899.16,431.3c1.73-.45,3.49-.87,5.23-1.26l12.71,57.23C916,487.52,914.88,487.79,913.78,488.07Zm50.91-.23c-1.1-.27-2.21-.52-3.32-.76l12.19-57.34c1.75.37,3.51.78,5.24,1.21Zm-44.25-1.25L909.67,429c1.74-.33,3.52-.63,5.29-.9L923.82,486C922.69,486.19,921.55,486.38,920.44,486.59Zm37.57-.17c-1.11-.19-2.24-.37-3.37-.54l8.33-58c1.77.25,3.56.54,5.31.85Zm-30.81-.86-6.92-58.21c1.76-.21,3.55-.4,5.32-.55l5,58.41C929.48,485.3,928.33,485.42,927.2,485.56Zm24-.11c-1.12-.12-2.27-.23-3.41-.32l4.5-58.45c1.78.14,3.58.31,5.34.5ZM934.05,485,931,426.43c1.76-.09,3.56-.16,5.34-.2l1.2,58.61C936.34,484.87,935.19,484.91,934.05,485Zm10.34,0c-1.14-.06-2.3-.09-3.45-.1l.7-58.62c1.77,0,3.57.07,5.34.15Z"/></g><text class="cls-12" transform="translate(1358.02 1016.37)"><tspan class="cls-45">T</tspan><tspan x="12.96" y="0">our First-class trip just g</tspan><tspan class="cls-15" x="305.13" y="0">o</tspan><tspan x="320.59" y="0">t</tspan><tspan x="45.78" y="28.8">a whole l</tspan><tspan class="cls-46" x="154.04" y="28.8">o</tspan><tspan class="cls-47" x="169.5" y="28.8">t cheaper</tspan></text><text class="cls-35" transform="translate(1391.11 871.6)"><tspan class="cls-48">一<tspan class="cls-49" x="46.99" y="0">つ</tspan><tspan class="cls-50" x="85.69" y="0">上</tspan><tspan class="cls-51" x="133.22" y="0">の</tspan><tspan class="cls-52" x="169.43" y="0">ク</tspan><tspan class="cls-53" x="199.2" y="0">ラ</tspan><tspan class="cls-54" x="228.33" y="0">ス</tspan></tspan><tspan class="cls-37"><tspan class="cls-55" x="3.88" y="57.6">で</tspan><tspan x="43.18" y="57.6">上</tspan><tspan class="cls-56" x="91.18" y="57.6">質</tspan><tspan class="cls-57" x="137.21" y="57.6">な</tspan><tspan class="cls-58" x="177.88" y="57.6">旅</tspan><tspan class="cls-59" x="223.63" y="57.6">を</tspan></tspan></text><path class="cls-30" d="M1485.94,560.52q-5.26-7.31-5.26-19.55t5.26-19.54q5.26-7.3,15.88-7.3t15.87,7.3q5.26,7.3,5.26,19.54t-5.26,19.55q-5.26,7.31-15.87,7.3T1485.94,560.52Zm6.27-33.56q-3.07,5.34-3.08,14t3.08,14q3.07,5.34,9.61,5.34t9.53-5.3q3-5.29,3-14.06t-3-14.05q-3-5.29-9.53-5.3T1492.21,527Z"/><path class="cls-30" d="M1533,523.17v-7.78h30.34v6.82l-12.54,14q7.13.22,11.13,4.49a14.36,14.36,0,0,1,4,10.19q0,8-5.38,12.46t-13.83,4.53a29.4,29.4,0,0,1-16.54-5.42l3.71-7a23,23,0,0,0,13.35,4.45,12.39,12.39,0,0,0,7.45-2.12,7,7,0,0,0,2.93-6.08,7.44,7.44,0,0,0-3.26-6.34c-2.18-1.58-5.19-2.37-9.05-2.37a19,19,0,0,0-5.56.81v-6.67l12-14Z"/><g class="cls-31"><path class="cls-32" d="M1429.59,567.41h-59.4c0-1.9,0-3.82.12-5.72l59.35,2.53C1429.61,565.28,1429.59,566.35,1429.59,567.41Zm187.47-.77c0-1.06,0-2.14-.1-3.19l59.32-3.15c.1,1.89.16,3.81.18,5.71Zm-187.2-5.58L1370.68,556c.16-1.9.37-3.82.61-5.7l58.91,7.63C1430.07,558.94,1430,560,1429.86,561.06Zm186.86-.78c-.1-1-.22-2.1-.37-3.13l58.82-8.27c.27,1.89.5,3.81.68,5.7Zm-186-5.52-58.53-10.16c.33-1.88.7-3.78,1.11-5.64l58,12.71C1431.06,552.69,1430.86,553.73,1430.68,554.76Zm185.16-.74c-.19-1-.41-2.09-.64-3.12l57.89-13.29c.43,1.85.82,3.74,1.16,5.61ZM1432,548.56l-57.43-15.17c.49-1.85,1-3.71,1.59-5.53l56.71,17.66C1432.6,546.52,1432.31,547.54,1432,548.56Zm182.38-.73c-.28-1-.58-2-.91-3l56.54-18.21c.59,1.81,1.14,3.65,1.64,5.47Zm-180.49-5.35-55.92-20c.64-1.78,1.33-3.58,2-5.34l55,22.4C1434.67,540.48,1434.28,541.49,1433.93,542.48Zm178.54-.7c-.36-1-.75-2-1.16-3l54.79-22.94c.73,1.75,1.43,3.54,2.09,5.31Zm-176.13-5.23-54-24.69c.78-1.72,1.62-3.44,2.47-5.13l53,26.93C1437.25,534.61,1436.78,535.59,1436.34,536.55Zm173.67-.66c-.46-1-.94-1.94-1.43-2.88l52.69-27.43c.87,1.67,1.71,3.38,2.52,5.09Zm-170.75-5.08-51.79-29.08c.92-1.63,1.88-3.28,2.87-4.88L1440.9,528C1440.34,528.94,1439.79,529.88,1439.26,530.81Zm167.77-.64c-.54-.93-1.1-1.87-1.67-2.78l50.26-31.65c1,1.6,2,3.23,2.93,4.86Zm-164.36-4.88-49.27-33.18c1-1.54,2.12-3.09,3.23-4.6l47.92,35.1C1443.9,523.49,1443.27,524.39,1442.67,525.29Zm160.89-.63c-.61-.9-1.26-1.8-1.91-2.66l47.59-35.56c1.11,1.5,2.22,3,3.28,4.58Zm-157-4.65L1400,483c1.15-1.44,2.35-2.89,3.56-4.31l45,38.74C1447.92,518.3,1447.21,519.16,1446.54,520Zm153.09-.61c-.69-.86-1.41-1.71-2.13-2.53l44.66-39.16c1.23,1.4,2.44,2.84,3.62,4.29ZM1450.83,515l-43.5-40.44c1.26-1.35,2.56-2.7,3.87-4l41.94,42.06C1452.36,513.4,1451.58,514.21,1450.83,515Zm144.43-.6c-.76-.8-1.54-1.6-2.34-2.38l41.54-42.45c1.34,1.3,2.66,2.65,3.93,4Zm-139.72-4.09-40.34-43.6c1.35-1.25,2.74-2.49,4.14-3.69L1458,508.1C1457.19,508.82,1456.35,509.57,1455.54,510.32Zm134.94-.58c-.82-.75-1.67-1.49-2.52-2.21l38.24-45.45c1.42,1.19,2.83,2.43,4.2,3.67ZM1460.62,506l-37-46.47c1.44-1.15,2.92-2.28,4.39-3.37l35.29,47.78C1462.4,504.57,1461.5,505.26,1460.62,506Zm124.72-.55c-.89-.69-1.8-1.38-2.71-2l34.82-48.12c1.49,1.07,3,2.19,4.43,3.32ZM1466.05,502l-33.53-49c1.51-1,3.06-2.05,4.61-3l31.76,50.19C1467.93,500.69,1467,501.31,1466.05,502Zm113.8-.52c-.93-.62-1.89-1.23-2.85-1.83l31.27-50.5c1.57,1,3.13,2,4.65,3Zm-108.06-3.11-30-51.3c1.57-.91,3.18-1.82,4.8-2.69l28.12,52.32C1473.76,497.19,1472.76,497.75,1471.79,498.32Zm102.28-.46c-1-.56-2-1.11-3-1.63l27.63-52.59c1.62.85,3.24,1.74,4.83,2.65Zm-96.28-2.77-26.26-53.28c1.63-.8,3.3-1.59,5-2.33l24.4,54.15C1479.85,494.1,1478.81,494.59,1477.79,495.09Zm90.24-.4c-1-.49-2-1-3.09-1.43l23.88-54.38c1.67.73,3.35,1.5,5,2.3Zm-84-2.41-22.51-55c1.68-.69,3.4-1.36,5.1-2l20.6,55.72C1486.17,491.43,1485.09,491.85,1484,492.28Zm77.73-.34c-1-.42-2.13-.83-3.21-1.22l20.09-55.9c1.72.62,3.44,1.27,5.12,1.94Zm-71.29-2-18.68-56.39c1.71-.57,3.46-1.11,5.21-1.63l16.76,57C1492.67,489.19,1491.56,489.54,1490.48,489.9Zm64.82-.29c-1.08-.35-2.19-.68-3.29-1l16.23-57.14c1.75.49,3.51,1,5.23,1.58ZM1497.09,488l-14.81-57.53c1.75-.45,3.53-.88,5.3-1.27l12.87,58C1499.33,487.4,1498.2,487.67,1497.09,488Zm51.58-.23c-1.11-.28-2.24-.54-3.36-.78l12.34-58.1c1.78.38,3.57.79,5.32,1.23Zm-44.84-1.27-10.91-58.39c1.77-.33,3.57-.64,5.36-.91l9,58.72C1506.11,486.05,1505,486.25,1503.83,486.46Zm38.07-.17c-1.12-.2-2.27-.38-3.41-.55l8.44-58.79c1.8.25,3.61.54,5.38.86Zm-31.21-.88-7-59c1.78-.21,3.6-.4,5.4-.56l5.08,59.19C1513,485.16,1511.83,485.28,1510.69,485.41Zm24.35-.11c-1.14-.12-2.3-.23-3.46-.32l4.55-59.22c1.81.14,3.63.31,5.42.5Zm-17.41-.48-3.15-59.32c1.79-.1,3.61-.16,5.42-.2l1.21,59.39C1520,484.71,1518.78,484.75,1517.63,484.82Zm10.47-.05c-1.16,0-2.33-.08-3.49-.1l.7-59.39c1.8,0,3.62.07,5.41.15Z"/></g><g class="cls-60"><rect class="cls-4" x="179.05" y="960.61" width="353.96" height="6.97" rx="3.48" ry="3.48"/></g><g class="cls-60"><rect class="cls-4" x="762.7" y="960.61" width="353.96" height="6.97" rx="3.48" ry="3.48"/></g><g class="cls-60"><rect class="cls-4" x="1346.34" y="960.61" width="353.96" height="6.97" rx="3.48" ry="3.48"/></g><path class="cls-4" d="M394.55,708.69a2.48,2.48,0,0,0-2.4-1.66c-1.46,0-2.95,0-4.4,0h-6.94q-20.91,0-41.8,0h0a1.51,1.51,0,0,1-1.74-1.51l-.06-.44c-.3-2.52-.62-5.13-1.12-7.64a8.92,8.92,0,0,0-7.65-6.74,2,2,0,0,1-.49-.12H319.6a.75.75,0,0,1-.18.08c-1.5.52-2.25,1.55-2.05,2.85a2.63,2.63,0,0,0,2.91,2.25h4c.9,0,1.79,0,2.68,0,2.51,0,4,1.41,4.34,4q.75,5.88,1.54,11.75l.35,2.66q.48,3.61,1,7.25c.68,5.06,1.38,10.3,2,15.46a9.18,9.18,0,0,0,9.16,8.15h34.39a9.09,9.09,0,0,0,9.42-7.65c.93-4.51,1.85-9.11,2.73-13.56.53-2.61,1-5.22,1.57-7.83.27-1.32.55-2.65.84-4,.12-.58.24-1.15.37-1.74V709A1.06,1.06,0,0,1,394.55,708.69Zm-8.2,16.79q-1.05,5.21-2.08,10.42c-.56,2.8-1.93,3.94-4.76,3.94H345.66a4,4,0,0,1-4.36-3.77c-.48-3.5-.94-7.06-1.39-10.5l-.45-3.37c-.28-2.15-.56-4.29-.84-6.46l-.46-3.5H389Z"/><path class="cls-4" d="M349.39,752.45a9.09,9.09,0,0,0-15.61,6.38v0a9.14,9.14,0,0,0,18.27-.1A8.91,8.91,0,0,0,349.39,752.45Zm-2.51,6.38a4.05,4.05,0,0,1-3.95,4h0a4.08,4.08,0,0,1-4-4,3.91,3.91,0,0,1,1.14-2.77,3.9,3.9,0,0,1,5.64-.11,4,4,0,0,1,1.21,2.81Z"/><path class="cls-4" d="M388.86,752.52a9.26,9.26,0,0,0-6.59-2.82h-.08a8.83,8.83,0,0,0-6.24,2.6,9.2,9.2,0,0,0-2.77,6.56v0A9.09,9.09,0,0,0,382,768h0a9.13,9.13,0,0,0,9.39-9.15A8.84,8.84,0,0,0,388.86,752.52Zm-2.58,6.32a4,4,0,0,1-4,4h0a4.07,4.07,0,0,1-4-4,3.94,3.94,0,0,1,1.16-2.77,4.08,4.08,0,0,1,2.83-1.24h0a3.94,3.94,0,0,1,2.77,1.16,4,4,0,0,1,1.19,2.82Z"/><path class="cls-4" d="M385.57,677a5.81,5.81,0,0,0-1.5-1.09,5.62,5.62,0,0,0-2.82-7.84,6,6,0,0,0-1.56-5.8,6.3,6.3,0,0,0-1.46-1.07l4.13-4.13a6.25,6.25,0,1,0-8.83-8.84l-17.41,17.41-1.62-9.95a7,7,0,0,0-7.5-5.81,3.87,3.87,0,0,0-3.55,3.88V681a15.06,15.06,0,0,0,4.44,10.63l4.53,4.49a15.89,15.89,0,0,0,22.36-.06l10.79-10.79A5.84,5.84,0,0,0,385.57,677Zm-3,5.26-10.79,10.79a11.64,11.64,0,0,1-16.38,0l-4.53-4.48A10.79,10.79,0,0,1,347.7,681V654.1a2.73,2.73,0,0,1,2.61,2.27l2.28,14a2.12,2.12,0,0,0,3.6,1.16l20.34-20.34a2,2,0,1,1,2.83,2.84l-13.84,13.84a2.12,2.12,0,0,0,3,3l5.64-5.64a1.79,1.79,0,0,1,2.53,2.53l-5.29,5.28a2.12,2.12,0,0,0,3,3l3.78-3.78a1.4,1.4,0,0,1,1.91,0,1.35,1.35,0,0,1,0,1.91L376.27,678a2.11,2.11,0,0,0,0,3,2.14,2.14,0,0,0,3,0l1-1a1.55,1.55,0,0,1,1.13-.47,1.58,1.58,0,0,1,1.13.47A1.61,1.61,0,0,1,382.57,682.26Z"/><path class="cls-4" d="M361.35,642.42a2.12,2.12,0,0,1-2.13-2.12V629a2.13,2.13,0,1,1,4.25,0V640.3A2.12,2.12,0,0,1,361.35,642.42Z"/><path class="cls-4" d="M365.74,647.25a2.09,2.09,0,0,1-1.5-.62,2.12,2.12,0,0,1,0-3l8.27-8.27a2.12,2.12,0,0,1,3,3l-8.27,8.27A2.09,2.09,0,0,1,365.74,647.25Z"/><path class="cls-4" d="M357.51,647.7a2.12,2.12,0,0,1-1.37-.51l-9-7.7a2.12,2.12,0,1,1,2.75-3.23l9,7.7a2.12,2.12,0,0,1-1.38,3.74Z"/><path class="cls-4" d="M979.06,709.94a1.85,1.85,0,0,0-.89-1.34,2,2,0,0,0-.32-.25L964,699.76v-5.19a3.72,3.72,0,0,0-3.71-3.71H949.58l-5.51-3.41a7.26,7.26,0,0,0-8.81-.08l-6.14,3.49H918.36a3.72,3.72,0,0,0-3.71,3.71v4.51l-13.75,7.81-.07,0a.15.15,0,0,0-.07.05.37.37,0,0,0-.12.07l-.16.14a.83.83,0,0,0-.13.14l-.05.06a.38.38,0,0,0-.09.13s0,.05-.06.07l-.1.21a1.07,1.07,0,0,0-.07.19,1.37,1.37,0,0,0-.07.29,2.28,2.28,0,0,0,0,.26v49.93a7.49,7.49,0,0,0,7.34,7.48h64.36a7.5,7.5,0,0,0,7.49-7.49V710.19a.93.93,0,0,0,0-.24Zm-60.7-13v-2.4h41.9v26.37l-18.33,14.15-23.57-16.91V697Zm11.14,47.71-2.4,1.86L906.8,762.2a3.78,3.78,0,0,1-3.2-3.73V712.15l11,7.93,1.86,1.33,1.85,1.33,20.51,14.72-7,5.37-2.4,1.85Zm3.67,1.86h0l4.8-3.71h0l5.15-4,17.13-13.24,1.86-1.42,1.85-1.44,11.4-8.79v44.5a3.79,3.79,0,0,1-3.78,3.78H912.82ZM974,710.33l-10,7.75v-14Zm-36.81-19.8a.86.86,0,0,0,.22-.15,3.59,3.59,0,0,1,4.44,0,.83.83,0,0,0,.18.13l.5.31h-5.91Zm-22.55,12.81v12.17l-9.47-6.79Z"/><polygon class="cls-4" points="922.05 709.04 923.54 706.77 923.58 706.77 925.07 709.04 926.34 709.04 924.27 705.94 926.2 703 924.93 703 923.58 705.04 923.54 705.04 922.19 703 920.93 703 922.86 705.94 920.78 709.04 922.05 709.04"/><polygon class="cls-4" points="927.88 709.04 929.37 706.77 929.41 706.77 930.9 709.04 932.17 709.04 930.09 705.94 932.02 703 930.76 703 929.41 705.04 929.37 705.04 928.02 703 926.75 703 928.68 705.94 926.61 709.04 927.88 709.04"/><polygon class="cls-4" points="933.7 709.04 935.19 706.77 935.23 706.77 936.72 709.04 937.99 709.04 935.92 705.94 937.85 703 936.58 703 935.23 705.04 935.19 705.04 933.84 703 932.58 703 934.51 705.94 932.43 709.04 933.7 709.04"/><polygon class="cls-4" points="941.9 709.04 943.38 706.77 943.43 706.77 944.92 709.04 946.19 709.04 944.11 705.94 946.04 703 944.78 703 943.43 705.04 943.38 705.04 942.04 703 940.77 703 942.7 705.94 940.62 709.04 941.9 709.04"/><polygon class="cls-4" points="947.72 709.04 949.21 706.77 949.25 706.77 950.75 709.04 952.01 709.04 949.94 705.94 951.87 703 950.61 703 949.25 705.04 949.21 705.04 947.86 703 946.6 703 948.53 705.94 946.45 709.04 947.72 709.04"/><polygon class="cls-4" points="953.55 709.04 955.03 706.77 955.08 706.77 956.57 709.04 957.84 709.04 955.76 705.94 957.69 703 956.43 703 955.08 705.04 955.03 705.04 953.69 703 952.42 703 954.35 705.94 952.27 709.04 953.55 709.04"/><path class="cls-4" d="M928.07,660.86c1.67,0,3.34,0,5.11,0h.08c-.31,1.92-.64,3.84-1,5.77-.38,2.3-.77,4.59-1.15,6.89-.62,3.77,1.45,5.3,2.76,5.89a5.39,5.39,0,0,0,2,.44c1.35,0,2.88-.64,4.3-2.66l5.51-7.9q5-7.18,10-14.37a5,5,0,0,0,.6-5.61h0a5.09,5.09,0,0,0-5-2.65c-1.74,0-3.45,0-5.27,0,.69-3.51,1.38-7.1,2.06-10.68.74-3.92-1.44-5.49-2.78-6.07-3.1-1.37-4.92.34-6.16,2L933.9,639q-5.08,6.71-10.17,13.4c-1.51,2-1.77,3.93-.78,5.79A5.18,5.18,0,0,0,928.07,660.86Zm-1.1-6q5.1-6.71,10.17-13.41l5.38-7.08a3.74,3.74,0,0,1,.79-.86,1.53,1.53,0,0,1,.49.16c.3.13.65.28.4,1.57-.83,4.4-1.69,8.81-2.52,13.08l-.47,2.42H946c1.89,0,3.67,0,5.5,0,1,0,1.19.27,1.33.52s.25.48-.35,1.33q-5.06,7.19-10.06,14.39l-5.51,7.89c-.75,1.07-1,1-1.34.82s-.58-.26-.38-1.49q.57-3.43,1.15-6.87c.36-2.15.72-4.3,1.07-6.43.07-.4.11-.79.15-1.24,0-.18,0-.38.06-.59l.25-2.26H931c-1,0-2,0-3,0-1.15,0-1.32-.28-1.46-.54S926.28,655.75,927,654.84Z"/><path class="cls-4" d="M968.61,643.08a2.38,2.38,0,0,0,1.49-.51l11.9-9.41a2.4,2.4,0,0,0-3-3.76l-11.9,9.41a2.39,2.39,0,0,0,1.48,4.27Z"/><path class="cls-4" d="M983.89,652.23H969.08a2.4,2.4,0,0,0,0,4.79h14.81a2.4,2.4,0,1,0,0-4.79Z"/><path class="cls-4" d="M982,676.09l-11.9-9.41a2.4,2.4,0,1,0-3,3.76l11.9,9.41a2.37,2.37,0,0,0,1.48.52,2.4,2.4,0,0,0,1.49-4.28Z"/><path class="cls-4" d="M897.35,633.16l11.9,9.41a2.4,2.4,0,1,0,3-3.76l-11.9-9.41a2.4,2.4,0,0,0-3,3.76Z"/><path class="cls-4" d="M912.67,654.62a2.4,2.4,0,0,0-2.4-2.39H895.46a2.4,2.4,0,1,0,0,4.79h14.81A2.4,2.4,0,0,0,912.67,654.62Z"/><path class="cls-4" d="M912.22,670.44a2.4,2.4,0,1,0-3-3.76l-11.9,9.41a2.4,2.4,0,0,0,1.49,4.28,2.37,2.37,0,0,0,1.48-.52Z"/><path class="cls-4" d="M1563.05,700H1483.6a6.38,6.38,0,0,0-6.38,6.37v47.56a6.38,6.38,0,0,0,6.38,6.38h79.45a6.38,6.38,0,0,0,6.38-6.38V706.38A6.38,6.38,0,0,0,1563.05,700Zm2.13,53.93a2.13,2.13,0,0,1-2.13,2.13h-26.64V745.58a1.81,1.81,0,1,0-3.61,0v10.49h-49.2a2.13,2.13,0,0,1-2.13-2.13V706.38a2.12,2.12,0,0,1,2.13-2.12h49.2v10.49a1.81,1.81,0,0,0,3.61,0V704.26h26.64a2.12,2.12,0,0,1,2.13,2.12Z"/><path class="cls-4" d="M1534.61,723a1.81,1.81,0,0,0-1.81,1.81v10.81a1.81,1.81,0,0,0,3.61,0V724.76A1.81,1.81,0,0,0,1534.61,723Z"/><path class="cls-4" d="M1554.31,724.32a2.13,2.13,0,1,0,0-4.25h-6.65a2.13,2.13,0,0,0,0,4.25h1.2V736h-1.2a2.12,2.12,0,0,0,0,4.24h6.65a2.12,2.12,0,1,0,0-4.24h-1.2V724.32Z"/><path class="cls-4" d="M1521.43,715.81a2,2,0,0,0-2.81,0l-25.95,26a2,2,0,0,0,2.8,2.81l26-26A2,2,0,0,0,1521.43,715.81Z"/><path class="cls-4" d="M1497.43,728.45h0a7.67,7.67,0,0,0,7.89-7.68,7.44,7.44,0,0,0-2.18-5.29,7.8,7.8,0,0,0-5.53-2.37,7.43,7.43,0,0,0-5.31,2.19,7.66,7.66,0,0,0,5.1,13.15Zm-2.16-10a3.46,3.46,0,0,1,2.38-1h0a3.28,3.28,0,0,1,2.32,1,3.34,3.34,0,0,1,1,2.36h0a3.4,3.4,0,0,1-3.33,3.35h0a3.41,3.41,0,0,1-3.36-3.33A3.32,3.32,0,0,1,1495.27,718.48Z"/><path class="cls-4" d="M1516.4,731.88a7.38,7.38,0,0,0-5.3,2.19,7.65,7.65,0,0,0,5.09,13.14h0a7.66,7.66,0,0,0,7.88-7.68,7.44,7.44,0,0,0-2.17-5.29A7.85,7.85,0,0,0,1516.4,731.88Zm3.38,7.67a3.42,3.42,0,0,1-3.34,3.36h0a3.42,3.42,0,0,1-3.36-3.34,3.29,3.29,0,0,1,1-2.32,3.36,3.36,0,0,1,2.38-1h0a3.28,3.28,0,0,1,2.33,1,3.35,3.35,0,0,1,1,2.36Z"/><path class="cls-4" d="M1519.44,654.9a4.16,4.16,0,0,0-3.76,1.14h0a4.17,4.17,0,0,0,1.3,6.78l6.63,2.84,2.84,6.63a4.18,4.18,0,0,0,3,2.45,4.23,4.23,0,0,0,.79.08,4.16,4.16,0,0,0,2.94-1.22l0,0a4.18,4.18,0,0,0,1.11-3.73l-1-5.09,3.87-3.87,5,10.6a4.07,4.07,0,0,0,6.56,1.15l.13-.13a4,4,0,0,0,1.16-3.35l-2.21-18.88,5.09-5.09a6.24,6.24,0,0,0-8.83-8.82l-5.24,5.24L1520,639.37a4,4,0,0,0-3.35,1.17,4.07,4.07,0,0,0,1.12,6.54l10.55,5.07-3.77,3.77Zm7.29,4.83,6.7-6.7a2.11,2.11,0,0,0,.59-1.86,2.14,2.14,0,0,0-1.17-1.56l-12.28-5.89,18.81,2.21a2.11,2.11,0,0,0,1.75-.61l6-6a2,2,0,0,1,2.81,0,2,2,0,0,1,0,2.82L1544.1,648a2.1,2.1,0,0,0-.6,1.75l2.27,19.33-6-12.75a2.1,2.1,0,0,0-1.55-1.19,2.13,2.13,0,0,0-1.87.59l-6.82,6.82a2.13,2.13,0,0,0-.58,1.92l1.09,5.46-2.88-6.72a2.08,2.08,0,0,0-1.11-1.11l-6.71-2.87,5.45,1.09A2.13,2.13,0,0,0,1526.73,659.73Z"/><path class="cls-4" d="M1497.85,668.05a2.13,2.13,0,0,0,1.5-.62l13.72-13.72a2.12,2.12,0,0,0-3-3l-13.72,13.71a2.13,2.13,0,0,0,1.5,3.63Z"/><path class="cls-4" d="M1537.66,678.3,1523.94,692a2.12,2.12,0,1,0,3,3l13.71-13.71a2.12,2.12,0,0,0-3-3Z"/><path class="cls-4" d="M1516.85,671.51l-13.72,13.72a2.13,2.13,0,0,0,3,3l13.72-13.72a2.13,2.13,0,1,0-3-3Z"/></svg>