<svg xmlns="http://www.w3.org/2000/svg" width="66.253" height="13.335" viewBox="0 0 66.253 13.335"><g transform="translate(-1137.91 -4363.205)"><path d="M1137.91,4363.205l9.021,6.653-9.021,6.682Z" fill="#fff"/><path d="M1151.84,4368.962v4.608c1.093,1.667,3.138,1.667,5.77,1.667,1.541,0,3.334-.027,4.427-.1a3.112,3.112,0,0,0-.294.924c-.967.028-2.508.056-3.894.056-3.081,0-5.015,0-6.4-1.737-.644.631-1.3,1.247-1.848,1.723a.192.192,0,0,1-.113.224l-.546-.994c.6-.448,1.331-1.065,1.989-1.667v-3.811h-1.849v-.9Zm-1.877-5.253a10.337,10.337,0,0,1,2.31,2.34l-.769.588a9.986,9.986,0,0,0-2.27-2.409Zm6.709,11.137v-1.472h-4.16v-.742h4.16v-.952h-3.1v-4.021h3.1v-.925h-3.613v-.727h3.613V4364.9l1.191.071c-.014.1-.1.168-.28.2v.841h3.642v.727h-3.642v.925h3.138v4.021h-3.138v.952h4.23v.742h-4.23v1.472Zm-3.026-10.283v1.093h-.854v-1.835h8.741v1.835h-.883v-1.093Zm.771,3.769v1.008h2.255v-1.008Zm0,2.675h2.255v-1.023h-2.255Zm5.449-2.675h-2.283v1.008h2.283Zm0,2.675v-1.023h-2.283v1.023Z" fill="#fff"/><path d="M1174.847,4363.961c-.029.084-.141.112-.281.112-.35.49-.882,1.135-1.358,1.667h2.283v2.718h-.911v-1.892h-10.015v1.892h-.882v-2.718h2.115a9.193,9.193,0,0,0-1.345-1.764l.784-.393a8.643,8.643,0,0,1,1.415,1.793l-.686.364h6.191l-.028-.013a13.77,13.77,0,0,0,1.625-2.242Zm-1.486,6.935h-3.487c-.112.364-.267.826-.421,1.246h5.058v4.2h-.939v-.491h-7.831v.518h-.91v-4.23h3.726c.112-.378.238-.84.337-1.246h-3.04v-3.265h7.507Zm.211,4.118v-2.032h-7.831v2.032Zm-6.822-6.626v1.751h5.688v-1.751Zm2.228-5.043a8.953,8.953,0,0,1,1.2,2l-.827.35a9.335,9.335,0,0,0-1.19-2.058Z" fill="#fff"/><path d="M1184.336,4363.4a.369.369,0,0,1-.294.21,16.032,16.032,0,0,0,6.107,4.735,3.96,3.96,0,0,0-.6.841,17.567,17.567,0,0,1-6.094-4.9,16.644,16.644,0,0,1-5.953,4.959,4.251,4.251,0,0,0-.546-.757,15.048,15.048,0,0,0,5.995-5.168Zm-6.653,8v-.9h11.752v.9H1182.7l.168.056c-.042.1-.154.141-.336.154a35.434,35.434,0,0,1-1.653,3.25c1.863-.042,4.034-.112,6.163-.182a22.363,22.363,0,0,0-2.059-2.1l.8-.434a19.2,19.2,0,0,1,3.39,3.74l-.841.532a9.886,9.886,0,0,0-.686-.98c-3.4.182-7.018.336-9.259.406a.239.239,0,0,1-.224.2l-.35-1.121c.587,0,1.274-.014,2.045-.042a30.641,30.641,0,0,0,1.667-3.474Zm2.4-3.614h6.793v.883h-6.793Z" fill="#fff"/><path d="M1196.768,4366.356c-.015.057-.1.113-.168.141a14.471,14.471,0,0,1-2.018,3.306c.673.448,2.045,1.457,2.409,1.736l-.56.785c-.392-.392-1.288-1.135-1.975-1.681v5.744h-.938v-5.394a14.384,14.384,0,0,1-2.2,1.835,3.675,3.675,0,0,0-.5-.826,13.3,13.3,0,0,0,4.636-5.1h-4.272v-.869h2.34v-2.675l1.218.07c-.014.1-.1.168-.28.2v2.409h1.513l.168-.055Zm4.005,8.671h3.39v.925h-8.012v-.925h3.67v-6.065h-3.11v-.91h3.11v-4.595l1.246.084c-.013.1-.1.168-.294.2v4.315h3.1v.91h-3.1Z" fill="#fff"/></g></svg>