<svg xmlns="http://www.w3.org/2000/svg" xmlns:xlink="http://www.w3.org/1999/xlink" width="203" height="40.34" viewBox="0 0 203 40.34">
  <defs>
    <linearGradient id="linear-gradient" x1="-26.305" y1="39.842" x2="-25.916" y2="39.842" gradientUnits="objectBoundingBox">
      <stop offset="0" stop-color="#3fbff0"/>
      <stop offset="0.5" stop-color="#00a1e9"/>
      <stop offset="1" stop-color="#008dd7"/>
    </linearGradient>
    <linearGradient id="linear-gradient-2" x1="-39.825" y1="10.894" x2="-39.093" y2="10.894" xlink:href="#linear-gradient"/>
    <linearGradient id="linear-gradient-3" x1="0.5" y1="0.125" x2="0.5" y2="0.478" gradientUnits="objectBoundingBox">
      <stop offset="0.119" stop-color="#8af7e4"/>
      <stop offset="1" stop-color="#48adf1"/>
    </linearGradient>
    <linearGradient id="linear-gradient-4" y1="0.478" y2="0.825" xlink:href="#linear-gradient-3"/>
  </defs>
  <g id="Group_25" data-name="Group 25" transform="translate(-440 -66.274)">
    <g id="Group_20" data-name="Group 20">
      <path id="Path_248" data-name="Path 248" d="M502.436,86.668h-8.447l-2.7,3.975h-7.6l18.294-24.08H510.1l-.195,24.08h-7.792Zm.456-5.207.665-8.656L497.6,81.461Z" fill="#fff"/>
      <path id="Path_249" data-name="Path 249" d="M521.565,66.563h6.947l3.953,13.322,5.114-13.322h7.014l-9.244,24.08h-7.013l-3.942-13.221-5.075,13.221h-7Z" fill="#fff"/>
      <path id="Path_250" data-name="Path 250" d="M556.623,86.668h-8.448l-2.7,3.975h-7.6l18.293-24.08h8.116l-.194,24.08H556.3Zm.455-5.207.665-8.656-5.953,8.656Z" fill="#fff"/>
      <path id="Path_251" data-name="Path 251" d="M592.331,66.563h7.457l-5.022,13.083a28.307,28.307,0,0,1-3.137,6.27,12.579,12.579,0,0,1-4.339,3.644,12.975,12.975,0,0,1-6.232,1.493,10.607,10.607,0,0,1-5.272-.985,4.137,4.137,0,0,1-1.99-2.883,9.833,9.833,0,0,1,.511-4.689l7.484-.969a8.752,8.752,0,0,0-.629,2.365,1.652,1.652,0,0,0,.408,1.248,1.519,1.519,0,0,0,1.1.312,3.017,3.017,0,0,0,2.187-.927,8.972,8.972,0,0,0,1.783-3.126Z" fill="#fff"/>
      <path id="Path_252" data-name="Path 252" d="M611.835,86.668h-8.448l-2.7,3.975h-7.6l18.293-24.08H619.5l-.194,24.08h-7.792Zm.455-5.207.665-8.656L607,81.461Z" fill="#fff"/>
      <path id="Path_253" data-name="Path 253" d="M630.914,66.563h7.441l-6.968,18.15H643l-2.276,5.93H621.671Z" fill="#fff"/>
    </g>
    <g id="Group_21" data-name="Group 21">
      <path id="Path_254" data-name="Path 254" d="M486.276,99h1.609a10.307,10.307,0,0,0,1.355-.072v1.609a11.325,11.325,0,0,0-1.367-.072h-1.186a8.028,8.028,0,0,0,2.916,2.819,5.518,5.518,0,0,0-.871,1.561,8.727,8.727,0,0,1-2.517-2.965c.024.4.037.811.037,1.138v1.21a9.953,9.953,0,0,0,.084,1.452h-1.645a12.734,12.734,0,0,0,.072-1.452v-1.1c0-.339.012-.726.037-1.2a8.4,8.4,0,0,1-2.7,2.928,5.845,5.845,0,0,0-.871-1.4,7.891,7.891,0,0,0,1.8-1.355,8.085,8.085,0,0,0,1.271-1.633h-.726a9.745,9.745,0,0,0-1.38.084v-.738a7.681,7.681,0,0,0-.46,1.4,5.527,5.527,0,0,1-.653-1.307c.024.363.036.932.036,1.428v2.819a12.962,12.962,0,0,0,.073,1.525h-1.646a13.111,13.111,0,0,0,.073-1.525V102.01c0-.278.024-.8.06-1.367a7.889,7.889,0,0,1-1.125,2.42,6.38,6.38,0,0,0-.569-1.682,9.786,9.786,0,0,0,1.5-3.448H479.1a3.528,3.528,0,0,0-.8.06V96.457a3.464,3.464,0,0,0,.8.06h.508v-.883a8.022,8.022,0,0,0-.073-1.271h1.658a8.485,8.485,0,0,0-.073,1.259v.895h.266a2.927,2.927,0,0,0,.605-.048v1.077a7.794,7.794,0,0,0,.835-2.808l1.44.363c-.048.146-.084.3-.181.69-.049.194-.061.254-.109.46h.786v-.678a7.9,7.9,0,0,0-.072-1.186h1.657a7.728,7.728,0,0,0-.072,1.174v.69h1.27a9.556,9.556,0,0,0,1.343-.073v1.6a10.361,10.361,0,0,0-1.355-.073h-1.258ZM483.493,97.7a7.359,7.359,0,0,1-.605,1.234,5.172,5.172,0,0,0-1.126-.992c-.169-.012-.241-.012-.35-.012h-.23a6.178,6.178,0,0,0,1.016,1.718v-.738a6.962,6.962,0,0,0,1.38.084h1.185V97.7Z" fill="#fff"/>
      <path id="Path_255" data-name="Path 255" d="M496.548,96.626a19.272,19.272,0,0,0-3-1.258L494.6,94.23a20.807,20.807,0,0,1,3.255,1.307l-.944,1.089h2.36a11.66,11.66,0,0,0,1.561-.073v1.61c-.484-.037-.787-.049-1.561-.049H496.6v1.912h2.238c.533,0,.956-.024,1.355-.06v1.585a9.8,9.8,0,0,0-1.318-.061H496.6v2.251h3.013a15.024,15.024,0,0,0,1.73-.085v1.658a14.49,14.49,0,0,0-1.682-.085h-7.514a14.807,14.807,0,0,0-1.791.085v-1.658a13.38,13.38,0,0,0,1.743.085h2.831V101.49h-2.021a12.107,12.107,0,0,0-1.452.061V99.966a9.7,9.7,0,0,0,1.319.06h2.154V98.114H492.4a14.422,14.422,0,0,0-1.585.049v-1.61a10.836,10.836,0,0,0,1.561.073Z" fill="#fff"/>
      <path id="Path_256" data-name="Path 256" d="M503.324,100.849c0-.557,0-.738.024-1.138a4.864,4.864,0,0,1-.653,1.017,7.637,7.637,0,0,0-.654-1.743,8.479,8.479,0,0,0,1.44-2.383,9.3,9.3,0,0,0,.666-2.36l1.488.557c-.085.242-.085.242-.206.678a8.092,8.092,0,0,1-.326.967c-.23.557-.23.557-.3.775v7.03a10.633,10.633,0,0,0,.073,1.391h-1.622a10.668,10.668,0,0,0,.073-1.415Zm8.845,1.875a4.778,4.778,0,0,0-.363.363,6.628,6.628,0,0,1-1,.871,12.988,12.988,0,0,0,2.468.206h.5a6.372,6.372,0,0,0-.508,1.4,11.021,11.021,0,0,1-3.872-.823,11.6,11.6,0,0,1-3.884.835,4.288,4.288,0,0,0-.484-1.21,11.258,11.258,0,0,0,3.073-.363,6.791,6.791,0,0,1-.774-.629,6.409,6.409,0,0,1-1.609.665,2.9,2.9,0,0,0-.666-.956,5.428,5.428,0,0,0,2.747-1.428c-.278-.108-.351-.229-.351-.592v-.23a5.353,5.353,0,0,1-1.343,1.44l-.835-.775a4.39,4.39,0,0,0,.895-.677h-1.016c.012-.1.024-.388.036-.884v-.29a7.054,7.054,0,0,0-.036-.823c.327.024.593.036,1.077.049V96.9a5.847,5.847,0,0,0-.049-.871,10.308,10.308,0,0,0,1.174.049h1.017a2.559,2.559,0,0,0,.145-.3h-1.476a13.028,13.028,0,0,0-1.368.06V94.69a11.989,11.989,0,0,0,1.368.061h5.021a12.114,12.114,0,0,0,1.4-.061v1.149a10.8,10.8,0,0,0-1.392-.06h-2.008c-.073.157-.085.194-.146.3h1.464a9.611,9.611,0,0,0,1.138-.049,8.272,8.272,0,0,0-.037.847v2c.5-.013.739-.025,1.065-.049a7.164,7.164,0,0,0-.036.8v.242a5.8,5.8,0,0,0,.048.871h-.895a9.8,9.8,0,0,1,.883.871l-.919.811a8.25,8.25,0,0,0-1.065-1.222c-.218.5-.412.544-1.936.544H509.2c-.158.182-.17.194-.255.291h1.561a4.343,4.343,0,0,0,.847-.049Zm-5.687-2.287c.061-.1.1-.145.182-.278l.774.387a2.226,2.226,0,0,0-.036-.423h1.246c-.012.1-.024.278-.024.351v.109c0,.205.109.242.8.242h.218a4.059,4.059,0,0,0-.823-.69l.327-.254h-2.662Zm4.61-3.315v-.29h-3.5v.29Zm0,.9v-.291h-3.5v.291Zm0,.9v-.29h-3.5v.29Zm-2.626,4.041a5.033,5.033,0,0,0,.92.545,4.159,4.159,0,0,0,.835-.545Zm1.5-3.073c.169.121.218.169.4.314l-.678.63c.751-.025.787-.049.86-.557a3.335,3.335,0,0,0,.786.278l.593-.411.242.194v-.448Z" fill="#fff"/>
      <path id="Path_257" data-name="Path 257" d="M519.041,101.635a9.889,9.889,0,0,0-1.282.061v-1.537a8.5,8.5,0,0,0,1.2.061h3.606v-.872H519.2a7.8,7.8,0,0,0-1.2.061V98.126c-.194.291-.194.291-.315.484-.169.242-.169.242-.314.424-.109.157-.109.157-.206.29v4.913a10,10,0,0,0,.061,1.4h-1.67a10.244,10.244,0,0,0,.072-1.44v-2.044c0-.1.012-.521.025-1.259a4.149,4.149,0,0,1-.775.738,6.764,6.764,0,0,0-.641-1.609,8.309,8.309,0,0,0,2.662-3.013l1.234.9c.315.024.569.036,1.065.036h1.6V96.916h-1.343a10.791,10.791,0,0,0-1.234.049V95.452a9.146,9.146,0,0,0,1.294.073H520.8v-.266a5.681,5.681,0,0,0-.06-.908h1.645a7.1,7.1,0,0,0-.06.92v.254h1.452a8.891,8.891,0,0,0,1.27-.073v1.513a10.758,10.758,0,0,0-1.246-.049h-1.476v1.029h1.911a13.116,13.116,0,0,0,1.331-.061v1.525a8.816,8.816,0,0,0-1.306-.061h-.17v.872h.194a9.494,9.494,0,0,0,1.282-.061V101.7a11.442,11.442,0,0,0-1.258-.061h-.218v2.578a1.149,1.149,0,0,1-.4,1.04,2.439,2.439,0,0,1-1.488.291c-.3,0-.569-.013-1.2-.049a6.016,6.016,0,0,0-.327-1.4l-.653.484a9.056,9.056,0,0,0-1.6-2.142l1.15-.8ZM518.1,95.15l-.363.411a10.9,10.9,0,0,1-2.626,2.263,5.228,5.228,0,0,0-.774-1.392,6.528,6.528,0,0,0,2.516-2.226Zm1.682,6.485a12.992,12.992,0,0,1,1.573,1.936l-.521.4a8.535,8.535,0,0,0,1.138.1c.5,0,.593-.048.593-.29v-2.142Z" fill="#fff"/>
      <path id="Path_258" data-name="Path 258" d="M533.743,97.328a6.033,6.033,0,0,0,.629-1.4l1.573.23c-.085.17-.158.29-.194.375-.1.17-.157.291-.181.327a2.658,2.658,0,0,1-.267.472h.859a9.442,9.442,0,0,0,1.38-.073v1.44a11.685,11.685,0,0,0-1.38-.072h-1.706a8.933,8.933,0,0,0,3.473,1.839,6.014,6.014,0,0,0-.8,1.439c-.375-.181-.471-.229-.9-.471v2.879a10.424,10.424,0,0,0,.061,1.343h-1.561v-.508h-5.143v.508h-1.573a11.038,11.038,0,0,0,.073-1.331v-2.867c-.3.169-.436.254-.823.46a4.6,4.6,0,0,0-.811-1.392,8.727,8.727,0,0,0,3.292-1.9h-1.634a11.121,11.121,0,0,0-1.379.072v-1.44a9.9,9.9,0,0,0,1.379.073h.8c-.024-.049-.037-.073-.061-.133-.06-.121-.109-.206-.133-.255a1.818,1.818,0,0,0-.193-.374l1.379-.339c.121.217.363.726.52,1.1h.92V96.142c-1.271.073-2.481.121-3.63.121a4.769,4.769,0,0,0-.6-1.319c.52.012.835.012,1.053.012,1.512,0,2.48-.048,4.476-.218a20.091,20.091,0,0,0,3.231-.471l1.089,1.306a3.276,3.276,0,0,1-.423.049c-.049.012-.17.024-.339.048-.6.085-1.682.194-3.364.351v1.307Zm-4.151,4.695h1.791v-.642h-1.791Zm0,1.851h1.791v-.629h-1.791Zm1.755-4.792a3.036,3.036,0,0,1,.024-.4A8.643,8.643,0,0,1,530,100.135h1.343Zm2.928,1.053a8.377,8.377,0,0,1-1.464-1.464,1.709,1.709,0,0,0,.012.181,1.347,1.347,0,0,1,.012.194v1.089Zm-1.44,1.9h1.9v-.642h-1.9Zm0,1.839h1.9v-.629h-1.9Z" fill="#fff"/>
      <path id="Path_259" data-name="Path 259" d="M540.192,100.268a11.807,11.807,0,0,0-1.477.073V98.816a11.626,11.626,0,0,0,1.5.073h8.191a11.71,11.71,0,0,0,1.513-.073v1.525a12.04,12.04,0,0,0-1.513-.073h-5.36c-.121.29-.193.472-.3.714h4.585a10,10,0,0,0,1.2-.048c-.024.145-.024.205-.084.725a8.078,8.078,0,0,1-.69,3.122,1.53,1.53,0,0,1-.823.617,5.307,5.307,0,0,1-1.621.146c-.69,0-1.065-.013-1.706-.061-.085-.121-.085-.145-.109-.472a3.4,3.4,0,0,0-.351-1.053c.9.1,1.73.146,2.214.146.593,0,.847-.061.98-.254a3.825,3.825,0,0,0,.375-1.549h-4.634c-.193.327-.254.435-.532.871l-1.718-.315a12.26,12.26,0,0,0,1.5-2.589Zm.012-4.549a8.3,8.3,0,0,0-.049-1.041c.375.036.787.048,1.38.048H547.1a12.575,12.575,0,0,0,1.379-.048,8.52,8.52,0,0,0-.048,1.041v1.548a8.571,8.571,0,0,0,.048,1.065c-.387-.024-.581-.036-1.246-.036h-5.845c-.641,0-.846.012-1.234.036a8.859,8.859,0,0,0,.049-1.065Zm1.549.338v.992h5.081v-.992Z" fill="#fff"/>
      <path id="Path_260" data-name="Path 260" d="M560.253,95.416a7.712,7.712,0,0,0-.448.932,20.3,20.3,0,0,1-1.682,3.376,26.155,26.155,0,0,1,2.686,2.565l-1.391,1.464a19.047,19.047,0,0,0-2.384-2.529,14.491,14.491,0,0,1-4.731,3.944,4.892,4.892,0,0,0-1.258-1.512,12.788,12.788,0,0,0,3.206-2.1,12.564,12.564,0,0,0,1.416-1.5,25.318,25.318,0,0,0-3.194-2.178l1.27-1.258a31.791,31.791,0,0,1,2.94,1.972,14.368,14.368,0,0,0,1.658-3.811Z" fill="#fff"/>
      <path id="Path_261" data-name="Path 261" d="M563.169,98.973a15.039,15.039,0,0,0,2.214.1h6.123a15.806,15.806,0,0,0,2.214-.085v1.985c-.484-.036-1.283-.061-2.227-.061h-6.11c-1.053,0-1.742.025-2.214.073Z" fill="#fff"/>
      <path id="Path_262" data-name="Path 262" d="M579.056,95.126c-.049.363-.049.363-.133,2.746a11.536,11.536,0,0,1-.956,5.094,7.887,7.887,0,0,1-1.658,2.311,5.545,5.545,0,0,0-1.464-1.415,5.6,5.6,0,0,0,1.815-2.771,10.294,10.294,0,0,0,.435-2.783c.025-.593.049-1.416.049-2.069a9.2,9.2,0,0,0-.049-1.222Zm3.315-.182a8.483,8.483,0,0,0-.1,1.464l-.06,6.437a4.887,4.887,0,0,0,1.657-1.355,6.051,6.051,0,0,0,1.077-2.142A6.544,6.544,0,0,0,586.3,100.7a7.025,7.025,0,0,1-4.561,4.355,2.532,2.532,0,0,0-.557.243l-.9-.956a4.573,4.573,0,0,0,.121-1.162l.048-6.8v-.339a8.813,8.813,0,0,0-.048-1.113Z" fill="#fff"/>
      <path id="Path_263" data-name="Path 263" d="M591.724,105.277c-.254-.774-.327-.98-.411-1.234a34.862,34.862,0,0,1-3.7.968c-.181.036-.181.036-.363.085l-.327-1.646a3.121,3.121,0,0,0,.714-.06V96.033c0-.484-.012-.786-.048-1.21a10.588,10.588,0,0,0,1.21.049h2.686a10.089,10.089,0,0,0,1.2-.049c-.024.315-.036.5-.036,1.125v3.86c0,.472.012.763.036,1.029-.387-.025-.581-.037-.992-.037h-2.529v2.311c.8-.169,1.174-.266,1.621-.4-.181-.387-.266-.581-.581-1.173l1.331-.509a22.758,22.758,0,0,1,1.634,3.558Zm-.6-8.082v-.932h-1.96v.932Zm-1.96,2.262h1.96V98.5h-1.96Zm8.748,3.195c0,1.2-.411,1.5-2.033,1.5-.145,0-.254,0-.544-.012a4.673,4.673,0,0,0-.315-1.609,8.451,8.451,0,0,0,.944.084c.351,0,.423-.06.423-.326V96.324H594.87v7.949a10.49,10.49,0,0,0,.073,1.452h-1.67a10.271,10.271,0,0,0,.06-1.452V95.961c0-.521-.012-.872-.036-1.138.4.036.738.049,1.089.049h2.468a10.765,10.765,0,0,0,1.1-.049,9.806,9.806,0,0,0-.048,1.125Z" fill="#fff"/>
      <path id="Path_264" data-name="Path 264" d="M600.641,101.369a19.09,19.09,0,0,1-.411,3.727l-1.125-.581a11.4,11.4,0,0,0,.387-3.315Zm-1.524-2.008a3.092,3.092,0,0,0,.6.048c.1,0,.169,0,.4-.012.194-.254.278-.375.484-.654a15.722,15.722,0,0,0-1.476-1.827l.75-1.246.315.339a7.69,7.69,0,0,0,.834-1.767l1.368.484c-.073.121-.109.182-.242.436a21.525,21.525,0,0,1-1.1,1.887,5.913,5.913,0,0,1,.375.472,12.962,12.962,0,0,0,1.137-2.008l1.246.665a6.288,6.288,0,0,0-.471.69c-.339.532-1.356,1.972-1.743,2.48.472-.024.472-.024,1.089-.072-.1-.315-.145-.46-.327-.92l.993-.411a12.649,12.649,0,0,1,.7,2.069v-2.5a11.486,11.486,0,0,0-.036-1.282c.351.024.557.036,1.089.036h1.222v-.774a9.568,9.568,0,0,0-.06-1.053h1.561a7.513,7.513,0,0,0-.061,1.077v.75H609.1c.545,0,.787-.012,1.065-.036a12.15,12.15,0,0,0-.049,1.294v6.522c0,.787-.145,1.125-.568,1.307a3.168,3.168,0,0,1-1.307.157c-.266,0-.411,0-.714-.024a4.761,4.761,0,0,0-.4-1.525,7.918,7.918,0,0,0,1.125.1c.315,0,.436-.084.436-.3v-1.791a5.9,5.9,0,0,0-.545.98,8.659,8.659,0,0,1-1.04-2.855,6.556,6.556,0,0,1-1.065,2.891,6.587,6.587,0,0,0-.569-1v2.372a11.51,11.51,0,0,0,.049,1.282h-1.525a11.783,11.783,0,0,0,.06-1.415v-3.582l-.919.375c-.049-.218-.049-.218-.1-.46-.266.037-.278.037-.7.073v3.727a7.37,7.37,0,0,0,.073,1.306h-1.525a7.539,7.539,0,0,0,.073-1.306v-3.618c-.351.012-.5.024-.92.036a5.508,5.508,0,0,0-.786.073Zm4.368,1.827a23.329,23.329,0,0,1,.3,2.952l-.992.242a18.461,18.461,0,0,0-.206-3Zm1.984-.049a6.386,6.386,0,0,0,.9-3.448h-.9Zm2.287-3.448a6.514,6.514,0,0,0,.315,2.02,7.313,7.313,0,0,0,.617,1.38v-3.4Z" fill="#fff"/>
      <path id="Path_265" data-name="Path 265" d="M613.576,102.761v2.093h-2.093v-2.093Z" fill="#fff"/>
      <path id="Path_266" data-name="Path 266" d="M619.843,100.195a1.786,1.786,0,0,0-.326-.713,1.389,1.389,0,0,0-1.15-.521c-1.1,0-1.754.859-1.754,2.287s.689,2.323,1.791,2.323a1.472,1.472,0,0,0,1.27-.617,1.435,1.435,0,0,0,.242-.593l1.839.327a3.721,3.721,0,0,1-.52,1.1,3.35,3.35,0,0,1-2.9,1.319,3.615,3.615,0,0,1-2.626-.968,4.083,4.083,0,0,1-1.04-2.868,4.012,4.012,0,0,1,1.064-2.855,3.574,3.574,0,0,1,2.6-.98,3.29,3.29,0,0,1,2.916,1.427,3.773,3.773,0,0,1,.423.932Z" fill="#fff"/>
      <path id="Path_267" data-name="Path 267" d="M622.505,101.272a3.781,3.781,0,1,1,7.562-.024,3.592,3.592,0,0,1-3.787,3.848A3.546,3.546,0,0,1,622.505,101.272Zm1.924-.024c0,1.428.7,2.3,1.863,2.3s1.852-.847,1.852-2.263c0-1.451-.678-2.311-1.839-2.311S624.429,99.833,624.429,101.248Z" fill="#fff"/>
      <path id="Path_268" data-name="Path 268" d="M631.168,104.854a11.581,11.581,0,0,0,.1-1.694V99.385a9.825,9.825,0,0,0-.1-1.694h2v.46c-.012.205-.012.205-.012.217a.516.516,0,0,1-.012.17,2.757,2.757,0,0,1,2.287-1.017,2.293,2.293,0,0,1,1.6.533,1.926,1.926,0,0,1,.447.569,2.931,2.931,0,0,1,2.42-1.1,2.428,2.428,0,0,1,1.985.811,2.734,2.734,0,0,1,.52,1.839v2.989a13.634,13.634,0,0,0,.085,1.694h-2.106a11.169,11.169,0,0,0,.1-1.694v-2.614a1.632,1.632,0,0,0-.206-.98.935.935,0,0,0-.8-.363,1.5,1.5,0,0,0-1.125.5,2.359,2.359,0,0,0-.569,1.005v2.456a14.026,14.026,0,0,0,.085,1.694h-2.106a11.162,11.162,0,0,0,.1-1.694v-2.614a1.513,1.513,0,0,0-.242-.992.9.9,0,0,0-.738-.339,1.616,1.616,0,0,0-1.137.533,2.708,2.708,0,0,0-.569.956v2.456a14.159,14.159,0,0,0,.085,1.694Z" fill="#fff"/>
    </g>
    <g id="Group_24" data-name="Group 24">
      <g id="Group_22" data-name="Group 22">
        <path id="Path_269" data-name="Path 269" d="M440,66.4l12.05,10.9,38.1-11.03Z" fill="url(#linear-gradient)"/>
        <path id="Path_270" data-name="Path 270" d="M490.152,66.274,457.6,90.372l-.516,16.241Z" fill="url(#linear-gradient-2)"/>
      </g>
      <g id="Group_23" data-name="Group 23">
        <path id="Path_271" data-name="Path 271" d="M452.05,77.3l-4.009,9.418,42.111-20.447Z" fill="url(#linear-gradient-3)"/>
        <path id="Path_272" data-name="Path 272" d="M490.152,66.274,448.041,86.721l9.562,3.651Z" fill="url(#linear-gradient-4)"/>
      </g>
    </g>
  </g>
</svg>
