<svg id="Layer_1" data-name="Layer 1" xmlns="http://www.w3.org/2000/svg" viewBox="0 0 331.36 467.77"><defs><style>.cls-1,.cls-3{fill:#e4eff4;}.cls-1{opacity:0.6;}.cls-2{opacity:0.8;}.cls-4{fill:#cad6da;}</style></defs><path class="cls-1" d="M175.09,396.74c-1.81,12.52-14.24,22.8-26.78,23-16.77.27-33.56.07-50.34.07-15.45,0-30.91-.38-46.35.11-13.85.43-32.84-10.71-35.41-30.2-1.6-12.21,6.13-26.4,18.36-32,3.36-1.52,6.29-3.13,8.47-6.38a11.67,11.67,0,0,1,11.65-5.26c3,.39,4.84-.71,6.67-3.06,7.78-10,17.91-13.77,30.37-11,2.27.51,4.32.78,6.56-.85,21.17-15.43,47.59-5,57,16.84a22.4,22.4,0,0,1,2.17,8.05,13.75,13.75,0,0,0,5.88,11.31C173,374.67,176.82,384.77,175.09,396.74Z"/><path class="cls-1" d="M156.74,77.25c-1.4,9.71-11,17.69-20.77,17.84-13,.21-26,.06-39,.06-12,0-24-.3-36,.08-10.74.34-25.47-8.3-27.47-23.42C32.27,62.34,38.27,51.33,47.75,47c2.61-1.18,4.88-2.43,6.57-5a9.08,9.08,0,0,1,9-4.08c2.32.31,3.75-.55,5.17-2.37,6-7.72,13.89-10.68,23.56-8.52,1.76.4,3.35.61,5.08-.65,16.42-12,36.91-3.89,44.2,13.06a17.22,17.22,0,0,1,1.68,6.24,10.67,10.67,0,0,0,4.56,8.77C155.14,60.14,158.08,68,156.74,77.25Z"/><g class="cls-2"><path class="cls-3" d="M310.72,317.92c-2.27,11.7-11.81,19.25-24.34,19.27-33,.07-66-.08-99,.11-7.76,0-15.18-.39-21.75-5-7.66-6-10.65-13.9-8.35-23.35,2.24-9.23,8.53-14.69,17.66-16.9,2.87-.69,5.61-.7,6-5,1.2-15.22,18.22-28.41,37.31-22,3.23,1.07,4.51.4,6.39-2.07,16.9-22.1,48.73-21.3,66.1.63A36.89,36.89,0,0,1,299,289.78c-.21,2.94.44,5.24,3.23,6.6,1.12,1.22,2.22,2.45,3.35,3.65A19.47,19.47,0,0,1,310.72,317.92Z"/><path class="cls-4" d="M289.22,340.07c-35.25.05-70.5.18-105.75-.12-6.64-.06-13.23-2.05-17.86-7.69,6.57,4.65,14,5.08,21.75,5,33-.19,66,0,99-.11,12.53,0,22.07-7.57,24.34-19.27A19.47,19.47,0,0,0,305.56,300c-1.13-1.2-2.23-2.43-3.35-3.65,6,1.91,9,6.68,10.71,12.07C318.09,325.21,306.86,340.05,289.22,340.07Z"/></g></svg>