<svg xmlns="http://www.w3.org/2000/svg" width="93.736" height="13.335" viewBox="0 0 93.736 13.335"><g transform="translate(-993.91 -4363.205)"><path d="M993.91,4363.205l9.021,6.653-9.021,6.682Z" fill="#fff"/><path d="M1012.868,4366.6a13.785,13.785,0,0,1-2.717.56c0,.882-.014,1.864-.014,2.675a10.515,10.515,0,0,1,3.166-.643c2.381,0,3.866,1.288,3.866,3.263a3.08,3.08,0,0,1-3.292,3.292,3.261,3.261,0,0,1-2.731-1.345,6.819,6.819,0,0,0,.5-.728,2.687,2.687,0,0,0,2.242,1.148,2.185,2.185,0,0,0,2.269-2.367c0-1.359-.994-2.424-2.871-2.409a10.143,10.143,0,0,0-3.152.672c0,1.037.028,2.7.028,3.1a2.1,2.1,0,0,1-2.2,2.227,2.177,2.177,0,0,1-2.367-2.157,3.614,3.614,0,0,1,1.751-2.69,9.981,9.981,0,0,1,1.863-1.008v-2.955c-1.121.1-2.242.111-3.362.1l-.014-.952c1.232.014,2.352,0,3.376-.085v-2.619l1.414.084c-.014.168-.154.267-.392.294-.028.547-.042,1.373-.056,2.157a10.494,10.494,0,0,0,2.521-.588Zm-3.641,7.158c0-.364-.014-1.513-.014-2.662a9.282,9.282,0,0,0-1.43.827,2.778,2.778,0,0,0-1.274,1.919,1.292,1.292,0,0,0,1.429,1.33,1.268,1.268,0,0,0,1.289-1.4Zm7.914-5.491a11.5,11.5,0,0,0-3.194-2.018l.491-.826a13.221,13.221,0,0,1,3.319,2.018Z" fill="#fff"/><path d="M1024.823,4368.92h-4.146v7.467h-.924v-12.411h5.07Zm-.9-4.174h-3.25v1.288h3.25Zm-3.25,3.4h3.25v-1.4h-3.25Zm7.424,6.22h-4.413v.855h-.9v-4.973h5.309Zm-.9-3.306h-3.516v2.494h3.516Zm4.147-7.087v11.08c0,.658-.168.966-.6,1.134a8.994,8.994,0,0,1-2.507.182,3.925,3.925,0,0,0-.35-.98c.49.014.953.028,1.344.028,1.093,0,1.177,0,1.177-.379v-6.121h-4.258v-4.944Zm-.939.77h-3.348v1.288h3.348Zm-3.348,3.4h3.348v-1.4h-3.348Z" fill="#fff"/><path d="M1035.392,4365.25c-.029.126-.183.21-.378.225a22.877,22.877,0,0,0-.267,3.487c0,.518.028,1.022.056,1.471.168,2.381,1.135,3.824,2.214,3.81.559,0,1.288-1.429,1.793-3a4.9,4.9,0,0,0,.812.6c-.644,1.89-1.457,3.431-2.62,3.46-1.778.028-3.012-2.129-3.207-4.819-.042-.532-.057-1.121-.057-1.751a33.635,33.635,0,0,1,.21-3.768Zm9.287,6.514a6.991,6.991,0,0,0-3.531-5.267l.617-.757a7.692,7.692,0,0,1,3.95,5.7Z" fill="#fff"/><path d="M1054.364,4363.429a.329.329,0,0,1-.294.211,17.677,17.677,0,0,0,6.135,4.887,3.6,3.6,0,0,0-.616.813,19.456,19.456,0,0,1-6.108-5.015,18.081,18.081,0,0,1-5.966,5.127,4.715,4.715,0,0,0-.589-.742,16.349,16.349,0,0,0,6.052-5.365Zm-5.14,12.958v-5.674h8.628v5.674h-.953v-.6h-6.752v.6Zm.714-8.377h7.171v.854h-7.171Zm6.961,3.571h-6.752v3.349h6.752Z" fill="#fff"/><path d="M1064.372,4363.709l1.415.141c-.042.168-.168.238-.406.265-.056.658-.1,1.429-.126,2,.084.042.224.1.5.211a8.449,8.449,0,0,0-.574,1.694c-.014.281-.028.378-.042.6a7.9,7.9,0,0,1,4.581-1.695c2.451,0,3.739,1.667,3.739,4.02,0,2.942-2.311,4.273-6.093,4.609a5,5,0,0,0-.35-.9c3.474-.322,5.435-1.3,5.435-3.7,0-1.709-.883-3.11-2.8-3.11a7.165,7.165,0,0,0-4.524,1.849c0,2.018,0,4.441.014,6.3h-.981c.014-.841,0-4.959.014-5.883a14.317,14.317,0,0,1-2.661,3.249l-.519-.826a13.262,13.262,0,0,0,3.194-4.16l.042-1.149a21.3,21.3,0,0,1-2.759.239l-.029-.967a15.572,15.572,0,0,0,2.844-.21Z" fill="#fff"/><path d="M1084.746,4363.863c0,.14-.1.21-.308.267.056.98.1,2.129.125,3.18,1.107-.183,2.172-.351,3-.477l.084.98c-.841.084-1.934.239-3.068.42a17.382,17.382,0,0,1-.154,3.111,1.53,1.53,0,0,1-1.57,1.3,4.8,4.8,0,0,1-2.157-.617,5.951,5.951,0,0,0,.168-.826,4.306,4.306,0,0,0,1.836.547c.84,0,.966-.827.9-3.376-1.612.266-3.292.546-4.568.771.029,1.33.057,2.6.113,3.389.168,2.129,1.218,2.255,3.236,2.255a30.47,30.47,0,0,0,3.67-.21l.027.953a35.893,35.893,0,0,1-3.586.154c-2.171,0-4.076-.056-4.314-3.068-.07-.784-.1-2-.126-3.305-.868.154-2.017.377-2.732.517l-.153-.938c.742-.112,1.9-.322,2.871-.476-.014-1.219-.028-2.535-.028-3.6l1.387.126c-.014.155-.126.239-.35.267-.015.855-.015,1.975,0,3.025l4.538-.755c-.042-1.192-.1-2.55-.182-3.685Z" fill="#fff"/></g></svg>