<svg xmlns="http://www.w3.org/2000/svg" width="313.298" height="44.61" viewBox="0 0 313.298 44.61"><g transform="translate(-802.956 -2345.468)"><path d="M818.965,2377.165h3.553a19.083,19.083,0,0,0,2.568-.144v2.712c-.792-.072-1.56-.12-2.592-.12h-2.688a15.715,15.715,0,0,0,5.976,5.977,6.268,6.268,0,0,0-1.68,2.5,15.371,15.371,0,0,1-2.688-2.521,17.049,17.049,0,0,1-2.569-3.671c.072.815.1,1.679.1,2.376v3.024a21.907,21.907,0,0,0,.144,2.784h-2.76a23,23,0,0,0,.144-2.784v-2.856c0-.672.024-1.537.1-2.473a17.157,17.157,0,0,1-5.688,6.217,10.72,10.72,0,0,0-1.488-2.281,15.755,15.755,0,0,0,6.12-6.288h-1.584a20.6,20.6,0,0,0-2.616.144v-.985a7.568,7.568,0,0,0-1.032,2.017,14.006,14.006,0,0,1-1.465-3c.048.792.1,2.112.1,3.168v6.145a23.809,23.809,0,0,0,.144,2.952h-2.784a24.551,24.551,0,0,0,.144-2.952v-5.161a27.649,27.649,0,0,1,.168-3.1,19.072,19.072,0,0,1-2.521,5.665,8.721,8.721,0,0,0-1.1-2.665,22.021,22.021,0,0,0,3.216-7.248h-.96a7.237,7.237,0,0,0-1.608.12v-2.593a6.858,6.858,0,0,0,1.608.12h1.2V2370.3a14.865,14.865,0,0,0-.144-2.472h2.76a20.723,20.723,0,0,0-.12,2.472v1.944h.719a6.419,6.419,0,0,0,1.3-.1v2.376a15.453,15.453,0,0,0,1.824-5.832l2.448.624a13.091,13.091,0,0,0-.36,1.3c-.144.552-.192.72-.312,1.176h1.944v-1.656a14.3,14.3,0,0,0-.144-2.28h2.784a14.2,14.2,0,0,0-.144,2.28v1.656H821.8a17.823,17.823,0,0,0,2.568-.143v2.639a18.621,18.621,0,0,0-2.568-.143h-2.833Zm-5.232-3.024a15.488,15.488,0,0,1-1.344,2.664,8.812,8.812,0,0,0-1.968-1.561c.216-.288.287-.384.408-.575a8.465,8.465,0,0,0-1.176-.072h-.6a16.154,16.154,0,0,0,2.256,3.792v-1.368a19.363,19.363,0,0,0,2.616.144h2.544v-3.024Z" fill="#333"/><path d="M831.708,2374.908a19.867,19.867,0,0,0-2.928.12v-2.759a19.2,19.2,0,0,0,2.9.143h13.874a24.843,24.843,0,0,0,2.9-.143v2.759a23,23,0,0,0-2.9-.12h-5.617v4.177h4.632a25.821,25.821,0,0,0,2.593-.12v2.712a18.174,18.174,0,0,0-2.52-.12h-4.705v4.968h6.409a31.017,31.017,0,0,0,3.168-.143v2.832a24.823,24.823,0,0,0-3.1-.168H831.132a25.569,25.569,0,0,0-3.264.168v-2.832a27.617,27.617,0,0,0,3.168.143h6.1v-4.968h-4.3a21.1,21.1,0,0,0-2.712.12v-2.712a17.151,17.151,0,0,0,2.521.12h4.488v-4.177Zm4.417-7.32a42.652,42.652,0,0,1,6.216,2.544l-1.8,2.16a28.39,28.39,0,0,0-6.36-2.784Z" fill="#333"/><path d="M854.22,2380.045c0-1.1,0-1.536.072-2.424a12.5,12.5,0,0,1-1.56,2.448,10.4,10.4,0,0,0-1.2-2.736,20.727,20.727,0,0,0,4.392-9.745l2.52.912c-.144.408-.144.408-.407,1.272a21.687,21.687,0,0,1-1.417,3.745v13.7c0,1.032.048,1.824.12,2.784h-2.664a20.668,20.668,0,0,0,.144-2.832Zm17.113,4.152a3.05,3.05,0,0,0-.479.456,12.78,12.78,0,0,1-2.449,2.113,26.205,26.205,0,0,0,6.217.7,8.511,8.511,0,0,0-.912,2.376c-4.033-.481-5.521-.817-7.681-1.8a25.414,25.414,0,0,1-7.824,1.8,6.322,6.322,0,0,0-.889-2.112,20.646,20.646,0,0,0,6.433-1.008,11.492,11.492,0,0,1-1.728-1.368,11.478,11.478,0,0,1-3.36,1.559,5.429,5.429,0,0,0-1.249-1.632,11.642,11.642,0,0,0,3.216-1.3,9.824,9.824,0,0,0,2.281-1.8c-.576-.193-.72-.409-.72-1.153v-.936a6.221,6.221,0,0,0-.072-1.056h2.136a4.319,4.319,0,0,0-.072.984v.192c0,.456.24.528,1.848.528,2.232,0,2.232,0,2.472-1.416a5.917,5.917,0,0,0,1.416.5l1.177-.744c.431.384.48.432.84.768v-1.272H866.8a10.221,10.221,0,0,1,.984.84l-1.272,1.1a8.448,8.448,0,0,0-1.728-1.608l.48-.336H860v1.512a8.442,8.442,0,0,0,.553-.888l1.632.84a11.318,11.318,0,0,1-2.712,3.288l-1.465-1.3a9.308,9.308,0,0,0,1.488-1.272h-1.751q.034-.324.071-1.656v-.816a14.212,14.212,0,0,0-.071-1.561c.671.048.959.073,2.208.1v-4.2a16.166,16.166,0,0,0-.072-1.655,22.007,22.007,0,0,0,2.4.1h1.848c.12-.215.144-.312.288-.6h-3.144a24.54,24.54,0,0,0-2.616.12v-2.064a17.021,17.021,0,0,0,2.616.144h9.985a17.694,17.694,0,0,0,2.688-.144v2.064a25.6,25.6,0,0,0-2.664-.12h-4.321c-.144.312-.192.385-.288.6H869.6a21.784,21.784,0,0,0,2.376-.1,10.634,10.634,0,0,0-.1,1.607v4.249c1.2-.024,1.632-.024,2.328-.1a14.556,14.556,0,0,0-.072,1.561v.6a10.262,10.262,0,0,0,.1,1.632H872.63a15.2,15.2,0,0,1,1.44,1.56l-1.536,1.345a23.454,23.454,0,0,0-2.281-2.665c-.527,1.585-.527,1.585-4.992,1.585-.168.168-.336.359-.552.6h3.5a9.635,9.635,0,0,0,1.752-.095Zm-1.775-11.016v-.6h-7.273v.6Zm0,1.847v-.624h-7.273v.624Zm0,1.8v-.576h-7.273v.576Zm-5.545,7.872a10.2,10.2,0,0,0,1.944,1.177,14.3,14.3,0,0,0,1.9-1.177Z" fill="#333"/><path d="M879.205,2382.565c0-.792,0-.839.047-2.592a9.059,9.059,0,0,1-1.8,1.8,10.087,10.087,0,0,0-1.152-2.592,16.676,16.676,0,0,0,4.033-3.985,10.562,10.562,0,0,0,1.32-2.183l2.136,1.464a2.21,2.21,0,0,0-.312.456s-.072.095-.144.215a1.014,1.014,0,0,0-.192.313,21.4,21.4,0,0,1-1.44,1.968v9.745a20.675,20.675,0,0,0,.12,2.807h-2.76a20.46,20.46,0,0,0,.144-2.832Zm4.488-13.465c-.24.264-.24.264-.672.768a20.353,20.353,0,0,1-5.161,4.536,7.907,7.907,0,0,0-1.344-2.256,13.071,13.071,0,0,0,5.041-4.608Zm2.832,3.5a15.975,15.975,0,0,0-2.376.121v-2.569a16.646,16.646,0,0,0,2.472.144h2.712v-.672a11.539,11.539,0,0,0-.144-1.848h2.856a11.271,11.271,0,0,0-.119,1.872v.648H895a16.87,16.87,0,0,0,2.472-.144v2.569a16.29,16.29,0,0,0-2.424-.121h-3.12v2.4h3.984a25.726,25.726,0,0,0,2.592-.12v2.544a21.023,21.023,0,0,0-2.544-.12h-.552v2.064h.576a18.338,18.338,0,0,0,2.52-.12v2.616a17.356,17.356,0,0,0-2.472-.143h-.624v5.591c0,1.057-.192,1.513-.768,1.92a4.708,4.708,0,0,1-2.761.5c-.6,0-1.1-.024-2.255-.1a9.5,9.5,0,0,0-.649-2.617,18.566,18.566,0,0,0,2.881.265c.815,0,1.032-.12,1.032-.576v-4.992h-7.2a18.2,18.2,0,0,0-2.5.143v-2.616a16.171,16.171,0,0,0,2.352.12h7.345v-2.064h-6.865a15.619,15.619,0,0,0-2.352.12v-2.544a15.948,15.948,0,0,0,2.352.12h3.312v-2.4Zm1.464,14.761a17.093,17.093,0,0,0-3.216-4.1l1.968-1.417a23.574,23.574,0,0,1,3.337,3.913Z" fill="#333"/><path d="M905.125,2375.173a13.934,13.934,0,0,0-2.161.12v-1.032h-1.512a11.438,11.438,0,0,0,.1-1.729v-1.272a12.189,12.189,0,0,0-.1-1.752,21.59,21.59,0,0,0,2.448.1h3.025v-.144a7.917,7.917,0,0,0-.12-1.656h2.856a7.674,7.674,0,0,0-.12,1.633v.167h2.448a26.079,26.079,0,0,0,2.664-.1c-.048.528-.071.984-.071,1.728v1.2a16.352,16.352,0,0,0,.071,1.679h-1.344v1.177a13.444,13.444,0,0,0-2.112-.12h-1.848v1.08h2.208a13.558,13.558,0,0,0,1.9-.1v2.113a12.668,12.668,0,0,0-1.9-.1h-2.208v1.2h3.144a12.156,12.156,0,0,0,2.089-.12v2.328a16,16,0,0,0-2.089-.1h-9.025a18.051,18.051,0,0,0-2.136.1v-2.328a12.6,12.6,0,0,0,2.136.12H907v-1.2h-2.4a13.625,13.625,0,0,0-1.945.1v-2.113a14.334,14.334,0,0,0,1.945.1H907v-1.08Zm6.384,7.345c.816,0,1.344-.025,1.9-.073a16.153,16.153,0,0,0-.1,2.113v3.024a12.585,12.585,0,0,0,.12,2.16h-2.616V2389h-5.424v1.008h-2.665a11.2,11.2,0,0,0,.144-2.136v-3.192a21.561,21.561,0,0,0-.1-2.233c.552.048,1.176.073,2.04.073ZM907,2373.229a5.323,5.323,0,0,0-.121-1.081h2.593a5.63,5.63,0,0,0-.12,1.081H911.2c.48,0,.768,0,1.128-.025v-1.536h-8.449v1.536c.433.025.672.025,1.249.025Zm-1.608,13.632h5.424v-2.328h-5.424Zm12.864-17.353a16.348,16.348,0,0,0-.119,2.5v9.722a15.541,15.541,0,0,0,.119,2.544h-2.711a16.832,16.832,0,0,0,.12-2.569v-9.648a16.646,16.646,0,0,0-.12-2.545Zm4.369-1.512a16.373,16.373,0,0,0-.168,2.9v16.009c0,2.233-.72,2.784-3.624,2.784-.577,0-.984-.023-2.232-.1a8.407,8.407,0,0,0-.673-2.5c1.417.143,2.16.215,2.713.215,1.1,0,1.32-.12,1.32-.744v-15.6a18.916,18.916,0,0,0-.144-2.977Z" fill="#333"/><path d="M935.533,2379.229a14.894,14.894,0,0,0,1.968-.1c-.047.48-.071.648-.1,1.272a20.207,20.207,0,0,1-1.416,7.513c-.6,1.2-1.632,1.607-3.936,1.607-1.128,0-2.256-.071-3.792-.215a10.792,10.792,0,0,0-.624-2.737,25.846,25.846,0,0,0,4.44.456c.936,0,1.344-.143,1.56-.6a14.191,14.191,0,0,0,.96-4.9h-6.624c-.672,0-1.224.024-1.776.072a35.864,35.864,0,0,0,1.152-7.632,13.148,13.148,0,0,0,1.872.1h5.352v-2.927h-5.64a20.982,20.982,0,0,0-2.52.143v-2.664a19.719,19.719,0,0,0,2.544.144h6.024a21.74,21.74,0,0,0,2.329-.1c-.048.6-.073,1.152-.073,1.944v3.937c0,.792.025,1.3.073,1.872-.6-.048-1.369-.072-2.137-.072h-5.352c-.144,1.032-.288,1.848-.5,2.88Zm9.6-11.041a16.725,16.725,0,0,0-.144,2.665v15.96a21.888,21.888,0,0,0,.144,3.073h-3.048a22.254,22.254,0,0,0,.168-3.073v-15.96a14.473,14.473,0,0,0-.168-2.665Z" fill="#333"/><path d="M949.044,2376.948a10.33,10.33,0,0,0,1.92.12h1.752a10.489,10.489,0,0,0,1.825-.12,24.425,24.425,0,0,0-.1,2.617v5.184a3.593,3.593,0,0,0,1.033,1.272,4.326,4.326,0,0,0,1.56.72,19.606,19.606,0,0,0,3.888.336,84.876,84.876,0,0,0,10.609-.479,9.032,9.032,0,0,0-.721,2.736c-2.376.1-5.016.144-7.656.144-4.056,0-5.64-.121-6.936-.5a5.791,5.791,0,0,1-3.049-2.184,33.109,33.109,0,0,1-3.432,2.88l-1.176-2.736a13.119,13.119,0,0,0,3.36-2.353v-5.16h-1.272a8.589,8.589,0,0,0-1.608.12Zm2.016-8.88a29.291,29.291,0,0,1,4.1,4.369l-1.993,1.944a25.806,25.806,0,0,0-4.032-4.513Zm10.681,16.009v1.1h-2.16a14.984,14.984,0,0,0,.072-1.584v-2.9a14.367,14.367,0,0,0-.072-1.584,13.128,13.128,0,0,0,1.68.072h.7V2378H960.9a16.158,16.158,0,0,0-1.968.1v-1.945a15.408,15.408,0,0,0,1.968.1h1.056V2375.1h-3.528v8.161a25.078,25.078,0,0,0,.1,2.712h-2.592c.047-.649.1-1.7.1-2.712v-7.753c0-1.248-.024-1.729-.072-2.5.7.048,1.272.071,2.5.071h.672c-.24-.575-.432-1.008-.7-1.512h-.72a21.485,21.485,0,0,0-2.472.1v-2.352a17.339,17.339,0,0,0,2.52.144h3.984a10.616,10.616,0,0,0-.144-1.729h2.832a10.475,10.475,0,0,0-.144,1.729h4.105a16.377,16.377,0,0,0,2.471-.144v2.376a15.985,15.985,0,0,0-2.328-.12h-.96a14.718,14.718,0,0,1-.719,1.512h1.055a20.591,20.591,0,0,0,2.353-.1,22.946,22.946,0,0,0-.1,2.569v8.232c0,1.3-.312,1.849-1.152,2.112a10.6,10.6,0,0,1-2.712.216c-.145,0-.456,0-.889-.023a10.254,10.254,0,0,0-.432-2.017Zm2.544-10.993c.168-.384.361-.863.6-1.512h-3.84a11.608,11.608,0,0,1,.648,1.512Zm-2.592,9.289h2.688v-1.488h-2.688Zm4.752.433v1.055h.409c.767,0,.912-.072.912-.5V2375.1h-3.6v1.152h1.105a15.83,15.83,0,0,0,1.992-.1v1.945a16.592,16.592,0,0,0-1.992-.1h-1.105v1.176h.744a14.244,14.244,0,0,0,1.609-.072,14.812,14.812,0,0,0-.073,1.608Z" fill="#333"/><path d="M977.7,2382.445a16.111,16.111,0,0,1-2.447,7.585,14.428,14.428,0,0,0-2.329-1.9,10.982,10.982,0,0,0,1.753-4.057,24.415,24.415,0,0,0,.479-3.672c.12-2.016.216-5.425.216-8.257a32.474,32.474,0,0,0-.119-3.48c.84.072,1.464.1,2.76.1h13.465a26.685,26.685,0,0,0,2.76-.1c-.072.816-.1,1.416-.1,2.712v15.769c0,1.993-.72,2.5-3.456,2.5-.745,0-1.968-.048-2.689-.1a9.627,9.627,0,0,0-.672-2.5c1.2.12,2.257.191,3.025.191.984,0,1.2-.1,1.2-.6v-4.2h-5.761v3.937a21.059,21.059,0,0,0,.12,2.855h-2.832a19.771,19.771,0,0,0,.144-2.832v-3.96Zm5.521-5.665h-5.3c0,.7-.024,1.177-.024,1.513-.024,1.128-.024,1.3-.024,1.776h5.352Zm0-5.5h-5.233v2.473l-.023.672h5.256Zm8.329,3.145v-3.145h-5.761v3.145Zm0,5.64v-3.289h-5.761v3.289Z" fill="#333"/><path d="M1000.14,2379.9a11.1,11.1,0,0,1-1.776,1.728,9.715,9.715,0,0,0-1.128-2.544,17.947,17.947,0,0,0,3.985-3.864,10.993,10.993,0,0,0,1.439-2.376l2.16,1.416c-.216.288-.431.624-.647.983-.049.049-.145.193-.288.385-.433.624-1.032,1.439-1.225,1.727v9.721c0,1.345.025,2.041.1,2.833h-2.785a18.081,18.081,0,0,0,.144-2.64v-4.416Zm4.464-10.873c-.887,1.152-.912,1.176-1.511,1.872a19.955,19.955,0,0,1-4.177,3.529,8.619,8.619,0,0,0-1.344-2.208,11.779,11.779,0,0,0,4.9-4.7Zm7.657-.312c-.216.264-.216.264-.624.816a36.264,36.264,0,0,1-2.544,3.072c.672.577.912.792,1.44,1.321a24.05,24.05,0,0,0,3.6-4.561l2.448,1.321c-.169.168-.337.383-.864,1.031a59.551,59.551,0,0,1-4.705,4.921c1.872-.073,1.872-.073,4.56-.288-.384-.529-.6-.817-1.271-1.657l1.992-1.223a47.481,47.481,0,0,1,3.7,5.28l-2.16,1.392c-.576-1.032-.721-1.32-1.057-1.9-3.408.384-3.408.384-5.592.552a10.449,10.449,0,0,1-.72,1.272h3.7a18.855,18.855,0,0,0,1.945-.1l1.488,1.368c-.168.216-.216.264-.384.5a22.363,22.363,0,0,1-3.553,3.72,21.622,21.622,0,0,0,6.409,1.705,12.773,12.773,0,0,0-1.176,2.616,21.406,21.406,0,0,1-7.489-2.712,19.956,19.956,0,0,1-7.273,2.832,8.447,8.447,0,0,0-1.2-2.328,18.231,18.231,0,0,0,6.36-2.088,13.965,13.965,0,0,1-1.992-2.017,15.8,15.8,0,0,1-2.832,1.92,8.585,8.585,0,0,0-1.585-2.088,11.41,11.41,0,0,0,5.425-4.416,33.992,33.992,0,0,0-4.3.336l-.313-2.593a13.222,13.222,0,0,0,1.464.073h.865c.36-.025.36-.025,1.631-.048l1.153-1.057a30.951,30.951,0,0,0-4.416-3.576l1.7-1.848c.624.456.792.577,1.248.912a13.743,13.743,0,0,0,2.52-3.576Zm-3.1,13.369a9.221,9.221,0,0,0,2.256,2.16,12.9,12.9,0,0,0,2.352-2.16Z" fill="#333"/><path d="M1032.108,2382.421c-1.368,3.1-2.9,4.513-4.872,4.513-2.736,0-4.7-2.785-4.7-6.649a10.31,10.31,0,0,1,2.64-6.984,10.773,10.773,0,0,1,8.257-3.361c5.76,0,9.505,3.5,9.505,8.905a9.249,9.249,0,0,1-5.832,8.953,15.755,15.755,0,0,1-3.769,1.008,7.648,7.648,0,0,0-1.465-2.809,12.771,12.771,0,0,0,4.778-1.319,6.723,6.723,0,0,0,3.335-6,5.946,5.946,0,0,0-2.952-5.328,5.247,5.247,0,0,0-2.425-.721A34.7,34.7,0,0,1,1032.108,2382.421Zm-3.528-8.593a8.039,8.039,0,0,0-3.264,6.481c0,1.968.84,3.528,1.9,3.528.792,0,1.608-1.008,2.473-3.072a31.646,31.646,0,0,0,1.992-8.113A6.121,6.121,0,0,0,1028.58,2373.828Z" fill="#333"/><path d="M1055.1,2383.453c-.121.313-.144.433-.264.817a17.714,17.714,0,0,1-2.424-3.385c.119,1.633.144,1.969.144,2.736v3.961a14.333,14.333,0,0,0,.143,2.5h-2.784a15.543,15.543,0,0,0,.168-2.545v-3.095c0-.96.049-2.088.1-2.881a16.614,16.614,0,0,1-3.12,5.4,7.244,7.244,0,0,0-1.225-2.473,15.821,15.821,0,0,0,2.593-3.552,20.273,20.273,0,0,0,1.271-2.712h-1.248a12.421,12.421,0,0,0-2.16.12V2375.8a11.933,11.933,0,0,0,2.16.12h1.609v-5.688a14.82,14.82,0,0,0-.121-2.353h2.737a14.336,14.336,0,0,0-.12,2.328v5.713h1.128a12,12,0,0,0,1.848-.1v2.5a14.178,14.178,0,0,0-1.9-.095h-.865a12.783,12.783,0,0,0,3.1,3.673,13.833,13.833,0,0,0-.672,1.343,16.071,16.071,0,0,0,2.208-.336l5.616-1.248v-10.968a16.578,16.578,0,0,0-.143-2.785h2.9a16.964,16.964,0,0,0-.144,2.76v10.417a14.641,14.641,0,0,0,2.04-.6l.5,2.736a17.343,17.343,0,0,0-2.3.433l-.24.047v3.5a17.606,17.606,0,0,0,.144,2.833h-2.9a17.554,17.554,0,0,0,.143-2.856v-2.9l-5.088,1.152c-1.056.239-1.752.432-2.28.6Zm-6.937-14.257a29.112,29.112,0,0,1,1.464,5.185l-2.016.863a19.332,19.332,0,0,0-1.488-5.136Zm8.232.84a29.037,29.037,0,0,1-1.919,5.208l-1.752-.912a19.972,19.972,0,0,0,1.656-5.184Zm1.2,5.448a21.9,21.9,0,0,1,4.176,3.529l-1.631,1.944a20.993,20.993,0,0,0-4.225-3.7Zm.744-6a23.285,23.285,0,0,1,4.2,3.529l-1.632,2.015a20.3,20.3,0,0,0-4.248-3.7Z" fill="#29abe2"/><path d="M1077.612,2376.685a16.827,16.827,0,0,0-2.352.12v-1.153a25.84,25.84,0,0,1-3.912,1.969,10.738,10.738,0,0,0-1.392-2.473c4.464-1.559,8.065-4.152,9.792-7.032h2.977a14.215,14.215,0,0,0,3.7,3.7,19.89,19.89,0,0,0,6.36,3.24,12.337,12.337,0,0,0-1.3,2.639,24.5,24.5,0,0,1-4.2-2.111v1.224a16.415,16.415,0,0,0-2.352-.12h-2.449v2.328h6.074a17.028,17.028,0,0,0,2.616-.144v2.664a19.2,19.2,0,0,0-2.641-.144h-6.049v5.377h6.53a22.29,22.29,0,0,0,2.832-.145v2.761a22.141,22.141,0,0,0-2.881-.168H1073.8a23.669,23.669,0,0,0-2.977.168v-2.761a25.73,25.73,0,0,0,2.977.145h6.024v-5.377h-5.688a19.9,19.9,0,0,0-2.592.144v-2.664a17.685,17.685,0,0,0,2.616.144h5.664v-2.328Zm-1.7,4.92a27.556,27.556,0,0,1,1.92,3.985l-2.4.96a17.49,17.49,0,0,0-1.9-3.985Zm1.632-7.176,7.441.023c.216,0,.216,0,.576-.023a18.966,18.966,0,0,1-4.321-4.033,16.933,16.933,0,0,1-4.2,4.033Zm11.474,8.16c-.313.553-.313.553-1.2,2.3-.072.143-.167.311-.984,1.7l-2.256-.84a20.066,20.066,0,0,0,1.9-4.129Z" fill="#29abe2"/><path d="M1099.044,2386.934a24.773,24.773,0,0,0,.12,2.879H1096.5a24.138,24.138,0,0,0,.144-2.879v-6.409c0-1.152,0-1.776.047-2.856a13.2,13.2,0,0,1-1.584,2.424,10.287,10.287,0,0,0-1.055-2.808,20.508,20.508,0,0,0,4.344-9.554l2.472.913c-.12.288-.312.96-.384,1.224a24.407,24.407,0,0,1-1.44,3.912Zm9.721-12.1c-.048.311-.048.432-.12.96-.745,6.456-2.832,10.513-7.3,14.161a10.469,10.469,0,0,0-1.825-2.017,15.139,15.139,0,0,0,4.945-5.568,20.314,20.314,0,0,0-2.353-2.4,18.724,18.724,0,0,1-1.512,2.112,11.114,11.114,0,0,0-1.416-2.352,15.231,15.231,0,0,0,3.528-8.377,10.682,10.682,0,0,0-1.7.1v-2.52a14.222,14.222,0,0,0,2.257.12h3.48a14.823,14.823,0,0,0,2.352-.12v2.52a13.147,13.147,0,0,0-1.872-.1h-2.184a19.762,19.762,0,0,1-.433,2.5h1.536a10.879,10.879,0,0,0,1.777-.1Zm-4.8,1.271c-.265.7-.433,1.1-.721,1.752a24.946,24.946,0,0,1,2.233,2.185,15.924,15.924,0,0,0,.864-3.937Zm12.169,11.041c0,2.017-.7,2.473-3.745,2.473-.624,0-1.128,0-2.136-.048a7.643,7.643,0,0,0-.649-2.472c.985.095,2.185.192,2.785.192,1.224,0,1.368-.072,1.368-.624v-16.01a17.807,17.807,0,0,0-.144-2.472h2.641a16.462,16.462,0,0,0-.12,2.472Zm-6.53-3.072a15.316,15.316,0,0,0,.121-2.04V2371.62a17.364,17.364,0,0,0-.1-2.04h2.568a15.2,15.2,0,0,0-.095,2.04v10.393a15.143,15.143,0,0,0,.095,2.064Z" fill="#29abe2"/><path d="M927.329,2356.814a12.035,12.035,0,0,0-1.807-.1h-4.37c-.84,0-1.219.013-1.779.042a11.348,11.348,0,0,0,.112-1.849v-7.578a12.425,12.425,0,0,0-.112-1.808c.56.029.924.042,1.779.042h4.23a14.956,14.956,0,0,0,1.807-.1v1.848a12.749,12.749,0,0,0-1.807-.1h-4.034v2.885h3.4a14.623,14.623,0,0,0,1.821-.1v1.835a10.982,10.982,0,0,0-1.821-.1h-3.418v3.306h4.2a13.381,13.381,0,0,0,1.793-.1Z" fill="#29abe2"/><path d="M937.773,2356.716c-.28-.519-.588-1.023-.939-1.555l-1.975-3-1.961,2.983c-.336.5-.686,1.108-.939,1.57H929.41c.827-1.051,1.023-1.317,1.317-1.723l2.97-4.175-2.578-3.641c-.378-.532-.8-1.079-1.232-1.612h2.507a10.651,10.651,0,0,0,.9,1.57l1.6,2.381,1.555-2.381a9.09,9.09,0,0,0,.883-1.57h2.493c-.392.491-.8,1.023-1.219,1.612l-2.577,3.628,2.97,4.174c.321.462.658.9,1.344,1.737Z" fill="#29abe2"/><path d="M950.653,2356.716a9.42,9.42,0,0,0-.392-1.471l-.561-1.527h-4.482l-.56,1.527a7.034,7.034,0,0,0-.421,1.471h-2.3a15.311,15.311,0,0,0,.743-1.653l3.081-8.083a8.169,8.169,0,0,0,.448-1.415h2.438a9.221,9.221,0,0,0,.476,1.415l3.11,8.083a14.737,14.737,0,0,0,.714,1.653Zm-2.956-8.755c-.056-.154-.1-.322-.252-.784-.224.658-.224.658-.266.784l-1.457,4.146H949.2Z" fill="#29abe2"/><path d="M960.41,2356.716a9.645,9.645,0,0,0-.617-1.892l-2.017-4.8a15.629,15.629,0,0,1-.714-2.144c.056.742.112,1.891.112,2.2v4.595a12.818,12.818,0,0,0,.112,2.045h-1.961a13.158,13.158,0,0,0,.112-2.045v-7.032a13.928,13.928,0,0,0-.112-2.074h2.563a9.646,9.646,0,0,0,.518,1.667l2.843,6.949,2.83-6.949a7.749,7.749,0,0,0,.5-1.667h2.577a14.551,14.551,0,0,0-.111,2.074v7.032a12.188,12.188,0,0,0,.111,2.045H965.2a13,13,0,0,0,.113-2.045v-4.65c.055-1.219.1-1.934.112-2.144a17.034,17.034,0,0,1-.645,2.045l-2.1,4.931a11.3,11.3,0,0,0-.616,1.863Z" fill="#29abe2"/><path d="M970.374,2356.716a11.344,11.344,0,0,0,.112-1.807v-7.578a12.672,12.672,0,0,0-.112-1.808c.6.029,1.037.042,1.779.042h2.928a3.973,3.973,0,0,1,2.983,1,3.269,3.269,0,0,1,.869,2.409,3.6,3.6,0,0,1-.939,2.577,3.969,3.969,0,0,1-2.983,1.009h-2.675v2.339a11.3,11.3,0,0,0,.111,1.821Zm4.637-5.772a1.763,1.763,0,0,0,1.989-1.919,1.888,1.888,0,0,0-.462-1.344,1.914,1.914,0,0,0-1.527-.5h-2.675v3.767Z" fill="#29abe2"/><path d="M989.475,2356.814a13.625,13.625,0,0,0-1.99-.1h-4.146c-.784,0-1.275.013-1.779.042a11.133,11.133,0,0,0,.112-1.849v-7.27a13.683,13.683,0,0,0-.112-2.074h2.115a12.8,12.8,0,0,0-.112,2.06v7.4h3.922a14.85,14.85,0,0,0,1.99-.1Z" fill="#29abe2"/><path d="M999.751,2356.814a12.059,12.059,0,0,0-1.808-.1h-4.37c-.841,0-1.219.013-1.779.042a11.348,11.348,0,0,0,.112-1.849v-7.578a12.425,12.425,0,0,0-.112-1.808c.56.029.925.042,1.779.042H997.8a14.948,14.948,0,0,0,1.806-.1v1.848a12.732,12.732,0,0,0-1.806-.1H993.77v2.885h3.4a14.623,14.623,0,0,0,1.821-.1v1.835a10.976,10.976,0,0,0-1.821-.1h-3.417v3.306h4.2a13.4,13.4,0,0,0,1.793-.1Z" fill="#29abe2"/></g></svg>