<svg id="Layer_1" data-name="Layer 1" xmlns="http://www.w3.org/2000/svg" viewBox="0 0 785.5 736.66"><defs><style>.cls-1{fill:#c7e5ef;}</style></defs><path class="cls-1" d="M227,506q-2.47-1.7-4.91-3.45l2.3-3.19a222.8,222.8,0,0,0,19.87,12.79l-1.95,3.42C237,512.51,231.84,509.29,227,506Zm-23.55-18.71a184.32,184.32,0,0,1-16.58-17.51l3-2.51a177.52,177.52,0,0,0,16.21,17.13Zm60.27,39.19,1.62-3.58c7,3.19,14.42,6.17,22,8.86L286,535.44C278.31,532.7,270.81,529.68,263.69,526.45Zm-90.88-76.32a171.72,171.72,0,0,1-11.14-21.41l3.61-1.56a167.74,167.74,0,0,0,10.88,20.91Zm136.06,92.53,1.05-3.79c7.46,2.06,15.23,3.93,23.08,5.56l-.79,3.85C324.27,546.63,316.41,544.74,308.87,542.66Zm47,9.76.57-3.9c7.74,1.13,15.69,2.05,23.6,2.74l-.34,3.92C371.68,554.48,363.66,553.55,355.84,552.42ZM153.59,406a152,152,0,0,1-4.66-23.69l3.91-.44A147.93,147.93,0,0,0,157.38,405Zm250,150.64.13-3.93c7.92.27,15.92.33,23.78.18l.08,3.93C419.66,557,411.59,556.92,403.61,556.64ZM134.81,354.69q-2.79-1.9-5.35-3.78l2.32-3.18c5.85,4.27,12.61,8.68,19.84,12.93l-2,3.39C144.4,361,139.41,357.83,134.81,354.69Zm-23.66-19.58a83.92,83.92,0,0,1-14.06-19.84l3.51-1.76A80.47,80.47,0,0,0,114,332.41Zm59.64,40.32,1.74-3.53c7,3.45,14.29,6.74,21.65,9.77l-1.5,3.64C185.24,382.24,177.87,378.92,170.79,375.43Zm-22.42-17.29a129.32,129.32,0,0,1,3.9-23.88l3.8,1a125.91,125.91,0,0,0-3.78,23.15ZM451.56,555.7l-.3-3.92c8.05-.6,16-1.44,23.64-2.48l.53,3.9C467.71,554.25,459.68,555.09,451.56,555.7Zm-236.41-162,1.26-3.72c7.55,2.55,15.2,4.85,22.74,6.85l-1,3.8C230.52,398.65,222.79,396.32,215.15,393.74ZM90,291.94a89.47,89.47,0,0,1,.49-24.31l3.89.58a84.77,84.77,0,0,0-.47,23.23ZM261.56,406l.72-3.86c7.89,1.47,15.78,2.62,23.46,3.42l-.4,3.91C277.55,408.61,269.55,407.45,261.56,406ZM499.1,549.1l-.82-3.84a232.17,232.17,0,0,0,22.9-6l1.21,3.74A231.83,231.83,0,0,1,499.1,549.1ZM160.51,311.52a148.41,148.41,0,0,1,11.86-20.75l.15-.21,3.25,2.22-.15.21a144.63,144.63,0,0,0-11.55,20.19ZM309.35,410.8l0-3.93a226,226,0,0,0,23.63-1l.38,3.92A228.61,228.61,0,0,1,309.35,410.8Zm-213-166.63a220.53,220.53,0,0,1,9.06-22.3l3.57,1.66a212.84,212.84,0,0,0-8.9,21.91ZM357.19,406l-.86-3.84A173.9,173.9,0,0,0,379,395.54l1.37,3.69A178.61,178.61,0,0,1,357.19,406ZM190.46,274.35l-2.9-2.66A196,196,0,0,1,205,255l2.55,3A192.32,192.32,0,0,0,190.46,274.35ZM116.33,200.5l1.43-2.59c1.72-3.08,4-6.9,6.57-11.33q1.9-3.21,4-6.83l3.39,2q-2.12,3.62-4,6.84c-2.59,4.4-4.83,8.2-6.52,11.24l-1.42,2.57ZM402.26,389.22l-1.89-3.45A147.73,147.73,0,0,0,420.1,373l2.41,3.11A153.27,153.27,0,0,1,402.26,389.22ZM226.33,243.65l-2.21-3.25c6.53-4.44,13.44-8.66,20.54-12.54l1.88,3.46C239.56,235.13,232.76,239.28,226.33,243.65Zm213.74,115.7-3-2.53a92.11,92.11,0,0,0,5.7-7.5,84,84,0,0,0,6.87-12.07l3.57,1.65A88,88,0,0,1,446,351.54,98.1,98.1,0,0,1,440.07,359.35ZM267.83,220.94l-1.56-3.61c7.38-3.18,15-6,22.5-8.5l1.22,3.74C282.55,215,275.09,217.81,267.83,220.94ZM456.12,315a80.31,80.31,0,0,0-.35-23.2l3.88-.62a84.28,84.28,0,0,1,.37,24.34ZM312.84,206.36l-.84-3.85a202.81,202.81,0,0,1,23.81-3.76l.37,3.91A199.1,199.1,0,0,0,312.84,206.36Zm136.31,63.11a108.63,108.63,0,0,0-11.67-20.28l3.19-2.31a112.72,112.72,0,0,1,12.08,21Zm-89.44-67.25.27-3.92a90.39,90.39,0,0,1,23.89,4.61l-1.32,3.71A86.49,86.49,0,0,0,359.71,202.22Zm62.21,29.42a129.37,129.37,0,0,0-18.56-14.38l2.12-3.31a134,134,0,0,1,19.13,14.81Z"/><path class="cls-1" d="M544.93,533.61,543,530.16a58,58,0,0,0,9.47-6.32l2.54,3A62.57,62.57,0,0,1,544.93,533.61Z"/><path class="cls-1" d="M587.31,418.76l21.57,12.82,5.16-3a2.91,2.91,0,0,1,3.85.88L620.3,433a2.9,2.9,0,0,1-.67,4h0l10.62,5.91,3.82-2.1A2.92,2.92,0,0,1,638,442l3.44,6.26,10,6.51s36.9-22.57,43.75-12.65-30,30.56-30,30.56L664,487l3.61,5.57a2.9,2.9,0,0,1-1.26,4.24L663.68,498l-1,12.06,1.19.1a2.91,2.91,0,0,1,2.52,2l1.66,5.42a2.9,2.9,0,0,1-2.08,3.67l-4.22,1-1,22.61s.93,8.21-6.95,10.72-9.4-10.2-9.4-10.2l-1.5-14.25-2.57.8a2.9,2.9,0,0,1-3-4.74l3.65-3.94-2.71-12.7-3.12.1a2.91,2.91,0,0,1-2.16-4.95l4.07-4.13L634,491s-35,21.45-40.14,20.65c0,0,.42,33.09-5.91,31.71s-8.1-29.08-8.1-29.08-14,7.73-18,5.14c0,0,3.8-9.46,13.24-13.49,0,0-23.67-16.51-21-20.64s17.84,4.73,30.15,11.35c0,0,3.14-6.95,37.28-24.07l-9-8.16-1.54.49a2.9,2.9,0,0,1-3.51-4l1.25-2.67-11.16-9-5,1.94a2.91,2.91,0,0,1-3.47-4.32l2.45-3.68s-21.35-13.46-15.67-20.71S587.31,418.76,587.31,418.76Z"/></svg>