<svg id="Layer_1" data-name="Layer 1" xmlns="http://www.w3.org/2000/svg" viewBox="0 0 388.48 670.47"><defs><style>.cls-1{fill:#202020;}.cls-2{fill:#f1c40f;}.cls-3{fill:#313b43;}.cls-4{opacity:0.6;}.cls-5{fill:#415973;}.cls-6{opacity:0.2;}.cls-7{fill:#5fa2f4;}</style></defs><title>Card 01</title><path class="cls-1" d="M30.41,598.5A5.53,5.53,0,0,1,32.16,603a5.34,5.34,0,0,1-1.79,4.46q-1.78,1.42-5.48,1.42h-3v4.92H19.08V597h5.76Q28.65,597,30.41,598.5Zm-2,6.92a3.7,3.7,0,0,0,.86-2.64,2.74,2.74,0,0,0-1.08-2.46,6.24,6.24,0,0,0-3.39-.72H21.91v6.72H25.2A4.35,4.35,0,0,0,28.4,605.42Z"/><path class="cls-1" d="M44,608V601h2.69v12.77H44v-2.33a5,5,0,0,1-7.74,1.2A5.12,5.12,0,0,1,35,608.87V601h2.69v7q0,3.53,2.92,3.53a3.52,3.52,0,0,0,2.43-.93A3.45,3.45,0,0,0,44,608Z"/><path class="cls-1" d="M57.31,603.56a3.55,3.55,0,0,0-3,1.3,5.52,5.52,0,0,0-1,3.48v5.47H50.62V601H53.3v2.57a5.59,5.59,0,0,1,1.77-2,4.28,4.28,0,0,1,2.36-.79l0,2.71Z"/><path class="cls-1" d="M65.81,614a6.44,6.44,0,0,1-4.59-1.81,6.22,6.22,0,0,1-1.92-4.74,6.14,6.14,0,0,1,2-4.76,6.92,6.92,0,0,1,4.88-1.84,6.6,6.6,0,0,1,4.87,2l-1.58,1.95a5.12,5.12,0,0,0-3.34-1.44,4.2,4.2,0,0,0-2.91,1.11A3.7,3.7,0,0,0,62,607.34a4.17,4.17,0,0,0,4.24,4.21,4.67,4.67,0,0,0,3.37-1.63l1.58,1.73A7.33,7.33,0,0,1,65.81,614Z"/><path class="cls-1" d="M76.65,606.9v6.91H74V596h2.68v7.34a4.37,4.37,0,0,1,1.74-1.85,4.94,4.94,0,0,1,2.51-.67,4.73,4.73,0,0,1,3.49,1.32A5.13,5.13,0,0,1,85.73,606v7.82H83v-7q0-3.52-2.93-3.53a3.48,3.48,0,0,0-2.42.93A3.42,3.42,0,0,0,76.65,606.9Z"/><path class="cls-1" d="M99.81,613.81H97.37v-1.7A5.28,5.28,0,0,1,93.12,614a4.83,4.83,0,0,1-3.3-1.13,3.77,3.77,0,0,1-1.31-3A3.18,3.18,0,0,1,89.9,607a6.72,6.72,0,0,1,3.77-.93h3.48v-.48c0-1.7-.94-2.55-2.83-2.55a6.6,6.6,0,0,0-3.7,1.3l-1.2-1.68a8.27,8.27,0,0,1,5.28-1.85A5.74,5.74,0,0,1,98.39,602a4.32,4.32,0,0,1,1.42,3.59Zm-2.68-4.75V608h-3c-1.93,0-2.9.61-2.9,1.82a1.62,1.62,0,0,0,.72,1.43,3.5,3.5,0,0,0,2,.49,3.65,3.65,0,0,0,2.25-.72A2.3,2.3,0,0,0,97.13,609.06Z"/><path class="cls-1" d="M112.65,610a3.6,3.6,0,0,1-1.32,2.92A5.1,5.1,0,0,1,108,614a9.2,9.2,0,0,1-2.89-.5,8.64,8.64,0,0,1-2.65-1.42L103.7,610a7.25,7.25,0,0,0,4.32,1.68,2.24,2.24,0,0,0,1.44-.42,1.3,1.3,0,0,0,.53-1.06c0-.64-.85-1.22-2.54-1.73l-.29-.1q-4-1.08-4-3.6a3.41,3.41,0,0,1,1.38-2.84,5.72,5.72,0,0,1,3.59-1.07,7.44,7.44,0,0,1,4.18,1.3l-1,2a6,6,0,0,0-3.38-1,3.08,3.08,0,0,0-1.56.34,1.14,1.14,0,0,0-.6,1,1,1,0,0,0,.62.91,6.45,6.45,0,0,0,1.21.41c.52.13,1,.25,1.38.38s.79.27,1.17.43a7.64,7.64,0,0,1,1.21.68A3,3,0,0,1,112.65,610Z"/><path class="cls-1" d="M115.87,598.5a1.63,1.63,0,0,1-.5-1.2,1.6,1.6,0,0,1,.5-1.2,1.7,1.7,0,0,1,2.9,1.2,1.7,1.7,0,0,1-2.9,1.2Zm2.52,15.31H115.7V601h2.69Z"/><path class="cls-1" d="M125,606.9v6.91h-2.68V601H125v2.33a4.89,4.89,0,0,1,1.79-1.85,5.1,5.1,0,0,1,5.95.65A5.13,5.13,0,0,1,134,606v7.82h-2.69v-7q0-3.52-2.93-3.53a3.48,3.48,0,0,0-2.42.93A3.42,3.42,0,0,0,125,606.9Z"/><path class="cls-1" d="M149.59,601v11.14a6.53,6.53,0,0,1-1.84,5.07A6.66,6.66,0,0,1,143,619a8.3,8.3,0,0,1-5.21-1.8l1.27-2a6.26,6.26,0,0,0,3.78,1.41,4.47,4.47,0,0,0,3-1,4,4,0,0,0,1.11-3.15v-1.63a4.57,4.57,0,0,1-1.72,1.8,4.73,4.73,0,0,1-2.5.67,5.43,5.43,0,0,1-4.18-1.77,6.79,6.79,0,0,1,0-8.83,5.39,5.39,0,0,1,4.16-1.78,4.94,4.94,0,0,1,4.12,2.09V601Zm-10,5.89a4,4,0,0,0,1,2.72,3.27,3.27,0,0,0,2.62,1.14,3.45,3.45,0,0,0,2.66-1.11,3.88,3.88,0,0,0,1-2.75,4,4,0,0,0-1-2.78A3.44,3.44,0,0,0,143.2,603a3.2,3.2,0,0,0-2.6,1.18A4.16,4.16,0,0,0,139.63,606.93Z"/><path class="cls-1" d="M160.22,598.5a1.63,1.63,0,0,1-.5-1.2,1.6,1.6,0,0,1,.5-1.2,1.67,1.67,0,0,1,2.4,0,1.6,1.6,0,0,1,.5,1.2,1.63,1.63,0,0,1-.5,1.2,1.69,1.69,0,0,1-2.4,0Zm2.52,15.31h-2.69V601h2.69Z"/><path class="cls-1" d="M175.72,610a3.6,3.6,0,0,1-1.32,2.92A5.1,5.1,0,0,1,171,614a9.2,9.2,0,0,1-2.89-.5,8.64,8.64,0,0,1-2.65-1.42l1.29-2.09a7.25,7.25,0,0,0,4.32,1.68,2.24,2.24,0,0,0,1.44-.42,1.3,1.3,0,0,0,.53-1.06c0-.64-.85-1.22-2.54-1.73l-.29-.1q-4-1.08-4-3.6a3.41,3.41,0,0,1,1.38-2.84,5.72,5.72,0,0,1,3.59-1.07,7.44,7.44,0,0,1,4.18,1.3l-1,2a6,6,0,0,0-3.38-1,3.11,3.11,0,0,0-1.56.34,1.14,1.14,0,0,0-.6,1,1,1,0,0,0,.62.91,6.45,6.45,0,0,0,1.21.41c.52.13,1,.25,1.38.38s.79.27,1.17.43a7.64,7.64,0,0,1,1.21.68A3,3,0,0,1,175.72,610Z"/><path class="cls-1" d="M190.81,599.24a3.68,3.68,0,0,0-2,.51,1.67,1.67,0,0,0-.79,1.52,1.77,1.77,0,0,0,.79,1.56,11.81,11.81,0,0,0,3.37,1.16,9.22,9.22,0,0,1,3.89,1.76,4.15,4.15,0,0,1,1.31,3.32,4.41,4.41,0,0,1-1.66,3.56,6.54,6.54,0,0,1-4.34,1.37,10.21,10.21,0,0,1-7-2.71l1.78-2.14a8,8,0,0,0,5.28,2.21,3.56,3.56,0,0,0,2.17-.59,1.83,1.83,0,0,0,.81-1.56,1.77,1.77,0,0,0-.76-1.51,7.76,7.76,0,0,0-2.61-1,23.57,23.57,0,0,1-2.8-.82,6.49,6.49,0,0,1-1.71-1,4.06,4.06,0,0,1-1.49-3.46,4.2,4.2,0,0,1,1.7-3.58,6.79,6.79,0,0,1,4.19-1.26,10.1,10.1,0,0,1,3.19.52,8.45,8.45,0,0,1,2.73,1.49l-1.51,2.14a5.71,5.71,0,0,0-2-1.11A8,8,0,0,0,190.81,599.24Z"/><path class="cls-1" d="M209.25,608V601h2.69v12.77h-2.69v-2.33a5,5,0,0,1-7.74,1.2,5.12,5.12,0,0,1-1.33-3.81V601h2.69v7c0,2.35,1,3.53,2.93,3.53a3.51,3.51,0,0,0,2.42-.93A3.41,3.41,0,0,0,209.25,608Z"/><path class="cls-1" d="M222.67,600.85a6.05,6.05,0,0,1,4.39,1.78,6.31,6.31,0,0,1,1.82,4.72,6.55,6.55,0,0,1-1.81,4.8,5.7,5.7,0,0,1-4.22,1.85,5.76,5.76,0,0,1-4.34-2.11v6.58h-2.68V601h2.68v2.23A4.8,4.8,0,0,1,222.67,600.85Zm-4.2,6.6a4.19,4.19,0,0,0,1.1,3,3.59,3.59,0,0,0,2.69,1.16,3.79,3.79,0,0,0,2.76-1.15,4,4,0,0,0,1.17-3,4.25,4.25,0,0,0-1.15-3.05,3.71,3.71,0,0,0-2.76-1.21,3.56,3.56,0,0,0-2.71,1.21A4.37,4.37,0,0,0,218.47,607.45Z"/><path class="cls-1" d="M243.84,608.6h-10a2.92,2.92,0,0,0,1.27,2.25,4.51,4.51,0,0,0,2.69.85,4.46,4.46,0,0,0,3.64-1.51l1.54,1.68A7.14,7.14,0,0,1,237.6,614a6.28,6.28,0,0,1-6.46-6.59,6.19,6.19,0,0,1,1.92-4.78,6.42,6.42,0,0,1,4.52-1.78,6.53,6.53,0,0,1,4.43,1.57,5.41,5.41,0,0,1,1.83,4.33Zm-10-2.11h7.32a3.08,3.08,0,0,0-1-2.47,3.66,3.66,0,0,0-2.48-.87,4.27,4.27,0,0,0-2.66.9A2.92,2.92,0,0,0,233.83,606.49Z"/><path class="cls-1" d="M253.48,603.56a3.57,3.57,0,0,0-3,1.3,5.52,5.52,0,0,0-1,3.48v5.47h-2.69V601h2.69v2.57a5.56,5.56,0,0,1,1.76-2,4.28,4.28,0,0,1,2.36-.79l0,2.71Z"/><path class="cls-1" d="M255.43,607.91v-2.52h8v2.52Z"/><path class="cls-1" d="M272.34,599.24a3.68,3.68,0,0,0-2,.51,1.67,1.67,0,0,0-.8,1.52,1.77,1.77,0,0,0,.8,1.56,11.81,11.81,0,0,0,3.37,1.16,9.28,9.28,0,0,1,3.89,1.76,4.15,4.15,0,0,1,1.3,3.32,4.41,4.41,0,0,1-1.65,3.56,6.57,6.57,0,0,1-4.35,1.37,10.19,10.19,0,0,1-7-2.71l1.78-2.14a7.94,7.94,0,0,0,5.28,2.21,3.56,3.56,0,0,0,2.17-.59,1.85,1.85,0,0,0,.8-1.56,1.76,1.76,0,0,0-.75-1.51,8,8,0,0,0-2.61-1,23,23,0,0,1-2.8-.82,6.34,6.34,0,0,1-1.71-1,4.06,4.06,0,0,1-1.49-3.46,4.2,4.2,0,0,1,1.7-3.58,6.78,6.78,0,0,1,4.18-1.26,10.05,10.05,0,0,1,3.19.52,8.5,8.5,0,0,1,2.74,1.49l-1.51,2.14a5.76,5.76,0,0,0-2-1.11A8,8,0,0,0,272.34,599.24Z"/><path class="cls-1" d="M282.16,598.5a1.67,1.67,0,0,1-.5-1.2,1.72,1.72,0,0,1,1.7-1.71,1.74,1.74,0,0,1,1.71,1.71,1.72,1.72,0,0,1-1.71,1.7A1.67,1.67,0,0,1,282.16,598.5Zm2.52,15.31H282V601h2.68Z"/><path class="cls-1" d="M291.26,606.9v6.91h-2.69V601h2.69v2.33a4.25,4.25,0,0,1,1.74-1.85,4.89,4.89,0,0,1,2.51-.67,4.05,4.05,0,0,1,4.1,2.5,5.72,5.72,0,0,1,4.73-2.5,4.74,4.74,0,0,1,3.49,1.32,5.13,5.13,0,0,1,1.33,3.82v7.82h-2.69v-7q0-3.52-2.92-3.53a3.56,3.56,0,0,0-2.39.88,3.31,3.31,0,0,0-1.07,2.56v7.1H297.4v-7a4.42,4.42,0,0,0-.65-2.67,2.39,2.39,0,0,0-2-.86,3.51,3.51,0,0,0-2.42.93A3.41,3.41,0,0,0,291.26,606.9Z"/><path class="cls-1" d="M319.75,600.85a6.05,6.05,0,0,1,4.39,1.78,6.31,6.31,0,0,1,1.82,4.72,6.55,6.55,0,0,1-1.81,4.8,5.62,5.62,0,0,1-8.56-.26v6.58h-2.68V601h2.68v2.23A4.8,4.8,0,0,1,319.75,600.85Zm-4.2,6.6a4.15,4.15,0,0,0,1.1,3,3.59,3.59,0,0,0,2.69,1.16,3.83,3.83,0,0,0,2.76-1.15,4,4,0,0,0,1.17-3,4.25,4.25,0,0,0-1.15-3.05,3.71,3.71,0,0,0-2.76-1.21,3.56,3.56,0,0,0-2.71,1.21A4.32,4.32,0,0,0,315.55,607.45Z"/><path class="cls-1" d="M331.72,613.81H329V596h2.69Z"/><path class="cls-1" d="M347.49,608.6h-10a2.92,2.92,0,0,0,1.27,2.25,4.53,4.53,0,0,0,2.69.85,4.48,4.48,0,0,0,3.65-1.51l1.53,1.68a7.12,7.12,0,0,1-5.37,2.13,6.36,6.36,0,0,1-4.57-1.79,6.29,6.29,0,0,1-1.89-4.8,6.19,6.19,0,0,1,1.92-4.78,6.43,6.43,0,0,1,4.53-1.78,6.56,6.56,0,0,1,4.43,1.57,5.43,5.43,0,0,1,1.82,4.33Zm-10-2.11h7.32a3.08,3.08,0,0,0-1-2.47,3.66,3.66,0,0,0-2.48-.87,4.25,4.25,0,0,0-2.65.9A2.91,2.91,0,0,0,337.48,606.49Z"/><path class="cls-1" d="M361.91,614a6.21,6.21,0,0,1-4-1.31,4.29,4.29,0,0,1-1.66-3.58q0-2.72,3.93-4.83a11.35,11.35,0,0,1-1.37-1.85,3.66,3.66,0,0,1-.4-1.82,3.42,3.42,0,0,1,1.42-3,5.47,5.47,0,0,1,3.33-1,5.37,5.37,0,0,1,3.27,1,3.24,3.24,0,0,1,1.34,2.76q0,2.37-3.84,4.49,1.92,2.35,3.12,3.6a8.89,8.89,0,0,0,1.15-2.57l2,1.39a16.09,16.09,0,0,1-1.42,2.91c.64.65,1.46,1.44,2.45,2.37l-1.8,1.68-2.21-2.18A7.53,7.53,0,0,1,361.91,614Zm-2.08-3a3.88,3.88,0,0,0,2.42.68,5.16,5.16,0,0,0,3.21-1.39c-1.61-1.69-2.89-3.12-3.84-4.27-1.8,1-2.71,2-2.71,3.22A2.11,2.11,0,0,0,359.83,611Zm3.32-12.23a2.23,2.23,0,0,0-1.44.51,1.44,1.44,0,0,0-.64,1.17,2.27,2.27,0,0,0,.33,1.21,13.68,13.68,0,0,0,1.11,1.5c1.81-.89,2.72-1.72,2.72-2.49a1.67,1.67,0,0,0-.64-1.43A2.39,2.39,0,0,0,363.15,598.76Z"/><path class="cls-1" d="M100.14,628a3.68,3.68,0,0,0-2,.51,1.67,1.67,0,0,0-.79,1.52,1.77,1.77,0,0,0,.79,1.56,11.81,11.81,0,0,0,3.37,1.16,9.22,9.22,0,0,1,3.89,1.76,4.15,4.15,0,0,1,1.31,3.32,4.38,4.38,0,0,1-1.66,3.56,6.54,6.54,0,0,1-4.34,1.37,10.21,10.21,0,0,1-7-2.71L95.47,638a8,8,0,0,0,5.28,2.21,3.54,3.54,0,0,0,2.17-.59,1.83,1.83,0,0,0,.81-1.56,1.77,1.77,0,0,0-.76-1.51,7.78,7.78,0,0,0-2.6-1,23.27,23.27,0,0,1-2.81-.82,6.49,6.49,0,0,1-1.71-1,4.06,4.06,0,0,1-1.48-3.46,4.19,4.19,0,0,1,1.69-3.58,6.81,6.81,0,0,1,4.19-1.26,10.1,10.1,0,0,1,3.19.52,8.6,8.6,0,0,1,2.74,1.49l-1.52,2.14a5.71,5.71,0,0,0-2-1.11A8,8,0,0,0,100.14,628Z"/><path class="cls-1" d="M112.82,632v6.48a2.1,2.1,0,0,0,.48,1.45,1.71,1.71,0,0,0,1.35.54,2.29,2.29,0,0,0,1.65-.84l1.11,1.9a4.59,4.59,0,0,1-3.14,1.27,4,4,0,0,1-2.92-1.19,4.27,4.27,0,0,1-1.22-3.2V632h-1.6v-2.16h1.6v-4h2.69v4h3.36V632Z"/><path class="cls-1" d="M126.24,632.36a3.55,3.55,0,0,0-3,1.3,5.52,5.52,0,0,0-1,3.48v5.47h-2.69V629.84h2.69v2.57a5.49,5.49,0,0,1,1.77-2,4.28,4.28,0,0,1,2.36-.79l0,2.71Z"/><path class="cls-1" d="M139.29,642.61h-2.44v-1.7a5.28,5.28,0,0,1-4.25,1.89,4.83,4.83,0,0,1-3.3-1.13,3.77,3.77,0,0,1-1.31-3,3.18,3.18,0,0,1,1.39-2.82,6.72,6.72,0,0,1,3.77-.93h3.48v-.48c0-1.7-.94-2.55-2.83-2.55a6.6,6.6,0,0,0-3.7,1.3l-1.2-1.68a8.27,8.27,0,0,1,5.28-1.85,5.73,5.73,0,0,1,3.69,1.14,4.32,4.32,0,0,1,1.42,3.59Zm-2.68-4.75v-1.08h-3c-1.93,0-2.9.61-2.9,1.82a1.62,1.62,0,0,0,.72,1.43,3.5,3.5,0,0,0,2,.49,3.65,3.65,0,0,0,2.25-.72A2.3,2.3,0,0,0,136.61,637.86Z"/><path class="cls-1" d="M143.21,627.3a1.64,1.64,0,0,1-.51-1.2,1.74,1.74,0,0,1,1.71-1.71,1.72,1.72,0,0,1,1.7,1.71,1.71,1.71,0,0,1-1.7,1.7A1.64,1.64,0,0,1,143.21,627.3Zm2.52,15.31H143V629.84h2.69Z"/><path class="cls-1" d="M161.42,629.84V641a6.57,6.57,0,0,1-1.83,5.07,6.7,6.7,0,0,1-4.72,1.7,8.3,8.3,0,0,1-5.21-1.8l1.27-2a6.26,6.26,0,0,0,3.78,1.41,4.45,4.45,0,0,0,3-1,4,4,0,0,0,1.11-3.15v-1.63a4.62,4.62,0,0,1-1.71,1.8,4.76,4.76,0,0,1-2.51.67,5.43,5.43,0,0,1-4.18-1.77,6.79,6.79,0,0,1,0-8.83,5.4,5.4,0,0,1,4.17-1.78,4.92,4.92,0,0,1,4.11,2.09v-1.9Zm-10,5.89a4.1,4.1,0,0,0,1,2.72,3.27,3.27,0,0,0,2.62,1.14,3.43,3.43,0,0,0,2.66-1.11,3.88,3.88,0,0,0,1-2.75,4,4,0,0,0-1-2.78,3.42,3.42,0,0,0-2.66-1.14,3.2,3.2,0,0,0-2.61,1.18A4.21,4.21,0,0,0,151.46,635.73Z"/><path class="cls-1" d="M168,635.7v6.91h-2.69V624.83H168v7.34a4.25,4.25,0,0,1,1.74-1.85,4.89,4.89,0,0,1,2.51-.67,4.76,4.76,0,0,1,3.49,1.32,5.17,5.17,0,0,1,1.33,3.82v7.82h-2.69v-7c0-2.35-1-3.53-2.93-3.53A3.49,3.49,0,0,0,169,633,3.41,3.41,0,0,0,168,635.7Z"/><path class="cls-1" d="M184.12,632v6.48a2.1,2.1,0,0,0,.48,1.45,1.73,1.73,0,0,0,1.35.54,2.27,2.27,0,0,0,1.65-.84l1.11,1.9a4.58,4.58,0,0,1-3.13,1.27,4,4,0,0,1-2.93-1.19,4.27,4.27,0,0,1-1.21-3.2V632h-1.61v-2.16h1.61v-4h2.68v4h3.37V632Z"/><path class="cls-1" d="M190.63,636.71v-2.52h8v2.52Z"/><path class="cls-1" d="M205.36,628.79v1.05h3.37V632h-3.37v10.61h-2.68V632h-1.61v-2.16h1.61v-1a4.29,4.29,0,0,1,1.21-3.21,4,4,0,0,1,2.93-1.18,4.57,4.57,0,0,1,3.13,1.27l-1.1,1.89a2.31,2.31,0,0,0-1.66-.84,1.69,1.69,0,0,0-1.34.54A2.08,2.08,0,0,0,205.36,628.79Z"/><path class="cls-1" d="M221.68,640.89a7,7,0,0,1-9.59,0,6.63,6.63,0,0,1,0-9.33,7,7,0,0,1,9.59,0,6.63,6.63,0,0,1,0,9.33ZM214,639.24a4.19,4.19,0,0,0,5.79,0,4.56,4.56,0,0,0,0-6,4.19,4.19,0,0,0-5.79,0,4.56,4.56,0,0,0,0,6Z"/><path class="cls-1" d="M233.35,632.36a3.55,3.55,0,0,0-3,1.3,5.52,5.52,0,0,0-1,3.48v5.47h-2.69V629.84h2.69v2.57a5.56,5.56,0,0,1,1.76-2,4.33,4.33,0,0,1,2.37-.79l0,2.71Z"/><path class="cls-1" d="M242.16,642.61h-3.08l-4.41-12.77h2.78l3.17,9.65,3.17-9.65h2.78l3.17,9.65,3.17-9.65h2.78l-4.41,12.77H248.2l-3-8.74Z"/><path class="cls-1" d="M268.29,642.61h-2.45v-1.7a5.24,5.24,0,0,1-4.24,1.89,4.83,4.83,0,0,1-3.3-1.13,3.74,3.74,0,0,1-1.31-3,3.18,3.18,0,0,1,1.39-2.82,6.7,6.7,0,0,1,3.77-.93h3.48v-.48c0-1.7-.95-2.55-2.83-2.55a6.6,6.6,0,0,0-3.7,1.3l-1.2-1.68a8.27,8.27,0,0,1,5.28-1.85,5.72,5.72,0,0,1,3.68,1.14,4.3,4.3,0,0,1,1.43,3.59Zm-2.69-4.75v-1.08h-3c-1.94,0-2.9.61-2.9,1.82a1.62,1.62,0,0,0,.72,1.43,3.48,3.48,0,0,0,2,.49,3.62,3.62,0,0,0,2.24-.72A2.3,2.3,0,0,0,265.6,637.86Z"/><path class="cls-1" d="M278.73,632.36a3.55,3.55,0,0,0-3,1.3,5.52,5.52,0,0,0-1,3.48v5.47H272V629.84h2.68v2.57a5.59,5.59,0,0,1,1.77-2,4.28,4.28,0,0,1,2.36-.79l0,2.71Z"/><path class="cls-1" d="M282.55,641a6.55,6.55,0,0,1-1.8-4.8,6.24,6.24,0,0,1,1.85-4.75,6.09,6.09,0,0,1,4.4-1.78,4.83,4.83,0,0,1,4.11,2.16v-7h2.69v17.81h-2.69v-1.92a5,5,0,0,1-4.34,2.11A5.77,5.77,0,0,1,282.55,641Zm.88-4.69a4,4,0,0,0,1.18,3,3.82,3.82,0,0,0,2.76,1.16,3.56,3.56,0,0,0,2.69-1.17,4.18,4.18,0,0,0,1.1-3,4.39,4.39,0,0,0-1.1-3,3.51,3.51,0,0,0-2.71-1.23,3.63,3.63,0,0,0-2.76,1.23A4.27,4.27,0,0,0,283.43,636.29Z"/><path class="cls-1" d="M30.3,470.38a20.74,20.74,0,0,0,4.35-6.87,9.2,9.2,0,0,0,.59-2.06,23.46,23.46,0,0,1,3.54,1.36c.42.19.63.37.63.56a1.1,1.1,0,0,1-.37.78,5.26,5.26,0,0,0-.73,1.24,30.63,30.63,0,0,1-3.56,6.49c-.45.61-.75.91-.89.91s-.49-.19-.92-.58A11.47,11.47,0,0,0,30.3,470.38Zm11.25-39.63,4.17-.1c.31,0,.47.18.47.54l-.1,6.45v16.1l.1,6.47c0,.36-.16.54-.47.54l-4.17-.1h-4l-4.08.1c-.25,0-.4,0-.45-.1a.94.94,0,0,1-.07-.44l.1-6.47v-16.1l-.1-6.45c0-.26,0-.42.1-.47a.87.87,0,0,1,.42-.07l4.08.1Zm-4.34,4v4.78H42v-4.78Zm0,13.24H42v-4.61H37.21ZM42,456.76v-5H37.21v5Zm6.33,12.1a10.71,10.71,0,0,0-2.61,1.87c-.37.38-.65.56-.84.56s-.54-.33-1-1a35.22,35.22,0,0,1-3.52-6.87,1.4,1.4,0,0,1-.07-.33c0-.17.17-.33.52-.47l2.15-1a1.85,1.85,0,0,1,.61-.21c.13,0,.25.13.36.4A30.38,30.38,0,0,0,48.3,468.86Zm14.48-.36a34,34,0,0,0,3.66.19,1.63,1.63,0,0,0,1.26-.35,1.53,1.53,0,0,0,.24-1v-2.84H53.76V467l.09,5.32c0,.33-.17.49-.52.49H49.82c-.35,0-.52-.16-.52-.49l.1-5.22v-2.51l-2,0c-.28,0-.44,0-.49-.09a.77.77,0,0,1-.09-.47v-2.46c0-.23,0-.38.09-.43s.23-.08.49-.08l.63,0,1.39.07v-5.42l-.1-5.29c0-.25,0-.4.1-.45a.94.94,0,0,1,.44-.07l6,.1h2.74v-2.25H54.44l-6.47.09c-.27,0-.42,0-.47-.09a.87.87,0,0,1-.07-.45v-2.48c0-.27,0-.43.09-.47a.84.84,0,0,1,.45-.07l5.93.09v-2.53l-3.21.07-1,0q-.37,0-.45-.09a1.22,1.22,0,0,1-.07-.49v-2.25c0-.31.17-.47.52-.47l4.22.09v-2.55c-1.49,0-2.81,0-4,.07l-.87,0h-.31c-.25,0-.39,0-.44-.09a.78.78,0,0,1-.07-.42v-2.37a.8.8,0,0,1,.09-.49.78.78,0,0,1,.42-.07l5.14.09v-.28a15.78,15.78,0,0,0-.28-3.7c2,.12,3.51.23,4.4.32.49,0,.73.2.73.45a1.16,1.16,0,0,1-.24.73,6,6,0,0,0-.28,2.39V433h4.9v-.28a16.63,16.63,0,0,0-.28-3.7c2,.12,3.5.23,4.41.32q.72.07.72.45a1.54,1.54,0,0,1-.23.73,5.43,5.43,0,0,0-.31,2.39V433l6.14-.09a.77.77,0,0,1,.47.09,1,1,0,0,1,.07.47v2.37c0,.25,0,.39-.09.44a.84.84,0,0,1-.45.07l-6.14-.09v2.55l5-.09c.36,0,.54.16.54.47v2.25q0,.42-.12.51c0,.05-.19.07-.42.07l-.66,0-4.29-.07v2.53h.78l6.42-.09a.77.77,0,0,1,.47.09,1,1,0,0,1,.07.45v2.48c0,.27,0,.42-.1.47a.82.82,0,0,1-.44.07l-6.42-.09H62.73V450h3.1l6-.1c.27,0,.42,0,.47.1a.76.76,0,0,1,.07.42l-.09,5.72v5l1.85-.07.63,0c.27,0,.42,0,.47.09a.76.76,0,0,1,.07.42v2.46a.88.88,0,0,1-.08.47.73.73,0,0,1-.46.09l-2.44,0c.06,1.53.1,2.51.1,2.93q0,2.79-1.11,3.84a3.64,3.64,0,0,1-2,.87,23.68,23.68,0,0,1-3.71.23c-.75,0-1.19-.08-1.33-.23A3.3,3.3,0,0,1,63.9,471,9.54,9.54,0,0,0,62.78,468.5Zm-9-12.75h4.8v-2.46h-4.8Zm0,5.42h4.8v-2.53h-4.8Zm4.47-22.41h4.9v-2.55h-4.9Zm0,5.65h4.9v-2.53h-4.9Zm9.71,8.88H62.73v2.46h5.21Zm-5.21,7.88h5.21v-2.53H62.73Z"/><path class="cls-1" d="M79.44,467.57A33.07,33.07,0,0,0,94,453.93a38.55,38.55,0,0,0,4.78-17.42h-6l-4.78.1c-.28,0-.45,0-.52-.1a.87.87,0,0,1-.07-.42v-4q0-.37.12-.45a.91.91,0,0,1,.47-.07l4.78.09h6.14l4.8-.09c.43,0,.64.19.64.56s0,.85,0,1.25a34.63,34.63,0,0,0,.33,4.1q2.27,19.76,18.68,29.67a13.9,13.9,0,0,0-2.84,3.63c-.37.74-.66,1.1-.86,1.1a3.09,3.09,0,0,1-1.11-.63q-12.86-9.46-16.45-23.79a39.7,39.7,0,0,1-7.17,14.42,39.27,39.27,0,0,1-10.5,9.46,6.18,6.18,0,0,1-1.1.59c-.19,0-.53-.38-1-1.15A11,11,0,0,0,79.44,467.57Z"/><path class="cls-1" d="M136.33,431.71q-3.17,14-3.17,23.79a97.27,97.27,0,0,0,1.34,15l-4.95.45a113.86,113.86,0,0,1-1.15-15.57,124.7,124.7,0,0,1,2.93-24.09Zm19.29,11.9q.06,8,.44,15a30.92,30.92,0,0,1,8.49,6.28L161.24,469a21.14,21.14,0,0,0-5.23-5.32v.23a6,6,0,0,1-2.57,5.21,10.47,10.47,0,0,1-6.22,1.66q-8.88,0-8.88-7a5.93,5.93,0,0,1,2.6-5.06,9.7,9.7,0,0,1,5.84-1.67,24.71,24.71,0,0,1,4.38.38q-.33-6.87-.4-13.62c-2.73.1-5.4.14-8,.14l-4.69-.09v-4.22q3.38.14,5.91.14,3.3,0,6.75-.14v-8.37h4.94q0,2.88,0,8.07,3.47-.19,7.59-.66v4.45C161.49,443.26,159,443.43,155.62,443.61ZM151.3,461.8a11.16,11.16,0,0,0-4.66-.82,5.15,5.15,0,0,0-3.07.82,2.41,2.41,0,0,0-1.06,2q0,2.88,4.62,2.88,4.17,0,4.17-4Z"/><path class="cls-2" d="M182.36,439.47h-.49v4.82h.68l5.57-.11c.35,0,.52.18.52.54a10.94,10.94,0,0,0,4.94-3.8,11.11,11.11,0,0,0,1.6-5.39l-5.23.09a.79.79,0,0,1-.47-.09.87.87,0,0,1-.07-.42v-3.26c0-.27,0-.42.1-.47a.82.82,0,0,1,.44-.07l5.6.09h8.16l5.62-.09c.43,0,.64.19.64.59a24.13,24.13,0,0,0-.14,2.67q-.17,8.25-1.29,10.47a4.42,4.42,0,0,1-3,2.46,20.24,20.24,0,0,1-4.1.29q-1.2,0-1.41-.24a3.57,3.57,0,0,1-.35-1.36,11.17,11.17,0,0,0-.91-3.16,17.6,17.6,0,0,0,3.58.35c1,0,1.71-.3,2-.91.46-1.11.71-3.43.78-6.94h-5.18a16.29,16.29,0,0,1-2.28,7.87,15.07,15.07,0,0,1-5.18,4.78,3.82,3.82,0,0,1-1.1.38c-.23,0-.57-.35-1-1.06a10.17,10.17,0,0,0-1.73-2.06v2.81c0,.27,0,.43-.09.47a.83.83,0,0,1-.43.07l-5.57-.09h-.33v5.09h2.06l3.26-.1a.7.7,0,0,1,.47.1.87.87,0,0,1,.07.42v3.56c0,.31-.18.47-.54.47l-3.26-.09h-2.06v7.1q4.09,1.77,12,1.78a151.93,151.93,0,0,0,18.19-1.1,14.08,14.08,0,0,0-1.33,3.75,2.71,2.71,0,0,1-.5,1.38,3.12,3.12,0,0,1-1.33.26q-6.73.51-14.89.51-9.48,0-14.32-2.79a17.71,17.71,0,0,1-6.28-5.64,34.4,34.4,0,0,1-2.46,7.75q-.37,1-.72,1c-.16,0-.46-.22-.9-.68a7.06,7.06,0,0,0-2.78-2.29q3.47-6.21,3.63-15.59c0-1.15,0-2.08-.1-2.79a36,36,0,0,1,4,.78c.51.12.77.31.77.56a1.5,1.5,0,0,1-.19.68,5,5,0,0,0-.33,1.92c-.07,1.58-.16,2.76-.25,3.54a14.87,14.87,0,0,0,3.18,4.05V448.7h-3.56l-5.62.09c-.32,0-.47-.18-.47-.54v-3.49a.86.86,0,0,1,.09-.51c.05-.05.17-.07.38-.07l5.62.11h3v-4.82h-1.78l-5.22.09a.77.77,0,0,1-.47-.09.83.83,0,0,1-.07-.43v-3.46a.75.75,0,0,1,.11-.5.83.83,0,0,1,.43-.07l5.22.1h1.78v-.4a42.12,42.12,0,0,0-.32-5.86c1.73,0,3.32.16,4.78.35.53.05.79.2.79.47a3,3,0,0,1-.23.87,15.28,15.28,0,0,0-.3,4.07v.5h.49l5.13-.1c.28,0,.45,0,.52.1a1,1,0,0,1,.07.47V439q0,.38-.12.45a.91.91,0,0,1-.47.07Zm13.8,10.19h6.89l5.25-.09c.27,0,.42,0,.47.09a.76.76,0,0,1,.07.42l-.09,4.13v5.72l.09,4.1a.83.83,0,0,1-.08.46.81.81,0,0,1-.46.08l-5.25-.1h-6.89l-5.2.1c-.27,0-.42,0-.47-.1a.82.82,0,0,1-.07-.44l.09-4.1v-5.72l-.09-4.13c0-.25,0-.4.09-.44a.87.87,0,0,1,.45-.07Zm8.14,10.69v-6.61h-9.38v6.61Z"/><path class="cls-2" d="M214.44,447l2.3-4a67.27,67.27,0,0,1,12,5.09l-2.53,4.4A56.76,56.76,0,0,0,214.44,447Zm29.63-8.7,4.78,2.74a49.3,49.3,0,0,1-3.91,11.32,30.55,30.55,0,0,1-5.35,7.88Q232,468,219.25,470.64l-2.37-4.85q12.26-2.19,18.63-8.84a29.61,29.61,0,0,0,5.44-8.44A46.65,46.65,0,0,0,244.07,438.27Zm-25.55-1.52,2.56-4a57.4,57.4,0,0,1,11.64,5.42L230,442.61A42.57,42.57,0,0,0,218.52,436.75Z"/><path class="cls-2" d="M252.44,434.24a77.65,77.65,0,0,1,12,7.59L261,446.64a57.13,57.13,0,0,0-11.77-8.28Zm23.22,2.06,5,2.6q-2.13,13.29-8.95,21.05-7,7.95-19.5,11.16l-2.6-4.9q13.29-2.94,19.71-11.86Q274.25,447.48,275.66,436.3Z"/><path class="cls-2" d="M305.66,434.1a5.66,5.66,0,0,1-.28-1.78,5.2,5.2,0,0,1,1.81-4.06,5.47,5.47,0,1,1,3.65,9.54,6.31,6.31,0,0,1-1.33-.14q-.66,15.25-6.78,23.06-5.13,6.57-16.17,10.62l-3-4.22q10.91-3.67,15.54-10.64,4.36-6.54,4.67-17.81H281.85V434.1Zm5.18-4.9a3.12,3.12,0,1,0,2.35,5.23,3.08,3.08,0,0,0,.77-2.11,2.94,2.94,0,0,0-1-2.32A3,3,0,0,0,310.84,429.2Z"/><path class="cls-2" d="M331.54,432.41q0,14.7-.42,20.23a34.7,34.7,0,0,1-1.36,7.71A23.38,23.38,0,0,1,323,470.73l-4.08-3a17.87,17.87,0,0,0,6.15-9.12,38.78,38.78,0,0,0,1.07-8.65q.21-5.08.21-17.53Zm11.22,30.73q6.44-4.53,10.55-15.17l3.66,4.32a47.08,47.08,0,0,1-7.67,11.6,41.66,41.66,0,0,1-9.09,7L337.54,469V432.08h5.22Z"/><path class="cls-1" d="M112.82,509.28c-.47,5-1.85,8.76-4.13,11.22a6.86,6.86,0,0,0,3,2.16,11.8,11.8,0,0,0,3.7.38l-1.2,4.33h-1.64a11.61,11.61,0,0,1-4.87-.84,9.88,9.88,0,0,1-2.95-2.28q-3.74,3.16-9.85,3.17-6,0-9.42-3.47a11.38,11.38,0,0,1-.84-14.49,15.47,15.47,0,0,1,5.72-4.07,13.59,13.59,0,0,1-2.75-7.5,7.76,7.76,0,0,1,2.93-6.31,10.07,10.07,0,0,1,6.5-2.08,9.65,9.65,0,0,1,6.93,2.39,7.34,7.34,0,0,1,2.23,5.57,8,8,0,0,1-2.37,6,15.57,15.57,0,0,1-6.47,3.31,118.47,118.47,0,0,0,8.21,10.8c1.22-2.06,1.93-5.19,2.15-9.39Zm-20.44-.73a7.47,7.47,0,0,0-4.31,6.91,7.22,7.22,0,0,0,2.62,5.82,8.23,8.23,0,0,0,5.44,1.87,8.43,8.43,0,0,0,5.79-1.92A101.29,101.29,0,0,1,92.38,508.55Zm3-4.9a9,9,0,0,0,4.45-2.72,5.61,5.61,0,0,0,1-3.51,3.78,3.78,0,0,0-1.22-3,3.67,3.67,0,0,0-2.57-.93,3.83,3.83,0,0,0-3,1.29,4.16,4.16,0,0,0-1,2.88Q93,500.24,95.36,503.65Z"/><path class="cls-2" d="M127.42,522.85l-6,.09q-.35,0-.42-.09a1.07,1.07,0,0,1,0-.42v-3.61c0-.25,0-.4.07-.45s.18-.07.4-.07l6,.09h12.19v-3.28h-6.14l-6.71.1c-.26,0-.42,0-.46-.1a.74.74,0,0,1-.08-.42l.1-4.76V501.5l-.1-4.74c0-.33.18-.49.54-.49l6.71.09h17.72l6.68-.09c.34,0,.51.16.51.49l-.09,4.74v8.43l.09,4.76a.71.71,0,0,1-.08.43.66.66,0,0,1-.43.09l-6.68-.1h-6.68v3.28h12.77l6-.09q.38,0,.42.09a1.09,1.09,0,0,1,.05.43v3.61a.9.9,0,0,1-.06.44s-.18.07-.41.07l-6-.09H144.51v1l.09,6a.77.77,0,0,1-.09.47.83.83,0,0,1-.43.07H140c-.33,0-.5-.18-.5-.54l.1-6v-1Zm2.18-35.46a38.88,38.88,0,0,1,3.75,5.81.91.91,0,0,1,.09.3c0,.13-.16.26-.49.4l-3.51,1.5a1.86,1.86,0,0,1-.57.14c-.15,0-.3-.13-.44-.4a29.6,29.6,0,0,0-3.59-5.88.71.71,0,0,1-.19-.35c0-.14.18-.28.52-.42l3.42-1.29a1.49,1.49,0,0,1,.49-.14A.76.76,0,0,1,129.6,487.39Zm1.57,16.36h8.44V500.3h-8.44Zm0,7.38h8.44v-3.59h-8.44Zm11.09-24.38A25.74,25.74,0,0,1,145.4,493a1.33,1.33,0,0,1,.09.37c0,.13-.18.26-.54.4l-3.35,1.29a1.91,1.91,0,0,1-.59.19c-.14,0-.26-.16-.37-.47a27.56,27.56,0,0,0-3-6.42.72.72,0,0,1-.16-.38c0-.14.19-.27.58-.4l3.17-1.05a2.23,2.23,0,0,1,.54-.12C141.94,486.4,142.1,486.52,142.26,486.75Zm11.18,13.55h-8.93v3.45h8.93Zm0,10.83v-3.59h-8.93v3.59Zm-3.68-16.69a33.54,33.54,0,0,0,3.3-4.8,12.94,12.94,0,0,0,1.24-2.93q2.37.75,4.57,1.68c.38.22.57.46.57.71s-.18.47-.52.82a3.69,3.69,0,0,0-1,1.1q-1.36,2.16-2.79,4.08a1.33,1.33,0,0,1-1,.63,3.88,3.88,0,0,1-1.15-.28A25.76,25.76,0,0,0,149.76,494.44Z"/><path class="cls-2" d="M168.13,525.5a28.58,28.58,0,0,0,2-8.89c.11-1.12.16-1.91.16-2.36,0-.24,0-.44,0-.61a23.57,23.57,0,0,1,3.65.68c.55.12.82.31.82.56a1.28,1.28,0,0,1-.23.73,6.3,6.3,0,0,0-.35,1.78,49.09,49.09,0,0,1-1.67,8.79c-.23.73-.46,1.1-.68,1.1a3,3,0,0,1-1.05-.54A10,10,0,0,0,168.13,525.5ZM183.83,502a1.9,1.9,0,0,1,.43-.09c.15,0,.3.15.44.45a50.08,50.08,0,0,1,3,8.72c0,.12,0,.21,0,.28,0,.29-.19.5-.58.63l-2.37.73a2.9,2.9,0,0,1-.54.11c-.16,0-.27-.16-.33-.49l-.47-2.18-2.83.31v13.14l.09,6.29a.73.73,0,0,1-.09.46.83.83,0,0,1-.43.07h-3.68c-.25,0-.39,0-.44-.09a.82.82,0,0,1-.07-.44l.09-6.29V510.75c-.84.1-2.18.21-4,.33a4.14,4.14,0,0,0-1.78.4,1.09,1.09,0,0,1-.7.23c-.32,0-.53-.27-.64-.82-.25-1.31-.44-2.67-.58-4.07,1.51.11,2.54.16,3.07.16l.68,0c.9-1.13,1.85-2.39,2.83-3.78a62.1,62.1,0,0,0-6.39-6.86c-.19-.21-.29-.36-.29-.45a1.85,1.85,0,0,1,.36-.61l1.61-2.37c.21-.28.37-.42.5-.42s.23.1.42.28a6.06,6.06,0,0,0,.63.66c.33.31.52.49.56.54a52.23,52.23,0,0,0,2.6-4.78,16.61,16.61,0,0,0,1.15-3,41.61,41.61,0,0,1,4.13,1.85q.63.42.63.78t-.42.63a3.37,3.37,0,0,0-.92,1.1,66.3,66.3,0,0,1-4.24,6.42c1,1.1,1.78,1.92,2.23,2.46.78-1.18,1.76-2.79,2.93-4.8A19.36,19.36,0,0,0,182,491a38.71,38.71,0,0,1,4,2.06c.39.22.58.46.58.73a.81.81,0,0,1-.54.73,6.66,6.66,0,0,0-1.57,1.92q-2.88,4.62-7.31,10.36,3.66-.21,5.16-.33c-.31-.86-.68-1.81-1.1-2.84a.79.79,0,0,1-.1-.33c0-.17.19-.33.56-.49Zm.66,11.72a2.37,2.37,0,0,1,.45-.09c.14,0,.26.14.37.42a47,47,0,0,1,2.06,8.7,2,2,0,0,1,0,.33c0,.25-.2.44-.61.58l-2.41.77a1.9,1.9,0,0,1-.54.12q-.29,0-.33-.51a40.36,40.36,0,0,0-1.71-8.93,1,1,0,0,1-.07-.33q0-.29.54-.42Zm3.42-11.95q2.19.07,4.5.33c.49.06.73.24.73.54a2.76,2.76,0,0,1-.31,1,18.81,18.81,0,0,0-.23,4.07v5h4V498.19q-2.15.38-6.56.94a9.78,9.78,0,0,1-1.17.12.82.82,0,0,1-.73-.29,3.45,3.45,0,0,1-.3-.84,16.07,16.07,0,0,0-1.41-3.26,75.33,75.33,0,0,0,10.17-1.19,62.45,62.45,0,0,0-.32-6.87,45.64,45.64,0,0,1,4.75.33c.61.09.92.3.92.63a2.15,2.15,0,0,1-.33,1,10.41,10.41,0,0,0-.4,3.84,20,20,0,0,0,2.6-.77,15.65,15.65,0,0,0,3.94-1.78,26.48,26.48,0,0,1,2.88,3.28,1.45,1.45,0,0,1,.28.82c0,.38-.32.56-1,.56a5.4,5.4,0,0,0-1.73.33,51.52,51.52,0,0,1-7,2.13v15.54h4.15v-5.36a44.89,44.89,0,0,0-.28-5.77,43.12,43.12,0,0,1,4.5.37c.51.07.77.25.77.54a2.21,2.21,0,0,1-.3.87,16.47,16.47,0,0,0-.28,4.22v5.51l.09,4.71a.83.83,0,0,1-.08.46.77.77,0,0,1-.44.08h-3.46q-.37,0-.45-.12c0-.05-.07-.19-.07-.42v-1H201.2v5.72a3.91,3.91,0,0,0,.24,1.66,1.23,1.23,0,0,0,.68.54,8,8,0,0,0,2.18.19,4.66,4.66,0,0,0,2.74-.59q1-.79,1.15-5.27a11,11,0,0,0,3.25,1.5,3.16,3.16,0,0,1,1,.35.54.54,0,0,1,.22.51c0,.11,0,.37-.07.78a14.29,14.29,0,0,1-1,4.45,4.46,4.46,0,0,1-1.53,1.69q-1.63,1.1-6,1.1a14.13,14.13,0,0,1-5.06-.59,3.11,3.11,0,0,1-1.8-1.45,7.72,7.72,0,0,1-.57-3.4v-7.19h-4v2.25q0,.38-.09.45a.86.86,0,0,1-.5.09h-3.39c-.25,0-.4,0-.45-.1a.82.82,0,0,1-.07-.44l.09-4.83v-6.59A54.12,54.12,0,0,0,187.91,501.73Z"/><path class="cls-2" d="M222.83,521.16h-3.7c-.25,0-.4,0-.44-.07s-.07-.18-.07-.4l.09-13V500l-.09-10q0-.37.09-.45a.94.94,0,0,1,.44-.07l4.86.1h5.55l4.85-.1c.27,0,.42,0,.47.1a.76.76,0,0,1,.07.42l-.09,8.6v8.25l.09,12.38c0,.26,0,.42-.09.46a.84.84,0,0,1-.45.07h-3.58a.9.9,0,0,1-.52-.09.82.82,0,0,1-.07-.44v-2.35h-6.82v3.75q0,.36-.12.42A1.21,1.21,0,0,1,222.83,521.16ZM230.24,494h-6.82v7h6.82Zm-6.82,18.63h6.82v-7.31h-6.82Zm23.7,12.19c1.46.12,2.84.19,4.12.19a2.1,2.1,0,0,0,1.55-.42,1.93,1.93,0,0,0,.33-1.27v-9.21h-9.85a25.65,25.65,0,0,1-3.26,9.58,23.36,23.36,0,0,1-5.27,5.82,2.75,2.75,0,0,1-1.17.72c-.17,0-.52-.29-1.06-.86a12.47,12.47,0,0,0-2.93-2.39,24.32,24.32,0,0,0,5.72-5.42,19.08,19.08,0,0,0,3-7.57,72.39,72.39,0,0,0,.85-12.65V495.4l-.1-6.7c0-.27,0-.42.12-.47a.91.91,0,0,1,.47-.07l5.37.09h7.14l5.37-.09a.92.92,0,0,1,.52.09,1,1,0,0,1,.07.45l-.1,6.7V518l.1,6.64a5,5,0,0,1-1.39,3.93q-1.44,1.25-6.44,1.25-1.17,0-1.38-.24a3.37,3.37,0,0,1-.45-1.26A11.82,11.82,0,0,0,247.12,524.77Zm-3.31-15.12h9.31v-6.3h-9C244.05,505.68,244,507.78,243.81,509.65Zm9.31-16.87h-9v6.16h9Z"/><path class="cls-2" d="M266.33,496.5l2.25.47c.47.11.71.31.71.59v.19a43.58,43.58,0,0,1-1.55,10.5c-.08.23-.17.35-.28.35a3.23,3.23,0,0,1-.49-.14l-2.42-1c-.39-.16-.58-.36-.58-.61a1.18,1.18,0,0,1,.07-.35,36.89,36.89,0,0,0,1.52-9.73c0-.27.07-.4.21-.4A4.85,4.85,0,0,1,266.33,496.5ZM270,486.43c1.94,0,3.62.15,5,.32.52.05.77.21.77.5a2.74,2.74,0,0,1-.23,1,21.34,21.34,0,0,0-.35,5.32v27.89l.09,8.44a.73.73,0,0,1-.09.46.81.81,0,0,1-.42.07h-4q-.37,0-.45-.09a.94.94,0,0,1-.07-.44l.1-8.4V493.67A53.91,53.91,0,0,0,270,486.43Zm8.11,9.49a2,2,0,0,1,.45-.07c.17,0,.31.12.42.37a44.13,44.13,0,0,1,1.92,6.1,1.23,1.23,0,0,1,.07.37c0,.2-.2.37-.61.49l-2,.66a2.51,2.51,0,0,1-.56.14c-.14,0-.24-.14-.31-.42a31.81,31.81,0,0,0-1.73-6.28,1.56,1.56,0,0,1-.09-.4c0-.14.19-.27.58-.38Zm6.91,16-6.58.1q-.37,0-.45-.12a1,1,0,0,1-.07-.45v-3.51c0-.25,0-.4.1-.45a.87.87,0,0,1,.42-.07l6.58.1h3.17q.26-3.24.33-8.25h-1.2l-6.05.09a.73.73,0,0,1-.46-.09.8.8,0,0,1-.08-.43v-3.56c0-.25,0-.4.12-.47a.81.81,0,0,1,.42-.07l6.05.12h1.24V492.1a40.5,40.5,0,0,0-.33-5.63c1.91.07,3.61.18,5.09.35.55.05.82.24.82.57a2.52,2.52,0,0,1-.37,1,9.48,9.48,0,0,0-.26,2.93l-.05,3.56h4.13l6-.12c.28,0,.46,0,.52.1a.82.82,0,0,1,.07.44l-.09,4.22v8l3.7-.1c.31,0,.47.17.47.52v3.51a1,1,0,0,1-.07.47c-.05.06-.18.1-.4.1l-6.63-.1h-6.5q3.75,9.42,14.42,13.64a14.41,14.41,0,0,0-2.16,3.59c-.36.76-.66,1.15-.91,1.15a3.33,3.33,0,0,1-1-.38,28,28,0,0,1-13.41-15,24.76,24.76,0,0,1-10.94,15,2.88,2.88,0,0,1-1.1.54c-.22,0-.54-.35-1-1.06a9.07,9.07,0,0,0-2.44-2.79q9.75-4.8,11.41-14.74Zm8.07-4.4h6.18v-8.25H293.4Q293.34,504.42,293.08,507.5Z"/><path class="cls-3" d="M165.69,158q-5.28-7.31-5.27-19.55T165.69,119q5.26-7.31,15.87-7.31T197.43,119q5.26,7.3,5.27,19.54T197.43,158q-5.27,7.31-15.87,7.3T165.69,158ZM172,124.47q-3.07,5.34-3.07,14t3.07,14q3.08,5.34,9.61,5.34t9.53-5.3q3-5.31,3-14.06t-3-14.05q-3-5.31-9.53-5.31T172,124.47Z"/><path class="cls-3" d="M209.22,112.9h18.84v51.85h-8.31V120.69H209.22Z"/><g class="cls-4"><path class="cls-5" d="M100.51,164.85H41.11c0-1.9,0-3.82.12-5.72l59.34,2.54C100.53,162.72,100.51,163.79,100.51,164.85ZM288,164.09c0-1.07-.05-2.15-.1-3.2l59.31-3.15c.1,1.89.16,3.81.18,5.71Zm-187.2-5.59L41.6,153.41c.16-1.9.37-3.82.61-5.69l58.91,7.62C101,156.38,100.87,157.45,100.78,158.5Zm186.86-.77c-.1-1-.23-2.1-.37-3.14l58.82-8.27c.27,1.89.49,3.81.68,5.71Zm-186-5.52L43.07,142.05c.33-1.89.7-3.79,1.11-5.65l58,12.71C102,150.13,101.77,151.17,101.59,152.21Zm185.17-.75c-.19-1-.41-2.09-.64-3.11L344,135.05c.42,1.85.81,3.74,1.16,5.61ZM103,146,45.52,130.83c.49-1.85,1-3.71,1.59-5.53L103.83,143C103.51,144,103.22,145,103,146Zm182.39-.74c-.28-1-.59-2-.91-3L341,124c.58,1.81,1.13,3.65,1.63,5.47Zm-180.5-5.35-55.91-20c.64-1.78,1.32-3.58,2-5.34l55,22.4C105.58,137.93,105.2,138.93,104.84,139.92Zm178.55-.7c-.36-1-.76-2-1.17-3L337,113.32c.74,1.76,1.44,3.54,2.1,5.31ZM107.26,134l-54-24.69c.79-1.72,1.62-3.45,2.48-5.13l52.94,26.93C108.17,132.06,107.7,133,107.26,134Zm173.66-.67c-.45-1-.93-1.94-1.42-2.88L332.18,103c.87,1.67,1.72,3.38,2.52,5.09Zm-170.74-5.08L58.38,99.18c.92-1.64,1.89-3.28,2.88-4.89l50.56,31.18C111.25,126.38,110.7,127.32,110.18,128.25Zm167.76-.64c-.53-.93-1.09-1.86-1.67-2.78l50.27-31.64c1,1.59,2,3.22,2.92,4.85Zm-164.36-4.88L64.31,89.55c1-1.54,2.13-3.09,3.23-4.6l47.92,35.1C114.82,120.94,114.19,121.84,113.58,122.73Zm160.9-.62c-.62-.9-1.26-1.8-1.91-2.67l47.58-35.56c1.12,1.5,2.22,3,3.29,4.58Zm-157-4.66L71,80.49c1.15-1.45,2.35-2.9,3.57-4.31l45,38.73C118.83,115.75,118.13,116.6,117.45,117.45Zm153.1-.61c-.7-.85-1.41-1.71-2.14-2.53l44.67-39.16c1.22,1.4,2.44,2.84,3.61,4.29Zm-148.8-4.39L78.25,72c1.25-1.35,2.55-2.7,3.86-4l42,42.06C123.27,110.85,122.5,111.65,121.75,112.45Zm144.43-.59c-.76-.8-1.55-1.6-2.35-2.38L305.38,67c1.33,1.3,2.65,2.64,3.92,4Zm-139.72-4.1L86.12,64.16c1.34-1.25,2.74-2.49,4.14-3.69L129,105.54Q127.68,106.64,126.46,107.76Zm134.94-.58c-.83-.75-1.68-1.49-2.53-2.21l38.25-45.45c1.41,1.2,2.83,2.43,4.2,3.68ZM131.53,103.4l-37-46.47c1.44-1.14,2.91-2.28,4.39-3.37l35.28,47.79C133.31,102,132.41,102.7,131.53,103.4Zm124.73-.55c-.89-.69-1.81-1.38-2.72-2l34.83-48.12c1.48,1.08,3,2.19,4.42,3.33ZM137,99.39l-33.53-49c1.51-1,3-2,4.6-3l31.76,50.2C138.85,98.13,137.89,98.76,137,99.39Zm113.79-.52c-.92-.61-1.88-1.23-2.84-1.83l31.27-50.5c1.57,1,3.14,2,4.65,3Zm-108-3.11-30-51.3c1.57-.91,3.19-1.82,4.8-2.68l28.13,52.31C144.67,94.63,143.67,95.2,142.71,95.76ZM245,95.3c-1-.56-2-1.11-3-1.63l27.62-52.59c1.62.85,3.24,1.74,4.83,2.65Zm-96.28-2.76L122.44,39.26c1.64-.81,3.3-1.59,5-2.34l24.41,54.15C150.77,91.54,149.72,92,148.71,92.54ZM239,92.13c-1-.49-2.06-1-3.1-1.43l23.89-54.38c1.67.73,3.35,1.51,5,2.3Zm-84-2.41-22.5-55c1.68-.69,3.4-1.36,5.1-2l20.6,55.72C157.08,88.87,156,89.29,155,89.72Zm77.73-.34c-1.05-.42-2.13-.83-3.21-1.22l20.1-55.9c1.71.62,3.44,1.27,5.12,1.94Zm-71.29-2L142.71,31c1.72-.56,3.47-1.11,5.21-1.62l16.76,57C163.58,86.64,162.47,87,161.39,87.34Zm64.83-.28c-1.08-.35-2.19-.69-3.3-1l16.24-57.14c1.75.5,3.51,1,5.23,1.58ZM168,85.4,153.19,27.87c1.76-.45,3.54-.87,5.3-1.27l12.87,58C170.25,84.84,169.11,85.11,168,85.4Zm51.58-.23c-1.1-.27-2.23-.53-3.36-.77l12.35-58.11c1.78.38,3.56.79,5.32,1.23ZM174.75,83.9,163.83,25.51c1.77-.33,3.58-.63,5.36-.91l9,58.72C177,83.49,175.88,83.69,174.75,83.9Zm38.07-.17c-1.13-.2-2.28-.38-3.42-.55l8.45-58.79c1.79.26,3.6.55,5.38.86Zm-31.22-.88-7-59c1.78-.21,3.59-.4,5.39-.55l5.09,59.18C183.91,82.6,182.75,82.72,181.6,82.85Zm24.35-.1c-1.14-.13-2.3-.24-3.45-.33l4.55-59.22c1.8.14,3.63.31,5.41.5Zm-17.41-.49L185.4,22.94c1.79-.09,3.61-.16,5.41-.2L192,82.13C190.86,82.15,189.69,82.2,188.54,82.26ZM199,82.21c-1.16,0-2.34-.08-3.49-.09l.69-59.4c1.8,0,3.62.07,5.42.15Z"/></g><g class="cls-6"><rect class="cls-7" x="17.26" y="558.05" width="353.96" height="6.97" rx="3.48" ry="3.48"/></g><path class="cls-7" d="M232.76,306.14a2.47,2.47,0,0,0-2.39-1.67c-1.46,0-3,0-4.4,0H219q-20.9,0-41.8,0h0a1.52,1.52,0,0,1-1.75-1.51l-.05-.44c-.31-2.52-.62-5.12-1.13-7.63a8.89,8.89,0,0,0-7.64-6.75,2.07,2.07,0,0,1-.5-.11l0,0h-8.3a.75.75,0,0,1-.18.08c-1.5.52-2.24,1.56-2,2.85a2.61,2.61,0,0,0,2.91,2.25h4c.89,0,1.78,0,2.67,0,2.51,0,4,1.41,4.34,4q.75,5.86,1.54,11.74l.36,2.66,1,7.25c.68,5.07,1.39,10.3,2,15.46a9.18,9.18,0,0,0,9.16,8.15H218a9.08,9.08,0,0,0,9.42-7.65c.93-4.51,1.85-9.11,2.74-13.56l1.56-7.82c.27-1.33.55-2.66.84-4,.13-.58.25-1.15.38-1.73v-1.26A2.14,2.14,0,0,1,232.76,306.14Zm-8.2,16.78q-1,5.22-2.08,10.42c-.55,2.8-1.93,4-4.75,4H183.87a4,4,0,0,1-4.35-3.78c-.48-3.49-1-7.05-1.4-10.5l-.44-3.37q-.42-3.21-.85-6.46l-.45-3.5h50.83Z"/><path class="cls-7" d="M187.61,349.89A9.1,9.1,0,0,0,172,356.27v.05a9.08,9.08,0,0,0,15.48,6.47,9.11,9.11,0,0,0,2.79-6.56A8.92,8.92,0,0,0,187.61,349.89Zm-2.51,6.38a4.06,4.06,0,0,1-3.95,4h-.05a4.08,4.08,0,0,1-4-3.95,4,4,0,0,1,1.14-2.77,4.05,4.05,0,0,1,2.84-1.25,4,4,0,0,1,4,3.95Z"/><path class="cls-7" d="M227.07,350a9.3,9.3,0,0,0-6.58-2.82h-.08a8.85,8.85,0,0,0-6.25,2.6,9.22,9.22,0,0,0-2.76,6.57v0a9.08,9.08,0,0,0,8.83,9.06h0a9.13,9.13,0,0,0,9.39-9.15A8.82,8.82,0,0,0,227.07,350Zm-2.57,6.32a4.05,4.05,0,0,1-4,4h0a4.06,4.06,0,0,1-4-4,3.89,3.89,0,0,1,1.16-2.76,4,4,0,0,1,2.83-1.24h0a3.93,3.93,0,0,1,2.77,1.16,4,4,0,0,1,1.2,2.81Z"/><path class="cls-7" d="M223.79,274.44a5.92,5.92,0,0,0-1.51-1.09,5.59,5.59,0,0,0-2.81-7.83,6,6,0,0,0-3-6.88l4.13-4.13a6.25,6.25,0,0,0-8.84-8.84l-17.41,17.42-1.62-10a7,7,0,0,0-7.5-5.81,3.88,3.88,0,0,0-3.54,3.88v27.23a15,15,0,0,0,4.43,10.63l4.53,4.49A15.9,15.9,0,0,0,213,293.5l10.8-10.8A5.86,5.86,0,0,0,223.79,274.44Zm-3,5.26L210,290.49a11.63,11.63,0,0,1-16.37.05l-4.53-4.49a10.8,10.8,0,0,1-3.18-7.62V251.54a2.71,2.71,0,0,1,2.61,2.27l2.28,14.05a2.13,2.13,0,0,0,3.6,1.16l20.34-20.34a2,2,0,0,1,3.42,1.41,2,2,0,0,1-.58,1.42l-13.85,13.84a2.12,2.12,0,0,0,3,3l5.64-5.64a1.78,1.78,0,0,1,1.26-.52,1.79,1.79,0,0,1,1.26,3.05l-5.28,5.29A2.08,2.08,0,0,0,209,272a2.11,2.11,0,0,0,.63,1.5,2.14,2.14,0,0,0,3,0l3.78-3.79a1.39,1.39,0,0,1,1.9,0,1.36,1.36,0,0,1,0,1.91l-3.83,3.83a2.12,2.12,0,0,0,3,3l1-1a1.61,1.61,0,0,1,1.13-.47,1.59,1.59,0,0,1,1.13.47A1.61,1.61,0,0,1,220.78,279.7Z"/><path class="cls-7" d="M199.56,239.86a2.12,2.12,0,0,1-2.12-2.12V226.42a2.12,2.12,0,0,1,4.24,0v11.32A2.12,2.12,0,0,1,199.56,239.86Z"/><path class="cls-7" d="M204,244.7a2.13,2.13,0,0,1-1.5-3.63l8.27-8.27a2.12,2.12,0,0,1,3,3l-8.27,8.27A2.11,2.11,0,0,1,204,244.7Z"/><path class="cls-7" d="M195.73,245.14a2.13,2.13,0,0,1-1.38-.51l-9-7.69a2.12,2.12,0,1,1,2.75-3.23l9,7.69a2.12,2.12,0,0,1,.23,3A2.09,2.09,0,0,1,195.73,245.14Z"/></svg>