<svg xmlns="http://www.w3.org/2000/svg" width="141.672" height="13.602" viewBox="0 0 141.672 13.602"><g transform="translate(-813.91 -4362.938)"><path d="M813.91,4363.205l9.021,6.653-9.021,6.682Z" fill="#fff"/><path d="M825.585,4365.446h8.908l.084-.042.953.729a.325.325,0,0,1-.168.126c-1.134,5.266-3.572,8.012-7.858,9.637a6.146,6.146,0,0,0-.631-.827,10.6,10.6,0,0,0,7.34-8.656h-8.628Zm10.674-2.508a1.534,1.534,0,1,1-1.541,1.541A1.533,1.533,0,0,1,836.259,4362.938Zm1.064,1.541a1.067,1.067,0,0,0-1.064-1.078,1.079,1.079,0,1,0,1.064,1.078Z" fill="#fff"/><path d="M849.348,4368.3a.319.319,0,0,1-.182.139c-1.148,4.231-3.488,6.29-7.676,7.453a4.175,4.175,0,0,0-.589-.813c3.811-.952,6.178-2.913,7.06-6.163h-9.273v-.952h9.694l.139-.084Zm-1.317-3h-7.984v-.924h7.984Z" fill="#fff"/><path d="M862.522,4364.647a.312.312,0,0,1-.265.113.548.548,0,0,1-.141-.014,34.17,34.17,0,0,1-3.992,3.348c.112.042.28.126.337.154a.36.36,0,0,1-.309.182v7.522H857.13v-7.2a40.215,40.215,0,0,1-5.337,3.124,5.165,5.165,0,0,0-.589-.771,35.541,35.541,0,0,0,10.268-7.242Z" fill="#fff"/><path d="M868.413,4365.937c-.042.112-.154.2-.364.209-.56,3.363-1.723,6.907-3.362,8.979a4.33,4.33,0,0,0-.938-.5c1.568-1.905,2.8-5.463,3.25-8.978Zm7.046,9.1a47.3,47.3,0,0,0-3.726-9.02l.911-.435a45.138,45.138,0,0,1,3.837,9.049Zm-2.031-11.262a10.037,10.037,0,0,1,1.709,2.074l-.533.391a11.247,11.247,0,0,0-1.708-2.072Zm1.849-.728A11.557,11.557,0,0,1,877,4365.11l-.546.407a11.189,11.189,0,0,0-1.709-2.06Z" fill="#fff"/><path d="M878.365,4367.771a20.176,20.176,0,0,1,3.769,1.261l-.421.883a20.388,20.388,0,0,0-3.768-1.289Zm.841,6.85c4.553-1.526,7.662-3.95,9.525-8.152.21.181.644.476.855.616a15.371,15.371,0,0,1-9.428,8.278.328.328,0,0,1-.168.351Zm.7-10.323a22.4,22.4,0,0,1,3.754,1.372l-.462.854a22.159,22.159,0,0,0-3.712-1.414Z" fill="#fff"/><path d="M891.385,4369.116h11.7v.994H891.918a.646.646,0,0,1-.448.267Z" fill="#fff"/><path d="M908.678,4369.957a11.644,11.644,0,0,1-2.634,4.132l-.813-.532a9.839,9.839,0,0,0,2.536-3.951Zm3-2.157v6.569c0,1.527-1.093,1.527-3.334,1.527a5.983,5.983,0,0,0-.294-.939c.406.015.854.015,1.232.015h.813a.534.534,0,0,0,.574-.589V4367.8H905.9v-.953h4.762v-2.955l1.331.069c-.014.141-.112.238-.322.267v2.619h4.734v.953Zm2.508,1.709a27.645,27.645,0,0,1,2.955,4.076l-.9.518a25.888,25.888,0,0,0-2.857-4.146Zm1.82-6.458a1.569,1.569,0,1,1-1.582,1.569A1.565,1.565,0,0,1,916,4363.051Zm1.093,1.569A1.11,1.11,0,0,0,916,4363.5a1.114,1.114,0,1,0,0,2.228A1.106,1.106,0,0,0,917.1,4364.62Z" fill="#fff"/><path d="M920.129,4371.5v-6.808l1.331.084c-.015.126-.112.225-.337.253v6.471Zm7.8-7.353c-.015.139-.113.21-.337.238v4.454c0,2.941-1.008,5.631-5.029,7.186a4.1,4.1,0,0,0-.728-.756c3.88-1.444,4.749-3.838,4.749-6.43v-4.776Z" fill="#fff"/><path d="M930.866,4367.771a20.178,20.178,0,0,1,3.769,1.261l-.421.883a20.387,20.387,0,0,0-3.768-1.289Zm.841,6.85c4.553-1.526,7.662-3.95,9.525-8.152.21.181.644.476.855.616a15.373,15.373,0,0,1-9.428,8.278.329.329,0,0,1-.168.351Zm.7-10.323a22.4,22.4,0,0,1,3.754,1.372l-.462.854a22.159,22.159,0,0,0-3.712-1.414Z" fill="#fff"/><path d="M943.886,4369.116h11.7v.994H944.419a.646.646,0,0,1-.448.267Z" fill="#fff"/></g></svg>