<svg xmlns="http://www.w3.org/2000/svg" width="65.749" height="13.335" viewBox="0 0 65.749 13.335"><g transform="translate(-705.91 -4363.205)"><path d="M705.91,4363.205l9.021,6.653-9.021,6.682Z" fill="#fff"/><path d="M723.565,4364.06a.258.258,0,0,1-.265.055,11.384,11.384,0,0,1-2.283.826v2.705h2.773v.9h-2.773v1.064c.643.491,2.268,1.877,2.689,2.255l-.547.771c-.42-.462-1.4-1.4-2.142-2.059v5.8h-.925v-6.359a15.981,15.981,0,0,1-2.661,4.341,4.028,4.028,0,0,0-.533-.881,15.161,15.161,0,0,0,2.984-4.931h-2.76v-.9h2.97v-2.466c-.91.21-1.863.392-2.76.547a3.55,3.55,0,0,0-.308-.715,20.21,20.21,0,0,0,5.66-1.667Zm1.318,1.008,1.19.07c-.014.1-.084.168-.266.2v7.564h-.924Zm3.515-1.443,1.205.07c-.014.113-.084.168-.266.2v11.191c0,.673-.2.967-.616,1.121a8.765,8.765,0,0,1-2.522.183,4,4,0,0,0-.364-.953c.519.014.994.014,1.387.014,1.12,0,1.176,0,1.176-.365Z" fill="#fff"/><path d="M742.973,4364.367v10.647c0,1.289-.617,1.3-3.264,1.274a3.609,3.609,0,0,0-.336-.91c.518.014,1.023.028,1.429.028,1.162,0,1.232,0,1.232-.392v-3.04H738v4.258h-.91v-4.258h-3.685a8.163,8.163,0,0,1-1.793,4.468,3.409,3.409,0,0,0-.714-.63c1.569-1.765,1.723-4.287,1.723-6.29v-5.155Zm-9.427,5.155c0,.491-.015,1.009-.057,1.555h3.6v-2.451h-3.544Zm3.544-4.258h-3.544v2.479h3.544Zm4.944,2.479v-2.479H738v2.479ZM738,4371.077h4.034v-2.451H738Z" fill="#fff"/><path d="M748.273,4370.125c-.027.35-.055.7-.111,1.05.56.56,2,2.157,2.353,2.563l-.659.715c-.349-.518-1.232-1.611-1.877-2.353a6.978,6.978,0,0,1-2.352,3.95,4.34,4.34,0,0,0-.645-.687,6.892,6.892,0,0,0,2.41-5.238H745v-.869h2.438c.013-.35.013-.686.013-1.008v-1.556h-2.1v-.854h2.1v-2.465l1.163.084c-.014.084-.084.154-.266.183v2.2h2.031v.854h-2.031v1.541c0,.323,0,.673-.014,1.023h2.339v.869Zm5.085,2.227c-.013.084-.112.154-.265.168a4.515,4.515,0,0,1-3.39,3.852,2.739,2.739,0,0,0-.533-.686,3.774,3.774,0,0,0,3.068-3.46Zm2.1,2.578c0,.322.056.364.378.364h1.009c.336,0,.406-.211.434-1.92a2.312,2.312,0,0,0,.8.379c-.07,1.919-.308,2.4-1.135,2.4h-1.218c-.939,0-1.149-.266-1.149-1.233v-3.138h-3.348v-7.858h6.038v7.858H755.46Zm-3.348-10.142v1.5h4.244v-1.5Zm0,2.3v1.513h4.244v-1.513Zm0,2.3v1.541h4.244v-1.541Z" fill="#fff"/><path d="M760.9,4371.708c-.028.084-.112.14-.28.14a11.868,11.868,0,0,1-1.093,3.362,6.582,6.582,0,0,0-.714-.364,11.4,11.4,0,0,0,1.037-3.405Zm1.555-7.915a.3.3,0,0,1-.294.112,25.064,25.064,0,0,1-1.724,2.745,10.96,10.96,0,0,1,.982,1.051c.685-.952,1.344-1.947,1.807-2.76l1.008.477c-.042.084-.154.112-.308.112a35.8,35.8,0,0,1-3.11,4.09c.9-.014,1.863-.027,2.843-.056a11.7,11.7,0,0,0-.924-1.331c.392-.21.546-.28.687-.364a12.448,12.448,0,0,1,1.764,2.83l-.728.42a8.126,8.126,0,0,0-.393-.826l-1.624.084v6h-.882v-5.953c-.869.028-1.654.07-2.27.084a.236.236,0,0,1-.21.182l-.252-1.05h1.051c.336-.379.686-.8,1.036-1.261a12.573,12.573,0,0,0-1.933-1.947l.462-.6c.14.113.281.225.435.336a20.7,20.7,0,0,0,1.555-2.8Zm1.667,10.688a13.656,13.656,0,0,0-1.037-2.816l.757-.266a14.924,14.924,0,0,1,1.093,2.788Zm7.031-8.474.505.056a2.546,2.546,0,0,1-.028.308c-.224,6.569-.448,8.769-1.009,9.455-.378.462-.756.546-1.723.546-.476,0-1.05-.014-1.61-.056a2.02,2.02,0,0,0-.309-.9c.967.084,1.849.1,2.2.1a.706.706,0,0,0,.616-.224c.462-.491.7-2.662.91-8.363h-4.4a11.671,11.671,0,0,1-1.26,2.256,6.613,6.613,0,0,0-.771-.5,15.409,15.409,0,0,0,2.242-5.337l1.176.308c-.028.126-.154.168-.308.155a21.763,21.763,0,0,1-.715,2.213h4.272Zm-4.58,3.1a14.281,14.281,0,0,1,2.018,3.291l-.827.448a14.743,14.743,0,0,0-1.961-3.348Z" fill="#fff"/></g></svg>