<svg id="Layer_1" data-name="Layer 1" xmlns="http://www.w3.org/2000/svg" xmlns:xlink="http://www.w3.org/1999/xlink" viewBox="0 0 724 366"><defs><style>.cls-1{fill:#313b43;}.cls-2{opacity:0.25;}.cls-3{fill:#5fa2f4;}.cls-4{fill:url(#linear-gradient);}.cls-5{fill:url(#linear-gradient-2);}.cls-6{fill:url(#linear-gradient-3);}.cls-7{fill:url(#linear-gradient-4);}.cls-8{fill:url(#linear-gradient-5);}.cls-9{fill:url(#linear-gradient-6);}.cls-10{fill:url(#linear-gradient-7);}.cls-11{fill:url(#linear-gradient-8);}.cls-12{fill:url(#linear-gradient-9);}.cls-13{fill:url(#linear-gradient-10);}.cls-14{fill:url(#linear-gradient-11);}.cls-15{fill:url(#linear-gradient-12);}.cls-16{fill:url(#linear-gradient-13);}.cls-17{fill:url(#linear-gradient-14);}.cls-18{fill:url(#linear-gradient-15);}.cls-19{fill:url(#linear-gradient-16);}.cls-20{fill:url(#linear-gradient-17);}.cls-21{fill:url(#linear-gradient-18);}.cls-22{fill:url(#linear-gradient-19);}.cls-23{fill:url(#linear-gradient-20);}.cls-24{fill:url(#linear-gradient-21);}.cls-25{fill:url(#linear-gradient-22);}.cls-26{fill:url(#linear-gradient-23);}.cls-27{fill:url(#linear-gradient-24);}.cls-28{fill:url(#linear-gradient-25);}.cls-29{fill:url(#linear-gradient-26);}.cls-30{fill:url(#linear-gradient-27);}.cls-31{fill:url(#linear-gradient-28);}.cls-32{fill:url(#linear-gradient-29);}.cls-33{fill:url(#linear-gradient-30);}.cls-34{fill:url(#linear-gradient-31);}.cls-35{fill:url(#linear-gradient-32);}.cls-36{fill:url(#linear-gradient-33);}.cls-37{fill:url(#linear-gradient-34);}.cls-38{fill:url(#linear-gradient-35);}.cls-39{fill:url(#linear-gradient-36);}.cls-40{fill:url(#linear-gradient-37);}.cls-41{fill:url(#linear-gradient-38);}.cls-42{fill:url(#linear-gradient-39);}.cls-43{fill:url(#linear-gradient-40);}.cls-44{fill:url(#linear-gradient-41);}.cls-45{fill:url(#linear-gradient-42);}.cls-46{fill:url(#linear-gradient-43);}.cls-47{fill:url(#linear-gradient-44);}.cls-48{fill:url(#linear-gradient-45);}.cls-49{fill:url(#linear-gradient-46);}.cls-50{fill:url(#linear-gradient-47);}.cls-51{fill:url(#linear-gradient-48);}.cls-52{fill:url(#linear-gradient-49);}.cls-53{fill:url(#linear-gradient-50);}.cls-54{fill:url(#linear-gradient-51);}.cls-55{fill:url(#linear-gradient-52);}.cls-56{fill:url(#linear-gradient-53);}.cls-57{fill:url(#linear-gradient-54);}.cls-58{fill:url(#linear-gradient-55);}.cls-59{fill:url(#linear-gradient-56);}.cls-60{fill:url(#linear-gradient-57);}.cls-61{fill:url(#linear-gradient-58);}.cls-62{fill:url(#linear-gradient-59);}.cls-63{fill:url(#linear-gradient-60);}.cls-64{fill:url(#linear-gradient-61);}.cls-65{fill:url(#linear-gradient-62);}.cls-66{fill:url(#linear-gradient-63);}.cls-67{fill:url(#linear-gradient-64);}.cls-68{fill:url(#linear-gradient-65);}.cls-69{fill:url(#linear-gradient-66);}.cls-70{fill:url(#linear-gradient-67);}.cls-71{fill:url(#linear-gradient-68);}.cls-72{fill:url(#linear-gradient-69);}.cls-73{fill:url(#linear-gradient-70);}.cls-74{fill:url(#linear-gradient-71);}.cls-75{fill:url(#linear-gradient-72);}.cls-76{fill:url(#linear-gradient-73);}.cls-77{fill:url(#linear-gradient-74);}.cls-78{fill:url(#linear-gradient-75);}.cls-79{fill:url(#linear-gradient-76);}.cls-80{fill:url(#linear-gradient-77);}.cls-81{fill:url(#linear-gradient-78);}.cls-82{fill:url(#linear-gradient-79);}</style><linearGradient id="linear-gradient" x1="142.17" y1="49.99" x2="142.17" y2="357.24" gradientUnits="userSpaceOnUse"><stop offset="0" stop-color="#f1c40f"/><stop offset="1" stop-color="#f39c12"/></linearGradient><linearGradient id="linear-gradient-2" x1="174.63" y1="283.31" x2="174.63" y2="311.79" xlink:href="#linear-gradient"/><linearGradient id="linear-gradient-3" x1="156.26" y1="277.39" x2="156.26" y2="305.32" xlink:href="#linear-gradient"/><linearGradient id="linear-gradient-4" x1="138.39" y1="270.67" x2="138.39" y2="298.48" xlink:href="#linear-gradient"/><linearGradient id="linear-gradient-5" x1="121.18" y1="262.72" x2="121.18" y2="290.73" xlink:href="#linear-gradient"/><linearGradient id="linear-gradient-6" x1="104.78" y1="253.23" x2="104.78" y2="281.59" xlink:href="#linear-gradient"/><linearGradient id="linear-gradient-7" x1="89.98" y1="241.96" x2="89.98" y2="270.66" xlink:href="#linear-gradient"/><linearGradient id="linear-gradient-8" x1="76.95" y1="228.74" x2="76.95" y2="257.62" xlink:href="#linear-gradient"/><linearGradient id="linear-gradient-9" x1="66.15" y1="213.55" x2="66.15" y2="242.38" xlink:href="#linear-gradient"/><linearGradient id="linear-gradient-10" x1="57.42" y1="196.04" x2="57.42" y2="225.13" xlink:href="#linear-gradient"/><linearGradient id="linear-gradient-11" x1="50.19" y1="177.82" x2="50.19" y2="206.2" xlink:href="#linear-gradient"/><linearGradient id="linear-gradient-12" x1="45.02" y1="158.99" x2="45.02" y2="186.42" xlink:href="#linear-gradient"/><linearGradient id="linear-gradient-13" x1="42.11" y1="139.72" x2="42.11" y2="166.02" xlink:href="#linear-gradient"/><linearGradient id="linear-gradient-14" x1="41.42" y1="120.2" x2="41.42" y2="145.23" xlink:href="#linear-gradient"/><linearGradient id="linear-gradient-15" x1="42.85" y1="100.68" x2="42.85" y2="124.34" xlink:href="#linear-gradient"/><linearGradient id="linear-gradient-16" x1="46.51" y1="81.42" x2="46.51" y2="103.67" xlink:href="#linear-gradient"/><linearGradient id="linear-gradient-17" x1="52.27" y1="62.63" x2="52.27" y2="83.48" xlink:href="#linear-gradient"/><linearGradient id="linear-gradient-18" x1="59.98" y1="44.58" x2="59.98" y2="64" xlink:href="#linear-gradient"/><linearGradient id="linear-gradient-19" x1="66.46" y1="7.86" x2="66.46" y2="45.69" xlink:href="#linear-gradient"/><linearGradient id="linear-gradient-20" x1="171.68" y1="320.53" x2="171.68" y2="337.02" xlink:href="#linear-gradient"/><linearGradient id="linear-gradient-21" x1="151.41" y1="313.47" x2="151.41" y2="328.9" xlink:href="#linear-gradient"/><linearGradient id="linear-gradient-22" x1="131.04" y1="305.65" x2="131.04" y2="319.78" xlink:href="#linear-gradient"/><linearGradient id="linear-gradient-23" x1="110.89" y1="295.97" x2="110.89" y2="309.13" xlink:href="#linear-gradient"/><linearGradient id="linear-gradient-24" x1="91.38" y1="283.51" x2="91.38" y2="296.4" xlink:href="#linear-gradient"/><linearGradient id="linear-gradient-25" x1="73.25" y1="267.64" x2="73.25" y2="281.09" xlink:href="#linear-gradient"/><linearGradient id="linear-gradient-26" x1="57.39" y1="248.36" x2="57.39" y2="263.07" xlink:href="#linear-gradient"/><linearGradient id="linear-gradient-27" x1="44.57" y1="226.54" x2="44.57" y2="242.82" xlink:href="#linear-gradient"/><linearGradient id="linear-gradient-28" x1="34.84" y1="203.75" x2="34.84" y2="221.4" xlink:href="#linear-gradient"/><linearGradient id="linear-gradient-29" x1="27.64" y1="179.74" x2="27.64" y2="199.77" xlink:href="#linear-gradient"/><linearGradient id="linear-gradient-30" x1="23.1" y1="154.85" x2="23.1" y2="177.18" xlink:href="#linear-gradient"/><linearGradient id="linear-gradient-31" x1="21.49" y1="129.44" x2="21.49" y2="153.91" xlink:href="#linear-gradient"/><linearGradient id="linear-gradient-32" x1="22.8" y1="104.18" x2="22.8" y2="130.37" xlink:href="#linear-gradient"/><linearGradient id="linear-gradient-33" x1="26.7" y1="79.84" x2="26.7" y2="106.99" xlink:href="#linear-gradient"/><linearGradient id="linear-gradient-34" x1="33.81" y1="56.76" x2="33.81" y2="84.16" xlink:href="#linear-gradient"/><linearGradient id="linear-gradient-35" x1="43.3" y1="35.13" x2="43.3" y2="62.2" xlink:href="#linear-gradient"/><linearGradient id="linear-gradient-36" x1="694.54" y1="203.64" x2="471.28" y2="203.64" xlink:href="#linear-gradient"/><linearGradient id="linear-gradient-37" x1="570.73" y1="328.25" x2="541.73" y2="328.25" xlink:href="#linear-gradient"/><linearGradient id="linear-gradient-38" x1="590.11" y1="321.01" x2="560.67" y2="321.01" xlink:href="#linear-gradient"/><linearGradient id="linear-gradient-39" x1="609.64" y1="312.86" x2="579.61" y2="312.86" xlink:href="#linear-gradient"/><linearGradient id="linear-gradient-40" x1="628.95" y1="303.28" x2="598.33" y2="303.28" xlink:href="#linear-gradient"/><linearGradient id="linear-gradient-41" x1="647.44" y1="291.3" x2="616.57" y2="291.3" xlink:href="#linear-gradient"/><linearGradient id="linear-gradient-42" x1="664.38" y1="276.84" x2="633.96" y2="276.84" xlink:href="#linear-gradient"/><linearGradient id="linear-gradient-43" x1="678.89" y1="259.99" x2="649.97" y2="259.99" xlink:href="#linear-gradient"/><linearGradient id="linear-gradient-44" x1="690.31" y1="240.78" x2="663.99" y2="240.78" xlink:href="#linear-gradient"/><linearGradient id="linear-gradient-45" x1="698.66" y1="220.71" x2="675.49" y2="220.71" xlink:href="#linear-gradient"/><linearGradient id="linear-gradient-46" x1="704.84" y1="199.33" x2="684.44" y2="199.33" xlink:href="#linear-gradient"/><linearGradient id="linear-gradient-47" x1="708.52" y1="177.04" x2="691.41" y2="177.04" xlink:href="#linear-gradient"/><linearGradient id="linear-gradient-48" x1="709.48" y1="154.14" x2="696.15" y2="154.14" xlink:href="#linear-gradient"/><linearGradient id="linear-gradient-49" x1="707.95" y1="131.04" x2="698.43" y2="131.04" xlink:href="#linear-gradient"/><linearGradient id="linear-gradient-50" x1="704.43" y1="108.16" x2="697.79" y2="108.16" xlink:href="#linear-gradient"/><linearGradient id="linear-gradient-51" x1="699.19" y1="85.88" x2="693.4" y2="85.88" xlink:href="#linear-gradient"/><linearGradient id="linear-gradient-52" x1="692.27" y1="64.47" x2="685.81" y2="64.47" xlink:href="#linear-gradient"/><linearGradient id="linear-gradient-53" x1="683.58" y1="44.15" x2="675.72" y2="44.15" xlink:href="#linear-gradient"/><linearGradient id="linear-gradient-54" x1="670.73" y1="26.16" x2="645.11" y2="26.16" xlink:href="#linear-gradient"/><linearGradient id="linear-gradient-55" x1="554.04" y1="300.11" x2="536.78" y2="300.11" xlink:href="#linear-gradient"/><linearGradient id="linear-gradient-56" x1="573.52" y1="293.61" x2="557.03" y2="293.61" xlink:href="#linear-gradient"/><linearGradient id="linear-gradient-57" x1="592.31" y1="286.52" x2="576.85" y2="286.52" xlink:href="#linear-gradient"/><linearGradient id="linear-gradient-58" x1="610.21" y1="278.24" x2="595.96" y2="278.24" xlink:href="#linear-gradient"/><linearGradient id="linear-gradient-59" x1="626.78" y1="268.24" x2="613.97" y2="268.24" xlink:href="#linear-gradient"/><linearGradient id="linear-gradient-60" x1="641.67" y1="256.12" x2="630.29" y2="256.12" xlink:href="#linear-gradient"/><linearGradient id="linear-gradient-61" x1="654.75" y1="241.6" x2="644.41" y2="241.6" xlink:href="#linear-gradient"/><linearGradient id="linear-gradient-62" x1="665.38" y1="224.58" x2="655.95" y2="224.58" xlink:href="#linear-gradient"/><linearGradient id="linear-gradient-63" x1="674.26" y1="205.32" x2="665.15" y2="205.32" xlink:href="#linear-gradient"/><linearGradient id="linear-gradient-64" x1="681.33" y1="184.94" x2="672.05" y2="184.94" xlink:href="#linear-gradient"/><linearGradient id="linear-gradient-65" x1="686.44" y1="163.79" x2="675.97" y2="163.79" xlink:href="#linear-gradient"/><linearGradient id="linear-gradient-66" x1="689.67" y1="142.11" x2="677.21" y2="142.11" xlink:href="#linear-gradient"/><linearGradient id="linear-gradient-67" x1="690.18" y1="120.25" x2="675.88" y2="120.25" xlink:href="#linear-gradient"/><linearGradient id="linear-gradient-68" x1="687.94" y1="98.56" x2="672.04" y2="98.56" xlink:href="#linear-gradient"/><linearGradient id="linear-gradient-69" x1="683.05" y1="77.36" x2="665.84" y2="77.36" xlink:href="#linear-gradient"/><linearGradient id="linear-gradient-70" x1="675.74" y1="56.95" x2="657.48" y2="56.95" xlink:href="#linear-gradient"/><linearGradient id="linear-gradient-71" x1="98.13" y1="58.92" x2="146.19" y2="106.98" xlink:href="#linear-gradient"/><linearGradient id="linear-gradient-72" x1="164.14" y1="61.83" x2="215.63" y2="113.32" xlink:href="#linear-gradient"/><linearGradient id="linear-gradient-73" x1="231.93" y1="64.09" x2="264.73" y2="96.89" xlink:href="#linear-gradient"/><linearGradient id="linear-gradient-74" x1="284.88" y1="59.26" x2="337.34" y2="111.72" xlink:href="#linear-gradient"/><linearGradient id="linear-gradient-75" x1="351.39" y1="60.53" x2="395.37" y2="104.51" xlink:href="#linear-gradient"/><linearGradient id="linear-gradient-76" x1="407.68" y1="66.96" x2="449.73" y2="109" xlink:href="#linear-gradient"/><linearGradient id="linear-gradient-77" x1="462.02" y1="65.15" x2="500.2" y2="103.33" xlink:href="#linear-gradient"/><linearGradient id="linear-gradient-78" x1="509.33" y1="57.09" x2="563.08" y2="110.84" xlink:href="#linear-gradient"/><linearGradient id="linear-gradient-79" x1="576.08" y1="66.84" x2="622.77" y2="113.53" xlink:href="#linear-gradient"/></defs><title>Title</title><path class="cls-1" d="M98.4,206l6.32-20.37H109L115.33,206l7.13-20.37h5.15l-9.89,28.31H113l-6-19.4h-.32l-6,19.4H96L86.13,185.6h5.14Z"/><path class="cls-1" d="M132,213.91V185.6h4.78v12.27h14.06V185.6h4.78v28.31h-4.78V202.33H136.8v11.58Z"/><path class="cls-1" d="M174.64,213.91h-4.86V202.73L159.25,185.6h5.22l7.74,12.88L180,185.6h5.22l-10.53,17.13Z"/><path class="cls-1" d="M219,188.07c2,1.65,3,4.19,3,7.62s-1,5.94-3,7.53-5.09,2.39-9.25,2.39h-5v8.3h-4.78V185.6h9.73Q216,185.6,219,188.07Zm-3.38,11.69a6.26,6.26,0,0,0,1.44-4.46,4.62,4.62,0,0,0-1.82-4.15q-1.83-1.22-5.71-1.22h-4.87v11.35h5.55Q214.18,201.28,215.61,199.76Z"/><path class="cls-1" d="M247.47,185.6v4.5H232.36v7.49h13.57v4.25H232.36v7.58H248v4.49H227.58V185.6Z"/><path class="cls-1" d="M277.37,210a15.54,15.54,0,0,1-21.23,0,14.88,14.88,0,0,1,0-20.91,15.54,15.54,0,0,1,21.23,0,14.88,14.88,0,0,1,0,20.91Zm-3.51-17.73a9.95,9.95,0,0,0-14.22,0,10.6,10.6,0,0,0,0,14.55,9.95,9.95,0,0,0,14.22,0,10.58,10.58,0,0,0,0-14.55Z"/><path class="cls-1" d="M306.82,188.07q3,2.48,2.95,7.62t-3,7.53c-2,1.59-5.1,2.39-9.26,2.39h-5v8.3H287.7V185.6h9.72C301.71,185.6,304.85,186.42,306.82,188.07Zm-3.39,11.69a6.26,6.26,0,0,0,1.44-4.46,4.62,4.62,0,0,0-1.82-4.15q-1.83-1.22-5.71-1.22h-4.86v11.35H298C300.67,201.28,302.48,200.77,303.43,199.76Z"/><path class="cls-1" d="M315.4,213.91V185.6h4.78v23.78h12.93v4.53Z"/><path class="cls-1" d="M358.22,185.6v4.5H343.11v7.49h13.57v4.25H343.11v7.58h15.6v4.49H338.33V185.6Z"/><path class="cls-1" d="M387.21,210a10.07,10.07,0,0,0,4.25-.83,14.71,14.71,0,0,0,3.73-2.65l3.08,3.16a14.18,14.18,0,0,1-10.92,5,14.64,14.64,0,0,1-10.65-4.13,14,14,0,0,1-4.24-10.45,14.12,14.12,0,0,1,4.32-10.54,15,15,0,0,1,10.89-4.21,14.25,14.25,0,0,1,11,4.86l-3,3.32a13.2,13.2,0,0,0-3.83-2.71,10.75,10.75,0,0,0-4.23-.77,10.11,10.11,0,0,0-7.21,2.77,9.39,9.39,0,0,0-2.92,7.09,9.78,9.78,0,0,0,2.9,7.21A9.35,9.35,0,0,0,387.21,210Z"/><path class="cls-1" d="M404.1,214.31V186h4.78v12.27h14.06V186h4.78v28.32h-4.78V202.72H408.88v11.59Z"/><path class="cls-1" d="M459.27,210.4a15.54,15.54,0,0,1-21.23,0,14.88,14.88,0,0,1,0-20.91,15.54,15.54,0,0,1,21.23,0,14.86,14.86,0,0,1,0,20.91Zm-3.5-17.73a9.95,9.95,0,0,0-14.22,0,10.58,10.58,0,0,0,0,14.55,9.95,9.95,0,0,0,14.22,0,10.6,10.6,0,0,0,0-14.55Z"/><path class="cls-1" d="M493.3,210.4a15.54,15.54,0,0,1-21.23,0,14.88,14.88,0,0,1,0-20.91,15.54,15.54,0,0,1,21.23,0,14.88,14.88,0,0,1,0,20.91Zm-3.51-17.73a9.94,9.94,0,0,0-14.21,0,10.58,10.58,0,0,0,0,14.55,9.94,9.94,0,0,0,14.21,0,10.58,10.58,0,0,0,0-14.55Z"/><path class="cls-1" d="M512.2,189.72a6.27,6.27,0,0,0-3.43.85,2.83,2.83,0,0,0-1.33,2.57,3,3,0,0,0,1.33,2.63,20,20,0,0,0,5.7,2,15.73,15.73,0,0,1,6.56,2.95,7,7,0,0,1,2.21,5.61,7.44,7.44,0,0,1-2.8,6,11.13,11.13,0,0,1-7.33,2.31,17.24,17.24,0,0,1-11.79-4.58l3-3.6a13.5,13.5,0,0,0,8.91,3.72,6.12,6.12,0,0,0,3.67-1,3.11,3.11,0,0,0,1.35-2.63A2.93,2.93,0,0,0,517,204a13.6,13.6,0,0,0-4.4-1.67,37.75,37.75,0,0,1-4.74-1.37,10.74,10.74,0,0,1-2.87-1.64,6.85,6.85,0,0,1-2.52-5.84,7.1,7.1,0,0,1,2.86-6,11.48,11.48,0,0,1,7.07-2.13,17.1,17.1,0,0,1,5.39.89,14.11,14.11,0,0,1,4.61,2.51l-2.55,3.61a9.43,9.43,0,0,0-3.4-1.86A13,13,0,0,0,512.2,189.72Z"/><path class="cls-1" d="M549,186v4.5H533.93V198H547.5v4.25H533.93v7.58h15.59v4.5H529.15V186Z"/><path class="cls-1" d="M573.1,207.82a7.24,7.24,0,0,0,10.53,0,9.11,9.11,0,0,0,2-6.15V186h4.78v15.88q0,6.12-3.37,9.42a12.92,12.92,0,0,1-17.25,0q-3.36-3.3-3.36-9.42V186h4.78v15.68A9.11,9.11,0,0,0,573.1,207.82Z"/><path class="cls-1" d="M606.42,189.72a6.3,6.3,0,0,0-3.43.85,2.83,2.83,0,0,0-1.33,2.57,3,3,0,0,0,1.33,2.63,20.11,20.11,0,0,0,5.7,2,15.73,15.73,0,0,1,6.56,2.95,7,7,0,0,1,2.21,5.61,7.44,7.44,0,0,1-2.8,6,11.13,11.13,0,0,1-7.33,2.31,17.24,17.24,0,0,1-11.79-4.58l3-3.6a13.5,13.5,0,0,0,8.91,3.72,6.12,6.12,0,0,0,3.67-1,3.11,3.11,0,0,0,1.35-2.63A2.93,2.93,0,0,0,611.2,204a13.6,13.6,0,0,0-4.4-1.67,37.75,37.75,0,0,1-4.74-1.37,10.74,10.74,0,0,1-2.87-1.64,6.85,6.85,0,0,1-2.52-5.84,7.1,7.1,0,0,1,2.86-6,11.48,11.48,0,0,1,7.07-2.13,17.1,17.1,0,0,1,5.39.89,14.27,14.27,0,0,1,4.62,2.51l-2.56,3.61a9.43,9.43,0,0,0-3.4-1.86A13,13,0,0,0,606.42,189.72Z"/><path class="cls-1" d="M631.67,205.51H627.1V203a5.72,5.72,0,0,1,.38-2.41,9.16,9.16,0,0,1,1.68-2.08l3-3a3.56,3.56,0,0,0,.93-2.51,3.37,3.37,0,0,0-3.48-3.49,3.65,3.65,0,0,0-2.58,1,3.88,3.88,0,0,0-1.19,2.53h-4.9a8.32,8.32,0,0,1,2.81-5.65,9,9,0,0,1,6-2.05,8.64,8.64,0,0,1,5.87,2,6.85,6.85,0,0,1,2.27,5.49,6.11,6.11,0,0,1-1.34,4c-.51.64-.9,1.1-1.17,1.37l-1.07,1c-.45.42-.83.78-1.14,1.09s-.56.57-.75.79a3.89,3.89,0,0,0-.73,2.51Zm-2.2,9a3.13,3.13,0,0,1-2.21-.87,2.79,2.79,0,0,1-.93-2.11,2.88,2.88,0,0,1,.91-2.13,3,3,0,0,1,2.19-.89,3.11,3.11,0,0,1,2.2.87,2.79,2.79,0,0,1,.93,2.11,2.88,2.88,0,0,1-.91,2.13A3,3,0,0,1,629.47,214.51Z"/><g class="cls-2"><path class="cls-3" d="M611,147.29H113c-2.76,0-5-1.39-5-3.09h0c0-1.7,2.24-3.09,5-3.09H611c2.76,0,5,1.39,5,3.09h0C616,145.9,613.76,147.29,611,147.29Z"/></g><path class="cls-4" d="M136.8,297.36c-109.61-46-123.54-164.69-84.32-247L51.57,50C9,138.05,39.59,221.12,72.66,257.75c55.13,61.17,148.46,54.46,177.84,99.49l3.09-2.32C232.47,322.93,188,318.82,136.8,297.36Z"/><path class="cls-5" d="M184.53,311.79c-.76-6-1.29-10.33-2.84-14.64-2.36-6.52-7.48-9.91-14-13.84-2.82,3.48-3.9,6.95-2.12,11.72C169,304.27,181.94,310,184.53,311.79Z"/><path class="cls-6" d="M156.81,299.82c3.76,2.77,7.48,4.59,8.86,5.5-.76-5.8-1.46-10.15-3-14.37-2.26-6.26-7.11-9.63-13.06-13.56-2.72,3.29-3.56,6.83-1.91,11.53C149.26,293.39,153.05,297.07,156.81,299.82Z"/><path class="cls-7" d="M138.64,292.83a80.23,80.23,0,0,0,8.45,5.65,66.69,66.69,0,0,0-2.79-14.21c-2.05-6.06-6.56-9.55-11.92-13.6-2.7,3-3.39,6.63-2,11.3C131.73,286.31,135.15,290,138.64,292.83Z"/><path class="cls-8" d="M121.06,284.72a65.07,65.07,0,0,0,7.91,6c-.2-2.73-.45-5.24-.82-7.55a56.94,56.94,0,0,0-1.44-6.56c-1.69-5.91-5.79-9.62-10.48-13.9C112.15,266.78,111.48,275.89,121.06,284.72Z"/><path class="cls-9" d="M111.57,281.59c-.08-17.54-4-21.26-10.16-28.36C96,257.74,95.42,268.89,111.57,281.59Z"/><path class="cls-10" d="M95.23,270.66c1.45-16.59-1.93-21-7-28.7C84.36,244.45,79.62,255.18,95.23,270.66Z"/><path class="cls-11" d="M80.41,257.62c3.19-15.8-.09-21.63-3.58-28.88C73.43,230.34,66.82,240.41,80.41,257.62Z"/><path class="cls-12" d="M62.66,231.3a39.32,39.32,0,0,0,4.92,11.08c4.56-14.1,2.54-19.82,1.11-24.9-.53-1.82-1-2.9-1.28-3.93-3.18.94-4.65,5.8-5.29,9.4a19.52,19.52,0,0,0,0,5.56C62.24,229.44,62.43,230.37,62.66,231.3Z"/><path class="cls-13" d="M57.1,225.13C62.83,213.22,62,205.92,59.35,196,55.33,196.94,49.63,207.89,57.1,225.13Z"/><path class="cls-14" d="M48.78,206.2c6.78-12,5.57-20.57,4.31-28.38C49.3,178.36,42.68,189.75,48.78,206.2Z"/><path class="cls-15" d="M42.33,186.42c6.86-9.86,7.13-18.25,6.51-27.43C45.25,159.19,38,169.83,42.33,186.42Z"/><path class="cls-16" d="M46.75,139.72c-2.59-.07-11.55,8.64-8.74,26.3C45.13,157.54,46.6,149,46.75,139.72Z"/><path class="cls-17" d="M36,145.23c8.92-8.83,9.84-17.45,10.9-25C44.35,120,35.11,128.33,36,145.23Z"/><path class="cls-18" d="M49.3,100.7c-2.46-.4-12.07,7.49-12.91,23.64C44.46,117.72,47.25,110.49,49.3,100.7Z"/><path class="cls-19" d="M53.85,81.44c-2.16-.44-12.16,6.07-14.69,22.23C48.58,97.24,51.54,88.87,53.85,81.44Z"/><path class="cls-20" d="M60.37,62.67c-2.6-.6-12.29,5.75-16.2,20.81C52.52,78.73,57.06,71.61,60.37,62.67Z"/><path class="cls-21" d="M68.73,44.61a3.82,3.82,0,0,0-2,.37,19.07,19.07,0,0,0-2.86,1.5C56.39,51.22,54,56.38,51.24,64,60,59.88,64.75,53.31,68.73,44.61Z"/><path class="cls-22" d="M59.13,40.85C66.42,31.93,74,18,78.49,7.86c-10.64,7.59-23.24,23.23-24,37.83a10.39,10.39,0,0,0,2-1.72C57.21,43.13,58.15,42.05,59.13,40.85Z"/><path class="cls-23" d="M159.33,337c15.38.48,17.74-2.39,25.51-16.44C170.33,321.51,154.79,321.58,159.33,337Z"/><path class="cls-24" d="M164.69,313.7c-2.36.09-10.89-1-17.6.93s-10.38,6.28-8.43,14C154.43,330,157.07,326.75,164.69,313.7Z"/><path class="cls-25" d="M144.59,306.42c-4.5-.16-30-5.11-26.83,12.41C133.63,321.63,136.64,318.45,144.59,306.42Z"/><path class="cls-26" d="M124.77,298c-2.75-.39-11.23-2.44-17.25-1.93-6.58.44-11,3.42-10.46,10.89C112.7,311.62,116.1,308.87,124.77,298Z"/><path class="cls-27" d="M105.57,287.75c-8.06-2.17-27.48-10.41-28.39,4.46C92.18,299.68,96.65,296.53,105.57,287.75Z"/><path class="cls-28" d="M87.47,275.16c-10.3-4.82-25.44-13.69-28.44-1C72.68,284.21,77.59,282.21,87.47,275.16Z"/><path class="cls-29" d="M71.11,259.84c-.83-.59-2-1.4-3.36-2.41-.67-.49-1.4-1-2.17-1.56s-1.54-1.11-2.37-1.67c-7.31-4.85-15.62-9.7-19.54-1.16C55.07,265.7,61.1,264.39,71.11,259.84Z"/><path class="cls-30" d="M57.2,241.75C48.07,232.2,38.56,221,32,229.67,41.44,243.48,46.1,244.14,57.2,241.75Z"/><path class="cls-31" d="M46.25,221.39c-6.4-9-15.09-22.88-22.83-15.6C30.6,219.73,35.05,221.55,46.25,221.39Z"/><path class="cls-32" d="M37.78,199.77C32.7,190.59,26,175.53,17.5,180.84,23,195.93,27.62,198.28,37.78,199.77Z"/><path class="cls-33" d="M20,169.82a14.45,14.45,0,0,0,1.36,1.73,9.67,9.67,0,0,0,1.5,1.33,28.77,28.77,0,0,0,8.82,4.3c-3.65-9.41-8.49-24.94-17.16-22a55.54,55.54,0,0,0,3.13,10.25A26.22,26.22,0,0,0,20,169.82Z"/><path class="cls-34" d="M28.24,153.91c-3.31-14.72-6.08-25-13.51-24.44C15.75,144.2,19.3,149,28.24,153.91Z"/><path class="cls-35" d="M27.69,130.37c-1.28-11.39-1.63-24.69-9.61-26.19C17.18,117.85,19.75,124,27.69,130.37Z"/><path class="cls-36" d="M30,107c.42-13.08,1-23.9-5.66-27.15C21.57,93.19,23.77,99.94,30,107Z"/><path class="cls-37" d="M35,84.16c1.87-11,4-22.33-1.87-27.4C29.53,67.72,29.5,75.19,35,84.16Z"/><path class="cls-38" d="M42.58,62.2c2.69-9.72,6.34-20.26,1.68-27.07C39.75,44.37,38.48,52.76,42.58,62.2Z"/><path class="cls-39" d="M588.3,302.06c17.63-7.55,34.21-16.52,49.25-29.05,51.54-43,78.55-135.84,35.8-224l-.81.62c44.39,93.45,12.07,191.69-52.22,232.58a218.72,218.72,0,0,1-33.07,16.95c-11.08,4.64-22,8.46-32.41,12-39.19,13.2-67.92,21.22-83.56,44.88l3.08,2.32C494,328.33,538.75,323.24,588.3,302.06Z"/><path class="cls-40" d="M541.73,321.82c10.22,12.55,13.1,15.1,28.85,12.91C572.88,316.74,547.42,321.6,541.73,321.82Z"/><path class="cls-41" d="M560.67,315.46c10.47,12.24,14.68,14.07,29.39,11.13C591.49,308.93,562.85,315.27,560.67,315.46Z"/><path class="cls-42" d="M589.66,306.8c-4.45.55-8.35,1.56-10,1.84,10.9,11.43,16.37,12.44,30,8.44C609.72,307.46,598.72,305.72,589.66,306.8Z"/><path class="cls-43" d="M598.33,300.78c11.56,10.39,18.35,10,30.62,4.81C627.6,291.29,601.83,299.86,598.33,300.78Z"/><path class="cls-44" d="M616.57,291.35c12.47,8.84,20,6.82,30.87.23C644.74,279.67,625.17,287.8,616.57,291.35Z"/><path class="cls-45" d="M634,279.87c13,6.59,20.91,3,30.42-5.18C659.85,263.52,638.21,277.3,634,279.87Z"/><path class="cls-46" d="M655.38,261.45c-.75.59-1.45,1.17-2.11,1.73-1.33,1.09-2.46,2.06-3.3,2.79,13.75,4.11,21.46-1.94,28.92-10.94C674.85,248.71,661.45,256.76,655.38,261.45Z"/><path class="cls-47" d="M664,249.52c12.49,1.34,20.28-5.61,26.32-16.27C684.23,227.11,669.71,243,664,249.52Z"/><path class="cls-48" d="M675.49,230.84c14.88-1.6,20-12.93,23.17-19.68C695.51,208.8,685.32,213.27,675.49,230.84Z"/><path class="cls-49" d="M684.44,210.8c12.24-3,17.5-13.46,20.4-22.72C702.31,186.8,693.46,190.66,684.44,210.8Z"/><path class="cls-50" d="M691.41,189.84c10.82-4.62,15.06-14.06,17.11-25.55C706,163.57,697.41,170,691.41,189.84Z"/><path class="cls-51" d="M696.15,168.07c9.56-6,12.66-15.83,13.33-27.86C703.17,139.8,697.48,160.19,696.15,168.07Z"/><path class="cls-52" d="M698.43,145.79c8.08-7.16,10.4-18.09,9.24-29.51C702.56,117.09,698.73,137.73,698.43,145.79Z"/><path class="cls-53" d="M698.16,123.35c5.4-6.73,8-16.95,5-30.38C701.32,93.72,696.42,104.15,698.16,123.35Z"/><path class="cls-54" d="M696.27,70.62c-1.47,1-5.07,11.68-.95,30.52C699.42,94.18,701,83.32,696.27,70.62Z"/><path class="cls-55" d="M690.08,79.5c4.1-10.14,2-20.44-2.87-30C684.8,52,685.35,65.93,690.08,79.5Z"/><path class="cls-56" d="M682.65,58.69c2.56-10.43-.37-20.46-6.4-29.09C675.6,30.63,674.08,40.85,682.65,58.69Z"/><path class="cls-57" d="M670.72,44.62c.4-6.68-10.27-28.21-25.61-36.92C651.93,19.93,660.35,36.54,670.72,44.62Z"/><path class="cls-58" d="M545.49,308.41c8.15-7,12.28-15.79,4.13-23-9.38,6.89-12.73,10.49-12.84,21.56,0,2.34.1,4.87.24,7.8C538.19,313.78,541.86,311.54,545.49,308.41Z"/><path class="cls-59" d="M565.39,301.69c7.83-7,11.66-15.46,3.83-22.41-11.84,9.36-12.58,12.23-12.07,28.67C558.4,306.93,561.93,304.74,565.39,301.69Z"/><path class="cls-60" d="M587.88,272.33c-11.07,9.87-11.52,12.55-10.82,28.39C578.59,299.43,601.82,284.08,587.88,272.33Z"/><path class="cls-61" d="M596.54,292.41c9.77-9.11,19.94-20.05,8.84-28.34C595.33,274.7,595.25,277.44,596.54,292.41Z"/><path class="cls-62" d="M615.25,282.42c8.91-9.6,17.37-21.46,6.16-28.36C613.32,265.48,612.82,266.72,615.25,282.42Z"/><path class="cls-63" d="M632.76,270.24c7.75-10.2,14-23.15,2.87-28.25C629.29,254.36,628.94,255.24,632.76,270.24Z"/><path class="cls-64" d="M648.46,255.52c6-11.21,10.74-24.5-.71-27.84C643.34,241.3,643,241.46,648.46,255.52Z"/><path class="cls-65" d="M657.68,211c-3.32,14.19-1.8,16.58,4.08,27.26C665.87,226.85,668.62,212.42,657.68,211Z"/><path class="cls-66" d="M672.25,218.65c2.74-11.2,4.28-26-6.26-26.66C664,206.89,665.39,209,672.25,218.65Z"/><path class="cls-67" d="M680.46,197.66c1.74-10.87,1.74-25.52-8.3-25.43C671.55,186.83,673.34,189.23,680.46,197.66Z"/><path class="cls-68" d="M686.36,175.8c.45-10.66-.77-24.8-10.39-24C676.69,165.27,678.55,168.14,686.36,175.8Z"/><path class="cls-69" d="M677.21,131c2.36,13.33,4.31,15.84,12.46,22.34C688.9,143.1,686.4,129.58,677.21,131Z"/><path class="cls-70" d="M675.88,110c3.5,12.39,6,15.22,14.3,20.59C688.64,121.2,684.46,108.26,675.88,110Z"/><path class="cls-71" d="M672,89.27c4.73,11.84,7.57,14.5,15.9,18.8C685.43,99.22,680.3,87.32,672,89.27Z"/><path class="cls-72" d="M665.84,69c4.88,9.94,9.08,13.85,17.21,17.06C679.45,77.73,674,67,665.84,69Z"/><path class="cls-73" d="M657.48,49.35c5.51,9,10.17,12.9,18.26,15.39C671.46,56.87,665.33,47.69,657.48,49.35Z"/><path class="cls-74" d="M155.26,84.64A17.8,17.8,0,0,0,153,88.58q-.54,1.71-1.11,1.71a6.13,6.13,0,0,1-1.42-.35A35.35,35.35,0,0,1,139.9,84.4a40.82,40.82,0,0,1-8.42,4.38c1.35,0,3.37.18,6.08.42.65.06,1,.3,1,.74a1.88,1.88,0,0,1-.16.65,2.82,2.82,0,0,0-.22.62,9.3,9.3,0,0,0-.29,2.9h7l8-.12q.5,0,.6.12a1,1,0,0,1,.09.53v4.45c0,.29,0,.48-.11.54a1,1,0,0,1-.58.11l-8-.12h-7v5.45l.16,6.36c0,.42-.24.63-.73.63h-5.51q-.72,0-.72-.63l.15-6.36V99.62h-13.9a13.13,13.13,0,0,1-4.59,7.58A28.55,28.55,0,0,1,102.6,112a9.91,9.91,0,0,1-1.49.29c-.46,0-1-.48-1.55-1.45a15,15,0,0,0-3-3.52q6.66-1.16,10-3.17a9.55,9.55,0,0,0,4-4.53h-6.3l-8,.12q-.49,0-.6-.12a1,1,0,0,1-.09-.53V94.64c0-.31,0-.5.12-.56a1.17,1.17,0,0,1,.57-.09l8,.12h7.35l0-.74c0-.27,0-.57,0-.89a20.2,20.2,0,0,0-.31-3.58q4.56.12,6.2.36c.74.06,1.11.28,1.11.68a2.76,2.76,0,0,1-.32,1.18,6.84,6.84,0,0,0-.37,2.52v.47h13.29a37.72,37.72,0,0,0-.47-5,5.44,5.44,0,0,1-1.11.41,4.72,4.72,0,0,1-1.55.45c-.3,0-.59-.33-.89-1a16.3,16.3,0,0,0-1.58-2.61,4.34,4.34,0,0,1-.7.77q-1.48,1.22-5.57,1.4l-.95,0a1.42,1.42,0,0,1-1-.24,2.73,2.73,0,0,1-.26-.89,11.1,11.1,0,0,0-.91-3.26,24.34,24.34,0,0,0,3.26.18c1,0,1.48-.59,1.48-1.78V72.32h-6.61v8l.12,6.25c0,.32,0,.5-.12.56a1.27,1.27,0,0,1-.6.09h-4.22c-.42,0-.63-.21-.63-.65l.13-6.25V76.08a2,2,0,0,1-.32.36,3,3,0,0,0-.6,1.53,52.85,52.85,0,0,1-1.74,5.51c-.3.65-.61,1-.92,1a2.07,2.07,0,0,1-1-.36,9.36,9.36,0,0,0-1.93-.8l.12,4.92a.91.91,0,0,1-.12.59,1.29,1.29,0,0,1-.61.09H97.6c-.34,0-.54-.05-.61-.15s-.09-.23-.09-.53L97,82.71V73.83L96.9,68.2c0-.33,0-.54.13-.62a1.21,1.21,0,0,1,.6-.09l7.88.12h3.26v-3A44.37,44.37,0,0,0,108.3,57c2.45.06,4.46.18,6,.36.65.08,1,.28,1,.62a2.36,2.36,0,0,1-.19.77c-.17.35-.27.56-.29.62a37.57,37.57,0,0,0-.19,5.21v3h3.27l7.85-.12q.51,0,.6.15a1.1,1.1,0,0,1,.09.56c0,.06,0,.42,0,1.07s-.07,1.36-.09,2a29.15,29.15,0,0,0,6.93-10.89,18,18,0,0,0,1-3.65c1,.14,2.85.47,5.58,1,.52.14.79.38.79.71a1.26,1.26,0,0,1-.44.92A5.29,5.29,0,0,0,139,61.48c-.13.36-.34.84-.63,1.45s-.47,1.08-.57,1.34h7.66l8.3-.12q.47,0,.57.15a1,1,0,0,1,.09.56v3.85a.58.58,0,0,1-.66.65l-3.42-.06a31.86,31.86,0,0,1-5.86,11A40.41,40.41,0,0,0,155.26,84.64Zm-53.1-26.15a39.78,39.78,0,0,1,3.76,5.66,1,1,0,0,1,.19.5c0,.16-.22.34-.66.53l-3.55,1.45a2.89,2.89,0,0,1-.73.18c-.21,0-.4-.17-.57-.5a30.89,30.89,0,0,0-3.38-5.63,1.27,1.27,0,0,1-.26-.53c0-.14.24-.31.73-.5l3.23-1.4a2.21,2.21,0,0,1,.67-.2C101.75,58.05,101.94,58.2,102.16,58.49Zm.38,24a24.8,24.8,0,0,0,1.86-5.57c.15-.79.27-1.64.35-2.55a23.65,23.65,0,0,1,3.68.83,1.51,1.51,0,0,1,.6.45V72.32h-6.49ZM115,76.29a1.93,1.93,0,0,1-.15-.51c0-.15.18-.29.56-.41l1.62-.8a1.82,1.82,0,0,1,.66-.21q.26,0,.57.51a22.46,22.46,0,0,1,2.09,4.91,2.49,2.49,0,0,1,.13.62q0,.27-.6.54l-1.87.79a2,2,0,0,1-.7.21c-.19,0-.34-.18-.47-.56A33.78,33.78,0,0,0,115,76.29Zm2.22-11.11a27.63,27.63,0,0,0,2.66-4.38A9.76,9.76,0,0,0,121,58a43.88,43.88,0,0,1,5,1.69c.53.23.79.46.79.68a1.15,1.15,0,0,1-.63.89,4.75,4.75,0,0,0-.92,1.24c-1,1.6-1.71,2.68-2.09,3.26-.47.73-.83,1.09-1.11,1.09a4.8,4.8,0,0,1-1.61-.62A22.42,22.42,0,0,0,117.26,65.18Zm9.09,10.49.12,7.28a8.22,8.22,0,0,1-.19,1.75,36.7,36.7,0,0,0,9.54-4.3A32.77,32.77,0,0,1,131.6,74l-1.48,1.54c-.66.59-1.09.89-1.3.89s-.52-.29-.92-.86a20.9,20.9,0,0,0-1.55-2Zm13.55,1.09a21,21,0,0,0,4.15-7.52h-9l-.13.24A26.3,26.3,0,0,0,139.9,76.76Z"/><path class="cls-75" d="M159,90.09a44.91,44.91,0,0,0,10.67-8.68,37.71,37.71,0,0,0,6.27-9.27h-7.34l-6.87.12a1.08,1.08,0,0,1-.64-.12,1,1,0,0,1-.09-.53v-4.5c0-.32,0-.52.16-.59a1,1,0,0,1,.57-.09l6.87.14h1.23V64.09a41.36,41.36,0,0,0-.5-7.4q3.48.08,6.74.41c.7.06,1.05.27,1.05.62A3.63,3.63,0,0,1,176.7,59q-.42.72-.42,4.83v2.75H179a2.37,2.37,0,0,0,1.23-.26,2,2,0,0,1,.73-.24c.42,0,1.22.52,2.41,1.57s1.74,1.82,1.74,2.19a1.29,1.29,0,0,1-.63,1A7.41,7.41,0,0,0,183,72.56a60.41,60.41,0,0,1-5.51,8.85A37.63,37.63,0,0,0,187,88.52a13.87,13.87,0,0,0-2.6,3.93c-.44.89-.85,1.34-1.23,1.34a2.62,2.62,0,0,1-1.3-.74,46.43,46.43,0,0,1-5.58-5.63v17.06l.13,7.13c0,.32,0,.52-.13.59a1.52,1.52,0,0,1-.66.09h-5.19a1.13,1.13,0,0,1-.67-.12,1,1,0,0,1-.09-.56l.12-7.13V90a64.06,64.06,0,0,1-6.17,5,3.6,3.6,0,0,1-1.36.8c-.28,0-.62-.46-1-1.39A16.28,16.28,0,0,0,159,90.09ZM191.45,110l-8.71.12q-.5,0-.6-.12a1,1,0,0,1-.09-.53v-4.8c0-.31,0-.51.11-.57a1,1,0,0,1,.58-.11l8.71.12h5.45V81.44H194l-8.17.06a1,1,0,0,1-.56-.09c-.07-.06-.1-.24-.1-.53v-4.8c0-.3,0-.47.13-.53a1.32,1.32,0,0,1,.53-.06l8.17.06h2.92V65.89a62.22,62.22,0,0,0-.51-9.15c2.79.08,5.18.22,7.19.42.7.08,1,.29,1,.62a2.74,2.74,0,0,1-.31,1.27q-.54,1-.54,6.67v9.83h4.08l8.17-.06a1.27,1.27,0,0,1,.64.09c.06,0,.09.22.09.5v4.8c0,.31-.05.5-.16.56a1.47,1.47,0,0,1-.57.06l-8.17-.06h-4.08v22.65h5.89l8.64-.12a1.16,1.16,0,0,1,.67.12,1.1,1.1,0,0,1,.09.56v4.8c0,.32,0,.5-.12.56a1.38,1.38,0,0,1-.64.09l-8.64-.12Z"/><path class="cls-76" d="M244.52,70.07c2.68-.08,4.41-.12,5.2-.12q4.62,0,6.8,2.64c1.54,1.87,2.32,4.86,2.32,9q0,15.27-1.87,21.26a8.89,8.89,0,0,1-3.42,5.06,10.69,10.69,0,0,1-6.05,1.51,46.57,46.57,0,0,1-6.87-.5l-1.3-6a39.57,39.57,0,0,0,5.89.8,8.06,8.06,0,0,0,3.67-.6,3.63,3.63,0,0,0,1.52-2.07q1.91-5.17,1.9-18.68c0-3-.35-5-1-6a2.84,2.84,0,0,0-2.54-1.19c-1.6,0-3.44.07-5.51.21a177.19,177.19,0,0,1-12.44,34l-6.3-2.25a163.79,163.79,0,0,0,12-31.36q-5.39.48-11.43,1.1l-.25-5.66q9-.47,13-.71,1.56-6.45,2.47-12.14l6.68.8Q245.51,66.22,244.52,70.07Zm11.28-2.49,5.63-2.72A86.06,86.06,0,0,1,274.1,86.32l-6.3,3.11A68.36,68.36,0,0,0,255.8,67.58Zm4.87-10.48L264.88,56A57.56,57.56,0,0,1,269.6,66l-4.34,1.39A49.68,49.68,0,0,0,260.67,57.1Zm7.63-1.75,4.18-1.21a57,57,0,0,1,4.59,9.62l-4.27,1.48A54,54,0,0,0,268.3,55.35Z"/><path class="cls-77" d="M341.2,104.3a8.27,8.27,0,0,0-1.62,4c-.17,1-.38,1.59-.63,1.75a3.88,3.88,0,0,1-1.77.3q-11.79.61-22.71.62-11.12,0-15.29-1.63a14.54,14.54,0,0,1-6.81-5.48,69.12,69.12,0,0,1-6.05,5.15,12.55,12.55,0,0,0-1.36,1.28c-.32.41-.62.62-.92.62s-.68-.27-1-.8a45.74,45.74,0,0,1-2.66-5.57,26.37,26.37,0,0,0,3.8-2,33.09,33.09,0,0,0,4.88-3.76V85.29h-2.66l-4.53.15c-.38,0-.61,0-.7-.15a1.19,1.19,0,0,1-.09-.59V80.08c0-.32.05-.51.16-.57a1.51,1.51,0,0,1,.63-.08l4.53.11h3.64l4.75-.11c.34,0,.54,0,.6.11a1,1,0,0,1,.1.54L295.41,86V99.32a9.84,9.84,0,0,0,6,5.1q3.6,1.1,12,1.09Q328.2,105.51,341.2,104.3ZM282.77,62.19c-.21-.15-.31-.29-.31-.41s.21-.33.63-.62l3.29-2.22a2.38,2.38,0,0,1,.89-.42,1,1,0,0,1,.54.3,48.13,48.13,0,0,1,8.17,9,.87.87,0,0,1,.22.47c0,.18-.2.43-.6.74l-3.42,2.61a1.81,1.81,0,0,1-.86.41.71.71,0,0,1-.57-.41A46.59,46.59,0,0,0,282.77,62.19Zm26.86.71h-6l-5.63.15a.53.53,0,0,1-.73-.68V59.14c0-.31.05-.5.15-.56a1.09,1.09,0,0,1,.58-.09l5.63.12h6.62l4.59-.12a1.23,1.23,0,0,1,.7.12,1.1,1.1,0,0,1,.09.56l-.12,3.88V65.6l.12,3.88c0,.27,0,.44-.12.5a1.61,1.61,0,0,1-.67.09L310.26,70h-6.55v1.51c0,1.15.13,1.85.41,2.1s1.43.42,3.29.42,3.18-.19,3.58-.57a6,6,0,0,0,.44-2.72,25.6,25.6,0,0,0,4.28,1.45c.78.2,1.17.5,1.17.92a6.7,6.7,0,0,1-.13,1,4.54,4.54,0,0,1-1.36,2.72,5.75,5.75,0,0,1-3,1c-1.07.12-2.83.17-5.25.17-4.4,0-7-.32-7.86-1q-1.55-1.16-1.55-4.62V69.09l-.12-2.43c0-.31.05-.5.15-.56a1.38,1.38,0,0,1,.64-.09l4.18.12h7Zm-2.09,32.34-9,.12c-.34,0-.54,0-.61-.15a1.19,1.19,0,0,1-.09-.59V91.33c0-.32,0-.5.13-.56a1.12,1.12,0,0,1,.57-.09l9,.12h.85V87l-7.6.11c-.38,0-.6,0-.66-.11a1,1,0,0,1-.13-.63V83.1c0-.32.05-.51.16-.56a1.19,1.19,0,0,1,.63-.09l7.6.11a34.35,34.35,0,0,0-.41-3.87q3.9.19,5.92.41c.7.08,1.05.29,1.05.62a2.32,2.32,0,0,1-.38.92,3.9,3.9,0,0,0-.35,1.92h8.23a17.34,17.34,0,0,0-.38-3.87q4,.19,5.89.41c.7.08,1.05.31,1.05.68a2.37,2.37,0,0,1-.38.92,3.2,3.2,0,0,0-.35,1.81v.11c2.19,0,4.09-.06,5.7-.11q.4,0,1.26-.06h.45c.38,0,.6,0,.66.11a.92.92,0,0,1,.1.54v3.28a1.1,1.1,0,0,1-.11.64,1.2,1.2,0,0,1-.65.1l-.95,0c-1.9,0-4.06-.06-6.46-.08V90.8h1.17l9-.12q.51,0,.6.12a1,1,0,0,1,.1.53v3.29a1.11,1.11,0,0,1-.11.62.91.91,0,0,1-.59.12l-9-.12h-3.36a43.1,43.1,0,0,0,13,4.41,13.28,13.28,0,0,0-2.31,3.17c-.55,1-1.09,1.51-1.62,1.51a10.46,10.46,0,0,1-1.52-.36,48.8,48.8,0,0,1-12.19-5.65c-.21-.14-.32-.27-.32-.39s.18-.3.54-.62l2.19-2.07H311.3a35.18,35.18,0,0,1,3.3,2.07c.61.4.92.69.92.89s-.29.54-.86.68a5.7,5.7,0,0,0-1,.53,12.38,12.38,0,0,1-1.08.62,40.86,40.86,0,0,1-8,3.65,8.1,8.1,0,0,1-1.55.41c-.4,0-1-.44-1.84-1.33a14,14,0,0,0-3-2.55,48.47,48.47,0,0,0,9.4-3.34,14.45,14.45,0,0,0,2.54-1.63Zm6.68-4.44h8.23V87h-8.23ZM331,62.9h-6l-5.57.15a1.23,1.23,0,0,1-.7-.12,1.07,1.07,0,0,1-.09-.56V59.14c0-.31.05-.5.16-.56a1.3,1.3,0,0,1,.63-.09l5.57.12h6.87l4.6-.12c.35,0,.57,0,.63.12a1.07,1.07,0,0,1,.1.56l-.13,3.88V65.6l.13,3.88c0,.39-.25.59-.73.59l-4.6-.12H325.3v1.57c0,1.11.14,1.79.41,2s1.52.42,3.49.42,3.15-.16,3.51-.48.57-1.23.63-2.81a15.2,15.2,0,0,0,4.34,1.39c.91.14,1.36.46,1.36,1a8.7,8.7,0,0,1-.12,1.12,4.09,4.09,0,0,1-1.37,2.61,6.35,6.35,0,0,1-3.26,1c-1.16.12-3,.17-5.6.17-4.6,0-7.33-.32-8.17-1s-1.43-2.33-1.43-4.62V69.09L319,66.66c0-.31,0-.5.12-.56a1.17,1.17,0,0,1,.57-.09l4.34.12h7Z"/><path class="cls-78" d="M358.9,60.27q-4.27,17.7-4.28,30a114.31,114.31,0,0,0,1.81,19l-6.68.57A132.76,132.76,0,0,1,348.2,90.2q0-12.28,3.95-30.44Zm19.5,15.28c-3.69.12-7.3.17-10.83.17-.25,0-2.36,0-6.33-.11V70.28q4.56.16,8,.17,4.47,0,9.12-.17V60.39h6.17q-.06,3.63-.06,9.56c3.76-.24,7.35-.53,10.77-.89v5.63c-2.32.18-5.74.38-10.26.62q.09,10.06.6,18.92A41.28,41.28,0,0,1,397,102.17l-4.46,5.15a27.66,27.66,0,0,0-7.06-6.72v.12a7.66,7.66,0,0,1-3.52,6.81c-2.05,1.36-4.83,2-8.36,2q-12,0-12-8.8a7.34,7.34,0,0,1,3.52-6.39,13.74,13.74,0,0,1,7.88-2.1,35.24,35.24,0,0,1,5.92.47Q378.51,84.08,378.4,75.55Zm.73,22.74a16.1,16.1,0,0,0-6.3-1,7.39,7.39,0,0,0-4.15,1,3,3,0,0,0-1.42,2.54q0,3.65,6.24,3.65,5.63,0,5.63-5.1Zm5.7-42.11,4.15-.53a52,52,0,0,1,3.26,10.6l-4.31.8A55.23,55.23,0,0,0,384.83,56.18Zm7.6-.77,4.15-.68a48.5,48.5,0,0,1,3.23,10.19l-4.34.86A49.44,49.44,0,0,0,392.43,55.41Z"/><path class="cls-79" d="M416.15,58.49l6.49.06c-.09,1.52-.21,3.62-.38,6.31-.11,1.73-.18,3.12-.22,4.14l2.15,1.81a1.16,1.16,0,0,1,.44.8,1,1,0,0,1-.31.77,15,15,0,0,0-2.73,3.76l-.25,1.78-.6,2.28.25,0L422.1,78a60.09,60.09,0,0,1,8.64-8.82q4.22-3.25,7.7-3.26,4.62,0,6.62,2.7c1.26,1.66,1.9,4.25,1.9,7.79q0,4.91-.6,11.9c-.38,5.17-.57,8.63-.57,10.36s.62,2.67,1.86,2.67q3.5,0,5.13-9.39l5.51,3.38q-2,7.33-4.87,10a8.89,8.89,0,0,1-6.34,2.2c-2.76,0-4.76-.71-6-2.14s-1.68-3.35-1.68-6.1q0-4.41.44-11.1.54-7.29.54-10.87a12.12,12.12,0,0,0-.69-5,2,2,0,0,0-1.9-1.07q-3.42,0-7.83,4.48a98.22,98.22,0,0,0-8.51,10.51v24H415.1q0-8.76.45-17.53l.6-3.76h-.26l-1.23,3.64q-3.56,7-5.45,10.81l-5.06-4.32q9.81-16.11,11.27-18.6c.06-1.22.11-2.59.16-4.11.06-1.37.1-2.22.12-2.58-1.64.14-4.85.46-9.62,1l-.38-5q5.79-.31,10.13-.71C415.89,67.29,416,63.78,416.15,58.49Z"/><path class="cls-80" d="M465.39,61.78q11.58,0,27.89-.8l3.23,4.44q-7.08,6-18.8,15.57l-2.47,1.9.31.24,3.07-1.66a19.8,19.8,0,0,1,6.81-1.27q8.32,0,12.89,4.29a13,13,0,0,1,4,9.92q0,8.52-6.36,12.7-5.58,3.67-15.68,3.67-13.43,0-13.42-8.85A7.13,7.13,0,0,1,470,96a11.27,11.27,0,0,1,6.87-2.11,12.83,12.83,0,0,1,8.52,2.94,15.59,15.59,0,0,1,4.66,7.07q5.39-1.92,5.38-9.56a8.69,8.69,0,0,0-3.42-7.4,12.09,12.09,0,0,0-7.47-2.19q-7.89,0-15,5.71A47.27,47.27,0,0,0,463.77,96l-5-4.18q17.58-16.78,27.68-25.61-10.93,1-20.87,1.09Zm18.49,43.85A9.85,9.85,0,0,0,481,100a6.11,6.11,0,0,0-4.12-1.51,5.3,5.3,0,0,0-3.35,1,2.74,2.74,0,0,0-1.17,2.28c0,2.82,2.53,4.24,7.6,4.24A23.65,23.65,0,0,0,483.88,105.63Z"/><path class="cls-81" d="M526,90.09c0,.57-.07,1.19-.07,1.86s0,1.34.07,2.07c0,.4,0,.68,0,.86a1.91,1.91,0,0,1-.24,1.13,6,6,0,0,1-1.41.95,134.28,134.28,0,0,1-14,5.8,10.48,10.48,0,0,0-2,.92,1.87,1.87,0,0,1-1.05.41c-.34,0-.62-.27-.85-.8a55.54,55.54,0,0,1-1.62-5.68A51.86,51.86,0,0,0,511,96.16l1.87-.6V82.39l-5.7.12a1,1,0,0,1-.63-.12,1,1,0,0,1-.1-.54V77.47a1,1,0,0,1,.13-.62,1.24,1.24,0,0,1,.6-.09l5.7.12V66.19h-.38l-6.11.15a.9.9,0,0,1-.57-.12,1.59,1.59,0,0,1-.06-.56V61.22a1,1,0,0,1,.12-.63.93.93,0,0,1,.51-.08l6.11.11h6.75l6.08-.11c.36,0,.57,0,.63.14a1.09,1.09,0,0,1,.1.57v4.44a.92.92,0,0,1-.13.59,1.27,1.27,0,0,1-.6.09l-6-.15V76.88l5.19-.12q.48,0,.57.12a1.64,1.64,0,0,1,.07.59v4.38c0,.32,0,.51-.1.57a1,1,0,0,1-.54.09l-5.19-.12v10.8C522,92,524.24,91,526,90.09Zm5.12,19.36-9,.12a1,1,0,0,1-.63-.12.9.9,0,0,1-.1-.53v-4.33a.86.86,0,0,1,.11-.54,1.08,1.08,0,0,1,.62-.11l9,.12H541v-6h-4l-8.36.12q-.54,0-.63-.12a.9.9,0,0,1-.1-.53V93.37c0-.31,0-.5.13-.56a1.21,1.21,0,0,1,.6-.09l8.36.12h4V87.6h-4.21l-8.42.12a1.23,1.23,0,0,1-.7-.12.78.78,0,0,1-.09-.48l.12-6.75V66.93l-.12-6.6q0-.51.12-.6a1.87,1.87,0,0,1,.67-.08l8.42.11h15.42l8.49-.11a1.13,1.13,0,0,1,.63.11,1.09,1.09,0,0,1,.1.57l-.13,6.6V80.37l.13,6.75c0,.4-.25.6-.73.6l-8.49-.12h-4.72v5.24h4.91l8.39-.12q.51,0,.6.12a.9.9,0,0,1,.1.53v4.21a.86.86,0,0,1-.11.54,1,1,0,0,1-.59.11l-8.39-.12h-4.91v6h7.45l9-.12q.5,0,.6.12a1,1,0,0,1,.09.53v4.33c0,.29,0,.48-.11.55a1.08,1.08,0,0,1-.58.1l-9-.12Zm2.66-38.4H541V64.92h-7.19Zm0,11.46H541V76h-7.19Zm21.31-17.59h-7.63v6.13h7.63Zm0,17.59V76h-7.63v6.49Z"/><path class="cls-82" d="M580.27,111.88h-5.61c-.46,0-.69-.21-.69-.62l.12-17.68V83L574,69.39c0-.32,0-.51.12-.56a1.29,1.29,0,0,1,.61-.09l8.8.11h12.06V65.66a62.3,62.3,0,0,0-.5-8.74c2.85.06,5.26.2,7.25.42.65,0,1,.24,1,.74a8.28,8.28,0,0,1-.41,1.45,34,34,0,0,0-.32,6v3.28h12.92l8.84-.11a1,1,0,0,1,.6.11,1,1,0,0,1,.09.54l-.12,12.23V93.46L625,111c0,.39-.23.59-.69.59h-5.67c-.47,0-.7-.2-.7-.59v-2.55H581v2.79C581,111.67,580.73,111.88,580.27,111.88Zm.7-37.13V85.44h14.59V74.75Zm0,27.83h14.59V91.21H581Zm37-27.83H602.56V85.44H618Zm-15.39,27.83H618V91.21H602.56Z"/></svg>