<?xml version="1.0" encoding="utf-8"?>
<!-- Svg Vector Icons : http://www.onlinewebfonts.com/icon -->
<!DOCTYPE svg PUBLIC "-//W3C//DTD SVG 1.1//EN" "http://www.w3.org/Graphics/SVG/1.1/DTD/svg11.dtd">
<svg version="1.1" xmlns="http://www.w3.org/2000/svg" xmlns:xlink="http://www.w3.org/1999/xlink" x="0px" y="0px" viewBox="0 0 1000 1000" enable-background="new 0 0 1000 1000" xml:space="preserve">
<metadata> Svg Vector Icons : http://www.onlinewebfonts.com/icon </metadata>
<g><path d="M741.3,602.4c19.5-19.5,19.5-48.8,0-68.3L536.6,329.4c-9.8-9.8-24.4-14.6-34.1-14.6l0,0c-14.6,0-24.4,4.9-34.1,14.6l-4.9,4.9L263.5,534.1c-19.5,19.5-19.5,48.8,0,68.3c19.5,19.5,48.8,19.5,68.3,0l117-121.9V890c0,29.3,19.5,48.8,48.8,48.8c29.3,0,48.8-19.5,48.8-48.8V475.6l126.8,126.8C692.6,621.9,721.8,621.9,741.3,602.4z"/><path d="M809.6,280.6C765.7,149,643.8,61.2,502.4,61.2c-141.4,0-268.2,87.8-312,219.4C83.1,314.7,10,407.4,10,519.5C10,656,122.1,773,263.5,773c29.3,0,48.8-19.5,48.8-48.8s-19.5-48.8-48.8-48.8c-82.9,0-156-68.3-156-156c0-73.1,53.6-136.5,126.8-151.1c19.5-4.9,34.1-19.5,39-39C302.5,227,395.2,158.7,502.4,158.7c107.3,0,199.9,73.1,224.3,175.5c4.9,19.5,19.5,34.1,39,39c73.1,14.6,126.8,78,126.8,151.1c0,82.9-68.3,156-156,156c-29.3,0-48.8,19.5-48.8,48.8s19.5,48.8,48.8,48.8C873,777.9,990,665.8,990,524.4C990,407.4,916.9,309.9,809.6,280.6z"/></g>
</svg>