<svg xmlns="http://www.w3.org/2000/svg" xmlns:xlink="http://www.w3.org/1999/xlink" width="453.42" height="77.957" viewBox="0 0 453.42 77.957">
  <defs>
    <linearGradient id="linear-gradient" x1="0.501" y1="0.952" x2="0.499" y2="0.011" gradientUnits="objectBoundingBox">
      <stop offset="0.214" stop-color="#f3a451"/>
      <stop offset="0.883" stop-color="#ee7147"/>
    </linearGradient>
    <linearGradient id="linear-gradient-2" x1="0.499" y1="-0.055" x2="0.501" y2="1.022" xlink:href="#linear-gradient"/>
    <filter id="おトクに航空券を手に入れる" x="53.412" y="30.949" width="347" height="39" filterUnits="userSpaceOnUse">
      <feOffset input="SourceAlpha"/>
      <feGaussianBlur stdDeviation="2.5" result="blur"/>
      <feFlood flood-color="#b54108" flood-opacity="0.749"/>
      <feComposite operator="in" in2="blur"/>
      <feComposite in="SourceGraphic"/>
    </filter>
    <filter id="株主優待番号を手に入れて" x="117.161" y="5.756" width="231" height="33" filterUnits="userSpaceOnUse">
      <feOffset input="SourceAlpha"/>
      <feGaussianBlur stdDeviation="2.5" result="blur-2"/>
      <feFlood flood-color="#b54108" flood-opacity="0.749"/>
      <feComposite operator="in" in2="blur-2"/>
      <feComposite in="SourceGraphic"/>
    </filter>
  </defs>
  <g id="Group_61" data-name="Group 61" transform="translate(-733.29 -703.319)">
    <rect id="Rectangle_86" data-name="Rectangle 86" width="453.42" height="77.957" rx="10" transform="translate(733.29 703.319)" fill="url(#linear-gradient)"/>
    <rect id="Rectangle_87" data-name="Rectangle 87" width="449.421" height="73.957" rx="8" transform="translate(735.29 705.319)" fill="url(#linear-gradient-2)"/>
    <g transform="matrix(1, 0, 0, 1, 733.29, 703.32)" filter="url(#おトクに航空券を手に入れる)">
      <text id="おトクに航空券を手に入れる-2" data-name="おトクに航空券を手に入れる" transform="translate(226.91 59.45)" fill="#fff" font-size="24.363" font-family="HiraMaruProN-W4, Hiragino Maru Gothic ProN" letter-spacing="0.049em"><tspan x="-165.524" y="0">おトクに航空券を手に入れる</tspan></text>
    </g>
    <g transform="matrix(1, 0, 0, 1, 733.29, 703.32)" filter="url(#株主優待番号を手に入れて)">
      <text id="株主優待番号を手に入れて-2" data-name="株主優待番号を手に入れて" transform="translate(232.66 29.26)" fill="#fff" font-size="18" font-family="HiraMaruProN-W4, Hiragino Maru Gothic ProN"><tspan x="-107.55" y="0">株主優待番号を手に入れて</tspan></text>
    </g>
    <path id="Path_558" data-name="Path 558" d="M1126,735.281c.122,1.6,2.546,2.46,5.035,2.505a7.525,7.525,0,0,0,.842-.042c2.129.123,4.442.651,5.931.656.041,0,.085,0,.125,0,.042.618.136,1.945.191,2.441.008.072.011.121.014.177-.033.159-.072.323-.117.489a3.01,3.01,0,0,1-.406.374,3.934,3.934,0,0,0-1.13,2.663,1.884,1.884,0,0,0,1.206,1.848,8.807,8.807,0,0,0,3.005.728,18.693,18.693,0,0,0,2.518,2.491,3.221,3.221,0,0,0,1.551.306,6.132,6.132,0,0,0,2.125-.354c.755-.316,2.92-1.1,3.308-1.242.067,0,.173,0,.316,0a12.751,12.751,0,0,0,6.569-1.7h1.322c0,.077,0,.165,0,.263.016,1.028.079,3.045,1.03,4.134.569,1.522,1.379,2.462,4.1,2.462,3.735,0,7.258.071,7.258.071V734.529h-9.231c-.829,0-1.025-.168-1.313.265h-3.2c-1.54-.771-4.662-1.567-5.71-2.047-1.293-.57-2.77-.891-3.05-1.1a4.182,4.182,0,0,0-1.968-.371,5.777,5.777,0,0,0-2.222.411,22.787,22.787,0,0,1-5.717.889c-.732,0-2.4.119-2.838.142-1.284.073-5.235.494-6.675.494-1.488-.042-2.8.436-2.865,2.017A.446.446,0,0,1,1126,735.281Zm33.942,15.382.019-.019c-.744-.7-.918-2.762-.9-3.757,0-.353.013-.57.013-.573h0c0-.006.083-1.339.083-3.083-.026-2.58-.12-5.962-1.1-7.56h3.3c.765,1.018,1.263,3.9,1.263,13.8C1162.621,750.823,1161.069,751.212,1159.942,750.663Zm-33.283-15.414c.078-1.113.736-1.337,2.208-1.379,1.517,0,5.459-.424,6.713-.495.448-.026,2.119-.139,2.8-.139a23.155,23.155,0,0,0,5.979-.942,5.087,5.087,0,0,1,1.96-.36,4.006,4.006,0,0,1,1.6.259c.566.353,1.908.6,3.15,1.153,1.187.515,4.781,1.5,5.914,2.151l.268.187-.017-.013a.186.186,0,0,1,.017.013c.779.646,1.133,3.374,1.225,5.871-.474.217-1.465.674-1.989.936-.7.352-2.82.211-4.3.14s-2.607,1.2-3.1,1.41a16.658,16.658,0,0,1-3.1.141,2.6,2.6,0,0,0-.422-1.058,4.516,4.516,0,0,1,0,.988s-1.693.352-2.115.352a13.879,13.879,0,0,0-2.818.635c-.776.281-2.819.986-2.96-.706s2.536-3.03,3.1-3.171a33.786,33.786,0,0,1,3.594.141,6.6,6.6,0,0,0,3.734-1.408c.634-.776,4.056-2.115,3.312-1.9-.494.14-3.171,1.269-3.734,1.339s-.634-2.114-.634-2.114-.145,1.091-.987,1.052c-1.863-.11-1.2-2.039-1.2-2.039a6.9,6.9,0,0,0-.492,1.2,14.3,14.3,0,0,1-4.44.212c-.7-.213-.917-1.692-.917-1.692l-.217,1.043a22,22,0,0,1-2.319.015c-.483-.04-2.624-.075-4.583-.118-.1,0-.192-.149-.287-.152s-.2.141-.292.14c-.975-.024-1.848-.049-2.381-.079a6.453,6.453,0,0,1-1.025-.344c-.835-.373-1.271-.878-1.249-1.231Z" fill="#fff"/>
    <path id="Path_559" data-name="Path 559" d="M791.381,735.23c-.06-1.581-1.376-2.059-2.865-2.017-1.44,0-5.391-.421-6.674-.494-.441-.023-2.106-.142-2.838-.142a22.793,22.793,0,0,1-5.718-.889,5.772,5.772,0,0,0-2.221-.411,4.179,4.179,0,0,0-1.968.371c-.28.208-1.758.529-3.051,1.1-1.048.48-4.17,1.276-5.71,2.047h-3.2c-.288-.433-.484-.265-1.313-.265h-9.231v19.025s3.524-.071,7.258-.071c2.726,0,3.536-.94,4.105-2.462.951-1.089,1.013-3.106,1.029-4.134,0-.1,0-.186,0-.263H760.3a12.745,12.745,0,0,0,6.568,1.7c.143,0,.25,0,.316,0,.388.141,2.554.926,3.308,1.242a6.139,6.139,0,0,0,2.126.354,3.214,3.214,0,0,0,1.55-.306,18.694,18.694,0,0,0,2.518-2.491,8.811,8.811,0,0,0,3.006-.728,1.886,1.886,0,0,0,1.206-1.848,3.934,3.934,0,0,0-1.131-2.663,2.923,2.923,0,0,1-.405-.374c-.045-.166-.084-.33-.117-.489,0-.056.005-.105.013-.177.056-.5.149-1.823.191-2.441.04,0,.084,0,.125,0,1.49-.005,3.8-.533,5.931-.656a7.539,7.539,0,0,0,.842.042c2.489-.045,4.914-.9,5.035-2.505A.432.432,0,0,1,791.381,735.23Zm-36.618,14.237c0-9.892.5-12.778,1.262-13.8h3.3c-.979,1.6-1.074,4.98-1.1,7.56,0,1.744.082,3.077.082,3.083h0s.014.22.014.573c.017.995-.157,3.053-.9,3.757l.019.019C756.314,751.212,754.763,750.823,754.763,749.467Zm35.962-14.186c.021.353-.415.858-1.249,1.231a6.5,6.5,0,0,1-1.026.344c-.533.03-1.405.055-2.381.079-.095,0-.192-.143-.292-.14s-.19.15-.287.152c-1.958.043-4.1.078-4.582.118a22.017,22.017,0,0,1-2.32-.015l-.217-1.043s-.212,1.479-.916,1.692a14.3,14.3,0,0,1-4.44-.212,6.893,6.893,0,0,0-.493-1.2s.664,1.929-1.2,2.039c-.843.039-.987-1.052-.987-1.052s-.07,2.184-.635,2.114-3.239-1.2-3.734-1.339c-.744-.211,2.678,1.128,3.312,1.9a6.6,6.6,0,0,0,3.735,1.408,33.777,33.777,0,0,1,3.594-.141c.564.141,3.242,1.48,3.1,3.171s-2.185.987-2.961.706a13.873,13.873,0,0,0-2.817-.635c-.423,0-2.115-.352-2.115-.352a4.449,4.449,0,0,1,0-.988,2.6,2.6,0,0,0-.423,1.058,16.658,16.658,0,0,1-3.1-.141c-.493-.212-1.621-1.48-3.1-1.41s-3.594.212-4.3-.14c-.523-.262-1.515-.719-1.989-.936.092-2.5.447-5.225,1.226-5.871,0-.005.013-.009.017-.013l-.017.013.268-.187c1.133-.655,4.727-1.636,5.913-2.151,1.242-.555,2.584-.8,3.15-1.153a4.017,4.017,0,0,1,1.6-.259,5.085,5.085,0,0,1,1.959.36,23.162,23.162,0,0,0,5.98.942c.68,0,2.352.113,2.8.139,1.255.071,5.2.495,6.713.495,1.473.042,2.13.266,2.209,1.379Z" fill="#fff"/>
  </g>
</svg>
