<svg id="Layer_1" data-name="Layer 1" xmlns="http://www.w3.org/2000/svg" viewBox="0 0 331.36 258.25"><defs><style>.cls-1{opacity:0.52;}.cls-2{fill:#e4eff4;}.cls-3{fill:#cad6da;}</style></defs><g class="cls-1"><path class="cls-2" d="M233,159.59c-2.27,11.7-11.81,19.25-24.34,19.27-33,.07-66-.08-99,.11-7.76,0-15.18-.39-21.75-5-7.66-6-10.65-13.9-8.35-23.35,2.24-9.23,8.53-14.69,17.66-16.9,2.87-.69,5.61-.7,6-5,1.2-15.22,18.22-28.41,37.31-22,3.23,1.07,4.51.4,6.39-2.07,16.9-22.1,48.73-21.3,66.1.63a36.89,36.89,0,0,1,8.31,26.26c-.21,2.94.44,5.24,3.23,6.6,1.12,1.22,2.22,2.45,3.35,3.65A19.47,19.47,0,0,1,233,159.59Z"/><path class="cls-3" d="M211.49,181.74c-35.25,0-70.5.18-105.75-.12-6.64-.06-13.23-2.05-17.86-7.69,6.57,4.65,14,5.08,21.75,5,33-.19,66,0,99-.11,12.53,0,22.07-7.57,24.34-19.27a19.47,19.47,0,0,0-5.16-17.89c-1.13-1.2-2.23-2.43-3.35-3.65,6,1.91,9,6.68,10.71,12.07C240.36,166.88,229.13,181.72,211.49,181.74Z"/></g></svg>