<svg xmlns="http://www.w3.org/2000/svg" width="218.032" height="323.449" viewBox="0 0 218.032 323.449"><g transform="translate(-553.089 -1283.551)"><circle cx="109.016" cy="109.016" r="109.016" transform="translate(553.089 1283.551)" fill="#29abe2"/><path d="M684.855,1414.782q-20.1-.009-40.211,0c-5.707,0-5.707,0-6.661-5.562-.126-.736-.227-1.479-.384-2.208a7.864,7.864,0,0,0-5.245-6.153c-2.977-1.05-6.1-.6-9.158-.466a2,2,0,0,0-2.042,2.346,2.128,2.128,0,0,0,2.37,2.042q2.373-.012,4.745,0c3.451.02,4.852,1.241,5.288,4.587,1.333,10.21,2.686,20.417,3.994,30.63.688,5.366,3.759,8.194,9.108,8.22,4.662.023,9.325.005,13.987,0,4.828,0,9.657.041,14.485-.012,4.66-.05,7.958-2.362,8.794-6.274q2.42-11.327,4.651-22.693C689.306,1415.564,688.608,1414.783,684.855,1414.782Zm-1.477,7.048c-1.27,5.751-2.284,11.558-3.474,17.327-.765,3.707-1.469,4.238-5.208,4.253-4.66.018-9.32,0-13.98,0-4.909,0-9.819-.029-14.729.009-2.4.019-3.685-1.022-3.986-3.463q-1.206-9.761-2.582-19.5c-.136-.965.178-1.187,1-1.175.748.012,1.5,0,2.246,0,12.9,0,25.8.044,38.7-.043C683.52,1419.223,683.817,1419.84,683.378,1421.83Z" fill="#fff"/><path d="M646.365,1399.331a36.125,36.125,0,0,0,7.238,7.2,13.682,13.682,0,0,0,16.471-.4c3.812-3.123,7.081-6.811,10.551-10.287,1.273-1.275,2.26-3.007,1.468-4.736a51.172,51.172,0,0,1-2.625-8.023,21.177,21.177,0,0,0-3.006-6.055c-1.921-2.733-.972-3.866.933-5.433a7.341,7.341,0,0,0,1.393-1.753,5.17,5.17,0,0,0,.07-5.668,5.1,5.1,0,0,0-5.013-2.607c-2.239.052-3.61,1.532-5.048,2.908-4.562,4.369-9.106,8.756-13.728,13.2-.731-1.092-.361-2.6-.735-3.956s-.439-2.79-.74-4.169a5.889,5.889,0,0,0-5.23-4.954c-2.5-.408-4.274.956-4.285,3.5-.036,8.332-.01,16.665.024,25A10.278,10.278,0,0,0,646.365,1399.331Zm1.917-30.856c1.153-.062,1.582,1.09,1.751,2.109q.836,5.036,1.587,10.085c.2,1.324.218,2.845,1.731,3.32,1.44.451,2.207-.882,3.061-1.731,5.137-5.1,10.239-10.244,15.381-15.344.943-.935,1.941-2.639,3.457-1.133,1.6,1.586-.112,2.66-1.117,3.678-3.334,3.376-6.705,6.715-10.053,10.077-.939.942-2.164,1.907-.828,3.343,1.444,1.551,2.537.328,3.549-.669,1.184-1.167,2.283-2.42,3.459-3.6.815-.816,1.8-1.417,2.792-.368.967,1.018.131,1.819-.582,2.544-1.225,1.247-2.487,2.458-3.69,3.725-.92.969-1.139,2.063-.1,3.081,1.087,1.067,1.979.288,2.79-.471.911-.852,1.769-1.762,2.663-2.633.493-.481,1.019-.932,1.719-.321.747.651.539,1.352-.013,1.957-.9.984-1.85,1.915-2.794,2.854-.765.762-1.338,1.556-.457,2.585a1.759,1.759,0,0,0,2.819.182c.831-.751,1.752-1.664,2.76-.577,1.232,1.329-.27,2.065-1,2.819-2.73,2.8-5.512,5.553-8.289,8.309a10.09,10.09,0,0,1-7.675,3.034,8.159,8.159,0,0,1-2.9-.528c-5.613-1.923-10.677-8.946-10.681-14.848,0-6.492-.023-12.985.032-19.477C647.656,1369.8,647.008,1368.544,648.282,1368.475Z" fill="#fff"/><path d="M643.424,1452.252a7.881,7.881,0,0,0-7.858,7.966,7.993,7.993,0,0,0,7.816,8.056,8.474,8.474,0,0,0,8.157-7.9A8.21,8.21,0,0,0,643.424,1452.252Zm.095,11.468a3.535,3.535,0,0,1-3.449-3.475,3.189,3.189,0,0,1,3.158-3.43,3.418,3.418,0,0,1,3.637,3.265A3.663,3.663,0,0,1,643.519,1463.72Z" fill="#fff"/><path d="M677.884,1452.28a7.88,7.88,0,0,0-7.816,8.019,7.984,7.984,0,0,0,7.905,7.966,8.345,8.345,0,0,0,8.068-7.946A8.079,8.079,0,0,0,677.884,1452.28Zm-.063,11.468a3.478,3.478,0,1,1,3.619-3.373A3.621,3.621,0,0,1,677.821,1463.748Z" fill="#fff"/><path d="M657.688,1355.636c.02,1.32.467,2.274,2.032,2.225,1.445-.046,1.814-.994,1.824-2.179q.04-4.614,0-9.23c-.009-1.234-.546-2.12-1.905-2.133s-1.921.843-1.95,2.087c-.035,1.5-.008,2.994-.009,4.49C657.682,1352.476,657.664,1354.056,657.688,1355.636Z" fill="#fff"/><path d="M663.6,1362.2a2.145,2.145,0,0,0,.761-.293,68.318,68.318,0,0,0,8.059-8.034c.61-.713.143-1.587-.557-2.174a1.574,1.574,0,0,0-2.254-.029c-2.533,2.49-5.093,4.964-7.459,7.608A1.788,1.788,0,0,0,663.6,1362.2Z" fill="#fff"/><path d="M654.83,1361.924a1.809,1.809,0,0,0,2.837-.084c.919-1.068.411-1.986-.514-2.778-2.458-2.1-4.906-4.218-7.379-6.3a6.887,6.887,0,0,0-1.188-.681,1.906,1.906,0,0,0-1.881,1.165,1.834,1.834,0,0,0,.534,2.249Q651.033,1358.711,654.83,1361.924Z" fill="#fff"/><text transform="translate(661.47 1324.976)" fill="#fff" font-size="24" font-family="ArialRoundedMTBold, Arial Rounded MT Bold" letter-spacing="0.051em"><tspan x="-33.975" y="0">EASY</tspan></text><text transform="translate(663.219 1545)" fill="#333" font-size="24" font-family="HiraMaruProN-W4, Hiragino Maru Gothic ProN" letter-spacing="0.021em"><tspan x="-48.756" y="0">簡単に、</tspan></text><text transform="translate(661.47 1583)" fill="#333" font-size="18" font-family="HiraMaruProN-W4, Hiragino Maru Gothic ProN"><tspan x="-63" y="0">ご希望の日程と</tspan><tspan x="-90" y="21.6">人数等を選択するだけ</tspan></text></g></svg>