<svg xmlns="http://www.w3.org/2000/svg" width="218.032" height="323.449" viewBox="0 0 218.032 323.449"><g transform="translate(-1148.879 -1283.551)"><circle cx="109.016" cy="109.016" r="109.016" transform="translate(1148.879 1283.551)" fill="#29abe2"/><path d="M1298.736,1415.525c-.027-4.913-2.234-6.958-7.095-6.962q-16.618-.012-33.237,0-16.743,0-33.486,0c-5.061,0-7.072,2.026-7.076,7.142q-.016,19.242,0,38.485c0,5.406,1.969,7.368,7.389,7.369q33.111.006,66.223,0c5.019,0,7.264-2.073,7.288-7.05Q1298.834,1435.018,1298.736,1415.525Zm-3.836,39.922c0,1.595-.788,2.25-2.311,2.248-6.995-.008-13.99-.035-20.985.023-1.5.013-1.821-.651-1.781-1.961.065-2.163.035-4.33,0-6.495-.015-1.045-.22-2.135-1.524-2.178-1.376-.046-1.825.961-1.838,2.174-.022,2.165-.058,4.331.006,6.494.039,1.305-.267,1.97-1.776,1.966q-20.361-.066-40.721-.019c-1.818,0-2.524-.914-2.523-2.638q.017-19.984-.011-39.971c-.005-2.089.963-2.711,2.928-2.69,6.744.07,13.49.027,20.235.026,6.579,0,13.158.045,19.736-.032,1.623-.019,2.234.469,2.143,2.119-.115,2.075-.036,4.162-.02,6.244.009,1.207.433,2.266,1.8,2.2,1.194-.06,1.571-1.074,1.575-2.178.007-2.248.042-4.5-.005-6.745-.025-1.169.427-1.622,1.606-1.617q10.617.047,21.235.009c1.588,0,2.233.754,2.231,2.3Q1294.878,1435.087,1294.9,1455.447Z" fill="#fff"/><path d="M1252.629,1375.771a11.95,11.95,0,0,1,8.586,8.659c.494,1.624,2.2,2.422,4.14,1.749a3.328,3.328,0,0,0,2.542-3.768,8.581,8.581,0,0,0-.337-1.956c-.71-2.063-.091-3.542,1.544-4.98,1.323-1.163,1.693-.664,2.235.567,1.005,2.282,2.094,4.527,3.147,6.788.9,1.93,2.26,3.137,4.526,2.583,1.892-.462,2.916-2.461,2.619-4.779-.413-3.213-.561-6.483-1.264-9.631-.937-4.2-.32-7.643,3.435-10.164a4.043,4.043,0,0,0,.972-1.131,5.467,5.467,0,0,0-8.225-7.135,27.16,27.16,0,0,0-3,3,4.125,4.125,0,0,1-4.212,1.42c-4.366-.564-8.757-.949-13.111-1.589-2.193-.322-3.824.136-4.661,2.255-.771,1.951.1,3.534,2.519,4.743,2.38,1.191,4.786,2.333,7.181,3.5.481.234,1.395.362.7,1.129-1.242,1.37-2.307,3.2-4.717,2.415a15.891,15.891,0,0,0-2.192-.457c-2.51-.052-4.044.952-4.47,2.693A3.22,3.22,0,0,0,1252.629,1375.771Zm5.795-2.254a3.619,3.619,0,0,0,3.751-1.327c1.323-1.488,2.824-2.816,4.2-4.255,1.789-1.867,1.662-2.859-.57-3.976-2.745-1.375-5.534-2.662-8.305-3.987h0c-.4-.086-.991-.4-.744-.672.473-.512,1.155-.271,1.681.183h0c3.864.438,7.748.754,11.585,1.362,2.077.329,3.688.093,5.093-1.592a43.76,43.76,0,0,1,3.688-3.7,1.754,1.754,0,0,1,2.658-.092c.893.9.5,1.811-.291,2.6a5.878,5.878,0,0,1-.885.871c-4.481,2.871-4.783,7-3.766,11.7.557,2.575.65,5.251.952,7.881h0c.582.578.387,1.292.438,2.105-.731-.165-.83-.664-.96-1.137-1.314-2.851-2.582-5.725-3.957-8.546-1.093-2.241-2.211-2.432-3.963-.711-1.947,1.912-3.822,3.9-5.729,5.852a.57.57,0,0,0-.163.38c.055-.127.109-.254.164-.38q0,1.774,0,3.55l-.263.091-.567-1.706c-.582-2.4-2.556-3.2-4.56-3.975h0a2.019,2.019,0,0,1-1.661-.785A1.866,1.866,0,0,1,1258.424,1373.517Z" fill="#fff"/><path d="M1237.881,1379.29q5.477-5.461,10.938-10.939a2.569,2.569,0,0,0,1.028-2.084,2.093,2.093,0,0,0-1.305-1.513c-1.037-.416-1.744.294-2.389.934q-5.49,5.45-10.945,10.934c-.931.934-1.748,1.992-.533,3.208S1236.947,1380.221,1237.881,1379.29Z" fill="#fff"/><path d="M1270.43,1389.816q-5.649,5.644-11.293,11.294c-.919.919-1.415,1.916-.318,3.02,1.117,1.124,2.087.556,3-.356q5.644-5.649,11.3-11.293a2.171,2.171,0,0,0,.812-1.786,1.6,1.6,0,0,0-1.021-1.532A2.087,2.087,0,0,0,1270.43,1389.816Z" fill="#fff"/><path d="M1252.153,1383.94q-5.532,5.573-11.07,11.141c-.847.852-1.744,1.671-.587,2.936,1.219,1.333,2.193.618,3.149-.338q5.555-5.553,11.1-11.113a3.081,3.081,0,0,0,1.07-1.814,2.1,2.1,0,0,0-1.242-1.578C1253.559,1382.716,1252.829,1383.259,1252.153,1383.94Z" fill="#fff"/><path d="M1256.983,1423.544c-.206-1.257-.991-1.95-2.4-1.334a6.358,6.358,0,0,0-1.664,1.477q-10.128,10.134-20.233,20.291c-1.043,1.053-2.992,2.234-1.389,3.853,1.7,1.716,2.838-.52,3.8-1.458,6.952-6.79,13.8-13.689,20.675-20.555A3,3,0,0,0,1256.983,1423.544Z" fill="#fff"/><path d="M1235.622,1433.547a6.74,6.74,0,0,0,.147-13.479,6.74,6.74,0,1,0-.147,13.479Zm.106-9.6c1.86.129,2.814,1.114,2.744,2.89a2.79,2.79,0,1,1-5.578-.132C1232.941,1424.935,1234.064,1424.081,1235.728,1423.95Z" fill="#fff"/><path d="M1251.98,1436.563a6.835,6.835,0,0,0-6.528,6.845,6.721,6.721,0,0,0,13.441-.127A6.819,6.819,0,0,0,1251.98,1436.563Zm.316,9.513a2.772,2.772,0,1,1-.25-5.539c1.8-.1,2.674.954,2.958,2.528C1254.876,1444.876,1254.1,1446.015,1252.3,1446.076Z" fill="#fff"/><path d="M1286.084,1440.431c-1.95-.243-1.774-1.554-1.748-2.9.033-1.748.046-3.5-.005-5.244-.035-1.227-.03-2.282,1.569-2.545.993-.163,1.226-1.09,1.185-1.947a1.606,1.606,0,0,0-1.636-1.588c-2.075-.074-4.159-.087-6.232.026a1.725,1.725,0,0,0-1.575,1.692,1.5,1.5,0,0,0,1.121,1.738c1.84.3,1.834,1.519,1.779,2.93-.068,1.745-.056,3.5,0,5.244.037,1.238.015,2.26-1.608,2.5a1.631,1.631,0,0,0-1.289,1.892,1.8,1.8,0,0,0,1.638,1.647c.981.148,1.987.128,2.983.181,1.081-.05,2.167-.039,3.236-.17a1.721,1.721,0,0,0,1.573-1.672C1287.163,1441.381,1286.9,1440.533,1286.084,1440.431Z" fill="#fff"/><path d="M1268.107,1428.7a1.662,1.662,0,0,0-1.635,1.836c-.046,1.489-.012,2.98-.012,4.471h-.008c0,1.491-.034,2.982.012,4.472.03,1,.479,1.821,1.578,1.892a1.571,1.571,0,0,0,1.741-1.695c.064-3.061.058-6.126.008-9.188A1.64,1.64,0,0,0,1268.107,1428.7Z" fill="#fff"/><text transform="translate(1258.192 1324.976)" fill="#fff" font-size="24" font-family="ArialRoundedMTBold, Arial Rounded MT Bold" letter-spacing="0.051em"><tspan x="-29.961" y="0">FINE</tspan></text><text transform="translate(1266.937 1545)" fill="#333" font-size="24" font-family="HiraMaruProN-W4, Hiragino Maru Gothic ProN" letter-spacing="0.021em"><tspan x="-36.504" y="0">上質に</tspan></text><text transform="translate(1265.187 1583)" fill="#333" font-size="18" font-family="HiraMaruProN-W4, Hiragino Maru Gothic ProN"><tspan x="-80.73" y="0">ひとつ上のクラスで</tspan><tspan x="-54" y="21.6">上質な旅行を</tspan></text></g></svg>