<svg id="Layer_1" data-name="Layer 1" xmlns="http://www.w3.org/2000/svg" viewBox="0 0 674.46 430.5"><defs><style>.cls-1{fill:#c7e5ef;}</style></defs><path class="cls-1" d="M174.48,129.17l1.22,4a233.88,233.88,0,0,0-23.62,8.56l-1.64-3.85c2-.84,3.93-1.64,5.91-2.42C162.18,133.17,168.28,131.05,174.48,129.17ZM129.59,152.9a190.57,190.57,0,0,0-20.86,13.92l-2.55-3.31a192.92,192.92,0,0,1,21.33-14.23Zm94.89-34L225,123c-8.47,1-16.84,2.34-24.87,4l-.84-4.1C207.41,121.26,215.89,119.91,224.48,118.89ZM90,183.45a177.62,177.62,0,0,0-16.22,19.1l-3.37-2.48A181.47,181.47,0,0,1,87,180.52Zm185.48-66.92-.09,4.18c-8.53-.18-17-.08-25.25.29l-.18-4.18C258.24,116.45,266.83,116.35,275.45,116.53Zm50.83,4.08-.57,4.14c-8.38-1.15-16.83-2.08-25.12-2.75l.33-4.17C309.3,118.51,317.83,119.44,326.28,120.61ZM60.29,223.7a156.84,156.84,0,0,0-10.16,22.84l-4-1.38A162.16,162.16,0,0,1,56.62,221.7Zm316-93.44-1,4.05c-8.11-2-16.42-3.85-24.68-5.44l.79-4.11C359.78,126.37,368.15,128.22,376.34,130.26Zm48.72,15.08-1.47,3.91c-7.67-2.89-15.71-5.63-23.91-8.16l1.23-4C409.19,139.64,417.32,142.42,425.06,145.34Zm46.26,21.71-2.14,3.59A248.44,248.44,0,0,0,446.88,159l1.75-3.79A246.81,246.81,0,0,1,471.32,167.05Z"/><path class="cls-1" d="M492.46,182.1l-2.77,3.12A62.88,62.88,0,0,1,498,194l3.34-2.52A66.4,66.4,0,0,0,492.46,182.1Z"/><path class="cls-1" d="M509.2,311.17,534.59,303l4.64,4.3a3.11,3.11,0,0,0,4.21,0l3.33-3.09a3.09,3.09,0,0,0,.25-4.28h0l12.41-3.61,3.46,3.07a3.1,3.1,0,0,0,4.36-.25l5-5.68,11.94-4.36s32.9,32.12,42.35,23.47-23.83-38.78-23.83-38.78l2-15.22,5.06-4.91a3.09,3.09,0,0,0-.31-4.7l-2.43-1.81L609,234.43l1.26.17a3.08,3.08,0,0,0,3.1-1.52l3-5.23a3.09,3.09,0,0,0-1.3-4.3l-4.12-2.08,4.33-23.66s2.9-8.3-4.67-12.76-12.16,8.34-12.16,8.34l-4.93,14.42L591,206.37a3.09,3.09,0,0,0-4.24,4.21l2.85,4.95L583.8,228l-3.21-.83a3.09,3.09,0,0,0-3.41,4.61l3.24,5.25-5.71,10.25s-31.2-30.51-36.72-30.91c0,0,8.27-34.19,1.38-34.27s-15.28,28.23-15.28,28.23-12.68-11.32-17.42-9.59c0,0,1.7,10.71,10.54,17.12,0,0-28.45,11.51-26.66,16.42s19.6-.67,33.93-4.62c0,0,1.61,8,32.95,33.78l-11.23,6.33-1.48-.87a3.09,3.09,0,0,0-4.59,3.31l.66,3.06L527.1,282l-4.74-3.2a3.09,3.09,0,0,0-4.62,3.66l1.67,4.4s-25.32,8.88-21.15,17.75S509.2,311.17,509.2,311.17Z"/></svg>