<svg xmlns="http://www.w3.org/2000/svg" width="26.524" height="14.999" viewBox="0 0 26.524 14.999">
  <g id="Group_35" data-name="Group 35" transform="translate(-554.776 -517.902)">
    <path id="Path_508" data-name="Path 508" d="M569.973,532.9h1.482l1.275-1.959h1.07a.136.136,0,0,0,.136-.136v-.559a.136.136,0,0,0-.136-.136h-.529l.281-.432h.82a.136.136,0,0,0,.136-.136v-.56a.135.135,0,0,0-.136-.135h-.279l1.394-2.142h3.922l1.891-1.378-1.891-1.23h-3.922l-1.394-2.142h.279a.136.136,0,0,0,.136-.136v-.559a.136.136,0,0,0-.136-.136h-.82l-.281-.432h.529a.136.136,0,0,0,.136-.136V520a.136.136,0,0,0-.136-.136h-1.07l-1.275-1.959h-1.482l2.672,6.2-5.366.406-.9-2.246h-1.527l1.277,3.144-1.277,3.143h1.527l.9-2.245,5.223.406Z" fill="#fff"/>
    <path id="Path_509" data-name="Path 509" d="M569.113,518.39l-8.371-.244,8.371-.244Z" fill="#fff"/>
    <path id="Path_510" data-name="Path 510" d="M569.113,532.9l-8.371-.244,8.371-.244Z" fill="#fff"/>
    <path id="Path_511" data-name="Path 511" d="M563.148,528.552l-8.371-.244,8.371-.244Z" fill="#fff"/>
    <path id="Path_512" data-name="Path 512" d="M563.148,522.747l-8.371-.244,8.371-.244Z" fill="#fff"/>
  </g>
</svg>
