<svg id="Layer_1" data-name="Layer 1" xmlns="http://www.w3.org/2000/svg" viewBox="0 0 388.48 670.47"><defs><style>.cls-1{fill:#202020;}.cls-2{fill:#f1c40f;}.cls-3{fill:#313b43;}.cls-4{opacity:0.6;}.cls-5{fill:#415973;}.cls-6{opacity:0.2;}.cls-7{fill:#5fa2f4;}</style></defs><title>Card 03</title><path class="cls-1" d="M37.6,599.87v14.18H34.76V599.87H29.68v-2.6h13v2.6Z"/><path class="cls-1" d="M54.51,612.33a7,7,0,0,1-9.59,0,6.63,6.63,0,0,1,0-9.33,7,7,0,0,1,9.59,0,6.63,6.63,0,0,1,0,9.33Zm-7.69-1.65a4.19,4.19,0,0,0,5.79,0,4.56,4.56,0,0,0,0-6,4.19,4.19,0,0,0-5.79,0,4.56,4.56,0,0,0,0,6Z"/><path class="cls-1" d="M68.41,608.19v-6.91H71.1v12.77H68.41v-2.33a5,5,0,0,1-7.74,1.2,5.12,5.12,0,0,1-1.33-3.81v-7.83H62v7q0,3.53,2.92,3.53a3.52,3.52,0,0,0,2.43-.93A3.41,3.41,0,0,0,68.41,608.19Z"/><path class="cls-1" d="M81.68,603.8a3.55,3.55,0,0,0-3,1.3,5.52,5.52,0,0,0-1,3.48v5.47H75V601.28h2.69v2.57a5.47,5.47,0,0,1,1.76-2,4.28,4.28,0,0,1,2.36-.79l0,2.71Z"/><path class="cls-1" d="M94.31,599.91v4.61h7.44v2.62H94.31v6.91H91.47V597.27h11.19l0,2.64Z"/><path class="cls-1" d="M105.76,598.74a1.64,1.64,0,0,1-.51-1.2,1.71,1.71,0,0,1,3.41,0,1.7,1.7,0,0,1-2.9,1.2Zm2.51,15.31h-2.68V601.28h2.68Z"/><path class="cls-1" d="M118.86,603.8a3.55,3.55,0,0,0-3,1.3,5.52,5.52,0,0,0-1,3.48v5.47h-2.69V601.28h2.69v2.57a5.56,5.56,0,0,1,1.76-2,4.33,4.33,0,0,1,2.37-.79l0,2.71Z"/><path class="cls-1" d="M130.79,610.23a3.6,3.6,0,0,1-1.32,2.92,5.13,5.13,0,0,1-3.39,1.09,9.2,9.2,0,0,1-2.89-.5,8.75,8.75,0,0,1-2.65-1.42l1.29-2.09a7.25,7.25,0,0,0,4.32,1.68,2.24,2.24,0,0,0,1.44-.42,1.28,1.28,0,0,0,.53-1.06c0-.64-.85-1.22-2.54-1.73l-.29-.1c-2.66-.72-4-1.92-4-3.6a3.39,3.39,0,0,1,1.38-2.84,5.69,5.69,0,0,1,3.58-1.07,7.41,7.41,0,0,1,4.18,1.3l-1,2a6,6,0,0,0-3.38-1,3.11,3.11,0,0,0-1.56.34,1.14,1.14,0,0,0-.6,1,1,1,0,0,0,.62.91,6.45,6.45,0,0,0,1.21.41c.52.13,1,.25,1.38.38s.79.27,1.17.43a7.64,7.64,0,0,1,1.21.68A3,3,0,0,1,130.79,610.23Z"/><path class="cls-1" d="M137.15,603.44v6.48a2.1,2.1,0,0,0,.48,1.45,1.68,1.68,0,0,0,1.34.54,2.29,2.29,0,0,0,1.66-.84l1.1,1.9a4.58,4.58,0,0,1-3.13,1.27,4,4,0,0,1-2.93-1.19,4.27,4.27,0,0,1-1.21-3.2v-6.41h-1.61v-2.16h1.61v-4h2.69v4h3.36v2.16Z"/><path class="cls-1" d="M143.65,608.15v-2.52h8v2.52Z"/><path class="cls-1" d="M161,614.24a6.44,6.44,0,0,1-4.58-1.81,6.74,6.74,0,0,1,.08-9.5,7,7,0,0,1,4.89-1.84,6.62,6.62,0,0,1,4.87,2L164.63,605a5.12,5.12,0,0,0-3.34-1.44,4.24,4.24,0,0,0-2.92,1.11,3.73,3.73,0,0,0-1.23,2.88,4.17,4.17,0,0,0,4.23,4.21,4.68,4.68,0,0,0,3.38-1.63l1.58,1.73A7.33,7.33,0,0,1,161,614.24Z"/><path class="cls-1" d="M171.8,614.05h-2.69V596.24h2.69Z"/><path class="cls-1" d="M186,614.05h-2.44v-1.7a5.28,5.28,0,0,1-4.25,1.89,4.83,4.83,0,0,1-3.3-1.13,3.77,3.77,0,0,1-1.31-3,3.18,3.18,0,0,1,1.39-2.82,6.72,6.72,0,0,1,3.77-.93h3.48v-.48c0-1.7-.94-2.55-2.83-2.55a6.6,6.6,0,0,0-3.7,1.3l-1.2-1.68a8.27,8.27,0,0,1,5.28-1.85,5.74,5.74,0,0,1,3.69,1.14,4.32,4.32,0,0,1,1.42,3.59Zm-2.68-4.75v-1.08h-3c-1.93,0-2.9.61-2.9,1.82a1.62,1.62,0,0,0,.72,1.43,3.5,3.5,0,0,0,2,.49,3.65,3.65,0,0,0,2.25-.72A2.33,2.33,0,0,0,183.35,609.3Z"/><path class="cls-1" d="M198.87,610.23a3.6,3.6,0,0,1-1.32,2.92,5.1,5.1,0,0,1-3.38,1.09,9.2,9.2,0,0,1-2.89-.5,8.64,8.64,0,0,1-2.65-1.42l1.29-2.09a7.25,7.25,0,0,0,4.32,1.68,2.24,2.24,0,0,0,1.44-.42,1.3,1.3,0,0,0,.53-1.06c0-.64-.85-1.22-2.54-1.73l-.29-.1q-4-1.08-4-3.6a3.41,3.41,0,0,1,1.38-2.84,5.72,5.72,0,0,1,3.59-1.07,7.44,7.44,0,0,1,4.18,1.3l-1,2a6,6,0,0,0-3.38-1,3.11,3.11,0,0,0-1.56.34,1.13,1.13,0,0,0-.6,1,1,1,0,0,0,.62.91,6.45,6.45,0,0,0,1.21.41c.52.13,1,.25,1.38.38s.79.27,1.17.43a7.64,7.64,0,0,1,1.21.68A3,3,0,0,1,198.87,610.23Z"/><path class="cls-1" d="M211,610.23a3.6,3.6,0,0,1-1.32,2.92,5.13,5.13,0,0,1-3.39,1.09,9.25,9.25,0,0,1-2.89-.5,8.75,8.75,0,0,1-2.65-1.42l1.3-2.09a7.21,7.21,0,0,0,4.32,1.68,2.28,2.28,0,0,0,1.44-.42,1.29,1.29,0,0,0,.52-1.06c0-.64-.84-1.22-2.54-1.73l-.29-.1c-2.66-.72-4-1.92-4-3.6a3.41,3.41,0,0,1,1.38-2.84,5.7,5.7,0,0,1,3.59-1.07,7.4,7.4,0,0,1,4.17,1.3l-1,2a6,6,0,0,0-3.38-1,3.11,3.11,0,0,0-1.56.34,1.14,1.14,0,0,0-.6,1,1,1,0,0,0,.62.91,6.33,6.33,0,0,0,1.22.41c.52.13,1,.25,1.38.38s.78.27,1.16.43a7.22,7.22,0,0,1,1.21.68A3,3,0,0,1,211,610.23Z"/><path class="cls-1" d="M224,603.44v6.48a2.1,2.1,0,0,0,.48,1.45,1.71,1.71,0,0,0,1.35.54,2.27,2.27,0,0,0,1.65-.84l1.11,1.9a4.58,4.58,0,0,1-3.13,1.27,4,4,0,0,1-2.93-1.19,4.27,4.27,0,0,1-1.22-3.2v-6.41h-1.6v-2.16h1.6v-4H224v4h3.36v2.16Z"/><path class="cls-1" d="M237.37,603.8a3.55,3.55,0,0,0-3,1.3,5.52,5.52,0,0,0-1,3.48v5.47h-2.69V601.28h2.69v2.57a5.49,5.49,0,0,1,1.77-2,4.28,4.28,0,0,1,2.36-.79l0,2.71Z"/><path class="cls-1" d="M240.37,598.74a1.64,1.64,0,0,1-.51-1.2,1.74,1.74,0,0,1,1.71-1.71,1.72,1.72,0,0,1,1.7,1.71,1.71,1.71,0,0,1-1.7,1.7A1.64,1.64,0,0,1,240.37,598.74Zm2.52,15.31H240.2V601.28h2.69Z"/><path class="cls-1" d="M253.62,601.09a6.05,6.05,0,0,1,4.39,1.78,6.31,6.31,0,0,1,1.82,4.72,6.55,6.55,0,0,1-1.81,4.8,5.62,5.62,0,0,1-8.56-.26v6.58h-2.68V601.28h2.68v2.23A4.8,4.8,0,0,1,253.62,601.09Zm-4.2,6.6a4.15,4.15,0,0,0,1.1,3,3.59,3.59,0,0,0,2.69,1.16,3.83,3.83,0,0,0,2.76-1.15,4,4,0,0,0,1.17-3,4.25,4.25,0,0,0-1.15-3.05,3.71,3.71,0,0,0-2.76-1.21,3.56,3.56,0,0,0-2.71,1.21A4.32,4.32,0,0,0,249.42,607.69Z"/><path class="cls-1" d="M269.48,614.65V601.28h2.69v13.47A4.27,4.27,0,0,1,271,618a4,4,0,0,1-2.92,1.19,4.59,4.59,0,0,1-3.13-1.27l1.24-2a2.4,2.4,0,0,0,1.65.79,1.55,1.55,0,0,0,1.26-.53A2.23,2.23,0,0,0,269.48,614.65Zm.12-15.91a1.63,1.63,0,0,1-.5-1.2,1.6,1.6,0,0,1,.5-1.2,1.67,1.67,0,0,1,2.4,0,1.6,1.6,0,0,1,.5,1.2,1.63,1.63,0,0,1-.5,1.2,1.69,1.69,0,0,1-2.4,0Z"/><path class="cls-1" d="M285,608.19v-6.91h2.69v12.77H285v-2.33a5,5,0,0,1-7.74,1.2,5.12,5.12,0,0,1-1.33-3.81v-7.83h2.69v7q0,3.53,2.93,3.53a3.51,3.51,0,0,0,2.42-.93A3.41,3.41,0,0,0,285,608.19Z"/><path class="cls-1" d="M300.66,610.23a3.63,3.63,0,0,1-1.32,2.92,5.15,5.15,0,0,1-3.39,1.09,9.2,9.2,0,0,1-2.89-.5,8.75,8.75,0,0,1-2.65-1.42l1.29-2.09a7.25,7.25,0,0,0,4.32,1.68,2.24,2.24,0,0,0,1.44-.42,1.28,1.28,0,0,0,.53-1.06c0-.64-.85-1.22-2.54-1.73l-.29-.1c-2.66-.72-4-1.92-4-3.6a3.39,3.39,0,0,1,1.38-2.84,5.69,5.69,0,0,1,3.58-1.07,7.44,7.44,0,0,1,4.18,1.3l-1,2a6,6,0,0,0-3.38-1,3.11,3.11,0,0,0-1.56.34,1.14,1.14,0,0,0-.6,1,1,1,0,0,0,.62.91,6.45,6.45,0,0,0,1.21.41c.52.13,1,.25,1.38.38s.79.27,1.17.43a7.64,7.64,0,0,1,1.21.68A3,3,0,0,1,300.66,610.23Z"/><path class="cls-1" d="M307,603.44v6.48a2.1,2.1,0,0,0,.49,1.45,1.68,1.68,0,0,0,1.34.54,2.29,2.29,0,0,0,1.66-.84l1.1,1.9a4.58,4.58,0,0,1-3.13,1.27,4,4,0,0,1-2.93-1.19,4.27,4.27,0,0,1-1.21-3.2v-6.41h-1.61v-2.16h1.61v-4H307v4h3.36v2.16Z"/><path class="cls-1" d="M332.12,601.28v11.14a6.53,6.53,0,0,1-1.84,5.07,6.66,6.66,0,0,1-4.71,1.7,8.3,8.3,0,0,1-5.21-1.8l1.27-2a6.26,6.26,0,0,0,3.78,1.41,4.42,4.42,0,0,0,3-1,4,4,0,0,0,1.12-3.15V611a4.62,4.62,0,0,1-1.71,1.8,4.76,4.76,0,0,1-2.51.67,5.43,5.43,0,0,1-4.18-1.77,6.79,6.79,0,0,1,0-8.83,5.4,5.4,0,0,1,4.17-1.78,5,5,0,0,1,4.11,2.09v-1.9Zm-10,5.89a4,4,0,0,0,1,2.72,3.27,3.27,0,0,0,2.62,1.14,3.45,3.45,0,0,0,2.66-1.11,3.88,3.88,0,0,0,1-2.75,4,4,0,0,0-1-2.78,3.44,3.44,0,0,0-2.66-1.14,3.2,3.2,0,0,0-2.61,1.18A4.16,4.16,0,0,0,322.16,607.17Z"/><path class="cls-1" d="M346.69,612.33a7,7,0,0,1-9.6,0,6.63,6.63,0,0,1,0-9.33,7,7,0,0,1,9.6,0,6.63,6.63,0,0,1,0,9.33Zm-7.7-1.65a4.19,4.19,0,0,0,5.79,0,4.56,4.56,0,0,0,0-6,4.19,4.19,0,0,0-5.79,0,4.56,4.56,0,0,0,0,6Z"/><path class="cls-1" d="M354.77,603.44v6.48a2.05,2.05,0,0,0,.49,1.45,1.68,1.68,0,0,0,1.34.54,2.29,2.29,0,0,0,1.66-.84l1.1,1.9a4.58,4.58,0,0,1-3.13,1.27,4,4,0,0,1-2.93-1.19,4.27,4.27,0,0,1-1.21-3.2v-6.41h-1.61v-2.16h1.61v-4h2.68v4h3.36v2.16Z"/><path class="cls-1" d="M87,642.85H84.55v-1.7A5.25,5.25,0,0,1,80.3,643a4.83,4.83,0,0,1-3.3-1.13,3.77,3.77,0,0,1-1.31-3,3.19,3.19,0,0,1,1.4-2.82,6.66,6.66,0,0,1,3.76-.93h3.49v-.48c0-1.7-1-2.55-2.84-2.55a6.59,6.59,0,0,0-3.69,1.3l-1.2-1.68a8.27,8.27,0,0,1,5.28-1.85A5.72,5.72,0,0,1,85.57,631,4.33,4.33,0,0,1,87,634.62Zm-2.69-4.75V637h-3c-1.94,0-2.91.61-2.91,1.82a1.62,1.62,0,0,0,.72,1.43,3.51,3.51,0,0,0,2,.49,3.64,3.64,0,0,0,2.24-.72A2.3,2.3,0,0,0,84.31,638.1Z"/><path class="cls-1" d="M103.29,642.85h-3.07l-4.41-12.77h2.78l3.17,9.65,3.17-9.65h2.78l3.17,9.65,3.17-9.65h2.78l-4.42,12.77h-3.07l-3-8.74Z"/><path class="cls-1" d="M121.89,635.94v6.91h-2.68V625.07h2.68v7.34a4.37,4.37,0,0,1,1.74-1.85,4.94,4.94,0,0,1,2.51-.67,4.73,4.73,0,0,1,3.49,1.32A5.13,5.13,0,0,1,131,635v7.82h-2.69v-7q0-3.52-2.93-3.53a3.48,3.48,0,0,0-2.42.93A3.42,3.42,0,0,0,121.89,635.94Z"/><path class="cls-1" d="M145.39,641.13a7,7,0,0,1-9.6,0,6.63,6.63,0,0,1,0-9.33,7,7,0,0,1,9.6,0,6.63,6.63,0,0,1,0,9.33Zm-7.69-1.65a4.18,4.18,0,0,0,5.78,0,4.56,4.56,0,0,0,0-6,4.18,4.18,0,0,0-5.78,0,4.56,4.56,0,0,0,0,6Z"/><path class="cls-1" d="M153,642.85h-2.68V625H153Z"/><path class="cls-1" d="M168.81,637.64h-10a2.89,2.89,0,0,0,1.27,2.25,4.94,4.94,0,0,0,6.33-.66l1.54,1.68a7.16,7.16,0,0,1-5.38,2.13,6.28,6.28,0,0,1-6.45-6.59,6.19,6.19,0,0,1,1.92-4.78,6.42,6.42,0,0,1,4.52-1.78,6.54,6.54,0,0,1,4.43,1.57,5.45,5.45,0,0,1,1.82,4.33Zm-10-2.11h7.31a3.07,3.07,0,0,0-1-2.47,3.69,3.69,0,0,0-2.49-.87,4.25,4.25,0,0,0-2.65.9A2.92,2.92,0,0,0,158.81,635.53Z"/><path class="cls-1" d="M181,642.85h-2.69V625H181Z"/><path class="cls-1" d="M195.6,641.13a7,7,0,0,1-9.6,0,6.63,6.63,0,0,1,0-9.33,7,7,0,0,1,9.6,0,6.63,6.63,0,0,1,0,9.33Zm-7.69-1.65a4.18,4.18,0,0,0,5.78,0,4.56,4.56,0,0,0,0-6,4.18,4.18,0,0,0-5.78,0,4.53,4.53,0,0,0,0,6Z"/><path class="cls-1" d="M203.68,632.24v6.48a2.1,2.1,0,0,0,.49,1.45,1.68,1.68,0,0,0,1.34.54,2.29,2.29,0,0,0,1.66-.84l1.1,1.9a4.58,4.58,0,0,1-3.13,1.27,4,4,0,0,1-2.93-1.19,4.27,4.27,0,0,1-1.21-3.2v-6.41h-1.61v-2.16H201v-4h2.68v4H207v2.16Z"/><path class="cls-1" d="M222.65,643a6.44,6.44,0,0,1-4.59-1.81,6.22,6.22,0,0,1-1.92-4.74,6.14,6.14,0,0,1,2-4.76,6.92,6.92,0,0,1,4.88-1.84,6.62,6.62,0,0,1,4.87,2l-1.58,2a5.12,5.12,0,0,0-3.34-1.44,4.2,4.2,0,0,0-2.91,1.11,3.7,3.7,0,0,0-1.24,2.88,4.17,4.17,0,0,0,4.24,4.21,4.67,4.67,0,0,0,3.37-1.63l1.58,1.73A7.33,7.33,0,0,1,222.65,643Z"/><path class="cls-1" d="M233.49,635.94v6.91h-2.68V625.07h2.68v7.34a4.37,4.37,0,0,1,1.74-1.85,4.94,4.94,0,0,1,2.51-.67,4.73,4.73,0,0,1,3.49,1.32,5.13,5.13,0,0,1,1.34,3.82v7.82h-2.69v-7q0-3.52-2.93-3.53a3.48,3.48,0,0,0-2.42.93A3.42,3.42,0,0,0,233.49,635.94Z"/><path class="cls-1" d="M258.19,637.64h-10a3,3,0,0,0,1.27,2.25,4.53,4.53,0,0,0,2.69.85,4.48,4.48,0,0,0,3.65-1.51l1.54,1.68A7.16,7.16,0,0,1,252,643a6.36,6.36,0,0,1-4.57-1.79,6.29,6.29,0,0,1-1.89-4.8,6.19,6.19,0,0,1,1.92-4.78,6.43,6.43,0,0,1,4.53-1.78,6.56,6.56,0,0,1,4.43,1.57,5.45,5.45,0,0,1,1.82,4.33Zm-10-2.11h7.32a3,3,0,0,0-1-2.47,3.66,3.66,0,0,0-2.48-.87,4.25,4.25,0,0,0-2.65.9A2.91,2.91,0,0,0,248.18,635.53Z"/><path class="cls-1" d="M271.49,642.85H269v-1.7a5.26,5.26,0,0,1-4.25,1.89,4.83,4.83,0,0,1-3.3-1.13,3.77,3.77,0,0,1-1.31-3,3.2,3.2,0,0,1,1.39-2.82,6.72,6.72,0,0,1,3.77-.93h3.48v-.48c0-1.7-.94-2.55-2.83-2.55a6.62,6.62,0,0,0-3.7,1.3l-1.19-1.68a8.26,8.26,0,0,1,5.27-1.85,5.73,5.73,0,0,1,3.69,1.14,4.33,4.33,0,0,1,1.43,3.59Zm-2.69-4.75V637h-3c-1.93,0-2.9.61-2.9,1.82a1.62,1.62,0,0,0,.72,1.43,3.51,3.51,0,0,0,2,.49,3.64,3.64,0,0,0,2.24-.72A2.3,2.3,0,0,0,268.8,638.1Z"/><path class="cls-1" d="M282.07,629.89a6,6,0,0,1,4.39,1.78,6.27,6.27,0,0,1,1.83,4.72,6.56,6.56,0,0,1-1.82,4.8,5.61,5.61,0,0,1-8.55-.26v6.58h-2.69V630.08h2.69v2.23A4.78,4.78,0,0,1,282.07,629.89Zm-4.2,6.6a4.19,4.19,0,0,0,1.1,3,3.6,3.6,0,0,0,2.69,1.16,3.79,3.79,0,0,0,2.76-1.15,4,4,0,0,0,1.18-3,4.3,4.3,0,0,0-1.15-3,3.71,3.71,0,0,0-2.76-1.21,3.56,3.56,0,0,0-2.72,1.21A4.37,4.37,0,0,0,277.87,636.49Z"/><path class="cls-1" d="M303.24,637.64h-10a2.92,2.92,0,0,0,1.27,2.25,5,5,0,0,0,6.34-.66l1.53,1.68A7.14,7.14,0,0,1,297,643a6.3,6.3,0,0,1-6.46-6.59,6.19,6.19,0,0,1,1.92-4.78,6.43,6.43,0,0,1,4.53-1.78,6.52,6.52,0,0,1,4.42,1.57,5.42,5.42,0,0,1,1.83,4.33Zm-10-2.11h7.32a3.08,3.08,0,0,0-1-2.47,3.66,3.66,0,0,0-2.48-.87,4.23,4.23,0,0,0-2.65.9A2.91,2.91,0,0,0,293.23,635.53Z"/><path class="cls-1" d="M312.88,632.6a3.57,3.57,0,0,0-3,1.3,5.52,5.52,0,0,0-1,3.48v5.47h-2.69V630.08h2.69v2.57a5.56,5.56,0,0,1,1.76-2,4.28,4.28,0,0,1,2.37-.79l0,2.71Z"/><path class="cls-2" d="M71.55,453.18l-6.1.1c-.36,0-.54-.16-.54-.47v-4.67c0-.31.18-.47.54-.47l6.1.1h28.92l6.12-.1c.34,0,.51.16.51.47v4.67c0,.31-.17.47-.51.47l-6.12-.1Z"/><path class="cls-2" d="M112.89,445l-1.48-4.86q14.49-3.37,20.07-3.37,6.72,0,10,4.22,2.9,3.72,2.9,10.62,0,9.38-7.29,13.68-5.25,3.08-15.56,4.17l-1.87-4.71q9.1-.63,13.73-3.16,5.72-3.14,5.72-10.08c0-3.9-.82-6.68-2.46-8.32a7.46,7.46,0,0,0-5.46-1.9Q125.95,441.25,112.89,445Z"/><path class="cls-2" d="M157.49,470.39l-6.09.09c-.27,0-.42,0-.47-.09a.83.83,0,0,1-.07-.43v-4.38c0-.25,0-.4.09-.44a.84.84,0,0,1,.45-.07l6.09.09h10.13V438.09a57.24,57.24,0,0,0-.4-8c2.37.07,4.25.17,5.62.33q.87.09.87.63a5,5,0,0,1-.35,1.11,18.34,18.34,0,0,0-.33,4.59v7.59h9.4l5.91-.09a.73.73,0,0,1,.46.09.81.81,0,0,1,.07.42v4.39c0,.25,0,.4-.11.44s-.19.07-.42.07l-5.91-.09H173v15.61h13.1l6.1-.09c.25,0,.39,0,.44.09a.76.76,0,0,1,.07.42V470a.77.77,0,0,1-.08.44.75.75,0,0,1-.43.08l-6.1-.09Z"/><path class="cls-2" d="M218.29,438.09q-.91,15.8-4.69,24.33a11.44,11.44,0,0,1-3.61,5,6.94,6.94,0,0,1-4,1.12q-3.82,0-6-3.87-2.06-3.58-2.06-9.61,0-9.72,5.46-15.51a16.1,16.1,0,0,1,6.09-4.06,19,19,0,0,1,6.92-1.26q16.38,0,16.38,18.82,0,14.7-15.66,18.19l-2.48-4.08q7.35-1.45,10.4-5.63c1.65-2.26,2.47-5.32,2.47-9.16q0-7.54-3.07-11.25A8.14,8.14,0,0,0,218.29,438.09Zm-5,.33c-2.61.28-5,1.8-7.15,4.57q-3.54,4.54-3.54,12.23a14.32,14.32,0,0,0,1.19,6.56q.91,1.74,2.25,1.74a2.45,2.45,0,0,0,1.86-.78,7.35,7.35,0,0,0,1.35-2.53,60.94,60.94,0,0,0,2.79-10.71A77.36,77.36,0,0,0,213.3,438.42Z"/><path class="cls-2" d="M247.14,439.87a48.8,48.8,0,0,1-9.35,13.43l-4-3a39.9,39.9,0,0,0,11.13-19.78l5.53.87c-.75,2.16-1.23,3.5-1.45,4h14.79l1.24,1.73q-2.53,15.74-9.7,24.12-5.53,6.52-15.59,10.6l-3.12-3.9q10.23-3.93,15.73-11.22,5-6.66,6.73-16.9Z"/><path class="cls-2" d="M264,442.73h28.45q-.62,14.41-6.87,21.14-4.92,5.28-15.35,7.85l-2.44-4q10-2.49,14.51-7.87,3.94-4.74,4.46-12.61H264Zm3-10h22.95v4.43H266.94Z"/><path class="cls-2" d="M315,452.39a111.77,111.77,0,0,1,11,15.7l-5,3.16a87.59,87.59,0,0,0-8.83-14.39A47.21,47.21,0,0,1,295,471.16L292,467a39.44,39.44,0,0,0,15.73-12.93,41.43,41.43,0,0,0,6.84-15.68H295v-4.55h24.73l1.34,1.8A61.46,61.46,0,0,1,315,452.39Z"/><path class="cls-1" d="M100.13,491.42l.16,4.69a17.68,17.68,0,0,0-8.11,1.78q-9.65,5.21-9.65,15t14.43,11L95.72,529q-18-1.65-18-15.85a17.68,17.68,0,0,1,2.91-9.93,20.78,20.78,0,0,1,7-6.43l2.3-.91-.09-.33-2.63.7q-6,.74-18.12,2l-.42-4.78Q82.15,492.45,100.13,491.42Zm-7.85,11.09,3.21-.91a46.06,46.06,0,0,1,3.49,8l-3.3,1.11A40.39,40.39,0,0,0,92.28,502.51Zm5.79-1.5,3.18-1a45.73,45.73,0,0,1,3.4,7.64l-3.26,1.15A44.83,44.83,0,0,0,98.07,501Z"/><path class="cls-1" d="M115,528l-6.1.09c-.26,0-.42,0-.46-.09a.8.8,0,0,1-.08-.43v-4.38c0-.25,0-.4.1-.44a.82.82,0,0,1,.44-.07l6.1.09h10.12V495.69a55.71,55.71,0,0,0-.4-8c2.38.07,4.25.18,5.63.33.58.06.87.28.87.63a4.57,4.57,0,0,1-.36,1.11,19.14,19.14,0,0,0-.32,4.59v7.59h9.4l5.9-.09a.77.77,0,0,1,.47.09.83.83,0,0,1,.07.43v4.38c0,.25,0,.4-.12.44s-.18.07-.42.07l-5.9-.09h-9.4v15.61h13.1l6.09-.09q.38,0,.45.09a.87.87,0,0,1,.07.42v4.38a.39.39,0,0,1-.52.52l-6.09-.09Z"/><path class="cls-1" d="M175,500.49a10.12,10.12,0,0,0,3-3.91,11.93,11.93,0,0,0,.66-4.34,26,26,0,0,0-.21-4.21,35.69,35.69,0,0,1,4.34.75,57,57,0,0,0,8.57-1.29,14.28,14.28,0,0,0,2.25-.82,20,20,0,0,1,2.56,2.78,1.48,1.48,0,0,1,.44.92c0,.31-.19.47-.58.47h-.66a8.3,8.3,0,0,0-1.26.09,79.64,79.64,0,0,1-11,1.36v1.62l0,.58h8.48l6.59-.09q.33,0,.42.12a1.24,1.24,0,0,1,0,.44v2.74c0,.36-.16.54-.47.54l-6.59-.09h-.19v2.3c0,1.22,0,2,.05,2.34l1.15-.05a.75.75,0,0,1,.47.1.94.94,0,0,1,.07.44l-.1,4.9v9.54l.1,4.83a.94.94,0,0,1-.08.49.73.73,0,0,1-.46.09l-6.66-.09H185q5.4,3,13.88,3.8a14.24,14.24,0,0,0-1.78,2.88c-.39.83-.76,1.24-1.11,1.24a6.76,6.76,0,0,1-1.1-.14A37.73,37.73,0,0,1,181.5,526c-.22-.13-.32-.23-.32-.31s.15-.2.46-.42l2.77-2.25H169.5a26.71,26.71,0,0,1,2.86,1.83c.42.28.64.52.64.73s-.25.57-.73.65c-.22.06-.84.34-1.88.82a39,39,0,0,1-10.87,3.66,6.81,6.81,0,0,1-1.06.14q-.56,0-1.17-1.2a10.69,10.69,0,0,0-1.87-2.74,37.93,37.93,0,0,0,11.67-2.88,11.08,11.08,0,0,0,1.69-1l-6.59.09c-.26,0-.43,0-.49-.11a.94.94,0,0,1-.07-.47l.09-4.83v-9.54l-.09-4.9c0-.26,0-.42.09-.47a1,1,0,0,1,.47-.07l4.95.1,0-2.35v-2.34h-4.26a16.89,16.89,0,0,1-3,6.42c-.45.64-.75,1-.91,1s-.51-.27-1-.82a13.35,13.35,0,0,0-3-2.25,10.58,10.58,0,0,0,3.3-5.11,18.56,18.56,0,0,0,.64-5.34,23.3,23.3,0,0,0-.24-3.89c1.72.2,3.16.42,4.31.66a47,47,0,0,0,8.07-1.29,6.45,6.45,0,0,0,2.25-.82,17.85,17.85,0,0,1,2.6,2.78,1.61,1.61,0,0,1,.49.9c0,.35-.24.53-.73.53h-.49a5.71,5.71,0,0,0-1.33.15,79.65,79.65,0,0,1-10.48,1.31v2.15h6.87l5.81-.09c.25,0,.4,0,.44.12a.82.82,0,0,1,.07.44v2.74c0,.27,0,.43-.09.47a.76.76,0,0,1-.42.07l-.59,0-3.68-.07v2.34c0,1.22,0,2,.05,2.35h6.87a2.12,2.12,0,0,1-.73-.52A11.42,11.42,0,0,0,175,500.49Zm13.15,5.91H166.53v2.25h21.58ZM166.53,514h21.58v-2.3H166.53Zm21.58,5.51v-2.44H166.53v2.44Zm-8-17.51a2.9,2.9,0,0,1-.87.82h7.5l.05-2.39v-2.3h-4.43A11.79,11.79,0,0,1,180.1,502Z"/><path class="cls-1" d="M216.28,495.78q3.53-.25,6.31-.63l.09,4.22q-4.62.47-7.5.63a127.73,127.73,0,0,1-8.53,22.13L202,520a95.93,95.93,0,0,0,8.25-19.78c-2.42.06-4.15.09-5.18.09l-2.3-.05-.09-4.17c.73,0,1.82.05,3.26.05,1.15,0,2.94,0,5.36-.1q.75-3.26,1.41-7.92l5.13.68C217.47,490.63,217,493,216.28,495.78Zm8.79,19.53q-.37-3.61-.42-11.65h4.69a123.88,123.88,0,0,0,.49,12.61,34,34,0,0,1,9.17,5.81l-2.7,4.52a25.32,25.32,0,0,0-6.47-5.43v1.19a6,6,0,0,1-2.62,5.27,11.29,11.29,0,0,1-6.5,1.65q-4.68,0-7-2.07a6.25,6.25,0,0,1-1.95-4.9,6.39,6.39,0,0,1,3.22-5.69,11.92,11.92,0,0,1,6.46-1.64A17.42,17.42,0,0,1,225.07,515.31Zm.19,4.38a9.17,9.17,0,0,0-3.54-.63q-5.62,0-5.62,3.21,0,3,4.71,3,4.51,0,4.52-3.84c0-.06,0-.16,0-.28Zm0-21.52,2.2-3.89a49.89,49.89,0,0,1,11.86,5.49L236.84,504A40.06,40.06,0,0,0,225.26,498.17Z"/><path class="cls-1" d="M286.36,524.92A9.49,9.49,0,0,0,284,528.6c-.28.6-.51.91-.68.91s-.43-.2-.82-.59A32.49,32.49,0,0,1,275.21,518a49.06,49.06,0,0,1-3-11.51l-1.93,1.31v16.08l.1,6c0,.25,0,.4-.1.44a.76.76,0,0,1-.42.07h-4c-.25,0-.39,0-.44-.09a.76.76,0,0,1-.07-.42l.09-6V510.69l-2.34,1.17a3.18,3.18,0,0,1-1.1.33c-.3,0-.57-.41-.82-1.24a9.45,9.45,0,0,0-1.5-2.51V509q0,12.82-1.34,16.87a4.79,4.79,0,0,1-5,3.75c-.8,0-1.52,0-2.16,0a1.05,1.05,0,0,1-.77-.28,3.15,3.15,0,0,1-.23-1.06,11.59,11.59,0,0,0-1.11-3.66,17.57,17.57,0,0,0,3.26.33,1.62,1.62,0,0,0,1.48-.63,6.56,6.56,0,0,0,.63-2.11q.59-3,.73-14.48h-4.29a67.51,67.51,0,0,1-1.76,12.46,32.66,32.66,0,0,1-3.56,8.65c-.31.55-.6.82-.87.82s-.54-.25-.82-.77a10.57,10.57,0,0,0-2.67-3.07,28.51,28.51,0,0,0,4.64-12.66,125.51,125.51,0,0,0,.82-15l-3,.07-.93,0c-.25,0-.4,0-.45-.11a.87.87,0,0,1-.07-.45v-3.47c0-.25,0-.4.09-.44a.83.83,0,0,1,.43-.07l5.34.09h1.66v-2.44a23.94,23.94,0,0,0-.33-4.66c2.11.06,3.79.16,5,.28.55.06.82.23.82.49a3.05,3.05,0,0,1-.28.92,8.56,8.56,0,0,0-.3,3v2.44h.58l5.37-.09a.4.4,0,0,1,.54.51v3.47c0,.27,0,.43-.12.49s-.18.07-.42.07l-5.37-.09h-4c-.09,3.36-.14,5.1-.14,5.23h5.27l2.89-.1c.37,0,.56.2.56.59s-.06,1.73-.14,4.26a42,42,0,0,0,14.27-8.64,13.65,13.65,0,0,0,2.06-2.49h-8.5a30,30,0,0,1-3.71,5.51q-.71.87-1.05.87c-.17,0-.56-.28-1.15-.82a12.25,12.25,0,0,0-2.7-1.88,24,24,0,0,0,4.46-5.58,32,32,0,0,0,2.41-5.62,14,14,0,0,0,.59-3c1.11.16,2.59.43,4.45.82q.87.24.87.66a1.07,1.07,0,0,1-.38.73,4.37,4.37,0,0,0-.91,1.73l-.82,2.25h10.29l5.36-.09q.38,0,.45.09a.78.78,0,0,1,.07.42v3.52c0,.25,0,.4-.09.44a.8.8,0,0,1-.43.08l-5.36-.1h-3.61a32.67,32.67,0,0,1,3.51,2.44,1.1,1.1,0,0,1,.43.82c0,.26-.25.48-.73.63a9.48,9.48,0,0,0-2.2,1.62l-1.34,1.19a50.64,50.64,0,0,0,1.19,6.59,35.63,35.63,0,0,0,3.36-2.93,14.71,14.71,0,0,0,1.73-2.11,19.17,19.17,0,0,1,3.07,2.74,1.14,1.14,0,0,1,.38.8c0,.34-.23.59-.68.73a6.58,6.58,0,0,0-1.76,1.24,47.31,47.31,0,0,1-4.67,3.8A26.52,26.52,0,0,0,286.36,524.92Z"/><path class="cls-1" d="M304.29,493.67q6.82-.3,12.42-.86l.19,4.17q-8.34.6-14.67.87a31.54,31.54,0,0,1-3.75,5.46l-1.1,1.05.14.21,1.19-.87a7.14,7.14,0,0,1,4.13-1.35,5.54,5.54,0,0,1,4,1.54,7,7,0,0,1,1.9,3.8c1.29-.59,4.5-2,9.6-4.17l1.88,4.5q-6.42,2.13-11.25,4.26v9.33h-4.5v-7.19a25.19,25.19,0,0,0-5.81,3.84,4.06,4.06,0,0,0-1.29,2.86,2.7,2.7,0,0,0,1.83,2.74c1.26.52,3.5.77,6.7.77q5.41,0,12.44-.68l.24,4.48q-6.45.47-13.24.47c-5.07,0-8.5-.73-10.32-2.18q-2.08-1.66-2.08-5.25a8.23,8.23,0,0,1,2.53-6q2.63-2.65,8.95-5.72a5.43,5.43,0,0,0-.79-3.07,2.25,2.25,0,0,0-1.76-.63q-2.29,0-5.3,2.53a47.62,47.62,0,0,0-5.39,5.62l-3.56-3.07A53,53,0,0,0,297.38,498c-.91,0-2.17,0-3.8,0q-1.54,0-4.71-.09v-4.22c2,.09,3.8.14,5.34.14,2.21,0,3.9,0,5.09-.05a58.53,58.53,0,0,0,2-6.28l4.94.8Q305.37,491,304.29,493.67Z"/><path class="cls-3" d="M156.86,158.2q-5.27-7.3-5.27-19.54t5.27-19.55q5.26-7.29,15.87-7.3t15.87,7.3q5.27,7.32,5.27,19.55T188.6,158.2q-5.26,7.31-15.87,7.31T156.86,158.2Zm6.27-33.56q-3.09,5.34-3.08,14t3.08,14a10.3,10.3,0,0,0,9.6,5.34q6.53,0,9.53-5.31t3-14.05q0-8.76-3-14.06t-9.53-5.3A10.3,10.3,0,0,0,163.13,124.64Z"/><path class="cls-3" d="M204,120.86v-7.79h30.33v6.82l-12.53,14q7.11.22,11.12,4.49a14.37,14.37,0,0,1,4,10.2q0,7.93-5.38,12.46t-13.83,4.52a29.39,29.39,0,0,1-16.54-5.41l3.71-7a23,23,0,0,0,13.35,4.45,12.41,12.41,0,0,0,7.45-2.11,7.05,7.05,0,0,0,2.93-6.08,7.49,7.49,0,0,0-3.26-6.35q-3.27-2.37-9-2.37a18.82,18.82,0,0,0-5.57.82V134.8l12-13.94Z"/><g class="cls-4"><path class="cls-5" d="M100.51,165.09H41.11c0-1.9,0-3.82.12-5.72l59.34,2.54C100.53,163,100.51,164,100.51,165.09ZM288,164.33c0-1.07-.05-2.15-.1-3.2L347.19,158c.1,1.89.16,3.81.18,5.71Zm-187.2-5.59L41.6,153.65c.16-1.9.37-3.82.61-5.69l58.91,7.62C101,156.62,100.87,157.69,100.78,158.74ZM287.64,158c-.1-1.05-.23-2.1-.37-3.14l58.82-8.27c.26,1.89.49,3.81.67,5.71Zm-186-5.52L43.07,142.29c.33-1.89.7-3.79,1.11-5.65l58,12.71C102,150.37,101.77,151.41,101.59,152.45Zm185.17-.75c-.19-1-.41-2.09-.65-3.11l57.9-13.3c.42,1.85.81,3.74,1.16,5.61ZM103,146.25,45.52,131.07c.49-1.85,1-3.71,1.59-5.53l56.72,17.66C103.52,144.2,103.22,145.23,103,146.25Zm182.39-.74c-.28-1-.59-2-.91-3L341,124.26c.58,1.81,1.13,3.65,1.63,5.47Zm-180.5-5.35-55.91-20c.64-1.78,1.32-3.58,2-5.34l55,22.4C105.58,138.17,105.2,139.17,104.84,140.16Zm178.55-.7c-.37-1-.76-2-1.17-3L337,113.56c.74,1.76,1.44,3.54,2.09,5.31Zm-176.13-5.22-54-24.7c.79-1.71,1.62-3.44,2.48-5.12l52.94,26.92C108.17,132.3,107.7,133.27,107.26,134.24Zm173.66-.67c-.45-1-.93-1.93-1.42-2.88l52.68-27.43c.87,1.67,1.72,3.38,2.52,5.09Zm-170.74-5.08L58.38,99.42c.92-1.64,1.89-3.28,2.88-4.89l50.56,31.18C111.25,126.62,110.7,127.56,110.18,128.49Zm167.76-.64c-.53-.93-1.09-1.86-1.67-2.78l50.27-31.64c1,1.59,2,3.22,2.92,4.85ZM113.58,123,64.31,89.79c1-1.54,2.13-3.09,3.23-4.6l47.92,35.1C114.82,121.18,114.19,122.08,113.58,123Zm160.9-.62c-.62-.9-1.26-1.8-1.91-2.67l47.58-35.56c1.12,1.5,2.22,3,3.28,4.58Zm-157-4.66L71,80.73c1.15-1.45,2.35-2.9,3.57-4.31l45,38.73C118.83,116,118.13,116.84,117.45,117.69Zm153.1-.61c-.7-.85-1.41-1.71-2.14-2.53l44.67-39.16c1.22,1.4,2.44,2.84,3.61,4.29Zm-148.8-4.39L78.25,72.25c1.25-1.35,2.55-2.7,3.86-4l42,42.06C123.27,111.09,122.5,111.89,121.75,112.69Zm144.42-.6c-.75-.79-1.54-1.59-2.34-2.37l41.55-42.46c1.33,1.31,2.65,2.65,3.92,4ZM126.46,108,86.12,64.4c1.34-1.24,2.74-2.49,4.14-3.69L129,105.78C128.1,106.51,127.26,107.25,126.46,108Zm134.93-.58c-.82-.75-1.67-1.49-2.52-2.21l38.25-45.45c1.41,1.2,2.83,2.43,4.2,3.68Zm-129.85-3.78-37-46.47C96,56,97.45,54.89,98.93,53.8l35.28,47.79C133.31,102.25,132.41,102.94,131.54,103.64Zm124.72-.55c-.89-.69-1.81-1.38-2.72-2l34.83-48.12c1.48,1.08,3,2.2,4.42,3.33ZM137,99.63l-33.53-49c1.51-1,3-2.05,4.6-3l31.76,50.2C138.85,98.37,137.89,99,137,99.63Zm113.79-.51c-.93-.63-1.88-1.24-2.84-1.84l31.27-50.5c1.56,1,3.13,2,4.64,3ZM142.71,96l-30-51.29c1.57-.92,3.19-1.82,4.8-2.69l28.13,52.31C144.67,94.87,143.67,95.44,142.71,96ZM245,95.54c-1-.56-2-1.11-3-1.63l27.62-52.59c1.62.86,3.25,1.75,4.83,2.65Zm-96.28-2.76L122.44,39.5c1.64-.81,3.3-1.59,5-2.34l24.4,54.15C150.77,91.78,149.72,92.27,148.71,92.78ZM239,92.37c-1-.49-2.06-1-3.1-1.42l23.88-54.39c1.68.73,3.36,1.51,5,2.3ZM155,90,132.44,35c1.69-.69,3.4-1.36,5.11-2l20.59,55.72C157.08,89.11,156,89.53,155,90Zm77.73-.34c-1.05-.42-2.13-.83-3.21-1.22l20.1-55.9c1.71.62,3.43,1.27,5.12,1.94Zm-71.29-2L142.71,31.2c1.72-.57,3.47-1.12,5.21-1.63l16.76,57C163.58,86.88,162.47,87.22,161.39,87.58Zm64.83-.28c-1.08-.35-2.19-.69-3.3-1l16.24-57.14c1.75.5,3.51,1,5.23,1.58ZM168,85.64,153.19,28.11c1.76-.45,3.54-.87,5.3-1.27l12.87,58C170.24,85.08,169.11,85.35,168,85.64Zm51.58-.23c-1.1-.27-2.24-.53-3.36-.77l12.35-58.11c1.78.38,3.56.79,5.32,1.23Zm-44.83-1.27L163.83,25.75c1.77-.33,3.58-.63,5.36-.91l9,58.72C177,83.73,175.88,83.93,174.75,84.14ZM212.82,84c-1.13-.2-2.28-.38-3.42-.54l8.45-58.8c1.79.26,3.6.55,5.38.86Zm-31.22-.88-7-59c1.78-.21,3.59-.4,5.39-.55l5.09,59.18C183.91,82.84,182.75,83,181.6,83.09ZM206,83c-1.14-.13-2.3-.24-3.45-.33l4.55-59.22c1.8.14,3.63.31,5.41.5Zm-17.41-.49L185.4,23.18c1.79-.09,3.61-.16,5.41-.2L192,82.37C190.86,82.39,189.69,82.44,188.54,82.5Zm10.48,0c-1.16,0-2.34-.08-3.5-.09l.71-59.4c1.8,0,3.62.07,5.41.15Z"/></g><g class="cls-6"><rect class="cls-7" x="17.26" y="558.29" width="353.96" height="6.97" rx="3.48" ry="3.48"/></g><path class="cls-7" d="M234,297.69H154.51a6.38,6.38,0,0,0-6.37,6.37v47.57a6.38,6.38,0,0,0,6.37,6.37H234a6.38,6.38,0,0,0,6.37-6.37V304.06A6.38,6.38,0,0,0,234,297.69Zm2.12,53.94a2.12,2.12,0,0,1-2.12,2.12H207.33V343.26a1.81,1.81,0,0,0-3.62,0v10.49h-49.2a2.12,2.12,0,0,1-2.12-2.12V304.06a2.12,2.12,0,0,1,2.12-2.12h49.2v10.49a1.81,1.81,0,0,0,3.62,0V301.94H234a2.12,2.12,0,0,1,2.12,2.12Z"/><path class="cls-7" d="M205.52,320.63a1.81,1.81,0,0,0-1.81,1.81v10.81a1.81,1.81,0,0,0,3.62,0V322.44A1.81,1.81,0,0,0,205.52,320.63Z"/><path class="cls-7" d="M225.23,322a2.13,2.13,0,0,0,0-4.25h-6.65a2.13,2.13,0,1,0,0,4.25h1.2v11.69h-1.2a2.13,2.13,0,1,0,0,4.25h6.65a2.13,2.13,0,0,0,0-4.25H224V322Z"/><path class="cls-7" d="M192.34,313.49a2,2,0,0,0-2.8,0l-26,26a2,2,0,1,0,2.81,2.8l26-26A2,2,0,0,0,192.34,313.49Z"/><path class="cls-7" d="M168.34,326.13h0a7.65,7.65,0,0,0,7.88-7.68,7.43,7.43,0,0,0-2.17-5.29,7.85,7.85,0,0,0-5.53-2.36,7.38,7.38,0,0,0-5.31,2.18,7.72,7.72,0,0,0-2.33,5.52A7.63,7.63,0,0,0,168.34,326.13Zm-2.15-10a3.41,3.41,0,0,1,2.38-1.05h0a3.3,3.3,0,0,1,2.33,1,3.39,3.39,0,0,1,1,2.36h0a3.4,3.4,0,0,1-3.34,3.35h0a3.42,3.42,0,0,1-3.37-3.33A3.29,3.29,0,0,1,166.19,316.17Z"/><path class="cls-7" d="M187.32,329.56a7.43,7.43,0,0,0-5.31,2.19,7.7,7.7,0,0,0-2.32,5.51,7.62,7.62,0,0,0,7.42,7.63h0a7.66,7.66,0,0,0,7.89-7.68,7.43,7.43,0,0,0-2.18-5.28A7.8,7.8,0,0,0,187.32,329.56Zm3.37,7.68a3.41,3.41,0,0,1-3.33,3.35h0a3.41,3.41,0,0,1-3.36-3.34,3.3,3.3,0,0,1,1-2.32,3.46,3.46,0,0,1,2.38-1h0a3.24,3.24,0,0,1,2.32,1,3.34,3.34,0,0,1,1,2.36Z"/><path class="cls-7" d="M190.36,252.58a4.18,4.18,0,0,0-3.77,1.14h0a4.17,4.17,0,0,0,1.31,6.78l6.63,2.84,2.84,6.63a4.13,4.13,0,0,0,3,2.45,4.32,4.32,0,0,0,.79.08,4.16,4.16,0,0,0,3-1.22l0,0a4.14,4.14,0,0,0,1.11-3.73l-1-5.09,3.88-3.87,5,10.6a4.07,4.07,0,0,0,6.56,1.16l.14-.14a4,4,0,0,0,1.16-3.35L218.75,248l5.09-5.1A6.24,6.24,0,1,0,215,234l-5.25,5.24-18.87-2.22a4.07,4.07,0,0,0-2.24,7.71l10.56,5.07-3.77,3.77Zm7.29,4.83,6.69-6.7a2.11,2.11,0,0,0-.58-3.41l-12.28-5.9,18.82,2.21a2.11,2.11,0,0,0,1.75-.6l6-6a2,2,0,0,1,2.82,2.82L215,245.67a2.11,2.11,0,0,0-.61,1.75l2.27,19.34-6-12.76a2.16,2.16,0,0,0-1.56-1.19,2.13,2.13,0,0,0-1.87.59l-6.82,6.82a2.13,2.13,0,0,0-.58,1.92L201,267.6l-2.87-6.71a2.19,2.19,0,0,0-1.12-1.12l-6.7-2.87,5.45,1.09A2.13,2.13,0,0,0,197.65,257.41Z"/><path class="cls-7" d="M168.77,265.73a2.1,2.1,0,0,0,1.5-.62L184,251.39a2.12,2.12,0,1,0-3-3l-13.72,13.72a2.12,2.12,0,0,0,1.51,3.62Z"/><path class="cls-7" d="M208.58,276,194.86,289.7a2.12,2.12,0,1,0,3,3L211.58,279a2.12,2.12,0,0,0-3-3Z"/><path class="cls-7" d="M187.77,269.2l-13.72,13.71a2.12,2.12,0,1,0,3,3l13.72-13.72a2.12,2.12,0,0,0-3-3Z"/></svg>