<svg id="Layer_1" data-name="Layer 1" xmlns="http://www.w3.org/2000/svg" viewBox="0 0 388.48 670.47"><defs><style>.cls-1{fill:#202020;}.cls-2{fill:#f1c40f;}.cls-3{fill:#313b43;}.cls-4{opacity:0.6;}.cls-5{fill:#415973;}.cls-6{opacity:0.2;}.cls-7{fill:#5fa2f4;}</style></defs><title>Card 02</title><path class="cls-1" d="M79.69,602q0,4.15-3.62,5.23l4.39,6.1h-3.6l-4-5.64H69.13v5.64H66.3V596.59h6.24q3.84,0,5.5,1.3A5,5,0,0,1,79.69,602Zm-3.76,2.38a3,3,0,0,0,.86-2.39,2.57,2.57,0,0,0-.89-2.26,5.9,5.9,0,0,0-3.17-.61h-3.6v6h3.53A5.26,5.26,0,0,0,75.93,604.42Z"/><path class="cls-1" d="M95.27,608.16h-10a2.88,2.88,0,0,0,1.27,2.24,4.92,4.92,0,0,0,6.34-.66l1.53,1.68A7.1,7.1,0,0,1,89,613.56a6.4,6.4,0,0,1-4.57-1.79,6.29,6.29,0,0,1-1.89-4.8,6.22,6.22,0,0,1,1.92-4.79A6.46,6.46,0,0,1,89,600.41,6.56,6.56,0,0,1,93.45,602a5.43,5.43,0,0,1,1.82,4.33Zm-10-2.11h7.32a3.08,3.08,0,0,0-1-2.47,3.66,3.66,0,0,0-2.48-.87,4.25,4.25,0,0,0-2.65.9A2.89,2.89,0,0,0,85.26,606.05Z"/><path class="cls-1" d="M103.88,613.56a6.44,6.44,0,0,1-4.58-1.81,6.75,6.75,0,0,1,.08-9.51,7,7,0,0,1,4.89-1.83,6.62,6.62,0,0,1,4.87,2l-1.58,1.94a5.12,5.12,0,0,0-3.34-1.44A4.25,4.25,0,0,0,101.3,604a3.7,3.7,0,0,0-1.23,2.88,4.17,4.17,0,0,0,4.23,4.21,4.68,4.68,0,0,0,3.38-1.63l1.58,1.73A7.33,7.33,0,0,1,103.88,613.56Z"/><path class="cls-1" d="M123.92,608.16h-10a2.86,2.86,0,0,0,1.27,2.24,4.91,4.91,0,0,0,6.33-.66l1.54,1.68a7.13,7.13,0,0,1-5.38,2.14,6.41,6.41,0,0,1-4.57-1.79,6.32,6.32,0,0,1-1.88-4.8,6.22,6.22,0,0,1,1.92-4.79,6.46,6.46,0,0,1,4.52-1.77A6.54,6.54,0,0,1,122.1,602a5.4,5.4,0,0,1,1.82,4.33Zm-10-2.11h7.32a3.08,3.08,0,0,0-1-2.47,3.67,3.67,0,0,0-2.49-.87,4.27,4.27,0,0,0-2.65.9A2.91,2.91,0,0,0,113.92,606.05Z"/><path class="cls-1" d="M127,598.06a1.68,1.68,0,0,1-.5-1.21,1.72,1.72,0,0,1,1.7-1.7,1.74,1.74,0,0,1,1.71,1.7,1.72,1.72,0,0,1-1.71,1.71A1.67,1.67,0,0,1,127,598.06Zm2.52,15.31h-2.68V600.6h2.68Z"/><path class="cls-1" d="M136.84,613.37,131.7,600.6h2.78l3.89,9.65,3.89-9.65H145l-5.13,12.77Z"/><path class="cls-1" d="M159.06,608.16h-10a2.91,2.91,0,0,0,1.27,2.24,4.92,4.92,0,0,0,6.34-.66l1.54,1.68a7.13,7.13,0,0,1-5.38,2.14,6.4,6.4,0,0,1-4.57-1.79,6.29,6.29,0,0,1-1.89-4.8,6.22,6.22,0,0,1,1.92-4.79,6.46,6.46,0,0,1,4.53-1.77,6.56,6.56,0,0,1,4.43,1.57,5.43,5.43,0,0,1,1.82,4.33Zm-10-2.11h7.32a3,3,0,0,0-1-2.47,3.66,3.66,0,0,0-2.48-.87,4.25,4.25,0,0,0-2.65.9A2.89,2.89,0,0,0,149.05,606.05Z"/><path class="cls-1" d="M170.2,618.46a4.62,4.62,0,0,1-3.17-1.28l1.22-2.18a2.52,2.52,0,0,0,1.74.79,1.84,1.84,0,0,0,1.47-.65,2.12,2.12,0,0,0,.56-1.41q0-.35-5.16-13.13h2.88l3.81,9.41,3.82-9.41h2.88l-6.19,15.17a4.64,4.64,0,0,1-1.59,2A3.85,3.85,0,0,1,170.2,618.46Z"/><path class="cls-1" d="M192.83,611.65a7,7,0,0,1-9.6,0,6.63,6.63,0,0,1,0-9.33,7,7,0,0,1,9.6,0,6.63,6.63,0,0,1,0,9.33Zm-7.7-1.65a4.19,4.19,0,0,0,5.79,0,4.56,4.56,0,0,0,0-6,4.19,4.19,0,0,0-5.79,0,4.56,4.56,0,0,0,0,6Z"/><path class="cls-1" d="M206.72,607.51V600.6h2.69v12.77h-2.69V611a4.82,4.82,0,0,1-1.79,1.85,5.1,5.1,0,0,1-6-.65,5.13,5.13,0,0,1-1.33-3.82V600.6h2.69v7c0,2.35,1,3.53,2.93,3.53a3.51,3.51,0,0,0,2.42-.93A3.41,3.41,0,0,0,206.72,607.51Z"/><path class="cls-1" d="M220,603.12a3.57,3.57,0,0,0-3,1.3,5.52,5.52,0,0,0-1,3.48v5.47H213.3V600.6H216v2.57a5.56,5.56,0,0,1,1.76-2,4.2,4.2,0,0,1,2.36-.79l0,2.71Z"/><path class="cls-1" d="M232.09,606.46v6.91H229.4V600.6h2.69v2.33a5,5,0,0,1,7.74-1.2,5.12,5.12,0,0,1,1.33,3.81v7.83h-2.69v-7c0-2.35-1-3.53-2.93-3.53a3.51,3.51,0,0,0-2.42.93A3.41,3.41,0,0,0,232.09,606.46Z"/><path class="cls-1" d="M253.83,607.51V600.6h2.69v12.77h-2.69V611a4.82,4.82,0,0,1-1.79,1.85,5.1,5.1,0,0,1-5.95-.65,5.17,5.17,0,0,1-1.33-3.82V600.6h2.69v7c0,2.35,1,3.53,2.93,3.53a3.51,3.51,0,0,0,2.42-.93A3.41,3.41,0,0,0,253.83,607.51Z"/><path class="cls-1" d="M263.1,606.46v6.91h-2.69V600.6h2.69v2.33a4.2,4.2,0,0,1,1.74-1.85,4.88,4.88,0,0,1,2.5-.67,4.06,4.06,0,0,1,4.11,2.49,5.73,5.73,0,0,1,4.73-2.49,4.74,4.74,0,0,1,3.49,1.32,5.12,5.12,0,0,1,1.33,3.81v7.83h-2.69v-7c0-2.35-1-3.53-2.93-3.53a3.51,3.51,0,0,0-2.38.88,3.29,3.29,0,0,0-1.07,2.55v7.11h-2.69v-7a4.46,4.46,0,0,0-.65-2.68,2.41,2.41,0,0,0-2-.85,3.51,3.51,0,0,0-2.42.93A3.41,3.41,0,0,0,263.1,606.46Z"/><path class="cls-1" d="M291.58,600.41a6.09,6.09,0,0,1,4.4,1.77,6.33,6.33,0,0,1,1.82,4.73,6.55,6.55,0,0,1-1.81,4.8,5.62,5.62,0,0,1-8.56-.26v1.92h-2.69V595.56h2.69v7.27A4.79,4.79,0,0,1,291.58,600.41Zm-4.2,6.6a4.17,4.17,0,0,0,1.11,3,3.57,3.57,0,0,0,2.69,1.16,3.83,3.83,0,0,0,2.76-1.15,4,4,0,0,0,1.17-3,4.25,4.25,0,0,0-1.15-3,3.67,3.67,0,0,0-2.76-1.21,3.51,3.51,0,0,0-2.71,1.21A4.33,4.33,0,0,0,287.38,607Z"/><path class="cls-1" d="M312.75,608.16h-10A2.89,2.89,0,0,0,304,610.4a4.91,4.91,0,0,0,6.33-.66l1.54,1.68a7.13,7.13,0,0,1-5.38,2.14,6.41,6.41,0,0,1-4.57-1.79,6.28,6.28,0,0,1-1.88-4.8,6.22,6.22,0,0,1,1.92-4.79,6.44,6.44,0,0,1,4.52-1.77,6.54,6.54,0,0,1,4.43,1.57,5.43,5.43,0,0,1,1.82,4.33Zm-10-2.11h7.32a3.07,3.07,0,0,0-1-2.47,3.69,3.69,0,0,0-2.49-.87,4.25,4.25,0,0,0-2.65.9A2.92,2.92,0,0,0,302.74,606.05Z"/><path class="cls-1" d="M322.4,603.12a3.55,3.55,0,0,0-3,1.3,5.52,5.52,0,0,0-1,3.48v5.47h-2.68V600.6h2.68v2.57a5.49,5.49,0,0,1,1.77-2,4.2,4.2,0,0,1,2.36-.79l0,2.71Z"/><path class="cls-1" d="M115.84,642.36a6.44,6.44,0,0,1-4.59-1.81,6.74,6.74,0,0,1,.09-9.51,7,7,0,0,1,4.88-1.83,6.62,6.62,0,0,1,4.87,2l-1.58,1.94a5.12,5.12,0,0,0-3.34-1.44,4.21,4.21,0,0,0-2.91,1.12A3.67,3.67,0,0,0,112,635.7a4.17,4.17,0,0,0,4.24,4.21,4.67,4.67,0,0,0,3.37-1.63l1.58,1.73A7.33,7.33,0,0,1,115.84,642.36Z"/><path class="cls-1" d="M134.41,640.45a7,7,0,0,1-9.6,0,6.63,6.63,0,0,1,0-9.33,7,7,0,0,1,9.6,0,6.63,6.63,0,0,1,0,9.33Zm-7.69-1.65a4.18,4.18,0,0,0,5.78,0,4.56,4.56,0,0,0,0-6,4.18,4.18,0,0,0-5.78,0,4.56,4.56,0,0,0,0,6Z"/><path class="cls-1" d="M140.36,640.54a6.55,6.55,0,0,1-1.8-4.8,6.31,6.31,0,0,1,1.85-4.76,6.14,6.14,0,0,1,4.4-1.77,4.84,4.84,0,0,1,4.12,2.16v-7h2.69v17.81h-2.69v-1.92a5,5,0,0,1-4.34,2.11A5.77,5.77,0,0,1,140.36,640.54Zm.89-4.7a4,4,0,0,0,1.18,3,3.79,3.79,0,0,0,2.76,1.15,3.57,3.57,0,0,0,2.69-1.16,4.19,4.19,0,0,0,1.1-3,4.43,4.43,0,0,0-1.1-3.05,3.55,3.55,0,0,0-2.72-1.22,3.68,3.68,0,0,0-2.76,1.22A4.29,4.29,0,0,0,141.25,635.84Z"/><path class="cls-1" d="M167.39,637h-10a2.88,2.88,0,0,0,1.27,2.24,4.92,4.92,0,0,0,6.34-.66l1.53,1.68a7.1,7.1,0,0,1-5.37,2.14,6.44,6.44,0,0,1-4.58-1.79,6.32,6.32,0,0,1-1.88-4.8,6.22,6.22,0,0,1,1.92-4.79,6.46,6.46,0,0,1,4.52-1.77,6.53,6.53,0,0,1,4.43,1.57,5.41,5.41,0,0,1,1.83,4.33Zm-10-2.11h7.32a3.08,3.08,0,0,0-1-2.47,3.66,3.66,0,0,0-2.48-.87,4.27,4.27,0,0,0-2.66.9A2.91,2.91,0,0,0,157.38,634.85Z"/><path class="cls-1" d="M177.08,626.86a1.67,1.67,0,0,1-.5-1.2,1.72,1.72,0,0,1,1.7-1.71,1.74,1.74,0,0,1,1.71,1.71,1.72,1.72,0,0,1-1.71,1.7A1.67,1.67,0,0,1,177.08,626.86Zm2.52,15.31h-2.68V629.4h2.68Z"/><path class="cls-1" d="M186.18,635.26v6.91h-2.69V629.4h2.69v2.33a5,5,0,0,1,7.74-1.2,5.12,5.12,0,0,1,1.33,3.81v7.83h-2.69v-7c0-2.35-1-3.53-2.93-3.53a3.51,3.51,0,0,0-2.42.93A3.41,3.41,0,0,0,186.18,635.26Z"/><path class="cls-1" d="M208.09,638.35a3.6,3.6,0,0,1-1.32,2.92,5.12,5.12,0,0,1-3.38,1.09,9.16,9.16,0,0,1-2.89-.5,8.81,8.81,0,0,1-2.66-1.42l1.3-2.09a7.25,7.25,0,0,0,4.32,1.68,2.24,2.24,0,0,0,1.44-.42,1.31,1.31,0,0,0,.53-1.07c0-.64-.85-1.21-2.55-1.72l-.28-.1q-4-1.08-4-3.6a3.41,3.41,0,0,1,1.38-2.84,5.66,5.66,0,0,1,3.59-1.07,7.53,7.53,0,0,1,4.18,1.29l-1,2a6,6,0,0,0-3.39-1,3.11,3.11,0,0,0-1.56.35,1.13,1.13,0,0,0-.6,1.05,1,1,0,0,0,.63.91,6.45,6.45,0,0,0,1.21.41c.52.12,1,.25,1.38.38s.79.27,1.16.43a7.89,7.89,0,0,1,1.21.67A3,3,0,0,1,208.09,638.35Z"/><path class="cls-1" d="M214.45,631.56V638a2.1,2.1,0,0,0,.48,1.45,1.71,1.71,0,0,0,1.35.54,2.29,2.29,0,0,0,1.65-.84l1.11,1.9a4.59,4.59,0,0,1-3.14,1.27,4.05,4.05,0,0,1-2.93-1.19,4.3,4.3,0,0,1-1.21-3.2v-6.41h-1.61V629.4h1.61v-4h2.69v4h3.36v2.16Z"/><path class="cls-1" d="M231.52,642.17h-2.45v-1.71a5.24,5.24,0,0,1-4.25,1.9,4.88,4.88,0,0,1-3.3-1.13,3.77,3.77,0,0,1-1.31-3,3.18,3.18,0,0,1,1.39-2.82,6.72,6.72,0,0,1,3.77-.94h3.48V634c0-1.69-.94-2.54-2.83-2.54a6.6,6.6,0,0,0-3.7,1.3l-1.2-1.68a8.23,8.23,0,0,1,5.28-1.85,5.74,5.74,0,0,1,3.69,1.14,4.32,4.32,0,0,1,1.43,3.59Zm-2.69-4.75v-1.08h-3c-1.93,0-2.9.6-2.9,1.82a1.63,1.63,0,0,0,.72,1.43,3.5,3.5,0,0,0,2,.49,3.65,3.65,0,0,0,2.25-.72A2.3,2.3,0,0,0,228.83,637.42Z"/><path class="cls-1" d="M238,635.26v6.91h-2.69V629.4H238v2.33a5,5,0,0,1,7.74-1.2,5.16,5.16,0,0,1,1.33,3.81v7.83h-2.69v-7c0-2.35-1-3.53-2.93-3.53a3.49,3.49,0,0,0-2.42.93A3.41,3.41,0,0,0,238,635.26Z"/><path class="cls-1" d="M253.91,631.56V638a2.1,2.1,0,0,0,.48,1.45,1.69,1.69,0,0,0,1.34.54,2.29,2.29,0,0,0,1.66-.84l1.1,1.9a4.57,4.57,0,0,1-3.13,1.27,4,4,0,0,1-2.93-1.19,4.27,4.27,0,0,1-1.21-3.2v-6.41h-1.61V629.4h1.61v-4h2.69v4h3.36v2.16Z"/><path class="cls-1" d="M263.31,642.17h-2.68V624.36h2.68Z"/><path class="cls-1" d="M268.81,647.26a4.64,4.64,0,0,1-3.17-1.28l1.23-2.18a2.52,2.52,0,0,0,1.74.79,1.82,1.82,0,0,0,1.46-.65,2.07,2.07,0,0,0,.56-1.41q0-.35-5.16-13.13h2.88l3.82,9.41L276,629.4h2.88l-6.2,15.17a4.55,4.55,0,0,1-1.58,2A3.91,3.91,0,0,1,268.81,647.26Z"/><path class="cls-2" d="M30.53,455.36a61.8,61.8,0,0,1,5.53,11,1,1,0,0,1,.09.35c0,.22-.21.42-.63.61l-3,1.29a2.06,2.06,0,0,1-.56.19c-.13,0-.25-.14-.36-.43-.32-1-.82-2.21-1.47-3.7a120.66,120.66,0,0,1-12.45,4,6.37,6.37,0,0,0-1.73.78,1.32,1.32,0,0,1-.75.32c-.24,0-.45-.21-.64-.63a30.24,30.24,0,0,1-1.38-4.59c1.38-.17,2.53-.33,3.45-.47V439.47l-.1-8c0-.25,0-.41.1-.47a1.06,1.06,0,0,1,.49-.07l5.51.09h6.44l4.76-.09q.38,0,.45.09a1,1,0,0,1,.07.45l-.1,5.51v9.65l.1,5.51c0,.27,0,.42-.1.47a.76.76,0,0,1-.42.07l-4.76-.09H21.51v10.31q3.63-1,6.82-2.16l-1.93-3.54a1,1,0,0,1-.14-.37c0-.16.18-.31.52-.45l2.74-1.24a1.44,1.44,0,0,1,.54-.16C30.22,455,30.37,455.12,30.53,455.36Zm-1.15-20.13H21.51v4.61h7.87Zm0,13.22v-4.58H21.51v4.58ZM44.8,459.84a24.44,24.44,0,0,0,3.45.23,1.9,1.9,0,0,0,1.54-.49,2.49,2.49,0,0,0,.38-1.57V435.79H42.88v27.8l.09,8.34q0,.54-.51.54h-4.1q-.37,0-.45-.12a.81.81,0,0,1-.07-.42l.1-9.54V441.25l-.1-9.66c0-.25,0-.39.1-.44a.76.76,0,0,1,.42-.07l5.15.09h6l5.09-.09c.26,0,.42,0,.46.09a.74.74,0,0,1,.08.42l-.1,7.76v12.19l.14,7.52c0,2.14-.41,3.65-1.24,4.53a4.46,4.46,0,0,1-2.18,1.26,19.52,19.52,0,0,1-4.12.31c-.77,0-1.22-.07-1.34-.21a3.49,3.49,0,0,1-.33-1.27A12.16,12.16,0,0,0,44.8,459.84Z"/><path class="cls-2" d="M70.23,437.34V444q0,5.58-.19,9a24.56,24.56,0,0,0,5.23-9.57,17.08,17.08,0,0,0,.54-3.21c2.53.56,3.87.87,4,.92.55.17.82.39.82.65a1.21,1.21,0,0,1-.28.68,4.89,4.89,0,0,0-.78,1.64c-.42,1.39-.64,2.11-.65,2.16a22.16,22.16,0,0,0,4.94,5.55,14.49,14.49,0,0,0-2,2.28c-.39.67-.68,1-.87,1s-.52-.27-1-.82a22.2,22.2,0,0,1-2.88-3.7,23.37,23.37,0,0,1-2.7,4.17c-.48.67-.82,1-1,1s-.32-.14-.61-.42A11.33,11.33,0,0,0,70,453.23c-.13,2-.35,4.19-.68,6.49a37.84,37.84,0,0,1-3.61,11.18q-.51,1-.75,1c-.19,0-.51-.26-1-.77a14.4,14.4,0,0,0-3.12-2.84,28.12,28.12,0,0,0,3.73-10.62A107.87,107.87,0,0,0,65.38,443l-.09-9.56c0-.32.18-.47.54-.47l6.42.09h9.56V432a19.81,19.81,0,0,0-.3-3.89c1.78,0,3.47.14,5.08.28.52.06.78.23.78.49a3.18,3.18,0,0,1-.29.92,4.73,4.73,0,0,0-.35,2.1v1.2h10.9L104,433a.41.41,0,0,1,.47.47v3.46c0,.35-.16.52-.47.52l-6.4-.09Zm6.1,33.42-6.57.09c-.25,0-.4,0-.47-.12a.94.94,0,0,1-.07-.44v-3.42a.68.68,0,0,1,.09-.44.77.77,0,0,1,.45-.08l6.57.1h7.59v-4.86H79.61l-6.54.1c-.28,0-.45,0-.49-.12s-.1-.21-.1-.45v-3.28c0-.25,0-.39.12-.44a.91.91,0,0,1,.47-.07l6.54.09h4.31v-13.5a36.54,36.54,0,0,0-.28-5.22,47.45,47.45,0,0,1,4.8.35c.52,0,.78.23.78.56a1.89,1.89,0,0,1-.31,1.05,11.14,11.14,0,0,0-.28,3.38v8.81A25.26,25.26,0,0,0,94,443.27a12.51,12.51,0,0,0,.59-3.07,27.9,27.9,0,0,1,4,1c.54.14.82.34.82.61a1,1,0,0,1-.33.68,4.11,4.11,0,0,0-.78,1.64l-.54,1.61a25.19,25.19,0,0,0,6.1,6.31,8.66,8.66,0,0,0-2.16,2.44c-.39.64-.68,1-.86,1s-.53-.25-1-.73A27.35,27.35,0,0,1,96,449.92a27.52,27.52,0,0,1-3.07,4.76c-.42.58-.72.87-.91.87s-.56-.28-1.1-.82a7.36,7.36,0,0,0-2.3-1.62v4.31h5.81l6.47-.09a.9.9,0,0,1,.52.09.87.87,0,0,1,.07.42v3.28c0,.25,0,.41-.1.47s-.22.1-.49.1l-6.47-.1H88.63v4.86h9l6.58-.1c.25,0,.4,0,.45.1a.76.76,0,0,1,.07.42v3.42a.41.41,0,0,1-.52.56l-6.58-.09Z"/><path class="cls-1" d="M118.33,431.92a116.69,116.69,0,0,0-2.07,12.56,93.66,93.66,0,0,0-.68,10.2,90.06,90.06,0,0,0,1.15,15.26l-5,.44a104.91,104.91,0,0,1-1.1-15.79,101.88,101.88,0,0,1,.94-12.5q.72-5.71,1.71-10.64Zm2.83,24,4.69.4a12.74,12.74,0,0,0-.56,3.63,3.51,3.51,0,0,0,1.57,3.26,8.63,8.63,0,0,0,4.29.82,93.59,93.59,0,0,0,10.12-.56l.14,5q-4.24.33-9.94.33-5.93,0-8.55-2.16c-1.56-1.29-2.34-3.25-2.34-5.86A20.73,20.73,0,0,1,121.16,455.92Zm1-14.39v-4.76q6.12-.42,12.57-.42,3.13,0,6.32.19v4.66q-2.43-.21-6.65-.21Q128.38,441,122.12,441.53Z"/><path class="cls-1" d="M152.4,428.24a27.86,27.86,0,0,1,4.36,1.53c.49.21.73.46.73.72a1.35,1.35,0,0,1-.49.87,5.64,5.64,0,0,0-.85,2,56.45,56.45,0,0,1-2.5,6.38v24.82l.09,7.29c0,.25,0,.41-.12.47a.94.94,0,0,1-.44.07h-3.82c-.25,0-.4,0-.45-.1a.94.94,0,0,1-.07-.44l.1-7.29V453.48c0-2.46,0-4.36,0-5.67q-1.72,2.4-2.69,3.54c-.39.45-.67.68-.85.68s-.35-.27-.49-.82a12.15,12.15,0,0,0-1.43-3.91,42.54,42.54,0,0,0,8.2-15.57A18.52,18.52,0,0,0,152.4,428.24Zm24.29,23.65a8.74,8.74,0,0,0,2.34.87l.77.23a4.08,4.08,0,0,1,.4-.33l1.71-1.45a.93.93,0,0,1,.49-.26,1.07,1.07,0,0,1,.47.21,6.29,6.29,0,0,0,.5.45l.46.37v-2.39H173.22c.72.57,1.39,1.14,2,1.74.17.17.26.29.26.35s-.13.21-.4.4l-1.83,1.26a1.29,1.29,0,0,1-.51.24q-.17,0-.42-.33a15.16,15.16,0,0,0-2-2c-.19-.2-.28-.33-.28-.39s.15-.24.44-.38l1.62-.87H160.3v3.12l.73-1c.14-.22.29-.33.44-.33a1.18,1.18,0,0,1,.57.23l1.92,1.15c.28.17.42.34.42.49a.85.85,0,0,1-.14.38,19.18,19.18,0,0,1-4.59,5,1,1,0,0,1-.43.21.94.94,0,0,1-.49-.31L157,456.93c-.26-.23-.4-.41-.4-.52s.1-.19.31-.35a24.84,24.84,0,0,0,2.88-2.67h-3.26c-.26,0-.42,0-.47-.12a.76.76,0,0,1-.07-.42l.1-3.12v-.82l-.1-1.82c0-.25,0-.4.1-.45a.82.82,0,0,1,.44-.07l4.46.09v-6.61l-.1-4.14c0-.25,0-.4.1-.45a.82.82,0,0,1,.44-.07l5.84.09h1.17q.29-.59.75-1.8H165l-6.52.05c-.36,0-.54-.16-.54-.47v-2.72c0-.25,0-.4.1-.45a.94.94,0,0,1,.44-.07l6.52.1h15.42L187,430a.7.7,0,0,1,.47.1.87.87,0,0,1,.07.42v2.72c0,.31-.18.47-.54.47l-6.61-.05h-6.54l-.73,1.8h3.19l5.79-.09a.92.92,0,0,1,.52.09,1,1,0,0,1,.07.43l-.1,4.14v6.61l5.09-.09c.33,0,.49.17.49.52l-.07,1.45v.82l.12,2.67a.8.8,0,0,1-.09.49c0,.07-.2.1-.45.1h-3.12a40.71,40.71,0,0,1,3,2.93.56.56,0,0,1,.19.35.88.88,0,0,1-.33.51l-1.87,1.71a1.7,1.7,0,0,1-.59.38c-.08,0-.2-.11-.37-.33a38.77,38.77,0,0,0-4.53-4.64q0,.09-.09.75a3.5,3.5,0,0,1-1.8,2.6,15.75,15.75,0,0,1-5.68.68h-1.64c-.43.52-.88,1-1.33,1.48h8a2.18,2.18,0,0,0,.87-.14,1.3,1.3,0,0,1,.56-.1c.27,0,.86.4,1.78,1.2s1.2,1.25,1.2,1.59-.2.47-.59.57a7.55,7.55,0,0,0-1.47,1.19,32.94,32.94,0,0,1-3.31,2.7,81.43,81.43,0,0,0,12.59,1.59,9.29,9.29,0,0,0-1.36,2.91,3.55,3.55,0,0,1-.4,1.12.79.79,0,0,1-.66.24c-.15,0-.44,0-.86-.07a49.44,49.44,0,0,1-14-3.14,52.76,52.76,0,0,1-13.5,3.3c-.48.05-.8.07-1,.07a.78.78,0,0,1-.66-.26,2.7,2.7,0,0,1-.28-.82,6.69,6.69,0,0,0-1.26-2.65,65.54,65.54,0,0,0,12.49-2,20.32,20.32,0,0,1-3.56-3.11,43.12,43.12,0,0,1-5.32,2.65,4,4,0,0,1-1.15.32c-.24,0-.51-.28-.82-.86a9.69,9.69,0,0,0-1.69-2.3q7.47-2.25,11.39-6.14a2.89,2.89,0,0,1-1.73-3V452.9a16.15,16.15,0,0,0-.19-2.49c1.58,0,2.85.13,3.82.24q.63.08.63.42a1,1,0,0,1-.19.54,2.8,2.8,0,0,0-.14,1.19v.29a1.06,1.06,0,0,0,.87,1.17,17.46,17.46,0,0,0,3.12.23c1.69,0,2.71-.15,3.07-.47a2,2,0,0,0,.61-.77A9.6,9.6,0,0,0,176.69,451.89Zm1.5-14h-12.9v1.55h12.9Zm-12.9,5.13h12.9v-1.52h-12.9Zm0,3.61h12.9v-1.59h-12.9ZM175.87,462h-8a18.7,18.7,0,0,0,4.27,2.64A17.62,17.62,0,0,0,175.87,462Z"/><path class="cls-1" d="M202.23,439.56a36.72,36.72,0,0,1,3.54,2.25c.45.36.68.68.68,1s-.18.39-.54.64a4.44,4.44,0,0,0-1.15,1.38,37.49,37.49,0,0,1-2.15,3.26v17.29l.09,6c0,.25,0,.4-.09.44a.81.81,0,0,1-.42.07h-4q-.37,0-.45-.09a.87.87,0,0,1-.07-.42l.1-6v-6.63c0-1.09,0-2.79.09-5.09A33.84,33.84,0,0,1,195,456.3a2.57,2.57,0,0,1-1,.63c-.25,0-.47-.34-.66-1a11.44,11.44,0,0,0-1.59-3.44A40.42,40.42,0,0,0,201,442.12,16.41,16.41,0,0,0,202.23,439.56Zm-.3-11a20.49,20.49,0,0,1,4,2.32q.63.47.63.84a.71.71,0,0,1-.49.64,4.73,4.73,0,0,0-1.43,1.19,43.32,43.32,0,0,1-8.29,8.21,2.89,2.89,0,0,1-1,.58c-.2,0-.51-.37-.92-1.1a11.29,11.29,0,0,0-2.32-2.88,32.55,32.55,0,0,0,8.42-7.43A10.59,10.59,0,0,0,201.93,428.57Zm11.22,27.59-6.51.09a.77.77,0,0,1-.47-.09.83.83,0,0,1-.07-.43v-3.46q0-.37.09-.45a.87.87,0,0,1,.45-.07l6.51.09h11.63a38.61,38.61,0,0,0-.28-3.93,45.91,45.91,0,0,1,4.87.49q.78.08.78.51a2.61,2.61,0,0,1-.24.82,6.42,6.42,0,0,0-.23,2.11l5.36-.09c.33,0,.5.17.5.52v3.46c0,.35-.17.52-.5.52l-.72,0c-1.45,0-3-.06-4.64-.07v4.66l0,5.88a4.78,4.78,0,0,1-1.64,4.08c-1,.74-3.36,1.1-7.14,1.1l-.57,0a1,1,0,0,1-.89-.31,4.09,4.09,0,0,1-.37-1.19,9.06,9.06,0,0,0-1.39-3.4c1.47.12,2.78.19,3.92.19.59,0,1.18,0,1.76-.05a1.29,1.29,0,0,0,1.38-1.43v-9.56Zm.36-9.12-6.59.09c-.23,0-.38,0-.42-.11a.89.89,0,0,1-.07-.45v-3.42c0-.31.16-.47.49-.47l6.59.09H218V438H215l-6.24.1q-.42,0-.51-.12a.91.91,0,0,1-.07-.47v-3.4c0-.26,0-.42.12-.47a1,1,0,0,1,.46-.07l6.24.1H218a37.79,37.79,0,0,0-.33-5.42c1.88.05,3.54.16,5,.33.52.06.78.23.78.49a8.67,8.67,0,0,1-.24,1,11.91,11.91,0,0,0-.3,3.31v.33h3.84l6.24-.1c.25,0,.4,0,.46.1a.82.82,0,0,1,.07.44v3.4c0,.28,0,.45-.11.52a.81.81,0,0,1-.42.07l-6.24-.1h-3.84v4.78h5.95l6.52-.09c.36,0,.54.16.54.47v3.42a.78.78,0,0,1-.1.49.82.82,0,0,1-.44.07l-6.52-.09Zm.65,10.52a29.9,29.9,0,0,1,4.83,5.91.8.8,0,0,1,.16.4c0,.14-.15.31-.46.51l-3,2.07a1.17,1.17,0,0,1-.58.23c-.11,0-.24-.11-.38-.33a28.23,28.23,0,0,0-4.57-6.3.63.63,0,0,1-.23-.43c0-.14.14-.28.44-.42l2.88-1.73a1.34,1.34,0,0,1,.47-.17A.8.8,0,0,1,214.16,457.56Z"/><path class="cls-1" d="M248.24,444.93l-6.09.09c-.28,0-.45,0-.5-.11a.79.79,0,0,1-.09-.47v-3c0-.25,0-.4.12-.44a.91.91,0,0,1,.47-.07l6.09.09h2.48a16.63,16.63,0,0,0-1.33-3.12,1,1,0,0,1-.14-.42c0-.19.22-.37.68-.54l2.53-.91a2.12,2.12,0,0,1,.56-.17c.14,0,.27.12.4.35a28.31,28.31,0,0,1,2.2,4.81h4.2v-6q-4.59.42-11.86.75l-.54,0a1.09,1.09,0,0,1-.82-.26,4.25,4.25,0,0,1-.52-1,9.79,9.79,0,0,0-1.68-2.72q9.51-.21,16.94-1,5.49-.59,9.63-1.45a31.6,31.6,0,0,0,4-1.1,24.32,24.32,0,0,1,3.84,2.65,1.24,1.24,0,0,1,.49.82c0,.37-.3.56-.91.56a13.41,13.41,0,0,0-2.56.45,102,102,0,0,1-11.29,1.78V441h4.54a40.63,40.63,0,0,0,2-4.62,10.83,10.83,0,0,0,.47-2.15c1.45.28,2.92.61,4.4,1,.43.11.64.32.64.64a.91.91,0,0,1-.5.72,2.35,2.35,0,0,0-.7,1c-.69,1.48-1.23,2.62-1.64,3.4h2.79l6.14-.09q.38,0,.45.09a.87.87,0,0,1,.07.42v3a.83.83,0,0,1-.1.51.76.76,0,0,1-.42.07l-6.14-.09h-8.11a36.74,36.74,0,0,0,7.88,4q3.21,1.17,8.34,2.46a13.84,13.84,0,0,0-1.83,2.91c-.44.86-.77,1.29-1,1.29a4.37,4.37,0,0,1-1.1-.28c-.7-.22-1.77-.6-3.21-1.13l-.05,4.43v4.71l.1,8.46q0,.38-.12.45a.81.81,0,0,1-.42.07h-3.82c-.28,0-.46,0-.52-.1a.87.87,0,0,1-.07-.42v-1.5H252.32v1.6c0,.25,0,.39-.1.44a.76.76,0,0,1-.42.07H248q-.37,0-.45-.09a.9.9,0,0,1-.07-.42l.07-8.51v-4.08c0-2.38,0-4.08-.09-5.11-1.19.45-2.24.83-3.16,1.13a6.86,6.86,0,0,1-1.06.23q-.42,0-1-1.2a10,10,0,0,0-1.88-2.64q10.22-2.45,15.7-6.73Zm2,8.11h24.51a33.33,33.33,0,0,1-10.26-6.59c0,.78.08,1.84.14,3.17,0,.95.07,1.53.07,1.73s0,.41-.12.47-.18.07-.42.07h-3.94c-.31,0-.47-.18-.47-.54,0-.2,0-.9.07-2.11s.11-2.05.12-2.79A32.44,32.44,0,0,1,250.21,453Zm2.11,3.61v3.23h7.55v-3.23Zm0,10h7.55v-3.35h-7.55Zm20.34-10h-8.13v3.23h8.13Zm-8.13,10h8.13v-3.35h-8.13Z"/><path class="cls-1" d="M295.63,451.7l-6,.1a.74.74,0,0,1-.4-.07.9.9,0,0,1-.07-.45v-3.75a1,1,0,0,1,.07-.47.74.74,0,0,1,.4-.07l6,.1h29.86l6-.1c.25,0,.4,0,.45.1a1.18,1.18,0,0,1,0,.44v3.75c0,.25,0,.4-.07.45a.78.78,0,0,1-.42.07l-6-.1H306.44q-.62,1.57-1.53,3.57h14.16l6.14-.1c.42,0,.63.2.63.61l-.58,4.85a33,33,0,0,1-1.69,7.39,5.43,5.43,0,0,1-2.77,3.18,9.67,9.67,0,0,1-4,.71c-1.83,0-3.23,0-4.19-.1-.77,0-1.23-.15-1.39-.33a3.72,3.72,0,0,1-.51-1.31,13.78,13.78,0,0,0-1.41-3.44,65.34,65.34,0,0,0,6.73.42,2.65,2.65,0,0,0,2.83-1.74,34,34,0,0,0,1.2-5.74H302.54c-.7,1.16-1.22,2-1.57,2.51a.7.7,0,0,1-.58.4,2.43,2.43,0,0,1-.47-.07l-3.84-.82q-.75-.15-.75-.42a.71.71,0,0,1,.16-.4,42.73,42.73,0,0,0,5.34-9.17Zm22-21.58,6.52-.1c.26,0,.42,0,.47.1a1.22,1.22,0,0,1,.07.49l-.1,3.87v5.08l.1,4c0,.31-.18.47-.54.47l-6.52-.1H303.27l-6.51.1c-.36,0-.54-.16-.54-.47l.09-4v-5.08l-.09-3.87a.92.92,0,0,1,.09-.52,1,1,0,0,1,.45-.07l6.51.1Zm2.06,9.58v-5.32H301.26v5.32Z"/><path class="cls-1" d="M351.22,439c2-.06,3.27-.09,3.85-.09a6,6,0,0,1,5,2.09q1.71,2.22,1.71,7.1,0,12.09-1.38,16.83a7.08,7.08,0,0,1-2.54,4,7.49,7.49,0,0,1-4.47,1.2,31.33,31.33,0,0,1-5.09-.4l-1-4.76a27.46,27.46,0,0,0,4.36.63,5.77,5.77,0,0,0,2.72-.46,2.93,2.93,0,0,0,1.12-1.64q1.41-4.11,1.41-14.79c0-2.35-.26-3.93-.77-4.74a2.06,2.06,0,0,0-1.88-.94c-1.19,0-2.55.06-4.08.17a146.49,146.49,0,0,1-9.21,26.93l-4.66-1.78a135.48,135.48,0,0,0,8.88-24.82c-2.65.25-5.48.54-8.46.86l-.19-4.47q6.63-.37,9.66-.57,1.14-5.1,1.83-9.6l4.94.63Q352,436,351.22,439Zm8.35-2,4.17-2.15a69.47,69.47,0,0,1,9.38,17l-4.67,2.46A55.13,55.13,0,0,0,359.57,437.05Zm3.61-8.29,3.11-.92a47.57,47.57,0,0,1,3.5,8l-3.21,1.1A41.28,41.28,0,0,0,363.18,428.76Zm5.65-1.39,3.09-1a47.5,47.5,0,0,1,3.4,7.62l-3.17,1.17A45.49,45.49,0,0,0,368.83,427.37Z"/><path class="cls-2" d="M109.3,509.54a86.3,86.3,0,0,0-11-9.35l3.61-3.31q5.79,4.38,9.7,8a66.68,66.68,0,0,0,4.5-15.61l5.49,1.15a82.79,82.79,0,0,1-6,18.28,84.51,84.51,0,0,1,8.58,10.62l-4.45,3.65a77.19,77.19,0,0,0-6.78-9.46,44,44,0,0,1-15.51,15L94,525A38.11,38.11,0,0,0,109.3,509.54Z"/><path class="cls-2" d="M124.47,505.23h27.16v5.22H124.47Z"/><path class="cls-2" d="M165.39,489.57q0,14.7-.42,20.23a34.7,34.7,0,0,1-1.36,7.71,23.38,23.38,0,0,1-6.78,10.38l-4.07-3a17.91,17.91,0,0,0,6.14-9.12A38.78,38.78,0,0,0,160,507.1q.22-5.09.22-17.53Zm11.23,30.73q6.42-4.53,10.54-15.17l3.66,4.31a47,47,0,0,1-7.67,11.61,42,42,0,0,1-9.09,7l-2.67-1.87V489.24h5.23Z"/><path class="cls-1" d="M204.08,489.52A119.37,119.37,0,0,0,202,502.08a93.66,93.66,0,0,0-.68,10.2,89,89,0,0,0,1.15,15.26l-5,.44a104.91,104.91,0,0,1-1.1-15.79,101.88,101.88,0,0,1,.94-12.5Q198,494,199,489.05Zm2.84,24,4.69.4a12.77,12.77,0,0,0-.57,3.63,3.52,3.52,0,0,0,1.58,3.26,8.61,8.61,0,0,0,4.28.82,93.78,93.78,0,0,0,10.13-.56l.14,5q-4.24.33-9.94.33-5.92,0-8.55-2.16a7.18,7.18,0,0,1-2.35-5.86A20.75,20.75,0,0,1,206.92,513.52Zm1-14.39v-4.76q6.12-.42,12.56-.42,3.15,0,6.33.19v4.66q-2.43-.21-6.65-.21Q214.14,498.59,207.88,499.13Z"/><path class="cls-1" d="M238.94,515.91a33.31,33.31,0,0,1-4.41,12.24c-.34.58-.59.86-.73.86s-.47-.24-.91-.72a12.6,12.6,0,0,0-3.21-2.77,25.9,25.9,0,0,0,4.43-11.34,100.22,100.22,0,0,0,1-15.73L235,488.28q0-.37.09-.45a1.17,1.17,0,0,1,.47-.07l6.59.1h22.38l6.56-.1a.75.75,0,0,1,.47.1.76.76,0,0,1,.07.42l-.09,3.75v4.73l.09,3.66q0,.38-.09.45a1,1,0,0,1-.45.07l-6.56-.1H240.08v1.1A84.51,84.51,0,0,1,238.94,515.91Zm27.7-19.29v-4.45H240.08v4.45Zm-19.92,33.29H243q-.37,0-.45-.12c-.05,0-.07-.19-.07-.42l.09-9.89v-5.09l-.09-7.45q0-.37.09-.45a.83.83,0,0,1,.43-.07l6.54.09h4.26a27.74,27.74,0,0,0-.28-4.85c1.58,0,3.2.08,4.85.24q.78.09.78.54a3.32,3.32,0,0,1-.31.86,12.61,12.61,0,0,0-.23,3.21h4.71l6.56-.09a.77.77,0,0,1,.47.09.83.83,0,0,1,.07.43l-.1,6.63v5.76l.1,9.8c0,.27,0,.43-.1.49a.82.82,0,0,1-.44.07H266q-.37,0-.45-.09a.91.91,0,0,1-.07-.47v-1.78H247.26v2a.71.71,0,0,1-.1.46A.8.8,0,0,1,246.72,529.91Zm.54-19.46v4.41h6.51v-4.41Zm0,13h6.51v-4.85h-6.51Zm18.23-13h-6.91v4.41h6.91Zm-6.91,13h6.91v-4.85h-6.91Z"/><path class="cls-1" d="M291.76,487.41l4.53,3.17a200.86,200.86,0,0,1-15.21,15.61,2.22,2.22,0,0,0-.92,1.64c0,.37.48.93,1.43,1.66a144.28,144.28,0,0,1,16.76,15.75L294,528.85A118,118,0,0,0,276.13,511a3.85,3.85,0,0,1-1.59-3.12,4.1,4.1,0,0,1,1.29-3q5.94-5.94,8.88-9.16Q288.22,491.94,291.76,487.41Z"/><path class="cls-3" d="M156.19,156.76q-5.19-7.22-5.2-19.29t5.2-19.29q5.19-7.22,15.66-7.21t15.67,7.21q5.19,7.21,5.2,19.29t-5.2,19.29q-5.21,7.2-15.67,7.21T156.19,156.76Zm6.19-33.13q-3,5.28-3,13.84t3,13.83q3,5.28,9.47,5.27t9.41-5.23q3-5.24,3-13.87t-3-13.87q-3-5.23-9.41-5.24A10.17,10.17,0,0,0,162.38,123.63Z"/><path class="cls-3" d="M224.19,132.2a10.26,10.26,0,0,0,2.2-6.08,6.83,6.83,0,0,0-2.35-5.23,8.39,8.39,0,0,0-5.93-2.16q-6.29,0-10.46,6.44l-7-4a25.75,25.75,0,0,1,7.43-7.61A19.33,19.33,0,0,1,218.59,111,16.93,16.93,0,0,1,229.83,115a13.73,13.73,0,0,1,4.83,11.09,15,15,0,0,1-2,7.54,50.76,50.76,0,0,1-7.54,9.22l-12,12.23h23.21v8.27h-35v-7.32l15.52-15.59A82.27,82.27,0,0,0,224.19,132.2Z"/><g class="cls-4"><path class="cls-5" d="M101.12,163.48H42.5c0-1.87,0-3.77.12-5.64l58.57,2.5C101.15,161.38,101.12,162.44,101.12,163.48Zm185-.75c0-1.06,0-2.12-.1-3.16l58.54-3.1c.1,1.86.16,3.75.18,5.63Zm-184.75-5.52-58.41-5c.17-1.87.37-3.77.61-5.62l58.14,7.53C101.59,155.13,101.48,156.17,101.39,157.21Zm184.42-.76c-.1-1-.23-2.07-.37-3.1l58.05-8.16c.26,1.87.49,3.76.67,5.64ZM102.2,151,44.44,141c.32-1.86.69-3.74,1.09-5.57L102.8,148C102.58,149,102.37,150,102.2,151Zm182.74-.74c-.19-1-.41-2.06-.64-3.07l57.14-13.12c.42,1.83.8,3.69,1.14,5.54Zm-181.4-5.38-56.68-15c.48-1.83,1-3.67,1.57-5.46l56,17.43C104.09,142.87,103.8,143.88,103.54,144.88Zm180-.72c-.28-1-.58-2-.9-3l55.8-18c.57,1.78,1.12,3.6,1.61,5.4ZM105.4,138.88,50.22,119.1c.63-1.76,1.31-3.53,2-5.27l54.29,22.11C106.13,136.91,105.75,137.9,105.4,138.88Zm176.21-.69c-.36-1-.74-2-1.15-2.92l54.07-22.64c.73,1.73,1.42,3.49,2.07,5.24ZM107.79,133,54.47,108.66c.77-1.69,1.6-3.4,2.44-5.06l52.25,26.58C108.69,131.12,108.22,132.08,107.79,133Zm171.39-.65c-.45-1-.92-1.92-1.41-2.85l52-27.07c.86,1.65,1.69,3.34,2.48,5Zm-168.51-5L59.55,98.67c.91-1.62,1.86-3.24,2.84-4.82l49.9,30.76C111.73,125.52,111.19,126.44,110.67,127.36Zm165.57-.63c-.53-.92-1.08-1.84-1.65-2.74L324.2,92.75c1,1.58,2,3.19,2.88,4.8ZM114,121.91,65.4,89.17c1-1.52,2.1-3,3.19-4.54l47.3,34.64C115.25,120.14,114.62,121,114,121.91Zm158.79-.61c-.61-.89-1.25-1.78-1.89-2.64l47-35.09c1.11,1.48,2.2,3,3.24,4.52Zm-155-4.6L72,80.22c1.13-1.43,2.32-2.86,3.52-4.25l44.44,38.23C119.21,115,118.51,115.86,117.85,116.7Zm151.09-.6c-.69-.84-1.39-1.68-2.11-2.5L310.91,75c1.21,1.38,2.41,2.8,3.57,4.23Zm-146.85-4.33L79.16,71.86c1.23-1.34,2.52-2.67,3.81-4l41.4,41.51C123.59,110.18,122.83,111,122.09,111.77Zm142.53-.59c-.74-.79-1.52-1.58-2.31-2.35l41-41.9c1.32,1.29,2.62,2.62,3.88,3.94Zm-137.88-4-39.82-43c1.33-1.23,2.7-2.45,4.09-3.64L129.2,105C128.36,105.66,127.53,106.4,126.74,107.14Zm133.17-.58c-.82-.73-1.65-1.47-2.49-2.17l37.74-44.86c1.4,1.18,2.79,2.4,4.15,3.63Zm-128.16-3.72L95.23,57c1.42-1.13,2.88-2.24,4.34-3.32l34.82,47.16C133.5,101.46,132.61,102.15,131.75,102.84Zm123.09-.54c-.88-.69-1.79-1.37-2.68-2l34.37-47.49c1.46,1.06,2.93,2.17,4.36,3.28ZM137.1,98.88,104,50.49c1.48-1,3-2,4.54-3L139.9,97C139,97.63,138,98.25,137.1,98.88Zm112.31-.51c-.91-.61-1.86-1.22-2.8-1.81l30.86-49.84c1.54,1,3.08,2,4.58,3ZM142.77,95.3,113.21,44.67c1.55-.9,3.14-1.79,4.74-2.65L145.7,93.65C144.71,94.18,143.72,94.74,142.77,95.3Zm100.94-.46c-1-.55-2-1.09-2.94-1.61L268,41.33c1.6.85,3.2,1.72,4.76,2.62Zm-95-2.73L122.77,39.53c1.61-.79,3.26-1.57,4.9-2.31l24.08,53.45C150.73,91.13,149.7,91.62,148.69,92.11Zm89.06-.4c-1-.48-2-.95-3.05-1.4l23.57-53.68c1.65.73,3.31,1.49,4.93,2.27Zm-82.89-2.37L132.64,35.09c1.66-.68,3.36-1.35,5-2l20.33,55C157,88.5,155.9,88.91,154.86,89.34ZM231.57,89c-1-.42-2.1-.82-3.17-1.2l19.83-55.17c1.7.61,3.4,1.25,5.06,1.91Zm-70.36-2L142.78,31.34c1.69-.56,3.42-1.1,5.14-1.61L164.46,86C163.37,86.29,162.28,86.63,161.21,87Zm64-.29c-1.07-.34-2.16-.67-3.25-1l16-56.39c1.73.49,3.46,1,5.16,1.56Zm-57.46-1.63L153.12,28.3c1.73-.45,3.49-.87,5.23-1.26l12.7,57.23C170,84.52,168.83,84.79,167.73,85.07Zm50.91-.23c-1.09-.27-2.21-.52-3.32-.76l12.19-57.34c1.75.37,3.52.78,5.25,1.21Zm-44.25-1.25L163.62,26c1.75-.33,3.53-.63,5.29-.9l8.86,58C176.64,83.19,175.51,83.38,174.39,83.59ZM212,83.43c-1.11-.2-2.24-.38-3.36-.55l8.33-58c1.77.25,3.56.54,5.31.85Zm-30.8-.87-6.93-58.21c1.76-.21,3.55-.4,5.33-.55l5,58.41C183.44,82.31,182.29,82.42,181.16,82.56Zm24-.11c-1.12-.12-2.27-.23-3.41-.32l4.49-58.45c1.78.14,3.58.31,5.34.5ZM188,82,184.9,23.43c1.77-.09,3.57-.16,5.35-.2l1.2,58.61C190.3,81.87,189.14,81.91,188,82Zm10.33,0c-1.14-.05-2.3-.09-3.45-.1l.7-58.62c1.78,0,3.57.07,5.34.15Z"/></g><g class="cls-6"><rect class="cls-7" x="16.65" y="557.61" width="353.96" height="6.97" rx="3.48" ry="3.48"/></g><path class="cls-7" d="M233,306.94a1.86,1.86,0,0,0-.9-1.34,1.61,1.61,0,0,0-.32-.25l-13.87-8.59v-5.19a3.72,3.72,0,0,0-3.71-3.71H203.54L198,284.45a7.26,7.26,0,0,0-8.81-.08l-6.15,3.49H172.31a3.71,3.71,0,0,0-3.7,3.71v4.51l-13.75,7.81-.07,0-.08.05-.11.07-.17.14-.13.14-.05.06-.09.13,0,.07a2.12,2.12,0,0,0-.11.21,1.06,1.06,0,0,0-.06.19,1,1,0,0,0-.07.29,1.18,1.18,0,0,0,0,.26v49.93a7.48,7.48,0,0,0,7.33,7.48h64.37a7.5,7.5,0,0,0,7.49-7.49V307.19a1.79,1.79,0,0,0,0-.24Zm-60.71-13v-2.4h41.91v26.37l-18.33,14.15-23.58-16.91V294Zm11.15,47.71-2.4,1.86-20.3,15.66a3.77,3.77,0,0,1-3.21-3.73V309.15l11.06,7.93,1.85,1.33,1.85,1.33,20.51,14.72-7,5.37-2.4,1.85Zm3.66,1.86h0l4.8-3.71h0l5.15-4,17.14-13.23,1.85-1.43,1.86-1.44,11.4-8.79v44.5a3.79,3.79,0,0,1-3.78,3.78H166.77ZM228,307.33l-10,7.75v-14Zm-36.81-19.8a1.43,1.43,0,0,0,.22-.15,3.58,3.58,0,0,1,4.43,0l.18.13.51.31h-5.92Zm-22.55,12.81v12.17l-9.47-6.79Z"/><polygon class="cls-7" points="176.01 306.05 177.5 303.77 177.54 303.77 179.03 306.05 180.3 306.05 178.22 302.94 180.16 300 178.89 300 177.54 302.04 177.5 302.04 176.15 300 174.88 300 176.81 302.94 174.74 306.05 176.01 306.05"/><polygon class="cls-7" points="181.83 306.05 183.32 303.77 183.37 303.77 184.85 306.05 186.13 306.05 184.05 302.94 185.98 300 184.71 300 183.37 302.04 183.32 302.04 181.97 300 180.71 300 182.64 302.94 180.56 306.05 181.83 306.05"/><polygon class="cls-7" points="187.66 306.05 189.15 303.77 189.19 303.77 190.68 306.05 191.95 306.05 189.87 302.94 191.8 300 190.54 300 189.19 302.04 189.15 302.04 187.79 300 186.53 300 188.46 302.94 186.38 306.05 187.66 306.05"/><polygon class="cls-7" points="195.85 306.05 197.34 303.77 197.39 303.77 198.87 306.05 200.15 306.05 198.07 302.94 200 300 198.73 300 197.39 302.04 197.34 302.04 195.99 300 194.73 300 196.66 302.94 194.58 306.05 195.85 306.05"/><polygon class="cls-7" points="201.68 306.05 203.17 303.77 203.21 303.77 204.7 306.05 205.97 306.05 203.9 302.94 205.82 300 204.56 300 203.21 302.04 203.17 302.04 201.81 300 200.55 300 202.48 302.94 200.41 306.05 201.68 306.05"/><polygon class="cls-7" points="207.5 306.05 208.99 303.77 209.03 303.77 210.52 306.05 211.8 306.05 209.72 302.94 211.65 300 210.38 300 209.03 302.04 208.99 302.04 207.64 300 206.38 300 208.31 302.94 206.23 306.05 207.5 306.05"/><path class="cls-7" d="M182,257.86c1.66,0,3.33,0,5.1,0h.09q-.48,2.88-1,5.77c-.38,2.3-.77,4.59-1.15,6.89-.61,3.77,1.46,5.3,2.77,5.89a5.2,5.2,0,0,0,2,.44c1.35,0,2.88-.64,4.29-2.66l5.52-7.9q5-7.18,10-14.37a5,5,0,0,0,.61-5.61h0a5.07,5.07,0,0,0-5-2.65c-1.74,0-3.46,0-5.27,0,.68-3.51,1.37-7.1,2-10.68.74-3.92-1.43-5.49-2.78-6.07-3.1-1.37-4.92.34-6.16,2L187.85,236q-5.07,6.71-10.17,13.4c-1.5,2-1.77,3.93-.78,5.79A5.2,5.2,0,0,0,182,257.86Zm-1.1-6q5.1-6.69,10.17-13.41l5.37-7.08a3.57,3.57,0,0,1,.8-.86,1.53,1.53,0,0,1,.48.16c.31.13.65.28.41,1.57-.83,4.4-1.69,8.82-2.52,13.08l-.48,2.42h4.77c1.89,0,3.68,0,5.51,0,1,0,1.19.26,1.32.51s.25.48-.35,1.34q-5,7.17-10.06,14.38l-5.51,7.89c-.75,1.07-1,1-1.34.82s-.58-.26-.37-1.49c.37-2.29.76-4.58,1.14-6.87s.72-4.3,1.07-6.43c.08-.4.11-.79.16-1.24,0-.18,0-.38.06-.59l.25-2.26h-6.9c-1,0-2,0-2.95,0-1.16,0-1.32-.28-1.46-.54S180.24,252.75,180.93,251.84Z"/><path class="cls-7" d="M222.57,240.08a2.35,2.35,0,0,0,1.48-.51L236,230.16a2.4,2.4,0,1,0-3-3.76l-11.9,9.41a2.39,2.39,0,0,0,1.49,4.27Z"/><path class="cls-7" d="M237.85,249.23H223a2.4,2.4,0,1,0,0,4.79h14.81a2.4,2.4,0,0,0,0-4.79Z"/><path class="cls-7" d="M236,273.09l-11.91-9.41a2.4,2.4,0,0,0-3,3.76l11.9,9.41a2.39,2.39,0,0,0,1.49.52,2.4,2.4,0,0,0,1.49-4.28Z"/><path class="cls-7" d="M151.31,230.16l11.9,9.41a2.4,2.4,0,0,0,3.36-.4,2.39,2.39,0,0,0-.39-3.36l-11.9-9.41a2.4,2.4,0,1,0-3,3.76Z"/><path class="cls-7" d="M166.62,251.62a2.39,2.39,0,0,0-2.4-2.39H149.41a2.4,2.4,0,0,0,0,4.79h14.81A2.39,2.39,0,0,0,166.62,251.62Z"/><path class="cls-7" d="M166.18,267.44a2.4,2.4,0,0,0-3-3.76l-11.9,9.41a2.4,2.4,0,0,0-.4,3.37,2.44,2.44,0,0,0,1.88.91,2.39,2.39,0,0,0,1.49-.52Z"/></svg>