<svg xmlns="http://www.w3.org/2000/svg" viewBox="0 0 418.53 157.53"><defs><style>.cls-1{fill:#f5f5f3;}.cls-2{fill:#004d6d;}.cls-3{fill:#1e4e87;}.cls-4{fill:#cdd2d4;}.cls-5{fill:#f5f5f4;}.cls-6{fill:#bbbfc0;}.cls-7{fill:#faf4f6;}.cls-8{fill:#e0e7e9;}.cls-9{fill:#e9ddea;}</style></defs><g id="Plane"><path class="cls-1" d="M25.85,30.56S34.64,54,37.21,67.75a10.08,10.08,0,0,1,.21,1C39.75,82.38,73.05,98.62,95.05,105s147.89,3,147.89,3H346.76c37.57,0,48.87-4.34,48.87-4.34s17.2-4.87,12-16.34a16.52,16.52,0,0,0-2.26-3.65,25.51,25.51,0,0,0-2.78-3,32.14,32.14,0,0,0-4.69-3.75c-12-8-28.12-9.32-28.12-9.32l-289.52.38L44.24,26h-16C24.53,26,25.85,30.56,25.85,30.56Z"/><rect class="cls-2" x="337.69" y="79.5" width="3.27" height="5.4" rx="0.47" transform="translate(678.65 164.4) rotate(180)"/><rect class="cls-2" x="330.78" y="79.5" width="3.27" height="5.4" rx="0.47" transform="translate(664.83 164.4) rotate(180)"/><rect class="cls-2" x="323.87" y="79.5" width="3.27" height="5.4" rx="0.47" transform="translate(651.01 164.4) rotate(180)"/><rect class="cls-2" x="316.96" y="79.5" width="3.27" height="5.4" rx="0.47" transform="translate(637.19 164.4) rotate(180)"/><rect class="cls-2" x="310.05" y="79.5" width="3.27" height="5.4" rx="0.47" transform="translate(623.37 164.4) rotate(180)"/><rect class="cls-2" x="303.14" y="79.5" width="3.27" height="5.4" rx="0.47" transform="translate(609.55 164.4) rotate(180)"/><rect class="cls-2" x="296.23" y="79.5" width="3.27" height="5.4" rx="0.47" transform="translate(595.73 164.4) rotate(180)"/><rect class="cls-2" x="289.32" y="79.5" width="3.27" height="5.4" rx="0.47" transform="translate(581.91 164.4) rotate(180)"/><rect class="cls-2" x="282.41" y="79.5" width="3.27" height="5.4" rx="0.47" transform="translate(568.09 164.4) rotate(180)"/><rect class="cls-2" x="275.5" y="79.5" width="3.27" height="5.4" rx="0.47" transform="translate(554.27 164.4) rotate(180)"/><rect class="cls-2" x="268.59" y="79.5" width="3.27" height="5.4" rx="0.47" transform="translate(540.44 164.4) rotate(180)"/><rect class="cls-2" x="261.68" y="79.5" width="3.27" height="5.4" rx="0.47" transform="translate(526.62 164.4) rotate(180)"/><rect class="cls-2" x="254.77" y="79.5" width="3.27" height="5.4" rx="0.47" transform="translate(512.8 164.4) rotate(180)"/><rect class="cls-2" x="247.86" y="79.5" width="3.27" height="5.4" rx="0.47" transform="translate(498.98 164.4) rotate(180)"/><rect class="cls-2" x="240.94" y="79.5" width="3.27" height="5.4" rx="0.47" transform="translate(485.16 164.4) rotate(180)"/><rect class="cls-2" x="234.03" y="79.5" width="3.27" height="5.4" rx="0.47" transform="translate(471.34 164.4) rotate(180)"/><rect class="cls-2" x="227.12" y="79.5" width="3.27" height="5.4" rx="0.47" transform="translate(457.52 164.4) rotate(180)"/><rect class="cls-2" x="220.21" y="79.5" width="3.27" height="5.4" rx="0.47" transform="translate(443.7 164.4) rotate(180)"/><rect class="cls-2" x="213.3" y="79.5" width="3.27" height="5.4" rx="0.47" transform="translate(429.88 164.4) rotate(180)"/><rect class="cls-2" x="206.39" y="79.5" width="3.27" height="5.4" rx="0.47" transform="translate(416.06 164.4) rotate(180)"/><rect class="cls-2" x="199.48" y="79.5" width="3.27" height="5.4" rx="0.47" transform="translate(402.24 164.4) rotate(180)"/><rect class="cls-2" x="192.57" y="79.5" width="3.27" height="5.4" rx="0.47" transform="translate(388.41 164.4) rotate(180)"/><rect class="cls-2" x="185.66" y="79.5" width="3.27" height="5.4" rx="0.47" transform="translate(374.59 164.4) rotate(180)"/><rect class="cls-2" x="178.75" y="79.5" width="3.27" height="5.4" rx="0.47" transform="translate(360.77 164.4) rotate(180)"/><rect class="cls-2" x="171.84" y="79.5" width="3.27" height="5.4" rx="0.47" transform="translate(346.95 164.4) rotate(180)"/><rect class="cls-2" x="164.93" y="79.5" width="3.27" height="5.4" rx="0.47" transform="translate(333.13 164.4) rotate(180)"/><rect class="cls-2" x="158.02" y="79.5" width="3.27" height="5.4" rx="0.47" transform="translate(319.31 164.4) rotate(180)"/><rect class="cls-2" x="151.11" y="79.5" width="3.27" height="5.4" rx="0.47" transform="translate(305.49 164.4) rotate(180)"/><rect class="cls-2" x="144.2" y="79.5" width="3.27" height="5.4" rx="0.47" transform="translate(291.67 164.4) rotate(180)"/><rect class="cls-2" x="137.29" y="79.5" width="3.27" height="5.4" rx="0.47" transform="translate(277.85 164.4) rotate(180)"/><rect class="cls-2" x="130.38" y="79.5" width="3.27" height="5.4" rx="0.47" transform="translate(264.03 164.4) rotate(180)"/><rect class="cls-2" x="123.47" y="79.5" width="3.27" height="5.4" rx="0.47" transform="translate(250.21 164.4) rotate(-180)"/><rect class="cls-2" x="116.56" y="79.5" width="3.27" height="5.4" rx="0.47" transform="translate(236.38 164.4) rotate(180)"/><rect class="cls-2" x="109.65" y="79.5" width="3.27" height="5.4" rx="0.47" transform="translate(222.56 164.4) rotate(180)"/><rect class="cls-2" x="102.74" y="79.5" width="3.27" height="5.4" rx="0.47" transform="translate(208.74 164.4) rotate(180)"/><path class="cls-3" d="M77.68,68.64,45.1,31.56s-1-2.17-7.1-2.17H27.43s-5.5-4.49,7.68,33.74l1.73,6.52Z"/><path class="cls-4" d="M37.21,67.75a10.08,10.08,0,0,1,.21,1C39.75,82.38,73.05,98.62,95.05,105s147.89,3,147.89,3H346.76c37.57,0,48.87-4.34,48.87-4.34s17.2-4.87,12-16.34c-1.25,2.09-4.27,4.73-11.22,6.85-14.18,4.35-60.55,10.25-133.09,6.57,0,0-6.08-6.29-3.37-12.86L127.79,100.35s-45.18,1.43-49.67-11.29,1.29-13.18,1.29-13.18H46.25l-7.09-6.95Z"/><path class="cls-5" d="M172.7,105.29s.21.1.59.24c3.75,1.64,25,10.67,36.63,11.33,9,.52,21.69-.62,28.43-1.35,2.82-.28,4.59-.52,4.59-.52l.07-4.59.14-7,.21-11.57H196l-14.74,8.51L173.22,105Z"/><path class="cls-5" d="M117.09,115.4v.52a2.62,2.62,0,0,0,.45.49c5.66,5.91,24.54,10,32.56,10,4.73,0,10.26-.49,14.08-.9,2.82-.32,4.73-.56,4.73-.56V105.43l-4.73.41-24.22,2-16.76,5.5a.31.31,0,0,0-.14,0l-5.07,1.7Z"/><path class="cls-6" d="M172.84,99.87l.38,5.11.07.55c3.75,1.64,25,10.67,36.63,11.33,9,.52,21.69-.62,28.43-1.35,2.82-.28,4.59-.52,4.59-.52l.07-4.59c-7.75-.18-22.56-.59-26.87-1.53-5.94-1.32-15.08-7.4-15.08-7.4l-19.78-1.12Z"/><path class="cls-6" d="M117.54,116.41c5.66,5.91,24.54,10,32.56,10,4.73,0,10.26-.49,14.08-.9,2.82-.32,4.73-.56,4.73-.56v-5.8c-3.3-.66-17.1-3.55-19.4-7-1.91-2.88-18-.34-26.31,1.19a.31.31,0,0,0-.14,0c-2.88.52-4.83.94-4.83.94l-.24.76Z"/><path class="cls-3" d="M238.35,91.84v23.67c2.82-.28,4.59-.52,4.59-.52l.21-11.58V91.84Z"/><path class="cls-3" d="M164.18,105.84v19.68c2.82-.32,4.73-.56,4.73-.56V105.43Z"/><path class="cls-7" d="M260.09,87.86l-184.28,41v2.61H46s-2.17-2.32.58-3.47,121-41.24,121-41.24Z"/><polygon class="cls-8" points="245.05 89.28 72.54 128.25 51.46 128.25 167.01 88.62 245.05 89.28"/><polygon class="cls-9" points="79.13 76.06 44.66 76.06 9.91 88.52 33.95 89.67 79.13 76.06"/><rect class="cls-9" x="346.65" y="76.86" width="9.34" height="16.08" transform="translate(702.64 169.79) rotate(-180)"/><path class="cls-2" d="M392.81,76.86l2.4,4.06,7.4-.31a32.14,32.14,0,0,0-4.69-3.75Z"/><polygon class="cls-2" points="390.86 77.73 393.68 81.2 388.11 81.2 384.99 78.02 390.86 77.73"/></g></svg>