<svg xmlns="http://www.w3.org/2000/svg" width="218.032" height="323.449" viewBox="0 0 218.032 323.449"><g transform="translate(-850.984 -1283.551)"><circle cx="109.016" cy="109.016" r="109.016" transform="translate(850.984 1283.551)" fill="#29abe2"/><path d="M991.961,1415.1c-3.029-1.821-5.938-3.849-9.025-5.561a3.863,3.863,0,0,1-2.24-4.016c.126-4.239-.5-4.826-4.886-4.732-4.121.087-8.144.189-11.6-2.736a5.941,5.941,0,0,0-7.81-.256c-3.737,2.749-7.849,3.215-12.291,3.014s-5.232.643-5.241,5.057a2.743,2.743,0,0,1-1.679,2.813c-2.917,1.523-5.7,3.313-8.626,4.809-1.61.822-2.025,1.909-2.016,3.631.068,12.86.036,25.72.037,38.58,0,6.479,2.172,8.67,8.653,8.679q12.417.019,24.835,0,12.418,0,24.836-.01a21.944,21.944,0,0,0,3.114-.239c3.535-.519,5.656-2.8,5.668-6.333.042-13.182.01-26.364.029-39.545A3.337,3.337,0,0,0,991.961,1415.1Zm-10.969-3.06c2.524,1.556,4.872,3.008,7.226,4.452,1.189.73.484,1.25-.188,1.77-2.271,1.756-4.546,3.507-7.038,5.429ZM959,1399.9a3.038,3.038,0,0,1,3.474.85h-3.01c-.5.044-1.225.339-1.428-.14C957.86,1400.2,958.595,1400.06,959,1399.9Zm-16.943,5.761c-.02-1.478.444-1.935,1.919-1.915,5.38.075,10.762.03,16.143.03,5.141,0,10.284.088,15.42-.047,1.877-.049,2.266.582,2.236,2.327-.1,6.022-.089,12.047,0,18.07a3.521,3.521,0,0,1-1.583,3.2q-6.456,4.837-12.8,9.823a1.87,1.87,0,0,1-2.7-.028c-5.652-4.1-11.36-8.127-17.078-12.135a2.955,2.955,0,0,1-1.562-2.7Q942.168,1413.973,942.054,1405.659Zm-9.714,9.349c1.821-1,3.623-2.04,5.417-3.089,1.043-.611,1.4-.309,1.389.851-.035,2.783-.011,5.567-.011,8.831-2.573-1.827-4.712-3.361-6.868-4.87C931.352,1416.09,931.311,1415.576,932.34,1415.008Zm1.587,44.87c-.715.543-1.354,1.588-2.483.927a3.318,3.318,0,0,1-1.884-2.891c-.012-12.914-.007-25.829-.007-39.2l29.929,21.419c-4,3.116-7.885,6.17-11.8,9.193Q940.827,1454.63,933.927,1459.878Zm56.454-2.89c0,3.047-.941,4.128-3.728,4.133q-24.228.042-48.455.013c-.066-.154-.133-.307-.2-.462l51.815-39.9c.867.353.56,1.009.561,1.5Q990.4,1439.629,990.381,1456.988Z" fill="#fff"/><path d="M950.489,1375.258c.8-.049,1.615.063,2.409-.022,1.669-.18,1.831.569,1.541,1.995-.591,2.906-.993,5.849-1.519,8.769-.389,2.16.268,3.886,2.235,4.839a3.9,3.9,0,0,0,5.13-1.339c1.129-1.459,2.15-3,3.206-4.517,3.491-5.009,7.049-9.973,10.435-15.051,2.131-3.194.222-6.6-3.616-6.739a26.107,26.107,0,0,0-2.893.007c-1.4.107-1.849-.333-1.52-1.8.582-2.579,1.031-5.192,1.435-7.806a4.1,4.1,0,0,0-4.2-4.929c-1.837.023-2.877,1.263-3.849,2.567-2.111,2.833-4.18,5.7-6.294,8.53-2.067,2.767-4.189,5.494-6.248,8.267-1.114,1.5-1.663,3.135-.677,4.934A4.321,4.321,0,0,0,950.489,1375.258Zm-.723-5.533q5.305-7,10.612-13.993c.727-.958,1.472-1.9,2.211-2.852.243-.312.493-.754.931-.609.555.183.533.693.44,1.208-.586,3.23-1.132,6.467-1.734,9.694-.643,3.451-.663,3.447,2.714,3.447h1.445c1.044,0,2.087-.006,3.131,0,.635.005,1.38-.123,1.726.559.36.709-.306,1.182-.651,1.678q-5.432,7.8-10.9,15.578a7.335,7.335,0,0,1-.835,1.173c-.7.663-.906,2.4-2.06,1.858-.88-.409-.266-1.924-.117-2.905.491-3.244,1.107-6.468,1.665-9.7.5-2.9.379-3.037-2.465-3.044-1.686,0-3.372.006-5.058,0-.628,0-1.407.148-1.676-.594C948.948,1370.666,949.425,1370.174,949.766,1369.725Z" fill="#fff"/><path d="M985.883,1380.095c-1.02-.783-1.984-.345-2.713.6a1.684,1.684,0,0,0,.359,2.551c3.368,2.733,6.719,5.493,10.2,8.077,1.407,1.045,3.131.089,3.216-1.752-.154-.308-.276-.954-.665-1.269Q991.128,1384.139,985.883,1380.095Z" fill="#fff"/><path d="M986.572,1359.364q4.522-3.561,9.044-7.12a2.9,2.9,0,0,0,1.312-2.043,2.018,2.018,0,0,0-3.418-1.459c-3.255,2.452-6.415,5.031-9.611,7.561-1.054.835-1.675,1.838-.682,3.063C984.274,1360.671,985.452,1360.246,986.572,1359.364Z" fill="#fff"/><path d="M937.164,1380.523a1.716,1.716,0,0,0-2.542-.436c-3.492,2.7-6.98,5.4-10.415,8.174a1.9,1.9,0,0,0-.421,2.422,1.831,1.831,0,0,0,1.863,1,1.491,1.491,0,0,0,.613-.123,114.628,114.628,0,0,0,10.948-8.63A1.647,1.647,0,0,0,937.164,1380.523Z" fill="#fff"/><path d="M924.578,1352.005q4.64,3.627,9.248,7.294c1.112.883,2.283,1.4,3.344.072s.331-2.352-.807-3.243c-2.965-2.321-5.9-4.674-8.866-7a2.915,2.915,0,0,0-1.907-.914,1.606,1.606,0,0,0-1.743,1.006A2.231,2.231,0,0,0,924.578,1352.005Z" fill="#fff"/><path d="M997.6,1367.985c-4.1-.017-8.2-.026-12.295,0-1.287.007-2.22.6-2.188,2s.965,1.931,2.262,1.935c2.009.007,4.018,0,6.027,0s4.018,0,6.027,0c1.349.005,2.137-.558,2.114-2A1.746,1.746,0,0,0,997.6,1367.985Z" fill="#fff"/><path d="M935.114,1371.905a1.873,1.873,0,0,0,2.1-1.857,1.808,1.808,0,0,0-1.908-2.033q-6.266-.087-12.534-.011a1.8,1.8,0,0,0-1.909,2.016c-.012,1.332.721,1.884,1.959,1.892,2.009.013,4.018,0,6.027,0C930.936,1371.913,933.025,1371.932,935.114,1371.905Z" fill="#fff"/><path d="M944.617,1409.662a.3.3,0,0,1-.066-.178.325.325,0,0,1,.156-.269.387.387,0,0,1,.209-.066.3.3,0,0,1,.246.126l1.05,1.445,1.014-1.453a.3.3,0,0,1,.246-.126.369.369,0,0,1,.208.067.341.341,0,0,1,.157.276.3.3,0,0,1-.067.178l-1.141,1.528,1.223,1.646a.328.328,0,0,1,.067.194.312.312,0,0,1-.142.261.4.4,0,0,1-.216.075.282.282,0,0,1-.239-.127l-1.11-1.572-1.118,1.572a.3.3,0,0,1-.238.127.423.423,0,0,1-.231-.075.359.359,0,0,1-.134-.253.3.3,0,0,1,.067-.179l1.244-1.669Z" fill="#fff"/><path d="M949.188,1409.662a.3.3,0,0,1-.067-.178.324.324,0,0,1,.157-.269.386.386,0,0,1,.209-.066.3.3,0,0,1,.246.126l1.05,1.445,1.014-1.453a.3.3,0,0,1,.246-.126.369.369,0,0,1,.208.067.343.343,0,0,1,.156.276.293.293,0,0,1-.067.178l-1.14,1.528,1.222,1.646a.321.321,0,0,1,.067.194.313.313,0,0,1-.141.261.4.4,0,0,1-.217.075.281.281,0,0,1-.238-.127l-1.11-1.572-1.118,1.572a.3.3,0,0,1-.239.127.422.422,0,0,1-.23-.075.355.355,0,0,1-.134-.253.293.293,0,0,1,.067-.179l1.244-1.669Z" fill="#fff"/><path d="M953.759,1409.662a.293.293,0,0,1-.067-.178.325.325,0,0,1,.156-.269.389.389,0,0,1,.209-.066.3.3,0,0,1,.246.126l1.05,1.445,1.014-1.453a.3.3,0,0,1,.246-.126.364.364,0,0,1,.208.067.341.341,0,0,1,.157.276.3.3,0,0,1-.067.178l-1.14,1.528,1.222,1.646a.328.328,0,0,1,.067.194.313.313,0,0,1-.141.261.4.4,0,0,1-.217.075.283.283,0,0,1-.239-.127l-1.11-1.572-1.117,1.572a.3.3,0,0,1-.239.127.423.423,0,0,1-.231-.075.359.359,0,0,1-.134-.253.3.3,0,0,1,.067-.179l1.244-1.669Z" fill="#fff"/><path d="M961.467,1409.662a.3.3,0,0,1-.066-.178.325.325,0,0,1,.156-.269.387.387,0,0,1,.209-.066.3.3,0,0,1,.246.126l1.05,1.445,1.014-1.453a.3.3,0,0,1,.246-.126.369.369,0,0,1,.208.067.341.341,0,0,1,.157.276.3.3,0,0,1-.067.178l-1.14,1.528,1.222,1.646a.328.328,0,0,1,.067.194.312.312,0,0,1-.142.261.4.4,0,0,1-.216.075.282.282,0,0,1-.239-.127l-1.11-1.572-1.118,1.572a.3.3,0,0,1-.238.127.423.423,0,0,1-.231-.075.359.359,0,0,1-.134-.253.3.3,0,0,1,.067-.179l1.244-1.669Z" fill="#fff"/><path d="M966.038,1409.662a.3.3,0,0,1-.067-.178.326.326,0,0,1,.157-.269.387.387,0,0,1,.209-.066.3.3,0,0,1,.246.126l1.05,1.445,1.014-1.453a.3.3,0,0,1,.246-.126.369.369,0,0,1,.208.067.343.343,0,0,1,.156.276.293.293,0,0,1-.067.178l-1.14,1.528,1.222,1.646a.321.321,0,0,1,.067.194.311.311,0,0,1-.141.261.4.4,0,0,1-.217.075.281.281,0,0,1-.238-.127l-1.11-1.572-1.118,1.572a.3.3,0,0,1-.238.127.423.423,0,0,1-.231-.075.355.355,0,0,1-.134-.253.294.294,0,0,1,.067-.179l1.244-1.669Z" fill="#fff"/><path d="M970.608,1409.662a.3.3,0,0,1-.067-.178.323.323,0,0,1,.156-.269.392.392,0,0,1,.21-.066.3.3,0,0,1,.246.126l1.049,1.445,1.014-1.453a.3.3,0,0,1,.245-.126.371.371,0,0,1,.21.067.343.343,0,0,1,.156.276.3.3,0,0,1-.067.178l-1.14,1.528,1.222,1.646a.328.328,0,0,1,.067.194.313.313,0,0,1-.141.261.4.4,0,0,1-.217.075.282.282,0,0,1-.239-.127l-1.11-1.572-1.117,1.572a.3.3,0,0,1-.239.127.423.423,0,0,1-.231-.075.358.358,0,0,1-.133-.253.3.3,0,0,1,.066-.179l1.245-1.669Z" fill="#fff"/><text transform="translate(960.239 1324.976)" fill="#fff" font-size="24" font-family="ArialRoundedMTBold, Arial Rounded MT Bold" letter-spacing="0.051em"><tspan x="-42.591" y="0">QUICK</tspan></text><text transform="translate(962.216 1545)" fill="#333" font-size="24" font-family="HiraMaruProN-W4, Hiragino Maru Gothic ProN" letter-spacing="0.021em"><tspan x="-48.756" y="0">素早く、</tspan></text><text transform="translate(960.467 1583)" fill="#333" font-size="18" font-family="HiraMaruProN-W4, Hiragino Maru Gothic ProN"><tspan x="-72" y="0">即座に優待番号が</tspan><tspan x="-80.46" y="21.6">指定のメールに届く</tspan></text></g></svg>