<svg xmlns="http://www.w3.org/2000/svg" width="31.764" height="31.395" viewBox="0 0 31.764 31.395"><g transform="translate(-791.061 -1382.647)"><path d="M822.824,1386.012a3.114,3.114,0,0,1-1.045,2.316l-10.176,9.994,10.176,10.04a3.116,3.116,0,0,1,1.045,2.18,3.283,3.283,0,0,1-1.045,2.5,3.18,3.18,0,0,1-4.634,0L806.969,1403l-10.221,10.04a3.23,3.23,0,0,1-2.362,1,3.112,3.112,0,0,1-2.317-1.045,3.325,3.325,0,0,1-1-2.362,3.2,3.2,0,0,1,1.045-2.271l10.176-10.04-10.176-9.994a3.131,3.131,0,0,1-1.045-2.044,3.2,3.2,0,0,1,.909-2.453,3.281,3.281,0,0,1,2.317-1.182,3.21,3.21,0,0,1,2.453,1l10.221,10.039,10.176-10.039a3.185,3.185,0,0,1,2.181-1,3.244,3.244,0,0,1,2.407,1A3.1,3.1,0,0,1,822.824,1386.012Z" fill="#0071bc"/></g></svg>